<?xml version="1.0" encoding="UTF-8" standalone="no"?>
<svg width="180px" height="80px" viewBox="0 0 180 80" version="1.1" xmlns="http://www.w3.org/2000/svg" xmlns:xlink="http://www.w3.org/1999/xlink">
    <!-- Generator: Sketch 40 (33762) - http://www.bohemiancoding.com/sketch -->
    <title>book_your_staff</title>
    <desc>Created with Sketch.</desc>
    <defs></defs>
    <g id="Page-1" stroke="none" stroke-width="1" fill="none" fill-rule="evenodd">
        <g id="book_your_staff">
            <g id="Page-1" transform="translate(23.000000, 29.000000)">
                <path d="M65.6282561,0.769812805 C66.2032561,0.447251829 66.6941098,-0.169821341 67.423378,0.0545689024 C67.4093537,0.335056707 67.2550854,0.615544512 66.9605732,0.671642073 C65.6843537,1.064325 64.5904512,1.96188598 63.8752073,3.0698128 C63.1599634,3.92530061 62.6971585,4.93505671 62.2203293,5.93078841 C61.1685,7.72591037 60.3971585,9.66127622 59.3313049,11.4423738 C58.8404512,12.2978616 58.2935,13.1253006 57.7605732,13.9527396 C56.498378,15.5374957 55.0398415,17.0661543 53.1325244,17.8795689 C52.0947195,18.314325 51.0008171,18.8332274 49.8508171,18.7350567 C49.8508171,18.2161543 50.4819146,18.2582274 50.8465488,18.1600567 C52.5014268,17.5990811 54.016061,16.6033494 55.095939,15.2149348 C55.9093537,14.1350567 56.7788659,13.1112762 57.4099634,11.919203 C57.9569146,10.9234713 58.6721585,9.9838372 58.9806951,8.87591037 C58.3776463,9.22652012 57.970939,9.80152012 57.4380122,10.2222518 C56.5685,10.8954226 55.6989878,11.6246909 54.6611829,12.0033494 C54.1703293,12.059447 53.5532561,12.1716421 53.2166707,11.7228616 C52.795939,11.414325 52.8800854,10.8533494 52.866061,10.4045689 C52.8800854,9.89969085 52.8520366,9.38078841 53.0764268,8.91798354 C53.8617927,6.80030061 55.670939,5.29969085 56.5264268,3.23810549 C56.6105732,2.87347134 56.5965488,2.4948128 56.5825244,2.13017866 C56.6105732,1.45700793 55.9093537,1.12042256 55.4185,0.811885976 C54.8855732,0.755788415 54.3526463,0.783837195 53.8197195,0.783837195 C53.1185,0.741764024 52.4874024,1.10639817 51.8142317,1.24664207 C50.2575244,1.90578841 48.7569146,2.83139817 47.8313049,4.27591037 C47.7191098,4.41615427 47.6770366,4.66859329 47.4666707,4.6545689 C47.3404512,4.31798354 47.6489878,4.05152012 47.7752073,3.75700793 C48.6587439,2.4948128 49.991061,1.61127622 51.4075244,0.994203049 C51.8703293,0.713715244 52.4172805,0.713715244 52.9221585,0.531398171 C53.5532561,0.250910366 54.2685,0.363105488 54.9556951,0.377129878 C55.348378,0.489325 55.7270366,0.699690854 56.1197195,0.839934756 C56.6105732,1.16249573 56.9050854,1.69542256 57.213622,2.17225183 C57.2977683,2.90152012 57.2837439,3.6448128 57.213622,4.36005671 C56.5544756,6.19725183 55.348378,7.76798354 54.4087439,9.45091037 C54.0861829,9.9698128 53.7776463,10.516764 53.6093537,11.1057884 C53.6514268,11.7228616 54.4508171,11.7649348 54.8715488,11.4984713 C55.095939,11.344203 55.3624024,11.3582274 55.6148415,11.2600567 C57.4941098,10.0539591 58.7703293,8.21676402 60.2428902,6.58993476 C61.1685,5.45395915 61.9117927,4.17773963 62.9916707,3.16798354 C63.8191098,2.31249573 64.6605732,1.47103232 65.6282561,0.769812805" id="Fill-1" fill="#FFFFFF"></path>
                <path d="M65.6282561,0.769812805 C66.2032561,0.447251829 66.6941098,-0.169821341 67.423378,0.0545689024 C67.4093537,0.335056707 67.2550854,0.615544512 66.9605732,0.671642073 C65.6843537,1.064325 64.5904512,1.96188598 63.8752073,3.0698128 C63.1599634,3.92530061 62.6971585,4.93505671 62.2203293,5.93078841 C61.1685,7.72591037 60.3971585,9.66127622 59.3313049,11.4423738 C58.8404512,12.2978616 58.2935,13.1253006 57.7605732,13.9527396 C56.498378,15.5374957 55.0398415,17.0661543 53.1325244,17.8795689 C52.0947195,18.314325 51.0008171,18.8332274 49.8508171,18.7350567 C49.8508171,18.2161543 50.4819146,18.2582274 50.8465488,18.1600567 C52.5014268,17.5990811 54.016061,16.6033494 55.095939,15.2149348 C55.9093537,14.1350567 56.7788659,13.1112762 57.4099634,11.919203 C57.9569146,10.9234713 58.6721585,9.9838372 58.9806951,8.87591037 C58.3776463,9.22652012 57.970939,9.80152012 57.4380122,10.2222518 C56.5685,10.8954226 55.6989878,11.6246909 54.6611829,12.0033494 C54.1703293,12.059447 53.5532561,12.1716421 53.2166707,11.7228616 C52.795939,11.414325 52.8800854,10.8533494 52.866061,10.4045689 C52.8800854,9.89969085 52.8520366,9.38078841 53.0764268,8.91798354 C53.8617927,6.80030061 55.670939,5.29969085 56.5264268,3.23810549 C56.6105732,2.87347134 56.5965488,2.4948128 56.5825244,2.13017866 C56.6105732,1.45700793 55.9093537,1.12042256 55.4185,0.811885976 C54.8855732,0.755788415 54.3526463,0.783837195 53.8197195,0.783837195 C53.1185,0.741764024 52.4874024,1.10639817 51.8142317,1.24664207 C50.2575244,1.90578841 48.7569146,2.83139817 47.8313049,4.27591037 C47.7191098,4.41615427 47.6770366,4.66859329 47.4666707,4.6545689 C47.3404512,4.31798354 47.6489878,4.05152012 47.7752073,3.75700793 C48.6587439,2.4948128 49.991061,1.61127622 51.4075244,0.994203049 C51.8703293,0.713715244 52.4172805,0.713715244 52.9221585,0.531398171 C53.5532561,0.250910366 54.2685,0.363105488 54.9556951,0.377129878 C55.348378,0.489325 55.7270366,0.699690854 56.1197195,0.839934756 C56.6105732,1.16249573 56.9050854,1.69542256 57.213622,2.17225183 C57.2977683,2.90152012 57.2837439,3.6448128 57.213622,4.36005671 C56.5544756,6.19725183 55.348378,7.76798354 54.4087439,9.45091037 C54.0861829,9.9698128 53.7776463,10.516764 53.6093537,11.1057884 C53.6514268,11.7228616 54.4508171,11.7649348 54.8715488,11.4984713 C55.095939,11.344203 55.3624024,11.3582274 55.6148415,11.2600567 C57.4941098,10.0539591 58.7703293,8.21676402 60.2428902,6.58993476 C61.1685,5.45395915 61.9117927,4.17773963 62.9916707,3.16798354 C63.8191098,2.31249573 64.6605732,1.47103232 65.6282561,0.769812805 L65.6282561,0.769812805 Z" id="Stroke-3" stroke="#FFFFFF" stroke-width="0.094"></path>
                <path d="M108.206305,3.13993476 C107.96789,3.44847134 108.332524,3.71493476 108.472768,3.96737378 C108.655085,4.19176402 108.556915,4.50030061 108.570939,4.76676402 C108.150207,4.54237378 108.178256,3.85517866 107.645329,3.82712988 C106.986183,4.68261768 106.495329,5.664325 106.074598,6.64603232 L106.074598,6.82834939 C106.46728,6.94054451 106.733744,6.56188598 107.112402,6.56188598 C108.346549,6.18322744 109.426427,5.41188598 110.366061,4.54237378 C110.800817,4.14969085 111.039232,3.60273963 111.389841,3.15395915 C111.614232,2.63505671 111.922768,1.90578841 111.445939,1.42895915 C111.207524,1.064325 110.702646,1.13444695 110.352037,1.23261768 C109.538622,1.73749573 108.725207,2.32652012 108.206305,3.13993476 M99.2727683,1.72347134 C98.6556951,2.22834939 98.2770366,3.01371524 98.3191098,3.81310549 C98.2489878,4.93505671 99.1745976,5.8045689 100.04411,6.3795689 C101.250207,7.1088372 102.708744,7.37530061 104.097159,7.2490811 C104.363622,6.94054451 104.531915,6.57591037 104.728256,6.22530061 C105.31728,5.15944695 106.074598,4.20578841 106.902037,3.30822744 C107.04228,3.18200793 107.112402,3.01371524 107.098378,2.81737378 C106.313012,1.90578841 105.233134,1.23261768 104.055085,0.980178659 C103.255695,0.657617683 102.372159,0.811885976 101.530695,0.783837195 C100.731305,0.952129878 99.9319146,1.21859329 99.2727683,1.72347134 M100.71728,0.601520122 C101.54472,0.236885976 102.456305,0.363105488 103.325817,0.377129878 C104.027037,0.629568902 104.784354,0.685666463 105.4435,1.03627622 C106.102646,1.3448128 106.677646,1.82164207 107.182524,2.3545689 C107.322768,2.53688598 107.603256,2.57895915 107.785573,2.41066646 C108.570939,1.80761768 109.356305,1.19054451 110.281915,0.811885976 C110.758744,0.755788415 111.361793,0.643593293 111.712402,1.03627622 C111.936793,1.28871524 111.950817,1.639325 112.048988,1.96188598 C111.7685,2.27042256 111.810573,2.67712988 111.782524,3.0698128 C111.221549,4.14969085 110.352037,5.04725183 109.34228,5.73444695 C108.641061,6.26737378 107.86972,6.71615427 107.04228,6.99664207 C106.635573,7.19298354 106.172768,7.30517866 105.79411,7.54359329 C105.415451,7.95030061 105.289232,8.52530061 105.050817,9.00212988 C104.602037,10.1381055 103.886793,11.1338372 103.26972,12.1856665 C102.11972,13.8124957 100.520939,15.1588372 98.6416707,15.8600567 C98.0526463,16.1265201 97.4075244,16.1826177 96.8044756,16.3649348 C96.0331341,16.4350567 95.2617927,16.3789591 94.4904512,16.3929835 C93.9855732,16.4210323 93.5508171,16.1405445 93.0599634,16.0704226 C92.8495976,16.0283494 92.3587439,16.0003006 92.5691098,15.6496909 C93.3404512,15.5935933 93.9995976,16.1405445 94.770939,16.0563982 C95.9489878,16.1265201 97.1270366,15.8600567 98.220939,15.4533494 C99.9319146,14.6960323 101.180085,13.2374957 102.091671,11.6527396 C102.750817,10.5448128 103.325817,9.38078841 103.816671,8.17469085 C103.788622,8.13261768 103.704476,8.03444695 103.662402,7.99237378 C103.129476,7.99237378 102.596549,8.02042256 102.063622,8.00639817 C100.464841,7.85212988 98.7819146,7.08078841 98.0245976,5.58017866 C97.5898415,4.87895915 97.7441098,4.02347134 97.7721585,3.25212988 C98.1227683,1.90578841 99.3569146,0.853959146 100.71728,0.601520122" id="Fill-5" fill="#FFFFFF"></path>
                <path d="M108.206305,3.13993476 C107.96789,3.44847134 108.332524,3.71493476 108.472768,3.96737378 C108.655085,4.19176402 108.556915,4.50030061 108.570939,4.76676402 C108.150207,4.54237378 108.178256,3.85517866 107.645329,3.82712988 C106.986183,4.68261768 106.495329,5.664325 106.074598,6.64603232 L106.074598,6.82834939 C106.46728,6.94054451 106.733744,6.56188598 107.112402,6.56188598 C108.346549,6.18322744 109.426427,5.41188598 110.366061,4.54237378 C110.800817,4.14969085 111.039232,3.60273963 111.389841,3.15395915 C111.614232,2.63505671 111.922768,1.90578841 111.445939,1.42895915 C111.207524,1.064325 110.702646,1.13444695 110.352037,1.23261768 C109.538622,1.73749573 108.725207,2.32652012 108.206305,3.13993476 L108.206305,3.13993476 Z M99.2727683,1.72347134 C98.6556951,2.22834939 98.2770366,3.01371524 98.3191098,3.81310549 C98.2489878,4.93505671 99.1745976,5.8045689 100.04411,6.3795689 C101.250207,7.1088372 102.708744,7.37530061 104.097159,7.2490811 C104.363622,6.94054451 104.531915,6.57591037 104.728256,6.22530061 C105.31728,5.15944695 106.074598,4.20578841 106.902037,3.30822744 C107.04228,3.18200793 107.112402,3.01371524 107.098378,2.81737378 C106.313012,1.90578841 105.233134,1.23261768 104.055085,0.980178659 C103.255695,0.657617683 102.372159,0.811885976 101.530695,0.783837195 C100.731305,0.952129878 99.9319146,1.21859329 99.2727683,1.72347134 L99.2727683,1.72347134 Z M100.71728,0.601520122 C101.54472,0.236885976 102.456305,0.363105488 103.325817,0.377129878 C104.027037,0.629568902 104.784354,0.685666463 105.4435,1.03627622 C106.102646,1.3448128 106.677646,1.82164207 107.182524,2.3545689 C107.322768,2.53688598 107.603256,2.57895915 107.785573,2.41066646 C108.570939,1.80761768 109.356305,1.19054451 110.281915,0.811885976 C110.758744,0.755788415 111.361793,0.643593293 111.712402,1.03627622 C111.936793,1.28871524 111.950817,1.639325 112.048988,1.96188598 C111.7685,2.27042256 111.810573,2.67712988 111.782524,3.0698128 C111.221549,4.14969085 110.352037,5.04725183 109.34228,5.73444695 C108.641061,6.26737378 107.86972,6.71615427 107.04228,6.99664207 C106.635573,7.19298354 106.172768,7.30517866 105.79411,7.54359329 C105.415451,7.95030061 105.289232,8.52530061 105.050817,9.00212988 C104.602037,10.1381055 103.886793,11.1338372 103.26972,12.1856665 C102.11972,13.8124957 100.520939,15.1588372 98.6416707,15.8600567 C98.0526463,16.1265201 97.4075244,16.1826177 96.8044756,16.3649348 C96.0331341,16.4350567 95.2617927,16.3789591 94.4904512,16.3929835 C93.9855732,16.4210323 93.5508171,16.1405445 93.0599634,16.0704226 C92.8495976,16.0283494 92.3587439,16.0003006 92.5691098,15.6496909 C93.3404512,15.5935933 93.9995976,16.1405445 94.770939,16.0563982 C95.9489878,16.1265201 97.1270366,15.8600567 98.220939,15.4533494 C99.9319146,14.6960323 101.180085,13.2374957 102.091671,11.6527396 C102.750817,10.5448128 103.325817,9.38078841 103.816671,8.17469085 C103.788622,8.13261768 103.704476,8.03444695 103.662402,7.99237378 C103.129476,7.99237378 102.596549,8.02042256 102.063622,8.00639817 C100.464841,7.85212988 98.7819146,7.08078841 98.0245976,5.58017866 C97.5898415,4.87895915 97.7441098,4.02347134 97.7721585,3.25212988 C98.1227683,1.90578841 99.3569146,0.853959146 100.71728,0.601520122 L100.71728,0.601520122 Z" id="Stroke-7" stroke="#FFFFFF" stroke-width="0.094"></path>
                <path d="M52.8800854,5.13139817 C53.6935,4.24786159 53.8477683,2.98566646 54.520939,2.03200793 C54.5770366,2.13017866 54.6752073,2.32652012 54.7172805,2.41066646 C54.4928902,3.78505671 54.0300854,5.14542256 53.1745976,6.26737378 C52.5014268,7.12286159 51.4916707,7.6838372 50.4538659,7.964325 C49.8087439,8.03444695 49.1355732,8.03444695 48.4904512,7.95030061 C47.9435,7.6698128 47.2843537,7.34725183 47.0599634,6.71615427 C47.0038659,6.14115427 47.0739878,5.56615427 47.045939,4.99115427 L47.3124024,4.99115427 C47.3124024,5.55212988 47.2563049,6.18322744 47.5928902,6.6740811 C47.8874024,6.94054451 48.2099634,7.26310549 48.6306951,7.26310549 C50.3276463,7.45944695 51.8142317,6.32347134 52.8800854,5.13139817" id="Fill-9" fill="#FFFFFF"></path>
                <path d="M52.8800854,5.13139817 C53.6935,4.24786159 53.8477683,2.98566646 54.520939,2.03200793 C54.5770366,2.13017866 54.6752073,2.32652012 54.7172805,2.41066646 C54.4928902,3.78505671 54.0300854,5.14542256 53.1745976,6.26737378 C52.5014268,7.12286159 51.4916707,7.6838372 50.4538659,7.964325 C49.8087439,8.03444695 49.1355732,8.03444695 48.4904512,7.95030061 C47.9435,7.6698128 47.2843537,7.34725183 47.0599634,6.71615427 C47.0038659,6.14115427 47.0739878,5.56615427 47.045939,4.99115427 L47.3124024,4.99115427 C47.3124024,5.55212988 47.2563049,6.18322744 47.5928902,6.6740811 C47.8874024,6.94054451 48.2099634,7.26310549 48.6306951,7.26310549 C50.3276463,7.45944695 51.8142317,6.32347134 52.8800854,5.13139817 L52.8800854,5.13139817 Z" id="Stroke-11" stroke="#FFFFFF" stroke-width="0.094"></path>
                <path d="M114.447159,10.6850567 C113.072768,11.3582274 112.175207,12.7185933 111.586183,14.0789591 C111.375817,14.6679835 111.165451,15.4112762 111.558134,15.9582274 C111.796549,15.9862762 112.063012,16.0423738 112.273378,15.9021299 C113.156915,15.3972518 113.900207,14.6539591 114.461183,13.7984713 C115.008134,13.0551787 115.639232,12.2137152 115.498988,11.2320079 C115.56911,10.6850567 114.86789,10.4466421 114.447159,10.6850567 M131.430695,3.72895915 C130.112402,5.21554451 129.214841,7.02469085 128.345329,8.79176402 C128.163012,9.12834939 127.896549,9.42286159 127.896549,9.81554451 C127.980695,9.81554451 128.148988,9.78749573 128.233134,9.77347134 C130.04228,8.38505671 131.739232,6.78627622 132.91728,4.82286159 C133.225817,4.34603232 133.408134,3.77103232 133.253866,3.19603232 C132.664841,2.59298354 131.8935,3.30822744 131.430695,3.72895915 M126.956915,3.19603232 C126.311793,3.61676402 125.877037,4.27591037 125.414232,4.87895915 C124.684963,5.97286159 124.053866,7.12286159 123.49289,8.31493476 C123.2685,8.8198128 122.833744,9.24054451 122.833744,9.8295689 C123.254476,9.80152012 123.534963,9.42286159 123.871549,9.21249573 C125.386183,7.92225183 126.858744,6.5198128 127.840451,4.78078841 C128.106915,4.27591037 128.471549,3.58871524 128.050817,3.0698128 C127.700207,2.97164207 127.251427,2.9295689 126.956915,3.19603232 M127.237402,2.60700793 C127.770329,2.36859329 128.499598,2.60700793 128.66789,3.19603232 C128.948378,3.82712988 128.639841,4.52834939 128.331305,5.089325 C127.489841,6.44969085 126.353866,7.62773963 125.091671,8.60944695 C124.19411,9.56310549 123.030085,10.194203 122.104476,11.1198128 C121.41728,12.3679835 120.828256,13.6722518 120.16911,14.934447 C120.014841,15.2710323 119.734354,15.5795689 119.776427,15.9722518 C120.028866,16.0003006 120.309354,16.014325 120.51972,15.8460323 C121.473378,15.3411543 122.216671,14.541764 122.959963,13.7704226 C123.212402,13.5039591 123.548988,13.3496909 123.801427,13.069203 C124.502646,12.1856665 125.316061,11.4003006 126.101427,10.6009104 C127.111183,9.74542256 127.51789,8.44115427 128.163012,7.31920305 C128.976427,5.97286159 129.761793,4.58444695 130.939841,3.51859329 C131.3185,3.0698128 131.865451,2.83139817 132.398378,2.59298354 C132.833134,2.38261768 133.366061,2.57895915 133.632524,2.95761768 C133.913012,3.26615427 133.856915,3.71493476 133.828866,4.09359329 C133.646549,4.96310549 133.057524,5.67834939 132.510573,6.35152012 C130.981915,8.06249573 129.186793,9.50700793 127.391671,10.909447 C126.956915,11.3021299 126.774598,11.8771299 126.522159,12.3960323 C126.045329,13.3496909 125.610573,14.3173738 125.105695,15.2570079 C124.979476,15.4673738 124.937402,15.7198128 124.881305,15.944203 C125.302037,16.0984713 125.666671,15.7759104 126.031305,15.6076177 C126.872768,15.0606665 127.559963,14.3173738 128.233134,13.5740811 C128.359354,13.3777396 128.527646,13.5600567 128.625817,13.6722518 C127.700207,14.6399348 126.788622,15.6777396 125.596549,16.3088372 C125.063622,16.4911543 124.362402,16.519203 124.081915,17.1082274 C123.366671,18.8612762 122.413012,20.5021299 121.613622,22.2131055 C121.347159,22.8582274 120.547768,22.984447 119.94472,22.9563982 C119.8185,22.591764 120.113012,22.3112762 120.253256,22.016764 C120.74411,20.9789591 121.361183,20.0112762 121.838012,18.959447 C122.24472,18.244203 122.665451,17.5289591 123.002037,16.7856665 C123.226427,16.3228616 122.637402,15.8320079 123.072159,15.4253006 C123.366671,15.3411543 123.675207,15.2710323 123.96972,15.2009104 C124.376427,14.5978616 124.614841,13.9106665 124.9935,13.2935933 C125.231915,12.8307884 125.5685,12.3679835 125.596549,11.8350567 C125.470329,11.8490811 125.358134,11.9051787 125.259963,12.0033494 C124.811183,12.4381055 124.404476,12.9149348 123.983744,13.3777396 C123.647159,13.7563982 123.198378,13.9948128 122.847768,14.359447 C122.1185,15.0746909 121.389232,15.8179835 120.491671,16.3228616 C119.986793,16.5612762 119.2435,16.4911543 119.01911,17.094203 C118.303866,18.6509104 117.5185,20.1655445 116.761183,21.7082274 C116.59289,22.016764 116.49472,22.3673738 116.24228,22.6338372 C115.863622,22.8582274 115.400817,22.9704226 114.938012,22.9704226 C114.713622,22.6899348 114.980085,22.339325 115.120329,22.0728616 C116.045939,20.291764 117.013622,18.5387152 117.939232,16.7435933 C118.163622,16.3789591 117.630695,15.9722518 117.883134,15.6076177 C118.0935,15.2570079 118.556305,15.3131055 118.906915,15.186886 C119.257524,14.5978616 119.509963,13.9527396 119.860573,13.3637152 C120.127037,12.8728616 120.435573,12.3820079 120.561793,11.8210323 C120.127037,11.8631055 119.902646,12.2698128 119.636183,12.5503006 C119.36972,12.886886 119.01911,13.1533494 118.850817,13.5600567 C118.640451,14.0649348 118.163622,14.3874957 117.798988,14.7801787 C117.16789,15.3832274 116.508744,15.9582274 115.723378,16.336886 C115.400817,16.4350567 115.064232,16.4210323 114.741671,16.3649348 C114.29289,16.1405445 114.180695,15.5795689 114.166671,15.116764 C114.096549,15.0746909 113.94228,15.0045689 113.858134,14.9624957 C113.241061,15.6637152 112.483744,16.5332274 111.459963,16.4070079 C111.081305,16.4490811 110.828866,16.1265201 110.6185,15.8740811 C110.352037,15.6076177 110.422159,15.2289591 110.352037,14.8923738 C110.253866,14.4856665 110.295939,14.0649348 110.281915,13.644203 C109.973378,13.7423738 109.805085,14.0649348 109.580695,14.2612762 C108.753256,15.0606665 108.023988,16.0423738 106.930085,16.4631055 C106.116671,16.6454226 105.457524,15.7899348 105.485573,15.0326177 C105.499598,14.1771299 106.186793,13.5320079 106.256915,12.6905445 C106.074598,12.7185933 105.89228,12.7606665 105.709963,12.7606665 C105.962402,12.2557884 106.46728,11.9332274 106.803866,11.4704226 C107.645329,10.6429835 108.304476,9.64725183 109.005695,8.69359329 C108.991671,8.63749573 108.963622,8.52530061 108.949598,8.45517866 C108.711183,8.34298354 108.136183,8.539325 108.262402,8.1045689 C108.66911,7.964325 109.230085,8.17469085 109.538622,7.78200793 C109.959354,7.22103232 110.225817,6.5338372 110.730695,6.02895915 C111.053256,5.69237378 111.54411,5.86066646 111.950817,5.86066646 C111.99289,6.61798354 111.06728,7.06676402 111.06728,7.83810549 C111.081305,8.02042256 111.31972,8.04847134 111.459963,8.04847134 C112.020939,8.07652012 112.595939,7.964325 113.14289,8.11859329 C113.100817,8.18871524 113.030695,8.31493476 113.002646,8.37103232 C112.189232,8.45517866 111.375817,8.37103232 110.576427,8.41310549 C109.398378,10.2082274 108.234354,12.0313982 107.084354,13.8685933 C106.845939,14.359447 106.537402,14.8082274 106.355085,15.3411543 C106.256915,15.5655445 106.383134,15.7899348 106.523378,15.9722518 C107.084354,16.0563982 107.533134,15.6076177 107.939841,15.2850567 C108.655085,14.541764 109.412402,13.8685933 110.071549,13.0832274 C111.179476,11.7789591 112.581915,10.6289591 114.264841,10.2082274 C114.727646,10.2082274 115.274598,10.0820079 115.653256,10.4185933 C115.891671,10.6149348 115.877646,10.9515201 115.933744,11.2320079 C116.340451,11.1899348 116.480695,10.7551787 116.733134,10.5027396 C117.097768,10.2923738 117.5185,10.3484713 117.925207,10.3484713 C118.135573,10.7271299 117.813012,11.0777396 117.616671,11.3722518 C116.873378,12.3679835 116.200207,13.4057884 115.527037,14.4435933 C115.260573,14.8923738 114.980085,15.369203 115.064232,15.9161543 C115.274598,15.944203 115.513012,16.0423738 115.723378,15.9161543 C116.634963,15.3131055 117.308134,14.4155445 118.163622,13.7423738 C118.991061,12.5783494 120.056915,11.6106665 121.052646,10.6009104 C121.964232,9.80152012 122.314841,8.59542256 122.945939,7.59969085 C123.408744,6.85639817 123.815451,6.05700793 124.334354,5.35578841 C125.091671,4.26188598 125.961183,3.12591037 127.237402,2.60700793" id="Fill-13" fill="#FFFFFF"></path>
                <path d="M114.447159,10.6850567 C113.072768,11.3582274 112.175207,12.7185933 111.586183,14.0789591 C111.375817,14.6679835 111.165451,15.4112762 111.558134,15.9582274 C111.796549,15.9862762 112.063012,16.0423738 112.273378,15.9021299 C113.156915,15.3972518 113.900207,14.6539591 114.461183,13.7984713 C115.008134,13.0551787 115.639232,12.2137152 115.498988,11.2320079 C115.56911,10.6850567 114.86789,10.4466421 114.447159,10.6850567 L114.447159,10.6850567 Z M131.430695,3.72895915 C130.112402,5.21554451 129.214841,7.02469085 128.345329,8.79176402 C128.163012,9.12834939 127.896549,9.42286159 127.896549,9.81554451 C127.980695,9.81554451 128.148988,9.78749573 128.233134,9.77347134 C130.04228,8.38505671 131.739232,6.78627622 132.91728,4.82286159 C133.225817,4.34603232 133.408134,3.77103232 133.253866,3.19603232 C132.664841,2.59298354 131.8935,3.30822744 131.430695,3.72895915 L131.430695,3.72895915 Z M126.956915,3.19603232 C126.311793,3.61676402 125.877037,4.27591037 125.414232,4.87895915 C124.684963,5.97286159 124.053866,7.12286159 123.49289,8.31493476 C123.2685,8.8198128 122.833744,9.24054451 122.833744,9.8295689 C123.254476,9.80152012 123.534963,9.42286159 123.871549,9.21249573 C125.386183,7.92225183 126.858744,6.5198128 127.840451,4.78078841 C128.106915,4.27591037 128.471549,3.58871524 128.050817,3.0698128 C127.700207,2.97164207 127.251427,2.9295689 126.956915,3.19603232 L126.956915,3.19603232 Z M127.237402,2.60700793 C127.770329,2.36859329 128.499598,2.60700793 128.66789,3.19603232 C128.948378,3.82712988 128.639841,4.52834939 128.331305,5.089325 C127.489841,6.44969085 126.353866,7.62773963 125.091671,8.60944695 C124.19411,9.56310549 123.030085,10.194203 122.104476,11.1198128 C121.41728,12.3679835 120.828256,13.6722518 120.16911,14.934447 C120.014841,15.2710323 119.734354,15.5795689 119.776427,15.9722518 C120.028866,16.0003006 120.309354,16.014325 120.51972,15.8460323 C121.473378,15.3411543 122.216671,14.541764 122.959963,13.7704226 C123.212402,13.5039591 123.548988,13.3496909 123.801427,13.069203 C124.502646,12.1856665 125.316061,11.4003006 126.101427,10.6009104 C127.111183,9.74542256 127.51789,8.44115427 128.163012,7.31920305 C128.976427,5.97286159 129.761793,4.58444695 130.939841,3.51859329 C131.3185,3.0698128 131.865451,2.83139817 132.398378,2.59298354 C132.833134,2.38261768 133.366061,2.57895915 133.632524,2.95761768 C133.913012,3.26615427 133.856915,3.71493476 133.828866,4.09359329 C133.646549,4.96310549 133.057524,5.67834939 132.510573,6.35152012 C130.981915,8.06249573 129.186793,9.50700793 127.391671,10.909447 C126.956915,11.3021299 126.774598,11.8771299 126.522159,12.3960323 C126.045329,13.3496909 125.610573,14.3173738 125.105695,15.2570079 C124.979476,15.4673738 124.937402,15.7198128 124.881305,15.944203 C125.302037,16.0984713 125.666671,15.7759104 126.031305,15.6076177 C126.872768,15.0606665 127.559963,14.3173738 128.233134,13.5740811 C128.359354,13.3777396 128.527646,13.5600567 128.625817,13.6722518 C127.700207,14.6399348 126.788622,15.6777396 125.596549,16.3088372 C125.063622,16.4911543 124.362402,16.519203 124.081915,17.1082274 C123.366671,18.8612762 122.413012,20.5021299 121.613622,22.2131055 C121.347159,22.8582274 120.547768,22.984447 119.94472,22.9563982 C119.8185,22.591764 120.113012,22.3112762 120.253256,22.016764 C120.74411,20.9789591 121.361183,20.0112762 121.838012,18.959447 C122.24472,18.244203 122.665451,17.5289591 123.002037,16.7856665 C123.226427,16.3228616 122.637402,15.8320079 123.072159,15.4253006 C123.366671,15.3411543 123.675207,15.2710323 123.96972,15.2009104 C124.376427,14.5978616 124.614841,13.9106665 124.9935,13.2935933 C125.231915,12.8307884 125.5685,12.3679835 125.596549,11.8350567 C125.470329,11.8490811 125.358134,11.9051787 125.259963,12.0033494 C124.811183,12.4381055 124.404476,12.9149348 123.983744,13.3777396 C123.647159,13.7563982 123.198378,13.9948128 122.847768,14.359447 C122.1185,15.0746909 121.389232,15.8179835 120.491671,16.3228616 C119.986793,16.5612762 119.2435,16.4911543 119.01911,17.094203 C118.303866,18.6509104 117.5185,20.1655445 116.761183,21.7082274 C116.59289,22.016764 116.49472,22.3673738 116.24228,22.6338372 C115.863622,22.8582274 115.400817,22.9704226 114.938012,22.9704226 C114.713622,22.6899348 114.980085,22.339325 115.120329,22.0728616 C116.045939,20.291764 117.013622,18.5387152 117.939232,16.7435933 C118.163622,16.3789591 117.630695,15.9722518 117.883134,15.6076177 C118.0935,15.2570079 118.556305,15.3131055 118.906915,15.186886 C119.257524,14.5978616 119.509963,13.9527396 119.860573,13.3637152 C120.127037,12.8728616 120.435573,12.3820079 120.561793,11.8210323 C120.127037,11.8631055 119.902646,12.2698128 119.636183,12.5503006 C119.36972,12.886886 119.01911,13.1533494 118.850817,13.5600567 C118.640451,14.0649348 118.163622,14.3874957 117.798988,14.7801787 C117.16789,15.3832274 116.508744,15.9582274 115.723378,16.336886 C115.400817,16.4350567 115.064232,16.4210323 114.741671,16.3649348 C114.29289,16.1405445 114.180695,15.5795689 114.166671,15.116764 C114.096549,15.0746909 113.94228,15.0045689 113.858134,14.9624957 C113.241061,15.6637152 112.483744,16.5332274 111.459963,16.4070079 C111.081305,16.4490811 110.828866,16.1265201 110.6185,15.8740811 C110.352037,15.6076177 110.422159,15.2289591 110.352037,14.8923738 C110.253866,14.4856665 110.295939,14.0649348 110.281915,13.644203 C109.973378,13.7423738 109.805085,14.0649348 109.580695,14.2612762 C108.753256,15.0606665 108.023988,16.0423738 106.930085,16.4631055 C106.116671,16.6454226 105.457524,15.7899348 105.485573,15.0326177 C105.499598,14.1771299 106.186793,13.5320079 106.256915,12.6905445 C106.074598,12.7185933 105.89228,12.7606665 105.709963,12.7606665 C105.962402,12.2557884 106.46728,11.9332274 106.803866,11.4704226 C107.645329,10.6429835 108.304476,9.64725183 109.005695,8.69359329 C108.991671,8.63749573 108.963622,8.52530061 108.949598,8.45517866 C108.711183,8.34298354 108.136183,8.539325 108.262402,8.1045689 C108.66911,7.964325 109.230085,8.17469085 109.538622,7.78200793 C109.959354,7.22103232 110.225817,6.5338372 110.730695,6.02895915 C111.053256,5.69237378 111.54411,5.86066646 111.950817,5.86066646 C111.99289,6.61798354 111.06728,7.06676402 111.06728,7.83810549 C111.081305,8.02042256 111.31972,8.04847134 111.459963,8.04847134 C112.020939,8.07652012 112.595939,7.964325 113.14289,8.11859329 C113.100817,8.18871524 113.030695,8.31493476 113.002646,8.37103232 C112.189232,8.45517866 111.375817,8.37103232 110.576427,8.41310549 C109.398378,10.2082274 108.234354,12.0313982 107.084354,13.8685933 C106.845939,14.359447 106.537402,14.8082274 106.355085,15.3411543 C106.256915,15.5655445 106.383134,15.7899348 106.523378,15.9722518 C107.084354,16.0563982 107.533134,15.6076177 107.939841,15.2850567 C108.655085,14.541764 109.412402,13.8685933 110.071549,13.0832274 C111.179476,11.7789591 112.581915,10.6289591 114.264841,10.2082274 C114.727646,10.2082274 115.274598,10.0820079 115.653256,10.4185933 C115.891671,10.6149348 115.877646,10.9515201 115.933744,11.2320079 C116.340451,11.1899348 116.480695,10.7551787 116.733134,10.5027396 C117.097768,10.2923738 117.5185,10.3484713 117.925207,10.3484713 C118.135573,10.7271299 117.813012,11.0777396 117.616671,11.3722518 C116.873378,12.3679835 116.200207,13.4057884 115.527037,14.4435933 C115.260573,14.8923738 114.980085,15.369203 115.064232,15.9161543 C115.274598,15.944203 115.513012,16.0423738 115.723378,15.9161543 C116.634963,15.3131055 117.308134,14.4155445 118.163622,13.7423738 C118.991061,12.5783494 120.056915,11.6106665 121.052646,10.6009104 C121.964232,9.80152012 122.314841,8.59542256 122.945939,7.59969085 C123.408744,6.85639817 123.815451,6.05700793 124.334354,5.35578841 C125.091671,4.26188598 125.961183,3.12591037 127.237402,2.60700793 L127.237402,2.60700793 Z" id="Stroke-15" stroke="#FFFFFF" stroke-width="0.094"></path>
                <path d="M13.948378,5.5240811 C13.3032561,5.73444695 12.6300854,5.87469085 12.0550854,6.25334939 C10.9050854,6.94054451 10.1197195,8.17469085 9.89532927,9.49298354 C9.83923171,10.194203 9.83923171,10.8954226 9.89532927,11.6106665 C10.2739878,12.7887152 10.9611829,13.966764 12.0971585,14.5698128 C12.5880122,14.9204226 13.191061,15.0326177 13.7520366,15.2429835 C14.9300854,15.369203 16.1922805,15.1448128 17.1739878,14.4435933 C18.941061,13.2655445 19.7124024,10.8533494 19.0252073,8.84786159 C18.6605732,7.65578841 17.7630122,6.68810549 16.7111829,6.05700793 C15.8276463,5.72042256 14.9020366,5.28566646 13.948378,5.5240811 M12.9105732,4.54237378 C13.5697195,4.30395915 14.2849634,4.43017866 14.9721585,4.40212988 C15.9678902,4.34603232 16.8935,4.7948128 17.7489878,5.27164207 C18.7867927,5.91676402 19.5721585,6.91249573 20.0349634,8.03444695 C20.1331341,8.59542256 20.4416707,9.114325 20.3995976,9.70334939 C20.3855732,10.5448128 20.4977683,11.4283494 20.1611829,12.2277396 C19.9367927,13.5460323 18.941061,14.5277396 17.9874024,15.369203 C17.0758171,15.9161543 16.066061,16.4631055 14.9721585,16.4070079 C14.2148415,16.3789591 13.4294756,16.5051787 12.7282561,16.1966421 C11.073378,15.7338372 9.6989878,14.4295689 9.02581707,12.8588372 C8.01606098,10.5027396 8.66118293,7.57164207 10.5404512,5.83261768 C11.1715488,5.15944695 12.0550854,4.8088372 12.9105732,4.54237378" id="Fill-17" fill="#FFFFFF"></path>
                <path d="M13.948378,5.5240811 C13.3032561,5.73444695 12.6300854,5.87469085 12.0550854,6.25334939 C10.9050854,6.94054451 10.1197195,8.17469085 9.89532927,9.49298354 C9.83923171,10.194203 9.83923171,10.8954226 9.89532927,11.6106665 C10.2739878,12.7887152 10.9611829,13.966764 12.0971585,14.5698128 C12.5880122,14.9204226 13.191061,15.0326177 13.7520366,15.2429835 C14.9300854,15.369203 16.1922805,15.1448128 17.1739878,14.4435933 C18.941061,13.2655445 19.7124024,10.8533494 19.0252073,8.84786159 C18.6605732,7.65578841 17.7630122,6.68810549 16.7111829,6.05700793 C15.8276463,5.72042256 14.9020366,5.28566646 13.948378,5.5240811 L13.948378,5.5240811 Z M12.9105732,4.54237378 C13.5697195,4.30395915 14.2849634,4.43017866 14.9721585,4.40212988 C15.9678902,4.34603232 16.8935,4.7948128 17.7489878,5.27164207 C18.7867927,5.91676402 19.5721585,6.91249573 20.0349634,8.03444695 C20.1331341,8.59542256 20.4416707,9.114325 20.3995976,9.70334939 C20.3855732,10.5448128 20.4977683,11.4283494 20.1611829,12.2277396 C19.9367927,13.5460323 18.941061,14.5277396 17.9874024,15.369203 C17.0758171,15.9161543 16.066061,16.4631055 14.9721585,16.4070079 C14.2148415,16.3789591 13.4294756,16.5051787 12.7282561,16.1966421 C11.073378,15.7338372 9.6989878,14.4295689 9.02581707,12.8588372 C8.01606098,10.5027396 8.66118293,7.57164207 10.5404512,5.83261768 C11.1715488,5.15944695 12.0550854,4.8088372 12.9105732,4.54237378 L12.9105732,4.54237378 Z" id="Stroke-19" stroke="#FFFFFF" stroke-width="0.094"></path>
                <path d="M27.4117927,5.5240811 C26.920939,5.664325 26.4300854,5.81859329 25.9532561,6.01493476 C24.6349634,6.70212988 23.6111829,8.00639817 23.3587439,9.49298354 C23.3026463,10.1521299 23.3166707,10.8112762 23.3587439,11.4704226 C23.8495976,13.6021299 25.9111829,15.4112762 28.1550854,15.2570079 C29.7258171,15.2429835 31.1703293,14.3173738 32.0258171,13.0271299 C32.670939,11.8631055 32.9654512,10.4466421 32.5727683,9.15639817 C32.2642317,7.73993476 31.1843537,6.57591037 29.9081341,5.9588372 C29.1087439,5.65030061 28.2813049,5.29969085 27.4117927,5.5240811 M26.6264268,4.45822744 C27.4678902,4.36005671 28.3093537,4.38810549 29.1367927,4.43017866 C31.1282561,4.85091037 32.9654512,6.28139817 33.5685,8.2588372 C33.9050854,9.2545689 34.0874024,10.3484713 33.8489878,11.3862762 C33.8069146,11.7789591 33.6105732,12.1435933 33.5685,12.5362762 C33.3300854,13.4057884 32.7550854,14.1490811 32.095939,14.7661543 C31.3105732,15.5935933 30.2306951,16.0984713 29.1367927,16.3789591 C28.3935,16.4350567 27.6361829,16.4210323 26.8928902,16.3789591 C25.5745976,16.1265201 24.3264268,15.4253006 23.4569146,14.4015201 C22.895939,13.6161543 22.3489878,12.7746909 22.1806951,11.8070079 C21.5916707,9.33871524 22.6715488,6.50578841 24.873378,5.17347134 C25.4063049,4.82286159 26.0374024,4.68261768 26.6264268,4.45822744" id="Fill-21" fill="#FFFFFF"></path>
                <path d="M27.4117927,5.5240811 C26.920939,5.664325 26.4300854,5.81859329 25.9532561,6.01493476 C24.6349634,6.70212988 23.6111829,8.00639817 23.3587439,9.49298354 C23.3026463,10.1521299 23.3166707,10.8112762 23.3587439,11.4704226 C23.8495976,13.6021299 25.9111829,15.4112762 28.1550854,15.2570079 C29.7258171,15.2429835 31.1703293,14.3173738 32.0258171,13.0271299 C32.670939,11.8631055 32.9654512,10.4466421 32.5727683,9.15639817 C32.2642317,7.73993476 31.1843537,6.57591037 29.9081341,5.9588372 C29.1087439,5.65030061 28.2813049,5.29969085 27.4117927,5.5240811 L27.4117927,5.5240811 Z M26.6264268,4.45822744 C27.4678902,4.36005671 28.3093537,4.38810549 29.1367927,4.43017866 C31.1282561,4.85091037 32.9654512,6.28139817 33.5685,8.2588372 C33.9050854,9.2545689 34.0874024,10.3484713 33.8489878,11.3862762 C33.8069146,11.7789591 33.6105732,12.1435933 33.5685,12.5362762 C33.3300854,13.4057884 32.7550854,14.1490811 32.095939,14.7661543 C31.3105732,15.5935933 30.2306951,16.0984713 29.1367927,16.3789591 C28.3935,16.4350567 27.6361829,16.4210323 26.8928902,16.3789591 C25.5745976,16.1265201 24.3264268,15.4253006 23.4569146,14.4015201 C22.895939,13.6161543 22.3489878,12.7746909 22.1806951,11.8070079 C21.5916707,9.33871524 22.6715488,6.50578841 24.873378,5.17347134 C25.4063049,4.82286159 26.0374024,4.68261768 26.6264268,4.45822744 L26.6264268,4.45822744 Z" id="Stroke-23" stroke="#FFFFFF" stroke-width="0.094"></path>
                <path d="M36.513622,4.73871524 C36.8642317,4.69664207 37.2288659,4.71066646 37.5935,4.75273963 C37.663622,6.05700793 37.5514268,7.36127622 37.6495976,8.66554451 C37.7898415,8.62347134 37.9300854,8.60944695 38.0282561,8.49725183 C38.7855732,7.79603232 39.4587439,7.02469085 40.2581341,6.3795689 C40.8611829,5.86066646 41.366061,5.25761768 41.9691098,4.75273963 C42.445939,4.66859329 42.9227683,4.72469085 43.3855732,4.75273963 C43.3715488,5.11737378 43.0349634,5.32773963 42.7965488,5.55212988 C41.9971585,6.29542256 41.1837439,7.02469085 40.4264268,7.81005671 C39.7532561,8.34298354 39.1642317,8.96005671 38.5191098,9.52103232 C38.3788659,9.77347134 38.3788659,10.1381055 38.6172805,10.3204226 C39.6550854,11.4003006 40.7489878,12.4100567 41.688622,13.5600567 C41.8148415,13.5740811 41.9550854,13.5740811 42.0813049,13.5740811 C42.3477683,12.8027396 42.698378,12.059447 43.2313049,11.4563982 C44.2691098,10.334447 45.7556951,9.74542256 47.2282561,9.47895915 C47.8313049,9.46493476 48.4343537,9.45091037 49.0514268,9.49298354 C50.0611829,9.74542256 51.1691098,10.1100567 51.7861829,11.0216421 C52.2770366,11.736886 52.291061,12.6484713 52.1788659,13.4899348 C51.8422805,14.794203 50.7203293,15.7759104 49.4441098,16.1545689 C48.5465488,16.5332274 47.5367927,16.3789591 46.5831341,16.3789591 L46.5831341,16.0704226 C47.3685,16.0283494 48.1819146,16.0984713 48.9532561,15.9021299 C49.7105732,15.6076177 50.5099634,15.2570079 51.0288659,14.611886 C51.5056951,14.0228616 51.8563049,13.2795689 51.7581341,12.5222518 C51.6178902,11.6948128 51.0849634,10.9374957 50.2995976,10.6429835 C48.9111829,9.9838372 47.298378,10.2503006 45.895939,10.7411543 C44.6056951,11.414325 43.2172805,12.311886 42.7544756,13.7704226 C42.6563049,13.9948128 42.6703293,14.2472518 42.6563049,14.4856665 C42.9648415,14.8923738 43.3715488,15.2149348 43.7081341,15.5935933 C43.848378,15.7198128 43.8203293,15.9161543 43.7361829,16.0704226 C43.4837439,16.0704226 43.2172805,16.0984713 42.9508171,16.0984713 C42.9648415,16.6173738 43.413622,16.9259104 43.7361829,17.2624957 C44.4935,17.9496909 45.4752073,18.2301787 46.4428902,18.4826177 C47.0599634,18.6649348 47.7191098,18.5527396 48.3502073,18.5807884 C48.8550854,18.636886 49.3319146,18.3984713 49.8367927,18.4545689 L49.8367927,18.8472518 C49.3178902,19.0716421 48.7569146,19.0015201 48.2099634,19.0015201 C47.620939,18.9874957 47.0319146,19.0716421 46.4569146,18.8753006 C45.8678902,18.6649348 45.1947195,18.6789591 44.6197195,18.3704226 C43.9325244,18.0198128 43.2453293,17.5990811 42.7404512,16.9960323 C42.3337439,16.519203 42.2495976,15.8600567 41.8148415,15.3972518 C40.8471585,14.4015201 39.8514268,13.4338372 38.9398415,12.3820079 C38.5752073,12.0173738 38.238622,11.6106665 37.8319146,11.2881055 L37.6355732,11.3161543 C37.5654512,12.886886 37.663622,14.4716421 37.5935,16.0423738 C37.2288659,16.084447 36.8782561,16.0984713 36.513622,16.0704226 C36.4575244,15.8740811 36.373378,15.6777396 36.3874024,15.4673738 L36.3874024,11.2460323 C36.373378,10.7271299 36.5276463,10.2222518 36.4715488,9.70334939 C36.3172805,8.59542256 36.4154512,7.45944695 36.3874024,6.33749573 C36.4014268,5.8045689 36.3032561,5.24359329 36.513622,4.73871524" id="Fill-25" fill="#FFFFFF"></path>
                <path d="M36.513622,4.73871524 C36.8642317,4.69664207 37.2288659,4.71066646 37.5935,4.75273963 C37.663622,6.05700793 37.5514268,7.36127622 37.6495976,8.66554451 C37.7898415,8.62347134 37.9300854,8.60944695 38.0282561,8.49725183 C38.7855732,7.79603232 39.4587439,7.02469085 40.2581341,6.3795689 C40.8611829,5.86066646 41.366061,5.25761768 41.9691098,4.75273963 C42.445939,4.66859329 42.9227683,4.72469085 43.3855732,4.75273963 C43.3715488,5.11737378 43.0349634,5.32773963 42.7965488,5.55212988 C41.9971585,6.29542256 41.1837439,7.02469085 40.4264268,7.81005671 C39.7532561,8.34298354 39.1642317,8.96005671 38.5191098,9.52103232 C38.3788659,9.77347134 38.3788659,10.1381055 38.6172805,10.3204226 C39.6550854,11.4003006 40.7489878,12.4100567 41.688622,13.5600567 C41.8148415,13.5740811 41.9550854,13.5740811 42.0813049,13.5740811 C42.3477683,12.8027396 42.698378,12.059447 43.2313049,11.4563982 C44.2691098,10.334447 45.7556951,9.74542256 47.2282561,9.47895915 C47.8313049,9.46493476 48.4343537,9.45091037 49.0514268,9.49298354 C50.0611829,9.74542256 51.1691098,10.1100567 51.7861829,11.0216421 C52.2770366,11.736886 52.291061,12.6484713 52.1788659,13.4899348 C51.8422805,14.794203 50.7203293,15.7759104 49.4441098,16.1545689 C48.5465488,16.5332274 47.5367927,16.3789591 46.5831341,16.3789591 L46.5831341,16.0704226 C47.3685,16.0283494 48.1819146,16.0984713 48.9532561,15.9021299 C49.7105732,15.6076177 50.5099634,15.2570079 51.0288659,14.611886 C51.5056951,14.0228616 51.8563049,13.2795689 51.7581341,12.5222518 C51.6178902,11.6948128 51.0849634,10.9374957 50.2995976,10.6429835 C48.9111829,9.9838372 47.298378,10.2503006 45.895939,10.7411543 C44.6056951,11.414325 43.2172805,12.311886 42.7544756,13.7704226 C42.6563049,13.9948128 42.6703293,14.2472518 42.6563049,14.4856665 C42.9648415,14.8923738 43.3715488,15.2149348 43.7081341,15.5935933 C43.848378,15.7198128 43.8203293,15.9161543 43.7361829,16.0704226 C43.4837439,16.0704226 43.2172805,16.0984713 42.9508171,16.0984713 C42.9648415,16.6173738 43.413622,16.9259104 43.7361829,17.2624957 C44.4935,17.9496909 45.4752073,18.2301787 46.4428902,18.4826177 C47.0599634,18.6649348 47.7191098,18.5527396 48.3502073,18.5807884 C48.8550854,18.636886 49.3319146,18.3984713 49.8367927,18.4545689 L49.8367927,18.8472518 C49.3178902,19.0716421 48.7569146,19.0015201 48.2099634,19.0015201 C47.620939,18.9874957 47.0319146,19.0716421 46.4569146,18.8753006 C45.8678902,18.6649348 45.1947195,18.6789591 44.6197195,18.3704226 C43.9325244,18.0198128 43.2453293,17.5990811 42.7404512,16.9960323 C42.3337439,16.519203 42.2495976,15.8600567 41.8148415,15.3972518 C40.8471585,14.4015201 39.8514268,13.4338372 38.9398415,12.3820079 C38.5752073,12.0173738 38.238622,11.6106665 37.8319146,11.2881055 L37.6355732,11.3161543 C37.5654512,12.886886 37.663622,14.4716421 37.5935,16.0423738 C37.2288659,16.084447 36.8782561,16.0984713 36.513622,16.0704226 C36.4575244,15.8740811 36.373378,15.6777396 36.3874024,15.4673738 L36.3874024,11.2460323 C36.373378,10.7271299 36.5276463,10.2222518 36.4715488,9.70334939 C36.3172805,8.59542256 36.4154512,7.45944695 36.3874024,6.33749573 C36.4014268,5.8045689 36.3032561,5.24359329 36.513622,4.73871524 L36.513622,4.73871524 Z" id="Stroke-27" stroke="#FFFFFF" stroke-width="0.094"></path>
                <path d="M1.18618293,10.6429835 C1.17215854,12.0734713 1.15813415,13.4899348 1.20020732,14.9204226 C1.91545122,14.9484713 2.61667073,14.934447 3.31789024,14.9204226 C3.72459756,14.8362762 4.11728049,14.6820079 4.50996341,14.5137152 C5.19715854,14.0649348 5.6880122,13.209447 5.47764634,12.3820079 C5.23923171,11.7088372 4.74837805,11.0637152 4.03313415,10.8673738 C3.13557317,10.4746909 2.13984146,10.6429835 1.18618293,10.6429835 M1.17215854,5.97286159 L1.17215854,9.36676402 C1.62093902,9.57712988 2.15386585,9.43688598 2.64471951,9.46493476 C3.19167073,9.2545689 3.86484146,9.15639817 4.22947561,8.63749573 C4.63618293,8.17469085 4.56606098,7.51554451 4.49593902,6.9545689 C4.34167073,6.29542256 3.62642683,6.08505671 3.06545122,5.87469085 C2.44837805,5.91676402 1.76118293,5.73444695 1.17215854,5.97286159 M0.0502073171,4.75273963 C0.905695122,4.66859329 1.77520732,4.73871524 2.63069512,4.71066646 C3.83679268,4.66859329 5.19715854,5.18749573 5.6739878,6.36554451 C6.02459756,7.06676402 6.01057317,7.92225183 5.64593902,8.60944695 C5.49167073,9.04420305 5.12703659,9.32469085 4.84654878,9.66127622 C4.73435366,9.81554451 4.86057317,10.0539591 5.04289024,10.0820079 C6.30508537,10.6429835 7.09045122,12.1295689 6.73984146,13.4759104 C6.64167073,14.2612762 6.08069512,14.8783494 5.51971951,15.3972518 C5.05691463,15.7899348 4.43984146,15.9021299 3.87886585,16.0704226 C2.60264634,16.0984713 1.32642683,16.1124957 0.0642317073,16.0563982 C-0.0058902439,15.6777396 0.0221585366,15.2850567 0.00813414634,14.8923738 C0.00813414634,11.9051787 0.0221585366,8.90395915 0.00813414634,5.91676402 C0.00813414634,5.5240811 -0.0058902439,5.13139817 0.0502073171,4.75273963" id="Fill-29" fill="#FFFFFF"></path>
                <path d="M1.18618293,10.6429835 C1.17215854,12.0734713 1.15813415,13.4899348 1.20020732,14.9204226 C1.91545122,14.9484713 2.61667073,14.934447 3.31789024,14.9204226 C3.72459756,14.8362762 4.11728049,14.6820079 4.50996341,14.5137152 C5.19715854,14.0649348 5.6880122,13.209447 5.47764634,12.3820079 C5.23923171,11.7088372 4.74837805,11.0637152 4.03313415,10.8673738 C3.13557317,10.4746909 2.13984146,10.6429835 1.18618293,10.6429835 L1.18618293,10.6429835 Z M1.17215854,5.97286159 L1.17215854,9.36676402 C1.62093902,9.57712988 2.15386585,9.43688598 2.64471951,9.46493476 C3.19167073,9.2545689 3.86484146,9.15639817 4.22947561,8.63749573 C4.63618293,8.17469085 4.56606098,7.51554451 4.49593902,6.9545689 C4.34167073,6.29542256 3.62642683,6.08505671 3.06545122,5.87469085 C2.44837805,5.91676402 1.76118293,5.73444695 1.17215854,5.97286159 L1.17215854,5.97286159 Z M0.0502073171,4.75273963 C0.905695122,4.66859329 1.77520732,4.73871524 2.63069512,4.71066646 C3.83679268,4.66859329 5.19715854,5.18749573 5.6739878,6.36554451 C6.02459756,7.06676402 6.01057317,7.92225183 5.64593902,8.60944695 C5.49167073,9.04420305 5.12703659,9.32469085 4.84654878,9.66127622 C4.73435366,9.81554451 4.86057317,10.0539591 5.04289024,10.0820079 C6.30508537,10.6429835 7.09045122,12.1295689 6.73984146,13.4759104 C6.64167073,14.2612762 6.08069512,14.8783494 5.51971951,15.3972518 C5.05691463,15.7899348 4.43984146,15.9021299 3.87886585,16.0704226 C2.60264634,16.0984713 1.32642683,16.1124957 0.0642317073,16.0563982 C-0.0058902439,15.6777396 0.0221585366,15.2850567 0.00813414634,14.8923738 C0.00813414634,11.9051787 0.0221585366,8.90395915 0.00813414634,5.91676402 C0.00813414634,5.5240811 -0.0058902439,5.13139817 0.0502073171,4.75273963 L0.0502073171,4.75273963 Z" id="Stroke-31" stroke="#FFFFFF" stroke-width="0.094"></path>
                <path d="M91.0685,8.66555854 C92.3306951,7.51555854 94.0416707,6.8423878 95.7526463,6.92653415 C97.1130122,6.87043659 98.5855732,7.4173878 99.370939,8.59543659 C99.8056951,9.32470488 99.9178902,10.2362902 99.6935,11.0497049 C99.2166707,10.6009244 99.7215488,9.84360732 99.3288659,9.33872927 C98.9361829,8.73568049 98.4032561,8.16068049 97.6880122,7.95031463 C96.0752073,7.37531463 94.2800854,7.69787561 92.8075244,8.46921707 C91.4611829,9.31068049 90.1989878,10.6850707 90.3252073,12.3679976 C90.2550854,13.7283634 91.2367927,14.8783634 92.3867927,15.4673878 C92.3166707,15.5234854 92.2044756,15.6637293 92.1343537,15.7198268 C91.1105732,15.1869 90.1849634,14.3173878 89.8624024,13.1673878 C89.2593537,11.5966561 89.9605732,9.82958293 91.0685,8.66555854" id="Fill-33" fill="#FFFFFF"></path>
                <path d="M91.0685,8.66555854 C92.3306951,7.51555854 94.0416707,6.8423878 95.7526463,6.92653415 C97.1130122,6.87043659 98.5855732,7.4173878 99.370939,8.59543659 C99.8056951,9.32470488 99.9178902,10.2362902 99.6935,11.0497049 C99.2166707,10.6009244 99.7215488,9.84360732 99.3288659,9.33872927 C98.9361829,8.73568049 98.4032561,8.16068049 97.6880122,7.95031463 C96.0752073,7.37531463 94.2800854,7.69787561 92.8075244,8.46921707 C91.4611829,9.31068049 90.1989878,10.6850707 90.3252073,12.3679976 C90.2550854,13.7283634 91.2367927,14.8783634 92.3867927,15.4673878 C92.3166707,15.5234854 92.2044756,15.6637293 92.1343537,15.7198268 C91.1105732,15.1869 90.1849634,14.3173878 89.8624024,13.1673878 C89.2593537,11.5966561 89.9605732,9.82958293 91.0685,8.66555854 L91.0685,8.66555854 Z" id="Stroke-35" stroke="#FFFFFF" stroke-width="0.094"></path>
                <path d="M64.8008171,10.6990951 C63.6227683,11.232022 62.8935,12.3679976 62.3044756,13.4619 C61.9398415,14.107022 61.7855732,14.864339 61.8697195,15.5936073 C61.9538659,16.0283634 62.4447195,16.0423878 62.7953293,15.9442171 C63.6087439,15.5234854 64.3800854,14.9484854 64.9270366,14.2051927 C65.5861829,13.4338512 66.091061,12.4381195 65.9648415,11.3862902 C65.9928902,10.8253146 65.2916707,10.3765341 64.8008171,10.6990951 M74.4215488,10.2503146 C74.8843537,10.1381195 75.4032561,10.2082415 75.8800854,10.2362902 C75.8941098,10.3484854 75.866061,10.4466561 75.795939,10.5308024 C74.9965488,11.5686073 74.3935,12.7466561 73.6361829,13.8265341 C73.2715488,14.4856805 72.6124024,15.116778 72.8227683,15.9442171 C73.0611829,16.014339 73.3276463,15.9862902 73.5099634,15.8039732 C74.463622,15.0887293 75.3331341,14.2332415 76.0343537,13.2795829 C76.8758171,12.4381195 77.6752073,11.5545829 78.5447195,10.7551927 C79.063622,10.4606805 79.6806951,9.92775366 80.2837439,10.2923878 C80.8306951,10.6429976 80.7465488,11.3442171 80.6203293,11.8911683 C80.5221585,12.1997049 80.3117927,12.4661683 80.2556951,12.7747049 C80.3398415,12.9990951 80.5642317,13.2515341 80.3538659,13.4619 C79.5264268,14.2612902 78.9374024,15.257022 78.1520366,16.0704366 C77.6611829,16.407022 77.0300854,16.4350707 76.4691098,16.3369 C77.338622,14.9625098 78.2642317,13.6442171 79.1197195,12.2698268 C79.4142317,11.7789732 80.0313049,11.2740951 79.820939,10.6429976 C79.4282561,10.5027537 79.1197195,10.8112902 78.8252073,11.0076317 C78.1520366,11.5405585 77.4928902,12.1015341 76.9178902,12.7466561 C76.623378,13.0972659 76.4270366,13.5460463 76.0764268,13.8545829 C75.2489878,14.6259244 74.5337439,15.5234854 73.5800854,16.1545829 C73.2855732,16.4631195 72.8087439,16.4631195 72.416061,16.3228756 C72.0093537,15.9722659 71.8270366,15.4253146 71.8270366,14.8923878 C71.7849634,14.8362902 71.6867927,14.7240951 71.6447195,14.6679976 C71.0697195,15.1448268 70.6349634,15.8039732 69.9477683,16.1686073 C69.541061,16.5612902 68.7977683,16.6173878 68.4191098,16.1545829 C67.9843537,15.7619 67.9843537,15.1448268 68.0544756,14.6119 C68.1666707,13.9106805 68.6995976,13.3497049 68.7977683,12.6484854 C68.7276463,12.6765341 68.573378,12.7186073 68.5032561,12.7466561 C68.1245976,13.6582415 67.4654512,14.4856805 66.4977683,14.8222659 C66.020939,15.1588512 65.3477683,14.7661683 64.8989878,15.1728756 C64.0294756,15.8600707 62.9916707,16.6454366 61.813622,16.3649488 C61.4349634,16.1686073 61.1264268,15.832022 60.916061,15.4533634 C60.8739878,14.7381195 60.7617927,14.0369 60.6075244,13.3356805 C61.6874024,11.9192171 63.0758171,10.5308024 64.8849634,10.1801927 C65.7685,10.0119 66.666061,10.7692171 66.666061,11.6527537 C66.7361829,12.3399488 66.413622,12.9710463 66.1050854,13.5600707 C65.9648415,13.8826317 65.5721585,14.1350707 65.6703293,14.5277537 C66.2874024,14.682022 66.7922805,14.2192171 67.2691098,13.8966561 C68.1806951,12.5362902 69.3026463,11.3161683 70.5087439,10.2082415 C70.9154512,10.1801927 71.3221585,10.1801927 71.7288659,10.2082415 C71.841061,10.5588512 71.588622,10.8673878 71.3502073,11.1058024 C70.5508171,12.4661683 69.5971585,13.7564122 68.9099634,15.1869 C68.8398415,15.4112902 68.8538659,15.6497049 68.8819146,15.8881195 C69.0502073,16.0704366 69.3587439,15.9722659 69.5831341,15.9301927 C70.8313049,15.2289732 71.841061,14.1350707 72.6124024,12.9429976 C73.2995976,12.1015341 73.8044756,11.1478756 74.4215488,10.2503146" id="Fill-37" fill="#FFFFFF"></path>
                <path d="M64.8008171,10.6990951 C63.6227683,11.232022 62.8935,12.3679976 62.3044756,13.4619 C61.9398415,14.107022 61.7855732,14.864339 61.8697195,15.5936073 C61.9538659,16.0283634 62.4447195,16.0423878 62.7953293,15.9442171 C63.6087439,15.5234854 64.3800854,14.9484854 64.9270366,14.2051927 C65.5861829,13.4338512 66.091061,12.4381195 65.9648415,11.3862902 C65.9928902,10.8253146 65.2916707,10.3765341 64.8008171,10.6990951 L64.8008171,10.6990951 Z M74.4215488,10.2503146 C74.8843537,10.1381195 75.4032561,10.2082415 75.8800854,10.2362902 C75.8941098,10.3484854 75.866061,10.4466561 75.795939,10.5308024 C74.9965488,11.5686073 74.3935,12.7466561 73.6361829,13.8265341 C73.2715488,14.4856805 72.6124024,15.116778 72.8227683,15.9442171 C73.0611829,16.014339 73.3276463,15.9862902 73.5099634,15.8039732 C74.463622,15.0887293 75.3331341,14.2332415 76.0343537,13.2795829 C76.8758171,12.4381195 77.6752073,11.5545829 78.5447195,10.7551927 C79.063622,10.4606805 79.6806951,9.92775366 80.2837439,10.2923878 C80.8306951,10.6429976 80.7465488,11.3442171 80.6203293,11.8911683 C80.5221585,12.1997049 80.3117927,12.4661683 80.2556951,12.7747049 C80.3398415,12.9990951 80.5642317,13.2515341 80.3538659,13.4619 C79.5264268,14.2612902 78.9374024,15.257022 78.1520366,16.0704366 C77.6611829,16.407022 77.0300854,16.4350707 76.4691098,16.3369 C77.338622,14.9625098 78.2642317,13.6442171 79.1197195,12.2698268 C79.4142317,11.7789732 80.0313049,11.2740951 79.820939,10.6429976 C79.4282561,10.5027537 79.1197195,10.8112902 78.8252073,11.0076317 C78.1520366,11.5405585 77.4928902,12.1015341 76.9178902,12.7466561 C76.623378,13.0972659 76.4270366,13.5460463 76.0764268,13.8545829 C75.2489878,14.6259244 74.5337439,15.5234854 73.5800854,16.1545829 C73.2855732,16.4631195 72.8087439,16.4631195 72.416061,16.3228756 C72.0093537,15.9722659 71.8270366,15.4253146 71.8270366,14.8923878 C71.7849634,14.8362902 71.6867927,14.7240951 71.6447195,14.6679976 C71.0697195,15.1448268 70.6349634,15.8039732 69.9477683,16.1686073 C69.541061,16.5612902 68.7977683,16.6173878 68.4191098,16.1545829 C67.9843537,15.7619 67.9843537,15.1448268 68.0544756,14.6119 C68.1666707,13.9106805 68.6995976,13.3497049 68.7977683,12.6484854 C68.7276463,12.6765341 68.573378,12.7186073 68.5032561,12.7466561 C68.1245976,13.6582415 67.4654512,14.4856805 66.4977683,14.8222659 C66.020939,15.1588512 65.3477683,14.7661683 64.8989878,15.1728756 C64.0294756,15.8600707 62.9916707,16.6454366 61.813622,16.3649488 C61.4349634,16.1686073 61.1264268,15.832022 60.916061,15.4533634 C60.8739878,14.7381195 60.7617927,14.0369 60.6075244,13.3356805 C61.6874024,11.9192171 63.0758171,10.5308024 64.8849634,10.1801927 C65.7685,10.0119 66.666061,10.7692171 66.666061,11.6527537 C66.7361829,12.3399488 66.413622,12.9710463 66.1050854,13.5600707 C65.9648415,13.8826317 65.5721585,14.1350707 65.6703293,14.5277537 C66.2874024,14.682022 66.7922805,14.2192171 67.2691098,13.8966561 C68.1806951,12.5362902 69.3026463,11.3161683 70.5087439,10.2082415 C70.9154512,10.1801927 71.3221585,10.1801927 71.7288659,10.2082415 C71.841061,10.5588512 71.588622,10.8673878 71.3502073,11.1058024 C70.5508171,12.4661683 69.5971585,13.7564122 68.9099634,15.1869 C68.8398415,15.4112902 68.8538659,15.6497049 68.8819146,15.8881195 C69.0502073,16.0704366 69.3587439,15.9722659 69.5831341,15.9301927 C70.8313049,15.2289732 71.841061,14.1350707 72.6124024,12.9429976 C73.2995976,12.1015341 73.8044756,11.1478756 74.4215488,10.2503146 L74.4215488,10.2503146 Z" id="Stroke-39" stroke="#FFFFFF" stroke-width="0.094"></path>
                <path d="M82.3874024,10.4887293 C82.7239878,10.1801927 83.2989878,10.0259244 83.663622,10.3765341 C83.7477683,11.091778 82.9904512,11.3722659 82.5837439,11.807022 C82.1069146,12.1436073 81.6861829,12.5362902 81.3355732,12.9990951 C81.1813049,13.2515341 80.8727683,13.0832415 80.6343537,13.139339 C80.5081341,12.6765341 80.9989878,12.4661683 81.2514268,12.1716561 C81.7422805,11.6948268 81.798378,10.8954366 82.3874024,10.4887293" id="Fill-41" fill="#FFFFFF"></path>
                <path d="M82.3874024,10.4887293 C82.7239878,10.1801927 83.2989878,10.0259244 83.663622,10.3765341 C83.7477683,11.091778 82.9904512,11.3722659 82.5837439,11.807022 C82.1069146,12.1436073 81.6861829,12.5362902 81.3355732,12.9990951 C81.1813049,13.2515341 80.8727683,13.0832415 80.6343537,13.139339 C80.5081341,12.6765341 80.9989878,12.4661683 81.2514268,12.1716561 C81.7422805,11.6948268 81.798378,10.8954366 82.3874024,10.4887293 L82.3874024,10.4887293 Z" id="Stroke-43" stroke="#FFFFFF" stroke-width="0.094"></path>
                <path id="Fill-45" fill="#FFFFFF"></path>
                <path id="Stroke-47" stroke="#FFFFFF" stroke-width="0.094"></path>
                <path d="M97.2953293,13.1112762 C97.9124024,12.816764 98.4874024,12.4100567 98.9922805,11.9332274 C99.2727683,12.3259104 98.7678902,12.6624957 98.5154512,12.9009104 C98.0806951,13.1533494 97.6739878,13.5320079 97.1550854,13.5740811 C96.7764268,13.6582274 96.4398415,13.8966421 96.0331341,13.8685933 C95.2898415,13.8545689 94.5044756,13.9807884 93.8032561,13.644203 C93.3965488,13.461886 92.6111829,13.4478616 92.6953293,12.8307884 C93.3965488,12.9429835 94.0276463,13.4478616 94.770939,13.4478616 C95.2617927,13.4338372 95.7666707,13.4759104 96.2575244,13.4057884 C96.5800854,13.2655445 96.9306951,13.139325 97.2953293,13.1112762" id="Fill-49" fill="#FFFFFF"></path>
                <path d="M97.2953293,13.1112762 C97.9124024,12.816764 98.4874024,12.4100567 98.9922805,11.9332274 C99.2727683,12.3259104 98.7678902,12.6624957 98.5154512,12.9009104 C98.0806951,13.1533494 97.6739878,13.5320079 97.1550854,13.5740811 C96.7764268,13.6582274 96.4398415,13.8966421 96.0331341,13.8685933 C95.2898415,13.8545689 94.5044756,13.9807884 93.8032561,13.644203 C93.3965488,13.461886 92.6111829,13.4478616 92.6953293,12.8307884 C93.3965488,12.9429835 94.0276463,13.4478616 94.770939,13.4478616 C95.2617927,13.4338372 95.7666707,13.4759104 96.2575244,13.4057884 C96.5800854,13.2655445 96.9306951,13.139325 97.2953293,13.1112762 L97.2953293,13.1112762 Z" id="Stroke-51" stroke="#FFFFFF" stroke-width="0.094"></path>
                <path d="M81.0130122,13.3496909 C81.4337439,13.3216421 81.1953293,14.2051787 81.7282561,14.1490811 C82.4995976,14.3734713 82.7941098,13.3777396 83.4953293,13.391764 C83.4953293,13.4759104 83.4813049,13.6301787 83.4813049,13.714325 C83.1447195,14.0509104 82.7520366,14.3454226 82.3313049,14.5557884 C81.938622,14.5978616 81.4337439,14.6960323 81.1672805,14.3313982 C80.9008171,14.0929835 80.8306951,13.644203 81.0130122,13.3496909" id="Fill-53" fill="#FFFFFF"></path>
                <path d="M81.0130122,13.3496909 C81.4337439,13.3216421 81.1953293,14.2051787 81.7282561,14.1490811 C82.4995976,14.3734713 82.7941098,13.3777396 83.4953293,13.391764 C83.4953293,13.4759104 83.4813049,13.6301787 83.4813049,13.714325 C83.1447195,14.0509104 82.7520366,14.3454226 82.3313049,14.5557884 C81.938622,14.5978616 81.4337439,14.6960323 81.1672805,14.3313982 C80.9008171,14.0929835 80.8306951,13.644203 81.0130122,13.3496909 L81.0130122,13.3496909 Z" id="Stroke-55" stroke="#FFFFFF" stroke-width="0.094"></path>
            </g>
        </g>
    </g>
</svg>