<?xml version="1.0" encoding="UTF-8" standalone="no"?>
<svg width="180px" height="80px" viewBox="0 0 180 80" version="1.1" xmlns="http://www.w3.org/2000/svg" xmlns:xlink="http://www.w3.org/1999/xlink">
    <!-- Generator: Sketch 39.1 (31720) - http://www.bohemiancoding.com/sketch -->
    <title>Boston_Twitter_Developer_Community</title>
    <desc>Created with Sketch.</desc>
    <defs></defs>
    <g id="logos" stroke="none" stroke-width="1" fill="none" fill-rule="evenodd">
        <g id="Boston_Twitter_Developer_Community" fill="#FFFFFF">
            <g id="Group" transform="translate(33.000000, 18.000000)">
                <path d="M28.7141645,13.2478927 C27.6666423,13.7136372 26.5418693,14.0303435 25.3645657,14.1700668 C26.5665896,13.4466103 27.4936003,12.2977738 27.9292954,10.928485 C26.8014323,11.5991571 25.5530579,12.0897413 24.2243425,12.3505582 C23.1613702,11.2110366 21.6441627,10.5 19.9662732,10.5 C16.746456,10.5 14.1353758,13.1236941 14.1353758,16.362171 C14.1353758,16.8217056 14.1848164,17.2688203 14.2867875,17.6973053 C9.43852144,17.4520132 5.1402817,15.1201856 2.26345842,11.5743174 C1.76287263,12.4374972 1.4754993,13.4466103 1.4754993,14.5209277 C1.4754993,16.5515738 2.50448121,18.3462427 4.0680393,19.3988253 C3.11321825,19.3677756 2.21401785,19.1038538 1.42605873,18.6660539 L1.42605873,18.7374681 C1.42605873,21.5785096 3.437672,23.9475968 6.10437286,24.4847554 C5.61614721,24.6182689 5.10011124,24.689683 4.56862509,24.689683 C4.19164073,24.689683 3.82701651,24.6555284 3.4716624,24.5841143 C4.21327098,26.9128369 6.3670259,28.6081469 8.91939543,28.6547214 C6.92323233,30.2289378 4.40794323,31.1635318 1.67635163,31.1635318 C1.20666619,31.1635318 0.740070792,31.1355872 0.285835537,31.0828028 C2.86601539,32.7439582 5.93133086,33.7158118 9.22530897,33.7158118 C19.9539131,33.7158118 25.821891,24.7859369 25.821891,17.0390531 C25.821891,16.787551 25.8157109,16.532944 25.8033508,16.281442 C26.943574,15.4555217 27.9323854,14.4246738 28.7141645,13.2478927" id="Fill-211"></path>
                <path d="M51.0029297,5.90722656 C51.0029297,7.58431828 50.5631554,8.85237201 49.6835938,9.71142578 C48.8040321,10.5704796 47.5120528,11 45.8076172,11 L43.4150391,11 L43.4150391,1.00585938 L46.1152344,1.00585938 C47.7102944,1.00585938 48.9236612,1.42284739 49.7553711,2.25683594 C50.587081,3.09082448 51.0029297,4.30760919 51.0029297,5.90722656 L51.0029297,5.90722656 Z M50.2441406,5.93457031 C50.2441406,4.50357357 49.8807002,3.42692418 49.1538086,2.70458984 C48.4269169,1.9822555 47.359382,1.62109375 45.9511719,1.62109375 L44.1123047,1.62109375 L44.1123047,10.3847656 L45.7666016,10.3847656 C48.7516425,10.3847656 50.2441406,8.90138202 50.2441406,5.93457031 L50.2441406,5.93457031 Z M56.1298828,11.1367188 C55.0497993,11.1367188 54.2078481,10.8040398 53.6040039,10.1386719 C53.0001597,9.47330396 52.6982422,8.54134714 52.6982422,7.34277344 C52.6982422,6.15787168 52.9899059,5.20882518 53.5732422,4.49560547 C54.1565784,3.78238576 54.9427034,3.42578125 55.9316406,3.42578125 C56.806645,3.42578125 57.4970678,3.73111674 58.0029297,4.34179688 C58.5087916,4.95247701 58.7617188,5.7818958 58.7617188,6.83007812 L58.7617188,7.37695312 L53.4091797,7.37695312 C53.4182943,8.39779156 53.6564104,9.17708064 54.1235352,9.71484375 C54.5906599,10.2526069 55.2594358,10.5214844 56.1298828,10.5214844 C56.5537131,10.5214844 56.9262679,10.4918623 57.2475586,10.4326172 C57.5688493,10.3733721 57.9755835,10.2457692 58.4677734,10.0498047 L58.4677734,10.6650391 C58.0485005,10.8473316 57.6611346,10.9715166 57.3056641,11.0375977 C56.9501935,11.1036787 56.5582704,11.1367188 56.1298828,11.1367188 L56.1298828,11.1367188 Z M55.9316406,4.02734375 C55.2161423,4.02734375 54.6419292,4.26318124 54.2089844,4.73486328 C53.7760395,5.20654533 53.5231123,5.88671431 53.4501953,6.77539062 L58.0439453,6.77539062 C58.0439453,5.91405819 57.8570982,5.24072508 57.4833984,4.75537109 C57.1096987,4.2700171 56.5924512,4.02734375 55.9316406,4.02734375 L55.9316406,4.02734375 Z M62.4394531,11 L59.5683594,3.56933594 L60.265625,3.56933594 L62.1865234,8.62109375 C62.441733,9.2682324 62.6331374,9.83333092 62.7607422,10.3164062 L62.8017578,10.3164062 C62.9886077,9.69661148 63.180012,9.12695572 63.3759766,8.60742188 L65.296875,3.56933594 L65.9941406,3.56933594 L63.1230469,11 L62.4394531,11 Z M70.2392578,11.1367188 C69.1591743,11.1367188 68.3172231,10.8040398 67.7133789,10.1386719 C67.1095347,9.47330396 66.8076172,8.54134714 66.8076172,7.34277344 C66.8076172,6.15787168 67.0992809,5.20882518 67.6826172,4.49560547 C68.2659534,3.78238576 69.0520784,3.42578125 70.0410156,3.42578125 C70.91602,3.42578125 71.6064428,3.73111674 72.1123047,4.34179688 C72.6181666,4.95247701 72.8710938,5.7818958 72.8710938,6.83007812 L72.8710938,7.37695312 L67.5185547,7.37695312 C67.5276693,8.39779156 67.7657854,9.17708064 68.2329102,9.71484375 C68.7000349,10.2526069 69.3688108,10.5214844 70.2392578,10.5214844 C70.6630881,10.5214844 71.0356429,10.4918623 71.3569336,10.4326172 C71.6782243,10.3733721 72.0849585,10.2457692 72.5771484,10.0498047 L72.5771484,10.6650391 C72.1578755,10.8473316 71.7705096,10.9715166 71.4150391,11.0375977 C71.0595685,11.1036787 70.6676454,11.1367188 70.2392578,11.1367188 L70.2392578,11.1367188 Z M70.0410156,4.02734375 C69.3255173,4.02734375 68.7513042,4.26318124 68.3183594,4.73486328 C67.8854145,5.20654533 67.6324873,5.88671431 67.5595703,6.77539062 L72.1533203,6.77539062 C72.1533203,5.91405819 71.9664732,5.24072508 71.5927734,4.75537109 C71.2190737,4.2700171 70.7018262,4.02734375 70.0410156,4.02734375 L70.0410156,4.02734375 Z M75.5986328,11 L74.921875,11 L74.921875,0.36328125 L75.5986328,0.36328125 L75.5986328,11 Z M84.2324219,7.27441406 C84.2324219,8.48665971 83.9384795,9.43342758 83.3505859,10.1147461 C82.7626924,10.7960646 81.9515026,11.1367188 80.9169922,11.1367188 C80.2652962,11.1367188 79.6910832,10.9794938 79.1943359,10.6650391 C78.6975887,10.3505844 78.3170586,9.899417 78.0527344,9.31152344 C77.7884101,8.72362987 77.65625,8.04460021 77.65625,7.27441406 C77.65625,6.06216842 77.9501924,5.11767917 78.5380859,4.44091797 C79.1259795,3.76415677 79.9326121,3.42578125 80.9580078,3.42578125 C81.9788463,3.42578125 82.7797823,3.76871402 83.3608398,4.45458984 C83.9418974,5.14046567 84.2324219,6.08039768 84.2324219,7.27441406 L84.2324219,7.27441406 Z M78.3671875,7.27441406 C78.3671875,8.2952525 78.5916319,9.09163125 79.0405273,9.66357422 C79.4894228,10.2355172 80.1240193,10.5214844 80.9443359,10.5214844 C81.7646525,10.5214844 82.3992491,10.2355172 82.8481445,9.66357422 C83.29704,9.09163125 83.5214844,8.2952525 83.5214844,7.27441406 C83.5214844,6.24901831 83.2947614,5.45377887 82.8413086,4.88867188 C82.3878558,4.32356488 81.7509807,4.04101562 80.9306641,4.04101562 C80.1103475,4.04101562 79.4780296,4.32242557 79.0336914,4.88525391 C78.5893532,5.44808224 78.3671875,6.244461 78.3671875,7.27441406 L78.3671875,7.27441406 Z M89.46875,11.1367188 C88.3248641,11.1367188 87.490888,10.7083376 86.9667969,9.8515625 L86.9189453,9.8515625 L86.9394531,10.4257812 C86.9576824,10.7630225 86.9667969,11.1321595 86.9667969,11.5332031 L86.9667969,14.3632812 L86.2900391,14.3632812 L86.2900391,3.56933594 L86.8642578,3.56933594 L86.9941406,4.62890625 L87.0351562,4.62890625 C87.5455755,3.82681891 88.3613225,3.42578125 89.4824219,3.42578125 C90.4850311,3.42578125 91.2495091,3.75504228 91.7758789,4.41357422 C92.3022487,5.07210616 92.5654297,6.03026715 92.5654297,7.28808594 C92.5654297,8.50944621 92.288577,9.45621409 91.7348633,10.128418 C91.1811496,10.8006219 90.425786,11.1367188 89.46875,11.1367188 L89.46875,11.1367188 Z M89.4550781,10.5351562 C90.2161496,10.5351562 90.8051737,10.252607 91.222168,9.6875 C91.6391622,9.12239301 91.8476562,8.33171081 91.8476562,7.31542969 C91.8476562,5.13247606 91.0592527,4.04101562 89.4824219,4.04101562 C88.6165321,4.04101562 87.9807963,4.27913173 87.5751953,4.75537109 C87.1695943,5.23161045 86.9667969,6.0074816 86.9667969,7.08300781 L86.9667969,7.30175781 C86.9667969,8.463873 87.1616191,9.29329179 87.5512695,9.79003906 C87.9409199,10.2867863 88.5755164,10.5351562 89.4550781,10.5351562 L89.4550781,10.5351562 Z M97.6240234,11.1367188 C96.5439399,11.1367188 95.7019887,10.8040398 95.0981445,10.1386719 C94.4943004,9.47330396 94.1923828,8.54134714 94.1923828,7.34277344 C94.1923828,6.15787168 94.4840466,5.20882518 95.0673828,4.49560547 C95.6507191,3.78238576 96.436844,3.42578125 97.4257812,3.42578125 C98.3007856,3.42578125 98.9912084,3.73111674 99.4970703,4.34179688 C100.002932,4.95247701 100.255859,5.7818958 100.255859,6.83007812 L100.255859,7.37695312 L94.9033203,7.37695312 C94.9124349,8.39779156 95.150551,9.17708064 95.6176758,9.71484375 C96.0848005,10.2526069 96.7535764,10.5214844 97.6240234,10.5214844 C98.0478537,10.5214844 98.4204085,10.4918623 98.7416992,10.4326172 C99.0629899,10.3733721 99.4697241,10.2457692 99.9619141,10.0498047 L99.9619141,10.6650391 C99.5426411,10.8473316 99.1552752,10.9715166 98.7998047,11.0375977 C98.4443342,11.1036787 98.052411,11.1367188 97.6240234,11.1367188 L97.6240234,11.1367188 Z M97.4257812,4.02734375 C96.7102829,4.02734375 96.1360699,4.26318124 95.703125,4.73486328 C95.2701801,5.20654533 95.017253,5.88671431 94.9443359,6.77539062 L99.5380859,6.77539062 C99.5380859,5.91405819 99.3512388,5.24072508 98.9775391,4.75537109 C98.6038393,4.2700171 98.0865918,4.02734375 97.4257812,4.02734375 L97.4257812,4.02734375 Z M105.232422,3.42578125 C105.546877,3.42578125 105.884113,3.45768197 106.244141,3.52148438 L106.114258,4.17089844 C105.80436,4.09342409 105.483075,4.0546875 105.150391,4.0546875 C104.516924,4.0546875 103.997398,4.32356502 103.591797,4.86132812 C103.186196,5.39909123 102.983398,6.0781209 102.983398,6.8984375 L102.983398,11 L102.306641,11 L102.306641,3.56933594 L102.880859,3.56933594 L102.949219,4.90917969 L102.99707,4.90917969 C103.30241,4.36230195 103.628253,3.97835397 103.974609,3.75732422 C104.320965,3.53629447 104.740232,3.42578125 105.232422,3.42578125 L105.232422,3.42578125 Z M47.6806641,17.4912109 C46.4274026,17.4912109 45.4407588,17.8922486 44.7207031,18.6943359 C44.0006474,19.4964233 43.640625,20.5947196 43.640625,21.9892578 C43.640625,23.4156972 43.9801398,24.523108 44.6591797,25.3115234 C45.3382195,26.0999388 46.308913,26.4941406 47.5712891,26.4941406 C48.4098349,26.4941406 49.1800095,26.3870453 49.8818359,26.1728516 L49.8818359,26.7880859 C49.2210253,27.020509 48.3961638,27.1367188 47.4072266,27.1367188 C46.0035737,27.1367188 44.8984415,26.6832728 44.0917969,25.7763672 C43.2851522,24.8694616 42.8818359,23.6025472 42.8818359,21.9755859 C42.8818359,20.9593048 43.0743796,20.063806 43.4594727,19.2890625 C43.8445657,18.514319 44.3982711,17.9161805 45.1206055,17.4946289 C45.8429398,17.0730773 46.6826124,16.8623047 47.6396484,16.8623047 C48.6149137,16.8623047 49.4876264,17.0445945 50.2578125,17.4091797 L49.9775391,18.0380859 C49.2483687,17.6735008 48.4827514,17.4912109 47.6806641,17.4912109 L47.6806641,17.4912109 Z M58.0849609,23.2744141 C58.0849609,24.4866597 57.7910186,25.4334276 57.203125,26.1147461 C56.6152314,26.7960646 55.8040416,27.1367188 54.7695312,27.1367188 C54.1178353,27.1367188 53.5436223,26.9794938 53.046875,26.6650391 C52.5501277,26.3505844 52.1695977,25.899417 51.9052734,25.3115234 C51.6409492,24.7236299 51.5087891,24.0446002 51.5087891,23.2744141 C51.5087891,22.0621684 51.8027314,21.1176792 52.390625,20.440918 C52.9785186,19.7641568 53.7851511,19.4257812 54.8105469,19.4257812 C55.8313853,19.4257812 56.6323213,19.768714 57.2133789,20.4545898 C57.7944365,21.1404657 58.0849609,22.0803977 58.0849609,23.2744141 L58.0849609,23.2744141 Z M52.2197266,23.2744141 C52.2197266,24.2952525 52.4441709,25.0916313 52.8930664,25.6635742 C53.3419619,26.2355172 53.9765584,26.5214844 54.796875,26.5214844 C55.6171916,26.5214844 56.2517881,26.2355172 56.7006836,25.6635742 C57.1495791,25.0916313 57.3740234,24.2952525 57.3740234,23.2744141 C57.3740234,22.2490183 57.1473004,21.4537789 56.6938477,20.8886719 C56.2403949,20.3235649 55.6035197,20.0410156 54.7832031,20.0410156 C53.9628865,20.0410156 53.3305686,20.3224256 52.8862305,20.8852539 C52.4418923,21.4480822 52.2197266,22.244461 52.2197266,23.2744141 L52.2197266,23.2744141 Z M69.4257812,27 L69.4257812,22.1259766 C69.4257812,21.4013636 69.2845066,20.872723 69.0019531,20.5400391 C68.7193996,20.2073551 68.2864613,20.0410156 67.703125,20.0410156 C66.9420535,20.0410156 66.3792336,20.2506489 66.0146484,20.6699219 C65.6500633,21.0891948 65.4677734,21.7477169 65.4677734,22.6455078 L65.4677734,27 L64.7773438,27 L64.7773438,21.9208984 C64.7773438,20.667637 64.2031307,20.0410156 63.0546875,20.0410156 C62.2753867,20.0410156 61.7080096,20.2677386 61.3525391,20.7211914 C60.9970685,21.1746442 60.8193359,21.9003856 60.8193359,22.8984375 L60.8193359,27 L60.1425781,27 L60.1425781,19.5693359 L60.703125,19.5693359 L60.8466797,20.5878906 L60.8876953,20.5878906 C61.0927745,20.2187482 61.3844382,19.932781 61.7626953,19.7299805 C62.1409524,19.52718 62.5579404,19.4257812 63.0136719,19.4257812 C64.1849017,19.4257812 64.9368473,19.8655555 65.2695312,20.7451172 L65.296875,20.7451172 C65.5384127,20.3212869 65.8631165,19.9954438 66.2709961,19.7675781 C66.6788757,19.5397124 67.1425755,19.4257812 67.6621094,19.4257812 C68.4733113,19.4257812 69.0817037,19.6422504 69.4873047,20.0751953 C69.8929057,20.5081402 70.0957031,21.1962843 70.0957031,22.1396484 L70.0957031,27 L69.4257812,27 Z M81.7851562,27 L81.7851562,22.1259766 C81.7851562,21.4013636 81.6438816,20.872723 81.3613281,20.5400391 C81.0787746,20.2073551 80.6458363,20.0410156 80.0625,20.0410156 C79.3014285,20.0410156 78.7386086,20.2506489 78.3740234,20.6699219 C78.0094383,21.0891948 77.8271484,21.7477169 77.8271484,22.6455078 L77.8271484,27 L77.1367188,27 L77.1367188,21.9208984 C77.1367188,20.667637 76.5625057,20.0410156 75.4140625,20.0410156 C74.6347617,20.0410156 74.0673846,20.2677386 73.7119141,20.7211914 C73.3564435,21.1746442 73.1787109,21.9003856 73.1787109,22.8984375 L73.1787109,27 L72.5019531,27 L72.5019531,19.5693359 L73.0625,19.5693359 L73.2060547,20.5878906 L73.2470703,20.5878906 C73.4521495,20.2187482 73.7438132,19.932781 74.1220703,19.7299805 C74.5003274,19.52718 74.9173154,19.4257812 75.3730469,19.4257812 C76.5442767,19.4257812 77.2962223,19.8655555 77.6289062,20.7451172 L77.65625,20.7451172 C77.8977877,20.3212869 78.2224915,19.9954438 78.6303711,19.7675781 C79.0382507,19.5397124 79.5019505,19.4257812 80.0214844,19.4257812 C80.8326863,19.4257812 81.4410787,19.6422504 81.8466797,20.0751953 C82.2522807,20.5081402 82.4550781,21.1962843 82.4550781,22.1396484 L82.4550781,27 L81.7851562,27 Z M85.4492188,19.5693359 L85.4492188,24.3818359 C85.4492188,25.1292355 85.6064437,25.6726871 85.9208984,26.012207 C86.2353531,26.351727 86.7229785,26.5214844 87.3837891,26.5214844 C88.2679081,26.5214844 88.9184549,26.2981793 89.3354492,25.8515625 C89.7524435,25.4049457 89.9609375,24.6780649 89.9609375,23.6708984 L89.9609375,19.5693359 L90.6308594,19.5693359 L90.6308594,27 L90.0566406,27 L89.9335938,25.9746094 L89.8925781,25.9746094 C89.4095028,26.7493528 88.5504619,27.1367188 87.3154297,27.1367188 C85.624666,27.1367188 84.7792969,26.2321054 84.7792969,24.4228516 L84.7792969,19.5693359 L85.4492188,19.5693359 Z M98.3007812,27 L98.3007812,22.1806641 C98.3007812,21.4332645 98.1435563,20.8898129 97.8291016,20.550293 C97.5146469,20.210773 97.0270215,20.0410156 96.3662109,20.0410156 C95.4775346,20.0410156 94.8269877,20.26546 94.4145508,20.7143555 C94.0021138,21.1632509 93.7958984,21.891271 93.7958984,22.8984375 L93.7958984,27 L93.1191406,27 L93.1191406,19.5693359 L93.6933594,19.5693359 L93.8232422,20.5878906 L93.8642578,20.5878906 C94.3473331,19.8131472 95.206374,19.4257812 96.4414062,19.4257812 C98.1276126,19.4257812 98.9707031,20.3303946 98.9707031,22.1396484 L98.9707031,27 L98.3007812,27 Z M102.053711,27 L101.376953,27 L101.376953,19.5693359 L102.053711,19.5693359 L102.053711,27 Z M101.28125,17.5048828 C101.28125,17.0673806 101.424803,16.8486328 101.711914,16.8486328 C101.853191,16.8486328 101.963704,16.9055984 102.043457,17.0195312 C102.12321,17.1334641 102.163086,17.2952463 102.163086,17.5048828 C102.163086,17.709962 102.12321,17.8717442 102.043457,17.9902344 C101.963704,18.1087246 101.853191,18.1679688 101.711914,18.1679688 C101.424803,18.1679688 101.28125,17.9469423 101.28125,17.5048828 L101.28125,17.5048828 Z M106.503906,26.5351562 C106.932294,26.5351562 107.305988,26.4986983 107.625,26.4257812 L107.625,26.9726562 C107.296873,27.0820318 106.918622,27.1367188 106.490234,27.1367188 C105.833981,27.1367188 105.349774,26.9612648 105.037598,26.6103516 C104.725422,26.2594383 104.569336,25.7080116 104.569336,24.9560547 L104.569336,20.1572266 L103.46875,20.1572266 L103.46875,19.7607422 L104.569336,19.453125 L104.911133,17.7714844 L105.259766,17.7714844 L105.259766,19.5693359 L107.44043,19.5693359 L107.44043,20.1572266 L105.259766,20.1572266 L105.259766,24.8603516 C105.259766,25.4300159 105.360025,25.8515611 105.560547,26.125 C105.761069,26.3984389 106.075519,26.5351562 106.503906,26.5351562 L106.503906,26.5351562 Z M107.987305,19.5693359 L108.68457,19.5693359 L110.256836,23.7392578 C110.735354,25.0198632 111.038411,25.8834613 111.166016,26.3300781 L111.207031,26.3300781 C111.398438,25.7421846 111.71061,24.8649147 112.143555,23.6982422 L113.71582,19.5693359 L114.413086,19.5693359 L111.083984,28.203125 C110.815103,28.9049514 110.589519,29.378905 110.407227,29.625 C110.224934,29.871095 110.011883,30.0556634 109.768066,30.1787109 C109.52425,30.3017584 109.229168,30.3632812 108.882812,30.3632812 C108.623046,30.3632812 108.33366,30.3154302 108.014648,30.2197266 L108.014648,29.6318359 C108.278973,29.704753 108.563801,29.7412109 108.869141,29.7412109 C109.101564,29.7412109 109.30664,29.686524 109.484375,29.5771484 C109.66211,29.4677729 109.822753,29.2980155 109.966309,29.0678711 C110.109864,28.8377267 110.276203,28.473147 110.465332,27.9741211 C110.654461,27.4750952 110.776367,27.1503914 110.831055,27 L107.987305,19.5693359 Z M43.2578125,33.0058594 L46.3681641,33.0058594 C47.7854889,33.0058594 48.8142872,33.2075175 49.4545898,33.6108398 C50.0948925,34.0141622 50.4150391,34.6555946 50.4150391,35.5351562 C50.4150391,36.1321644 50.2749037,36.6220684 49.9946289,37.0048828 C49.7143541,37.3876972 49.3417992,37.6178382 48.8769531,37.6953125 L48.8769531,37.7636719 C49.5104198,37.9049486 49.9672838,38.1692689 50.2475586,38.5566406 C50.5278334,38.9440124 50.6679688,39.4589812 50.6679688,40.1015625 C50.6679688,41.0130254 50.3387077,41.7239558 49.6801758,42.234375 C49.0216438,42.7447942 48.1272843,43 46.9970703,43 L43.2578125,43 L43.2578125,33.0058594 Z M45.3769531,36.9638672 L46.6074219,36.9638672 C47.1816435,36.9638672 47.5974922,36.8750009 47.8549805,36.6972656 C48.1124687,36.5195304 48.2412109,36.225588 48.2412109,35.8154297 C48.2412109,35.4326153 48.1010756,35.1580412 47.8208008,34.9916992 C47.5405259,34.8253572 47.0973338,34.7421875 46.4912109,34.7421875 L45.3769531,34.7421875 L45.3769531,36.9638672 Z M45.3769531,38.6455078 L45.3769531,41.25 L46.7578125,41.25 C47.3411488,41.25 47.7718085,41.1383475 48.0498047,40.9150391 C48.3278009,40.6917307 48.4667969,40.3499372 48.4667969,39.8896484 C48.4667969,39.0602172 47.8743549,38.6455078 46.6894531,38.6455078 L45.3769531,38.6455078 Z M54.1611328,39.1650391 C54.1611328,39.9215533 54.2853178,40.4934876 54.5336914,40.8808594 C54.782065,41.2682311 55.1865206,41.4619141 55.7470703,41.4619141 C56.3030627,41.4619141 56.702961,41.2693704 56.9467773,40.8842773 C57.1905937,40.4991843 57.3125,39.9261106 57.3125,39.1650391 C57.3125,38.4085249 57.1894544,37.8411477 56.9433594,37.4628906 C56.6972644,37.0846335 56.2939481,36.8955078 55.7333984,36.8955078 C55.1774061,36.8955078 54.7763684,37.0834942 54.5302734,37.4594727 C54.2841785,37.8354511 54.1611328,38.4039675 54.1611328,39.1650391 L54.1611328,39.1650391 Z M59.4453125,39.1650391 C59.4453125,40.4091859 59.1171908,41.3821579 58.4609375,42.0839844 C57.8046842,42.7858108 56.8909564,43.1367188 55.7197266,43.1367188 C54.9859989,43.1367188 54.33887,42.9760758 53.7783203,42.6547852 C53.2177706,42.3334945 52.7871109,41.8720733 52.4863281,41.2705078 C52.1855454,40.6689423 52.0351562,39.9671264 52.0351562,39.1650391 C52.0351562,37.9163349 52.3609993,36.9456415 53.0126953,36.2529297 C53.6643913,35.5602179 54.5803977,35.2138672 55.7607422,35.2138672 C56.4944698,35.2138672 57.1415988,35.3733708 57.7021484,35.6923828 C58.2626981,36.0113948 58.6933579,36.4693981 58.9941406,37.0664062 C59.2949234,37.6634144 59.4453125,38.3629517 59.4453125,39.1650391 L59.4453125,39.1650391 Z M66.5,40.7304688 C66.5,41.5143268 66.2277045,42.1113261 65.6831055,42.5214844 C65.1385064,42.9316427 64.3238987,43.1367188 63.2392578,43.1367188 C62.6832654,43.1367188 62.2093119,43.0991215 61.8173828,43.0239258 C61.4254538,42.9487301 61.0585955,42.8382169 60.7167969,42.6923828 L60.7167969,40.9697266 C61.1041686,41.1520191 61.5405249,41.3046869 62.0258789,41.4277344 C62.5112329,41.5507819 62.9384747,41.6123047 63.3076172,41.6123047 C64.0641314,41.6123047 64.4423828,41.3935569 64.4423828,40.9560547 C64.4423828,40.7919914 64.3922531,40.6586919 64.2919922,40.5561523 C64.1917313,40.4536128 64.0185559,40.337403 63.7724609,40.2075195 C63.526366,40.0776361 63.1982442,39.9261076 62.7880859,39.7529297 C62.2001924,39.5068347 61.7683933,39.2789724 61.4926758,39.0693359 C61.2169583,38.8596995 61.0164394,38.6193047 60.8911133,38.3481445 C60.7657871,38.0769843 60.703125,37.743166 60.703125,37.3466797 C60.703125,36.6676398 60.966306,36.1424172 61.4926758,35.7709961 C62.0190456,35.399575 62.7652946,35.2138672 63.7314453,35.2138672 C64.6520228,35.2138672 65.5475217,35.414386 66.4179688,35.8154297 L65.7890625,37.3193359 C65.4062481,37.1552726 65.0485043,37.0208339 64.7158203,36.9160156 C64.3831364,36.8111974 64.0436215,36.7587891 63.6972656,36.7587891 C63.0820282,36.7587891 62.7744141,36.9251285 62.7744141,37.2578125 C62.7744141,37.4446624 62.8735342,37.6064446 63.0717773,37.7431641 C63.2700205,37.8798835 63.7040982,38.0826809 64.3740234,38.3515625 C64.9710316,38.5931002 65.4085273,38.8186838 65.6865234,39.0283203 C65.9645196,39.2379568 66.1695957,39.4794908 66.3017578,39.7529297 C66.4339199,40.0263686 66.5,40.3522117 66.5,40.7304688 L66.5,40.7304688 Z M71.3466797,41.4755859 C71.7112648,41.4755859 72.1487605,41.3958341 72.6591797,41.2363281 L72.6591797,42.7880859 C72.1396458,43.020509 71.5016314,43.1367188 70.7451172,43.1367188 C69.9111286,43.1367188 69.3038756,42.9259461 68.9233398,42.5043945 C68.5428041,42.0828429 68.3525391,41.450525 68.3525391,40.6074219 L68.3525391,36.9228516 L67.3544922,36.9228516 L67.3544922,36.0410156 L68.5029297,35.34375 L69.1044922,33.7304688 L70.4375,33.7304688 L70.4375,35.3574219 L72.5771484,35.3574219 L72.5771484,36.9228516 L70.4375,36.9228516 L70.4375,40.6074219 C70.4375,40.9036473 70.5206697,41.1223951 70.6870117,41.2636719 C70.8533537,41.4049486 71.0732408,41.4755859 71.3466797,41.4755859 L71.3466797,41.4755859 Z M75.8652344,39.1650391 C75.8652344,39.9215533 75.9894193,40.4934876 76.237793,40.8808594 C76.4861666,41.2682311 76.8906222,41.4619141 77.4511719,41.4619141 C78.0071642,41.4619141 78.4070626,41.2693704 78.6508789,40.8842773 C78.8946952,40.4991843 79.0166016,39.9261106 79.0166016,39.1650391 C79.0166016,38.4085249 78.8935559,37.8411477 78.6474609,37.4628906 C78.401366,37.0846335 77.9980497,36.8955078 77.4375,36.8955078 C76.8815076,36.8955078 76.48047,37.0834942 76.234375,37.4594727 C75.98828,37.8354511 75.8652344,38.4039675 75.8652344,39.1650391 L75.8652344,39.1650391 Z M81.1494141,39.1650391 C81.1494141,40.4091859 80.8212923,41.3821579 80.1650391,42.0839844 C79.5087858,42.7858108 78.5950579,43.1367188 77.4238281,43.1367188 C76.6901005,43.1367188 76.0429716,42.9760758 75.4824219,42.6547852 C74.9218722,42.3334945 74.4912124,41.8720733 74.1904297,41.2705078 C73.8896469,40.6689423 73.7392578,39.9671264 73.7392578,39.1650391 C73.7392578,37.9163349 74.0651009,36.9456415 74.7167969,36.2529297 C75.3684928,35.5602179 76.2844993,35.2138672 77.4648438,35.2138672 C78.1985714,35.2138672 78.8457003,35.3733708 79.40625,35.6923828 C79.9667997,36.0113948 80.3974594,36.4693981 80.6982422,37.0664062 C80.9990249,37.6634144 81.1494141,38.3629517 81.1494141,39.1650391 L81.1494141,39.1650391 Z M89.9267578,43 L87.8417969,43 L87.8417969,38.5361328 C87.8417969,37.9846978 87.7438161,37.5711277 87.5478516,37.2954102 C87.351887,37.0196926 87.0397157,36.8818359 86.6113281,36.8818359 C86.0279919,36.8818359 85.6064466,37.0766582 85.3466797,37.4663086 C85.0869128,37.855959 84.9570312,38.5019486 84.9570312,39.4042969 L84.9570312,43 L82.8720703,43 L82.8720703,35.3574219 L84.4648438,35.3574219 L84.7451172,36.3349609 L84.8613281,36.3349609 C85.0937512,35.9658185 85.4138977,35.6866871 85.8217773,35.4975586 C86.229657,35.30843 86.6933568,35.2138672 87.2128906,35.2138672 C88.1015669,35.2138672 88.7760394,35.4542619 89.2363281,35.9350586 C89.6966169,36.4158553 89.9267578,37.109696 89.9267578,38.0166016 L89.9267578,43 Z" id="Developer-Community"></path>
            </g>
        </g>
    </g>
</svg>