<?xml version="1.0" encoding="UTF-8" standalone="no"?>
<svg width="180px" height="80px" viewBox="0 0 180 80" version="1.1" xmlns="http://www.w3.org/2000/svg" xmlns:xlink="http://www.w3.org/1999/xlink">
    <!-- Generator: Sketch 39.1 (31720) - http://www.bohemiancoding.com/sketch -->
    <title>boston_bonbon_ok</title>
    <desc>Created with Sketch.</desc>
    <defs></defs>
    <g id="logos" stroke="none" stroke-width="1" fill="none" fill-rule="evenodd">
        <g id="boston_bonbon_ok">
            <g id="boston_bonbon" transform="translate(56.000000, 12.000000)">
                <g id="Page-1">
                    <g id="boston_bonbon">
                        <g id="Page-1">
                            <path d="M60.5991968,31.503274 C60.1076306,31.8317182 59.5068273,31.3937926 59.4522089,30.873756 C59.3156626,29.64209 60.0803213,28.5199058 60.0803213,27.28824 C59.5068273,27.4798323 59.3156626,28.1093505 59.1244979,28.6293871 C58.8514056,29.5326087 58.7148594,30.490571 58.5783133,31.4211629 C58.2506024,31.4759036 57.9228916,31.503274 57.5678715,31.5306443 C57.5951807,31.0927187 57.5951807,30.6821635 57.5951807,30.2442378 C56.8305221,30.5726821 56.584739,31.6948665 55.6289157,31.6401257 C54.7277108,31.7769775 54.5365462,30.7642744 54.4546185,30.1073861 C53.471486,30.1621268 53.1983935,31.3390519 52.3244979,31.6127554 C51.6417671,31.6948665 51.286747,31.037978 51.0136546,30.5179414 C50.5493976,31.0653483 49.7028112,32.1875327 49.0200803,31.2843112 C48.5831325,29.9431639 49.4297189,28.6293871 49.566265,27.3156103 C48.856225,27.4798323 48.6650603,28.2735726 48.4738956,28.8757203 C48.2554217,29.7242011 48.1188755,30.6000524 47.9823293,31.4485333 C47.6273093,31.503274 47.2722892,31.503274 46.9445783,31.4485333 C47.0265061,31.0106076 47.0811245,30.5453117 47.135743,30.1073861 C46.3983935,30.490571 46.097992,31.503274 45.1967871,31.6127554 C44.6506024,31.7496072 44.1044177,31.3664222 43.9951807,30.8190151 C43.7220883,29.7789418 43.7767068,28.5199058 44.5413654,27.6987952 C44.7325301,27.4250916 44.8963855,27.1240178 45.0602409,26.8503143 C45.4698795,26.3302777 46.4803213,26.3029072 46.7807229,26.9597957 C47.2176707,27.7535359 46.9718876,28.7114981 46.9718876,29.5873493 C47.7911647,28.8483499 47.5453815,27.5619434 47.8457832,26.5766108 C48.7196787,26.8503143 49.566265,26.439759 50.4674699,26.5218701 C50.8497993,27.9451283 49.8666666,29.2589052 49.8939759,30.6547931 C50.6586346,30.5453117 50.7951807,29.64209 51.0682731,29.0673127 C51.4232932,27.2608696 51.5598393,25.3723153 52.2425703,23.6479832 C52.433735,23.0458355 53.1164659,22.690021 53.6899598,23.0184651 C53.8811245,23.2647983 53.9630522,23.5932425 53.8538152,23.8943164 C53.6080322,24.8796491 52.9799197,25.7007596 52.4064257,26.5218701 C52.8433735,26.5766108 53.3895582,26.4671294 53.7172691,26.8229439 C54.2361446,27.6714248 54.0176707,28.6841278 54.0176707,29.6147198 C54.6184739,28.8757203 54.8096386,27.8903876 55.4650603,27.1513882 C55.7381526,26.4671294 56.8032129,26.1660556 57.2674699,26.8229439 C57.8409638,27.6440544 57.5951807,28.6567574 57.5951807,29.5873493 C58.3325301,28.7662388 58.1686747,27.5619434 58.4417671,26.5766108 C59.3429719,26.8503143 60.1895582,26.439759 61.0634538,26.5218701 C61.4184739,27.9451283 60.4080322,29.2315348 60.5172691,30.6274228 C61.3911647,30.6000524 61.2,29.1494238 61.9919678,28.930461 C61.8554217,29.9157936 61.4457832,30.9832373 60.5991968,31.503274 M55.9293173,42.2324515 C54.2361446,42.3145626 52.7068273,41.5208224 51.2048193,40.8365637 C50.1943775,40.398638 49.2931727,39.4680461 48.0915663,39.6870088 C47.5726907,39.9607124 47.7911647,40.5902305 47.7365462,41.0555264 C48.2827309,41.0281561 48.7469879,40.7544526 49.102008,40.398638 L49.3477911,41.2197485 C49.102008,41.4387114 48.8835341,41.6576742 48.637751,41.876637 C48.6923694,42.1503405 48.7196787,42.424044 48.7742972,42.6703772 C47.2449799,42.6977475 45.988755,40.9186748 46.7807229,39.5227868 C47.5180722,38.4279728 48.9654619,38.5374542 50.1397591,38.5100839 C50.5767068,38.1268989 50.9044177,37.4152698 51.5871486,37.4152698 C51.7236948,38.20901 51.2321285,38.8111576 50.713253,39.3585647 C52.1879518,40.0154531 53.5534136,40.9734155 55.1646586,41.1923782 C55.7654619,41.32923 56.5028112,40.4260084 55.8473895,39.9880827 C55.2738956,39.8238606 54.9734939,40.5354898 54.5365462,40.781823 C54.5365462,40.2344159 54.3180722,39.4680461 54.9188755,39.1396019 C55.5742972,38.9480094 56.5574297,38.838528 56.9124498,39.5501572 C57.2401607,39.9880827 57.1855421,40.5354898 57.1309236,41.0281561 C57.7590362,40.946045 58.3325301,40.6176009 58.9333334,40.4260084 C58.6602409,41.7671556 57.1309236,42.2598219 55.9293173,42.2324515 M42.4658635,33.0086432 C41.2096386,34.2129388 39.297992,34.1581981 37.7413654,33.7750131 C37.0313253,33.5834206 36.3485944,34.0487165 35.6385542,34.0213463 C35.611245,33.5286799 35.6658635,33.0633839 35.7477911,32.598088 C36.2666666,32.6254584 36.7855421,32.6801991 37.3044177,32.7349398 C38.9702811,29.9431639 38.5333334,26.4944997 39.543775,23.4563908 C39.8987951,23.5111315 40.2538152,23.5385018 40.5815261,23.5658722 C40.335743,24.7427973 40.0353414,25.8649817 39.8987951,27.0692771 C41.8650603,27.370351 42.6024096,24.4964641 41.3188755,23.3742797 C39.6257028,21.677318 36.3759036,22.4984285 35.5566265,24.7154269 C35.2016065,25.6733892 35.2016065,26.905055 35.9389558,27.6714248 C36.3759036,28.1367208 37.0586346,28.1093505 37.6594378,28.2188319 C37.7140563,28.547276 37.686747,28.8757203 37.6321285,29.2315348 C36.7036145,29.2315348 35.6385542,29.1220534 35.037751,28.3009429 C33.535743,26.3850183 34.6008032,23.319539 36.7309236,22.3615767 C38.3694779,21.6499477 40.4722892,21.6225773 41.9742972,22.7173913 C43.4763052,23.8122054 43.1759036,26.2481666 41.7558233,27.3156103 C43.7493976,28.4104243 44.1590362,31.4759036 42.4658635,33.0086432 M31.5148594,31.3664222 C31.1598393,31.7222368 30.42249,31.6674961 30.2859437,31.1474594 C29.8763052,29.8336825 30.8048193,28.6020167 30.8321285,27.3156103 C30.4771084,27.3977214 30.2040161,27.6440544 30.0947792,27.999869 C29.6032129,29.1220534 29.5485944,30.3810896 29.1935743,31.5306443 C28.9751004,31.5306443 28.5381526,31.503274 28.3196787,31.503274 C28.3196787,31.0927187 28.3469879,30.6547931 28.3469879,30.2442378 C27.5823293,30.5726821 27.3365462,31.6127554 26.4080322,31.6401257 C25.7526105,31.7769775 25.4248996,31.1474594 25.233735,30.6274228 C24.7694779,31.037978 24.3598393,31.5580147 23.7317269,31.6948665 C23.513253,31.3390519 23.3220883,30.9558669 23.1309236,30.5726821 C22.5574297,31.2569408 21.6289157,32.0233106 20.7004016,31.4485333 C20.2088353,31.2569408 20.4273093,30.7095337 20.7277108,30.4358303 C21.0554217,30.5179414 21.4104418,30.5726821 21.7654619,30.6274228 C21.8746988,29.8610529 21.656225,29.1494238 21.437751,28.4377947 C20.9188755,28.9030906 20.8369478,29.7242011 20.2088353,30.1347564 C19.5261044,30.5453117 19.2530121,31.4759036 18.4064257,31.6127554 C17.9421687,31.7496072 17.3959839,31.5580147 17.2321285,31.0653483 C16.9317269,30.2442378 16.9863454,29.3136459 17.17751,28.4651651 C17.4506024,27.9451283 17.8602409,27.5072027 18.1606425,26.9871661 C18.433735,26.3576479 19.4441767,26.2481665 19.8538152,26.8229439 C20.4273093,27.6440544 20.1542168,28.6567574 20.1815261,29.5873493 C20.6457832,29.0399424 20.9188755,28.3283133 21.0554217,27.6166841 C21.1100402,26.7955736 20.9734939,25.9197224 21.2192771,25.0986119 C21.437751,25.1259821 21.8473895,25.1533526 22.0658635,25.1807228 C21.9566265,25.810241 21.8473895,26.4123886 21.8200803,27.0419068 C22.0385542,27.9451283 22.5301205,28.7662388 22.9124498,29.5873493 C23.4313253,28.7936092 23.6497993,27.6714248 23.2128514,26.7955736 C24.086747,26.1660556 23.8409638,24.9343898 24.2506024,24.0311682 C24.4417671,24.0585386 24.8240964,24.0859088 25.0425703,24.1132793 C25.015261,25.0712415 24.6602409,26.0565741 25.015261,26.9871661 C23.9502007,27.7809062 24.1686747,29.395757 24.0321285,30.6000524 C25.233735,30.4084599 24.9606425,28.6841278 25.6433735,27.917758 C26.1349397,27.4798323 26.2168675,26.5766108 26.9815261,26.4944997 C27.4457832,26.3576479 27.9646586,26.6039811 28.128514,27.0419068 C28.4835341,27.8356469 28.2923694,28.7388685 28.3469879,29.5873493 C29.0843374,28.7662388 28.8658635,27.5619434 29.2208836,26.5766108 C29.9036145,26.7955736 30.6409638,26.6039811 31.3236948,26.4671294 C31.7879518,26.4123886 31.8971888,27.0145364 31.8698795,27.370351 C31.7879518,28.4651651 31.2144579,29.477868 31.1052208,30.5726821 C32.1156626,30.7642744 31.8971888,29.1220534 32.743775,28.9578313 C32.5799197,29.8610529 32.2248996,30.7642744 31.5148594,31.3664222 M22.4208836,40.8639339 C21.5742972,41.5208224 20.4546185,41.32923 19.471486,41.32923 C19.7718876,40.6723416 20.6730923,41.0281561 21.2192771,40.9734155 C20.6730923,40.6176009 20.0449799,40.4807491 19.4441767,40.2617863 C19.3349397,40.6449712 19.2530121,41.0281561 19.3349397,41.411341 C19.0072289,41.876637 18.7068273,42.3693033 18.2425703,42.7251179 C17.751004,41.9861183 18.3244979,41.2471189 18.8160643,40.6997119 C17.8875502,40.0154531 16.7951807,39.6322682 15.7301205,39.1669722 C15.0473895,38.9480094 13.9823293,38.5100839 13.5180722,39.303824 C13.2449799,39.6322682 13.7911647,39.933342 13.9277108,40.1796752 C14.2827309,39.8786013 14.637751,39.6048979 15.0200803,39.3311944 C15.0473895,39.8786013 15.1566265,40.6176009 14.5558233,40.9186748 C13.9550201,41.1650078 13.0811245,41.1923782 12.671486,40.5628602 C12.2345382,40.0428234 12.4803213,39.3311944 12.4803213,38.7290466 C12.7261044,38.8111576 12.9991968,38.9206391 13.2449799,39.0027501 C13.4634538,38.1542693 14.5558233,38.5648246 15.1839357,38.5374542 L15.1566265,38.3732321 C14.7469879,38.291121 14.0915663,38.3458617 14.064257,37.7710843 C16.2216867,38.0174175 18.1879518,39.0027501 20.0722892,40.0154531 C20.4819278,40.2617863 20.9734939,40.2617863 21.437751,40.1796752 C21.9839357,39.933342 21.7108434,39.2764536 21.7654619,38.838528 C21.2192771,38.838528 20.8096386,39.1669722 20.5911647,39.6596386 C20.0722892,39.2217129 20.2361446,38.4279728 20.8369478,38.1542693 C20.7823293,37.825825 20.864257,37.4973809 20.9461848,37.196307 C21.6289157,37.4700104 22.4755021,37.6889733 22.7759036,38.4553431 C23.1036145,39.1943426 23.1582329,40.316527 22.4208836,40.8639339 M10.6232932,39.6870088 C10.9236948,38.4279728 12.2618474,37.825825 13.4634538,37.9079361 C13.0811245,38.4827135 12.2891566,38.4006024 11.7156626,38.6195653 C11.8522088,38.7016762 12.097992,38.838528 12.2345382,38.8932687 C11.7429719,39.2217129 11.1967871,39.4680461 10.6232932,39.6870088 M8.71164659,33.9666056 C8.73895582,33.5013096 8.76626507,33.0633839 8.76626507,32.598088 C9.33975904,32.598088 9.91325301,32.7623101 10.4594378,32.6528287 C11.1421687,31.8043479 11.3060241,30.6821635 11.5518072,29.6694604 C11.9068273,27.6166841 12.1526104,25.5639078 12.5895582,23.5385018 C12.9445783,23.5658722 13.4907631,23.3469094 13.6819278,23.784835 C13.4634538,24.8796491 13.1084337,25.9197224 13.0811245,27.0145364 C14.9381526,27.3977214 15.6208836,24.7701676 14.637751,23.5385018 C13.135743,21.7867993 9.94056225,22.2794657 8.90281124,24.3048716 C8.32931727,25.2902044 8.22008032,26.6860922 8.98473895,27.5893137 C9.44899598,28.1093505 10.2136546,28.1093505 10.8417671,28.2462022 C10.8417671,28.5746465 10.8144578,28.8757203 10.8144578,29.2041645 C9.8313253,29.2315348 8.68433735,29.1220534 8.11084337,28.1914615 C6.74538152,26.2481665 7.78313253,23.2100576 9.96787149,22.3342064 C11.7156626,21.5952069 14.0369478,21.6225773 15.4570281,23.0184651 C16.6313253,24.2775013 16.1670682,26.3029072 14.9108434,27.3429807 C16.7951807,28.3556836 17.2594378,31.037978 15.9212851,32.6801991 C14.7469879,34.1581981 12.6441767,34.2129388 10.951004,33.8023835 C10.1863454,33.5286799 9.47630522,34.1308276 8.71164659,33.9666056 M65.1871486,27.6440544 C62.9751004,25.2628339 62.3742972,21.677318 63.4120482,18.639209 C63.9309236,17.2433212 64.2586346,15.7105815 64.0401607,14.2052121 C63.9036145,13.0009167 63.1935743,11.851362 62.1012049,11.303955 C60.6811245,10.5102148 58.9879518,10.838659 57.4586346,10.9481404 C57.5678715,10.4007334 57.7044177,9.85332635 57.8409638,9.30591933 C57.2947792,9.55225249 56.7485944,9.7712153 56.1751004,9.9354374 C56.1751004,8.64903091 56.366265,7.30788371 55.8746988,6.07621792 C55.3012049,4.57084861 53.7172691,3.58551598 52.1333334,3.53077527 C49.1293173,3.31181246 46.3164659,4.54347827 43.4763052,5.33721844 C41.6192771,6.02147721 39.5983935,6.37729178 37.6321285,5.96673651 C36.1028112,5.61092195 34.8192771,4.51610791 34.0273093,3.17496072 C33.3172691,3.85921949 32.8530121,4.76244106 31.9518072,5.22773703 C29.5212851,6.73310634 26.4899598,6.13095861 23.97751,5.20036669 C21.2192771,4.40662651 18.433735,3.25707177 15.4843374,3.55814562 C14.064257,3.64025667 12.7534136,4.62558932 12.1253012,5.88462545 C11.5518072,7.1436616 11.7156626,8.5942902 11.7429719,9.9354374 C11.2240964,9.7712153 10.7052209,9.57962283 10.1863454,9.41540073 C10.2682731,9.9354374 10.37751,10.4554741 10.4594378,10.9755107 C8.82088353,10.7565479 6.93654619,10.5102148 5.51646586,11.5502881 C4.12369478,12.4535097 3.65943775,14.2599528 3.87791164,15.8200629 C3.95983935,17.7359874 5.0248996,19.4055789 4.99759036,21.3215034 C5.16144579,24.0311682 3.90522089,26.6313515 1.9935743,28.4925354 C2.64899598,29.4231273 3.49558233,30.2168675 3.9871486,31.2569408 C4.88835341,32.7896805 5.07951807,34.623494 4.97028112,36.3751965 C4.86104418,38.0721582 3.95983935,39.6048979 3.87791164,41.32923 C3.65943775,42.9440807 4.17831325,44.8326349 5.68032129,45.7084861 C7.10040161,46.6664484 8.87550201,46.2832635 10.4594378,46.1190414 C10.3502008,46.6938187 10.2136546,47.2685961 10.0497992,47.8160031 C10.5959839,47.5422997 11.1694779,47.3507072 11.7429719,47.1864851 C11.6883534,48.7192248 11.4971888,50.4435568 12.4257028,51.7847041 C13.2995984,53.180592 15.0200803,53.727999 16.6040161,53.6732582 C19.2803213,53.5637768 21.7927711,52.6058146 24.3052208,51.7847041 C26.6265061,50.9635936 29.3574297,50.4161865 31.6514056,51.6752226 C32.6891566,52.1405187 33.2899598,53.1258513 34.0273093,53.9469618 C35.037751,52.0584076 37.113253,50.854112 39.2706827,50.9362232 C41.7831325,50.8267418 44.0771084,52.0584076 46.4530121,52.6879256 C48.3646586,53.2900733 50.3582329,53.8374804 52.3791164,53.6185175 C53.7172691,53.4542954 55.0827309,52.715296 55.7108434,51.4562598 C56.4208836,50.1151126 56.1751004,48.5276323 56.1751004,47.0770037 C56.7212851,47.3233369 57.2947792,47.5696699 57.8409638,47.8160031 C57.7044177,47.2685961 57.5678715,46.6938187 57.4586346,46.1464118 C58.9879518,46.2832635 60.6811245,46.6117077 62.1012049,45.8453379 C63.5485944,45.1337088 64.1220883,43.3820063 64.0947792,41.8492667 C64.1220883,39.7691199 62.920482,37.9079361 62.920482,35.8277894 C62.7566265,33.2002357 63.8763052,30.6821635 65.6787149,28.8483499 C66.1156626,28.4104243 65.3783133,27.999869 65.1871486,27.6440544" id="Fill-1" fill="#FFFFFF"></path>
                            <path d="M33.9180722,1.64222105 C33.1261044,3.09284966 32.033735,4.43399685 30.5317269,5.14562598 C29.2481928,5.693033 27.8008032,5.5835516 26.4899598,5.30984809 C22.9943775,4.54347826 19.7172691,2.70966475 16.0578313,2.84651651 C14.7196787,2.84651651 13.2449799,3.12022001 12.2891566,4.132923 C11.1148594,5.44669984 10.9236948,7.33525405 11.060241,9.03221582 C10.4048193,8.84062336 9.8313253,8.45743844 9.20321285,8.18373494 C9.36706827,8.84062336 9.53092369,9.49751178 9.64016065,10.1544002 C8.08353414,10.1544002 6.33574297,10.0449188 4.99759036,11.0576218 C3.49558233,12.2892876 3.0313253,14.4515453 3.30441767,16.3127291 C3.49558233,18.2833945 4.64257028,20.117208 4.39678715,22.1426139 C4.31485944,24.6333159 2.84016065,26.8229439 1.11967871,28.5199058 C2.8128514,30.2716082 4.31485944,32.4612362 4.39678715,35.0066789 C4.64257028,37.278418 3.2497992,39.303824 3.22248996,41.5755631 C3.14056225,43.2725248 3.7686747,45.1337088 5.18875502,46.1464118 C6.52690764,46.9675223 8.19277108,46.9675223 9.69477911,46.8306705 C9.44899598,47.4328183 9.28514056,48.0897066 9.14859437,48.746595 C9.77670682,48.5002619 10.4048193,48.2265584 11.060241,48.1444474 C10.9783133,49.677187 10.951004,51.4836302 12.0433735,52.715296 C13.3542168,54.0290728 15.3477911,54.357517 17.1502007,54.2206653 C20.6457832,53.9743321 23.8136546,52.2226296 27.2546185,51.6478523 C28.6746988,51.4288895 30.2313253,51.5931116 31.4056225,52.4689628 C32.5253012,53.180592 33.1534136,54.3848873 34.0273093,55.3428497 C34.8192771,54.0564432 35.7751004,52.7700367 37.1678715,52.0584076 C38.3967871,51.4288895 39.8441767,51.5110005 41.1550201,51.7299634 C44.486747,52.3594814 47.6,54.0564432 51.0136546,54.2480357 C52.788755,54.3301466 54.7550201,53.9743321 56.011245,52.6058146 C56.9397591,51.3467784 56.9124498,49.6498167 56.8305221,48.1718177 C57.4586346,48.2265584 58.0594378,48.3634102 58.6875502,48.5002619 C58.5783133,47.9802252 58.4690764,47.4601886 58.3598393,46.9675223 C59.8891566,46.9401519 61.5823293,47.022263 62.8931727,46.091671 C64.2313253,45.0242274 64.8594378,43.2451545 64.7502007,41.5755631 C64.7228916,39.4954165 63.4393575,37.6616029 63.4939759,35.5540859 C63.4393575,32.8717915 64.9413654,30.490571 66.743775,28.6293871 L66.743775,28.4925354 C65.5421687,27.1787585 64.3951807,25.7281299 63.8763052,24.0037977 C63.2481928,22.1699843 63.4393575,20.1445783 64.1767068,18.3928759 C65.0506024,16.0937664 65.1052208,13.1103981 63.2208836,11.2765846 C61.9100402,10.0449188 59.9983935,10.1544002 58.3325301,10.1544002 C58.4963855,9.55225249 58.6329318,8.97747512 58.7421687,8.37532739 C58.1140563,8.56691986 57.513253,8.89536407 56.8305221,9.00484546 C56.9124498,7.60895757 56.9397591,6.13095861 56.2297189,4.89929282 C55.5469879,3.58551598 54.0449799,2.98336825 52.6522089,2.9012572 C50.3036145,2.65492404 47.9823293,3.25707177 45.7975904,4.02344159 C43.2851406,4.78981142 40.6907631,5.99410687 38.0417671,5.33721844 C36.1301205,4.87192248 34.9558233,3.17496072 33.9180722,1.64222105 M30.3951807,4.21503405 C32.0064257,3.22970141 32.9349397,1.50536931 34,0 C34.928514,1.58748036 35.966265,3.20233106 37.5228916,4.21503405 C38.6698795,4.98140387 40.1445783,4.81718177 41.4008032,4.51610791 C44.2409638,3.69499738 46.9991968,2.60018334 49.9212851,2.18962807 C51.9421687,1.91592457 54.1542168,2.08014667 55.8473895,3.33918282 C57.2128514,4.40662651 57.5678715,6.24044002 57.6771084,7.88266108 C58.3871486,7.60895757 59.0971888,7.33525405 59.8345381,7.0889209 C59.697992,7.82792038 59.4522089,8.56691986 59.3702811,9.33328968 C61.1726907,9.27854898 63.166265,9.74384495 64.3405622,11.2492142 C65.5148594,12.6724725 65.5694779,14.6705081 65.4602409,16.4222105 C65.2963855,18.474987 64.0401607,20.3361708 64.3678715,22.4163174 C64.7228916,24.8249083 66.3068273,26.7682032 67.8907631,28.4651651 L67.8907631,28.6567574 C66.279518,30.3537192 64.6955823,32.3243845 64.3678715,34.705605 C64.0401607,36.813122 65.351004,38.7016762 65.4602409,40.7544526 C65.7060241,42.9714511 65.1871486,45.626375 63.1935743,46.9401519 C62.0192771,47.7338921 60.5718876,47.5970404 59.2610442,47.8433735 C59.479518,48.5276323 59.6433735,49.211891 59.8072289,49.9235201 C59.0698795,49.8140387 58.3598393,49.5129649 57.6771084,49.2666317 C57.5678715,50.8814825 57.2401607,52.7700367 55.8200803,53.7827397 C54.1269077,55.0144055 51.9421687,55.1512572 49.9485944,54.904924 C47.8184739,54.6859612 45.7975904,53.8922211 43.7220883,53.3174436 C42.056225,52.8247774 40.335743,52.0310371 38.5606425,52.4142221 C37.0859437,52.8521477 36.0481928,54.0564432 35.1742972,55.2607386 C34.7100402,55.835516 34.464257,56.5471452 33.8634538,56.9850707 C32.7710843,55.2059979 31.5694779,53.2353326 29.5212851,52.4689628 C27.5550201,51.9489262 25.6433735,52.9342588 23.7863454,53.4269251 C21.4104418,54.0564432 19.0891566,55.0417758 16.6040161,54.9870351 C14.856225,55.0144055 12.9718876,54.6038502 11.6610442,53.3721844 C10.5959839,52.3047407 10.37751,50.7172604 10.2409639,49.2666317 C9.53092369,49.5129649 8.82088353,49.7592981 8.13815261,50.0330015 C8.30200803,49.2666317 8.49317269,48.4728916 8.65702811,47.7065217 C7.07309236,47.7886328 5.32530121,47.5696699 4.09638554,46.4474855 C2.70361446,45.0515977 2.23935743,42.9440807 2.43052208,41.0281561 C2.56706827,38.9480094 3.79598393,37.1141959 3.57751004,35.0066789 C3.35903614,32.4338659 1.5566265,30.4084599 0,28.4925354 C1.44738956,26.8776847 2.92208836,25.1259821 3.46827309,22.9637244 C3.90522089,21.1846516 3.22248996,19.4055789 2.70361446,17.7359874 C2.23935743,15.6558408 2.15742972,13.2472499 3.44096386,11.4408067 C4.61526105,9.85332635 6.63614458,9.25117862 8.52048193,9.33328968 C8.49317269,8.56691986 8.27469879,7.82792038 8.13815261,7.06155055 C8.84819278,7.30788371 9.53092369,7.58158722 10.2409639,7.88266108 C10.37751,6.26781037 10.6506024,4.40662651 12.0706827,3.36655317 C14.1461848,1.80644317 16.9317269,1.91592457 19.3349397,2.40859088 C21.8473895,2.98336825 24.2779117,3.88658983 26.7630522,4.57084861 C27.9646586,4.81718177 29.3301205,4.95403353 30.3951807,4.21503405" id="Fill-3" fill="#FFFFFF"></path>
                            <g id="Group-8" transform="translate(25.943775, 35.909901)">
                                <path d="M8.0562249,1.53273965 C8.00160643,1.69696176 7.86506024,1.99803562 7.81044177,2.16225773 C7.40080322,1.4506286 7.45542168,0.383184914 6.47228916,0.191592457 C5.46184739,0.191592457 4.42409638,0.27370351 3.46827309,0.684258774 C2.43052208,1.12218439 1.28353414,1.61485071 0.764658635,2.68229439 C-0.0546184739,3.28444212 -0.218473895,4.59821896 0.518875502,5.36458879 C0.764658635,5.96673651 0.98313253,6.56888423 1.14698795,7.19840231 L1.33815261,7.22577265 C1.74779117,8.86799372 4.04176707,8.64903091 5.27068273,8.07425354 C5.84417671,7.85529073 6.49959839,7.60895757 6.82730923,7.0341802 L7.12771084,6.9794395 C7.67389558,7.60895757 8.38393575,8.10162389 8.98473895,8.67640125 C10.4048193,9.79858564 12.3437751,9.79858564 14.064257,9.6617339 C15.1839357,9.49751178 16.6859437,9.00484547 16.5767068,7.58158722 C15.0473895,7.99214249 13.4361446,8.56691986 11.8248996,8.01951283 C10.8144578,7.63632792 9.58554217,7.44473547 8.87550201,6.54151389 C9.77670682,6.65099529 10.4048193,7.38999476 11.3060241,7.47210581 C12.5895582,7.80055002 14.0915663,8.15636459 15.2931727,7.36262441 C14.3100402,7.28051336 13.3542168,7.30788371 12.3983935,7.06155055 C13.8184739,7.0341802 15.2931727,7.06155055 16.6313253,6.54151389 C17.0955823,6.34992142 17.0409638,5.77514405 17.1502007,5.36458879 L17.3413654,5.28247774 C17.6144579,4.62558932 17.8056225,3.85921949 17.4232932,3.20233106 C16.4128514,1.94329492 15.1293173,0.957962283 13.6,0.410555264 C12.5076306,-1.7386266e-14 11.2514056,-0.0547407019 10.1044177,0.0547407019 C9.28514056,0.246333159 8.32931727,0.629518073 8.0562249,1.53273965" id="Fill-5" fill="#72688D"></path>
                                <path d="M8.0562249,1.53273965 C8.00160643,1.69696176 7.86506024,1.99803562 7.81044177,2.16225773 C7.40080322,1.4506286 7.45542168,0.383184914 6.47228916,0.191592457 C5.46184739,0.191592457 4.42409638,0.27370351 3.46827309,0.684258774 C2.43052208,1.12218439 1.28353414,1.61485071 0.764658635,2.68229439 C-0.0546184739,3.28444212 -0.218473895,4.59821896 0.518875502,5.36458879 C0.764658635,5.96673651 0.98313253,6.56888423 1.14698795,7.19840231 L1.33815261,7.22577265 C1.74779117,8.86799372 4.04176707,8.64903091 5.27068273,8.07425354 C5.84417671,7.85529073 6.49959839,7.60895757 6.82730923,7.0341802 L7.12771084,6.9794395 C7.67389558,7.60895757 8.38393575,8.10162389 8.98473895,8.67640125 C10.4048193,9.79858564 12.3437751,9.79858564 14.064257,9.6617339 C15.1839357,9.49751178 16.6859437,9.00484547 16.5767068,7.58158722 C15.0473895,7.99214249 13.4361446,8.56691986 11.8248996,8.01951283 C10.8144578,7.63632792 9.58554217,7.44473547 8.87550201,6.54151389 C9.77670682,6.65099529 10.4048193,7.38999476 11.3060241,7.47210581 C12.5895582,7.80055002 14.0915663,8.15636459 15.2931727,7.36262441 C14.3100402,7.28051336 13.3542168,7.30788371 12.3983935,7.06155055 C13.8184739,7.0341802 15.2931727,7.06155055 16.6313253,6.54151389 C17.0955823,6.34992142 17.0409638,5.77514405 17.1502007,5.36458879 L17.3413654,5.28247774 C17.6144579,4.62558932 17.8056225,3.85921949 17.4232932,3.20233106 C16.4128514,1.94329492 15.1293173,0.957962283 13.6,0.410555264 C12.5076306,-1.7386266e-14 11.2514056,-0.0547407019 10.1044177,0.0547407019 C9.28514056,0.246333159 8.32931727,0.629518073 8.0562249,1.53273965" id="Stroke-7" stroke="#72688D" stroke-width="0.094"></path>
                            </g>
                            <path d="M33.4811245,10.3459927 C34.3277108,9.90806706 35.4473895,9.55225249 36.3212851,10.1270299 C36.6216867,10.4828444 36.7855421,10.92077 36.9220883,11.3586957 C35.8297189,12.3166579 34.5734939,13.4388423 33.0168675,13.4662127 C32.0064257,13.493583 32.1156626,12.2892876 31.9791164,11.5502881 C32.5799197,11.2765846 32.8530121,10.6196962 33.4811245,10.3459927" id="Fill-9" fill="#E2E2E2"></path>
                            <path d="M33.4811245,10.3459927 C34.3277108,9.90806706 35.4473895,9.55225249 36.3212851,10.1270299 C36.6216867,10.4828444 36.7855421,10.92077 36.9220883,11.3586957 C35.8297189,12.3166579 34.5734939,13.4388423 33.0168675,13.4662127 C32.0064257,13.493583 32.1156626,12.2892876 31.9791164,11.5502881 C32.5799197,11.2765846 32.8530121,10.6196962 33.4811245,10.3459927 L33.4811245,10.3459927 L33.4811245,10.3459927 Z" id="Stroke-11" stroke="#D8D8D8" stroke-width="0.2"></path>
                            <path d="M36.3212851,10.1270299 C37.2497993,10.0449188 38.2056225,9.71647459 39.1614458,9.99017811 C40.1445783,10.4007334 41.1823293,10.9755107 41.6192771,12.0155841 C40.7726907,12.3713986 39.8441767,12.4535097 39.0248996,12.8366947 C38.3148594,12.3713986 37.5502007,11.933473 36.9220883,11.3586957 C36.7855421,10.92077 36.6216867,10.4828444 36.3212851,10.1270299" id="Fill-13" fill="#D8D8D8"></path>
                            <path d="M36.3212851,10.1270299 C37.2497993,10.0449188 38.2056225,9.71647459 39.1614458,9.99017811 C40.1445783,10.4007334 41.1823293,10.9755107 41.6192771,12.0155841 C40.7726907,12.3713986 39.8441767,12.4535097 39.0248996,12.8366947 C38.3148594,12.3713986 37.5502007,11.933473 36.9220883,11.3586957 C36.7855421,10.92077 36.6216867,10.4828444 36.3212851,10.1270299 L36.3212851,10.1270299 L36.3212851,10.1270299 Z" id="Stroke-15" stroke="#D8D8D8" stroke-width="0.2"></path>
                            <path d="M28.2104418,12.9188056 C29.3301205,12.2071765 30.6955823,11.9061027 31.9791164,11.5502881 C32.1156626,12.2892876 32.0064257,13.493583 33.0168675,13.4662127 C34.5734939,13.4388423 35.8297189,12.3166579 36.9220883,11.3586957 C37.5502007,11.933473 38.3148594,12.3713986 39.0248996,12.8366947 C38.9429719,12.8914354 38.8064257,13.028287 38.7244979,13.0830277 C39.2706827,13.1925091 39.8168675,13.3019906 40.3630522,13.3841016 C39.5983935,14.0136196 38.6698795,14.3694342 37.686747,14.5883971 C36.5397591,14.889471 35.3108434,15.984285 34.1365462,15.0810633 C34.3004016,14.7799895 34.464257,14.506286 34.6281124,14.2052121 C33.5084337,14.4515453 32.4160643,14.7799895 31.3236948,15.0263227 C30.42249,14.1504714 29.3028112,13.5209534 28.2104418,12.9188056" id="Fill-17" fill="#D8D8D8"></path>
                            <path d="M28.2104418,12.9188056 C29.3301205,12.2071765 30.6955823,11.9061027 31.9791164,11.5502881 C32.1156626,12.2892876 32.0064257,13.493583 33.0168675,13.4662127 C34.5734939,13.4388423 35.8297189,12.3166579 36.9220883,11.3586957 C37.5502007,11.933473 38.3148594,12.3713986 39.0248996,12.8366947 C38.9429719,12.8914354 38.8064257,13.028287 38.7244979,13.0830277 C39.2706827,13.1925091 39.8168675,13.3019906 40.3630522,13.3841016 C39.5983935,14.0136196 38.6698795,14.3694342 37.686747,14.5883971 C36.5397591,14.889471 35.3108434,15.984285 34.1365462,15.0810633 C34.3004016,14.7799895 34.464257,14.506286 34.6281124,14.2052121 C33.5084337,14.4515453 32.4160643,14.7799895 31.3236948,15.0263227 C30.42249,14.1504714 29.3028112,13.5209534 28.2104418,12.9188056 L28.2104418,12.9188056 L28.2104418,12.9188056 Z" id="Stroke-19" stroke="#D8D8D8" stroke-width="0.2"></path>
                            <path d="M31.351004,15.3000262 C31.2417671,15.8748036 31.2417671,16.4495809 31.2963855,17.0243583 C32.033735,17.1338397 32.6618474,16.7780251 33.0168675,16.1758775 C32.8257028,16.1485071 32.388755,16.0937664 32.1975904,16.0663961 C32.1702811,15.7105815 32.1429719,15.3821372 32.1156626,15.0263227 C31.8698795,15.135804 31.6240964,15.2452856 31.351004,15.3000262 M41.6192771,12.0155841 C42.0289157,13.028287 41.8104418,14.1778418 41.9469879,15.2452855 L41.6465864,15.2452855 C41.728514,14.8347303 41.7558233,14.4241749 41.8104418,13.9862494 C39.8441767,14.3968046 37.9598393,15.0536931 36.1574297,15.8474332 C36.8674699,16.0663961 37.57751,16.2853588 38.2602409,16.613803 L38.0963855,16.7780251 C37.7959839,16.8875066 37.4955823,16.9422473 37.1951807,16.996988 C37.0586346,17.1064694 36.7855421,17.3528026 36.648996,17.4896542 C36.5397591,17.5443949 36.3485944,17.6812467 36.2393575,17.7633578 C36.0208836,17.7086171 35.8024096,17.6538764 35.5566265,17.5991356 C35.3927711,17.7907281 35.2289157,18.0096909 35.0650603,18.2012834 C34.6827309,18.2833945 34.3004016,18.3928759 33.9180722,18.5023572 C32.962249,18.2833945 32.033735,18.9129125 31.0506024,18.639209 C31.1325301,18.1739131 31.1871486,17.7086171 31.2690764,17.2706915 C29.8763052,16.996988 28.8658635,15.9021739 27.5277108,15.5463593 C27.6915663,14.9168413 27.8554217,14.2599528 28.0738956,13.6030644 C28.8658635,14.5336564 30.1220883,14.9989524 31.3236948,15.0263227 C32.4160643,14.7799895 33.5084337,14.4515453 34.6281124,14.2052121 C34.464257,14.506286 34.3004016,14.7799895 34.1365462,15.0810633 C35.3108434,15.984285 36.5397591,14.889471 37.686747,14.5883971 C38.6698795,14.3694342 39.5983935,14.0136196 40.3630522,13.3841016 C39.8168675,13.3019906 39.2706827,13.1925091 38.7244979,13.0830277 C38.8064257,13.028287 38.9429719,12.8914354 39.0248996,12.8366947 C39.8441767,12.4535097 40.7726907,12.3713986 41.6192771,12.0155841" id="Fill-21" fill="#D8D8D8"></path>
                            <path d="M31.351004,15.3000262 C31.2417671,15.8748036 31.2417671,16.4495809 31.2963855,17.0243583 C32.033735,17.1338397 32.6618474,16.7780251 33.0168675,16.1758775 C32.8257028,16.1485071 32.388755,16.0937664 32.1975904,16.0663961 C32.1702811,15.7105815 32.1429719,15.3821372 32.1156626,15.0263227 C31.8698795,15.135804 31.6240964,15.2452856 31.351004,15.3000262 L31.351004,15.3000262 L31.351004,15.3000262 Z M41.6192771,12.0155841 C42.0289157,13.028287 41.8104418,14.1778418 41.9469879,15.2452855 L41.6465864,15.2452855 C41.728514,14.8347303 41.7558233,14.4241749 41.8104418,13.9862494 C39.8441767,14.3968046 37.9598393,15.0536931 36.1574297,15.8474332 C36.8674699,16.0663961 37.57751,16.2853588 38.2602409,16.613803 L38.0963855,16.7780251 C37.7959839,16.8875066 37.4955823,16.9422473 37.1951807,16.996988 C37.0586346,17.1064694 36.7855421,17.3528026 36.648996,17.4896542 C36.5397591,17.5443949 36.3485944,17.6812467 36.2393575,17.7633578 C36.0208836,17.7086171 35.8024096,17.6538764 35.5566265,17.5991356 C35.3927711,17.7907281 35.2289157,18.0096909 35.0650603,18.2012834 C34.6827309,18.2833945 34.3004016,18.3928759 33.9180722,18.5023572 C32.962249,18.2833945 32.033735,18.9129125 31.0506024,18.639209 C31.1325301,18.1739131 31.1871486,17.7086171 31.2690764,17.2706915 C29.8763052,16.996988 28.8658635,15.9021739 27.5277108,15.5463593 C27.6915663,14.9168413 27.8554217,14.2599528 28.0738956,13.6030644 C28.8658635,14.5336564 30.1220883,14.9989524 31.3236948,15.0263227 C32.4160643,14.7799895 33.5084337,14.4515453 34.6281124,14.2052121 C34.464257,14.506286 34.3004016,14.7799895 34.1365462,15.0810633 C35.3108434,15.984285 36.5397591,14.889471 37.686747,14.5883971 C38.6698795,14.3694342 39.5983935,14.0136196 40.3630522,13.3841016 C39.8168675,13.3019906 39.2706827,13.1925091 38.7244979,13.0830277 C38.8064257,13.028287 38.9429719,12.8914354 39.0248996,12.8366947 C39.8441767,12.4535097 40.7726907,12.3713986 41.6192771,12.0155841 L41.6192771,12.0155841 L41.6192771,12.0155841 Z" id="Stroke-23" stroke="#D8D8D8" stroke-width="0.2"></path>
                            <path d="M28.0192771,12.8366947 L28.2104418,12.9188056 C29.3028112,13.5209534 30.42249,14.1504714 31.3236948,15.0263227 C30.1220883,14.9989524 28.8658635,14.5336564 28.0738956,13.6030644 C28.0738956,13.411472 28.0465864,13.028287 28.0192771,12.8366947" id="Fill-25" fill="#D8D8D8"></path>
                            <path d="M28.0192771,12.8366947 L28.2104418,12.9188056 C29.3028112,13.5209534 30.42249,14.1504714 31.3236948,15.0263227 C30.1220883,14.9989524 28.8658635,14.5336564 28.0738956,13.6030644 C28.0738956,13.411472 28.0465864,13.028287 28.0192771,12.8366947 L28.0192771,12.8366947 L28.0192771,12.8366947 Z" id="Stroke-27" stroke="#D8D8D8" stroke-width="0.2"></path>
                            <path d="M36.1574297,15.8474332 C37.9598393,15.0536931 39.8441767,14.3968046 41.8104418,13.9862494 C41.7558233,14.4241749 41.728514,14.8347303 41.6465864,15.2452855 C41.5373493,15.4916186 41.4281124,15.7105815 41.2915663,15.9569146 C40.1718876,15.9295443 39.1341365,16.3400995 38.0963855,16.7780251 L38.2602409,16.613803 C37.57751,16.2853588 36.8674699,16.0663961 36.1574297,15.8474332" id="Fill-29" fill="#D8D8D8"></path>
                            <path d="M36.1574297,15.8474332 C37.9598393,15.0536931 39.8441767,14.3968046 41.8104418,13.9862494 C41.7558233,14.4241749 41.728514,14.8347303 41.6465864,15.2452855 C41.5373493,15.4916186 41.4281124,15.7105815 41.2915663,15.9569146 C40.1718876,15.9295443 39.1341365,16.3400995 38.0963855,16.7780251 L38.2602409,16.613803 C37.57751,16.2853588 36.8674699,16.0663961 36.1574297,15.8474332 L36.1574297,15.8474332 L36.1574297,15.8474332 Z" id="Stroke-31" stroke="#D8D8D8" stroke-width="0.2"></path>
                            <path d="M31.351004,15.3000262 C31.6240964,15.2452856 31.8698795,15.135804 32.1156626,15.0263227 C32.1429719,15.3821372 32.1702811,15.7105815 32.1975904,16.0663961 C32.388755,16.0937664 32.8257028,16.1485071 33.0168675,16.1758775 C32.6618474,16.7780251 32.033735,17.1338397 31.2963855,17.0243583 C31.2417671,16.4495809 31.2417671,15.8748036 31.351004,15.3000262" id="Fill-33" fill="#D8D8D8"></path>
                            <path d="M31.351004,15.3000262 C31.6240964,15.2452856 31.8698795,15.135804 32.1156626,15.0263227 C32.1429719,15.3821372 32.1702811,15.7105815 32.1975904,16.0663961 C32.388755,16.0937664 32.8257028,16.1485071 33.0168675,16.1758775 C32.6618474,16.7780251 32.033735,17.1338397 31.2963855,17.0243583 C31.2417671,16.4495809 31.2417671,15.8748036 31.351004,15.3000262 L31.351004,15.3000262 L31.351004,15.3000262 Z" id="Stroke-35" stroke="#D8D8D8" stroke-width="0.2"></path>
                            <path d="M41.2915663,15.9569146 C41.4281124,15.7105815 41.5373493,15.4916186 41.6465864,15.2452856 C42.1654619,15.8748036 43.0666666,15.9569146 43.6674699,16.4495809 C43.5309236,16.8327658 43.2578313,17.1064694 42.9301205,17.3254322 C39.6803213,19.2139864 35.9389558,20.0624673 32.4433735,21.3762441 C32.3614458,21.1025406 32.279518,20.828837 32.1975904,20.5551336 C32.7710843,19.8708748 33.3718876,19.2139864 33.9180722,18.5023572 C34.3004016,18.3928759 34.6827309,18.2833945 35.0650603,18.2012834 C35.2289157,18.0096909 35.3927711,17.7907281 35.5566265,17.5991356 C35.8024096,17.6538764 36.0208836,17.7086171 36.2393575,17.7633578 C36.3212851,18.0096909 36.3759036,18.2833945 36.4578313,18.5297277 C35.2835341,18.639209 33.9726907,18.9402829 33.535743,20.1719487 L34.5188755,20.1719487 C35.0104418,19.9256155 35.4473895,19.5424305 36.0208836,19.4329492 C35.966265,19.2960975 35.8570281,19.0223939 35.8024096,18.8855422 C36.4305221,19.0223939 37.1405622,19.1318753 37.6594378,18.6665793 C37.2771084,18.3107648 36.9493976,17.9002095 36.648996,17.4896542 C36.7855421,17.3528026 37.0586346,17.1064694 37.1951807,16.996988 C37.4955823,16.9422473 37.7959839,16.8875066 38.0963855,16.7780251 C39.1341365,16.3400995 40.1718876,15.9295443 41.2915663,15.9569146" id="Fill-37" fill="#E2E2E2"></path>
                            <path d="M41.2915663,15.9569146 C41.4281124,15.7105815 41.5373493,15.4916186 41.6465864,15.2452856 C42.1654619,15.8748036 43.0666666,15.9569146 43.6674699,16.4495809 C43.5309236,16.8327658 43.2578313,17.1064694 42.9301205,17.3254322 C39.6803213,19.2139864 35.9389558,20.0624673 32.4433735,21.3762441 C32.3614458,21.1025406 32.279518,20.828837 32.1975904,20.5551336 C32.7710843,19.8708748 33.3718876,19.2139864 33.9180722,18.5023572 C34.3004016,18.3928759 34.6827309,18.2833945 35.0650603,18.2012834 C35.2289157,18.0096909 35.3927711,17.7907281 35.5566265,17.5991356 C35.8024096,17.6538764 36.0208836,17.7086171 36.2393575,17.7633578 C36.3212851,18.0096909 36.3759036,18.2833945 36.4578313,18.5297277 C35.2835341,18.639209 33.9726907,18.9402829 33.535743,20.1719487 L34.5188755,20.1719487 C35.0104418,19.9256155 35.4473895,19.5424305 36.0208836,19.4329492 C35.966265,19.2960975 35.8570281,19.0223939 35.8024096,18.8855422 C36.4305221,19.0223939 37.1405622,19.1318753 37.6594378,18.6665793 C37.2771084,18.3107648 36.9493976,17.9002095 36.648996,17.4896542 C36.7855421,17.3528026 37.0586346,17.1064694 37.1951807,16.996988 C37.4955823,16.9422473 37.7959839,16.8875066 38.0963855,16.7780251 C39.1341365,16.3400995 40.1718876,15.9295443 41.2915663,15.9569146 L41.2915663,15.9569146 L41.2915663,15.9569146 Z" id="Stroke-39" stroke="#E2E2E2" stroke-width="0.2"></path>
                            <path d="M27.5277108,15.5463593 C28.8658635,15.9021739 29.8763052,16.996988 31.2690764,17.2706915 C31.1871486,17.7086171 31.1325301,18.1739131 31.0506024,18.639209 C31.0506024,18.72132 30.9959839,18.9402829 30.9959839,19.0497643 C30.2313253,18.4476166 29.384739,17.9823206 28.5927711,17.4896542 C28.0465864,17.079099 27.5004016,16.5864327 27.5277108,15.8474332 L27.5277108,15.5463593 L27.5277108,15.5463593 Z" id="Fill-41" fill="#D8D8D8"></path>
                            <path d="M27.5277108,15.5463593 C28.8658635,15.9021739 29.8763052,16.996988 31.2690764,17.2706915 C31.1871486,17.7086171 31.1325301,18.1739131 31.0506024,18.639209 C31.0506024,18.72132 30.9959839,18.9402829 30.9959839,19.0497643 C30.2313253,18.4476166 29.384739,17.9823206 28.5927711,17.4896542 C28.0465864,17.079099 27.5004016,16.5864327 27.5277108,15.8474332 L27.5277108,15.5463593 L27.5277108,15.5463593 L27.5277108,15.5463593 Z" id="Stroke-43" stroke="#D8D8D8" stroke-width="0.2"></path>
                            <path d="M26.7630522,15.9021739 C26.9542168,15.8748036 27.3365462,15.8748036 27.5277108,15.8474332 C27.5004016,16.5864327 28.0465864,17.079099 28.5927711,17.4896542 C28.456225,17.9823206 28.3196787,18.5023572 28.1558233,19.0223939 C28.0738956,19.0771346 27.8827309,19.186616 27.8008032,19.2413567 C27.4457832,18.9950236 26.9542168,18.7760607 26.8995984,18.2833945 C26.6538152,17.5443949 27.3092369,16.7780251 26.8722892,16.0663961 L26.7630522,15.9021739 L26.7630522,15.9021739 Z" id="Fill-45" fill="#D8D8D8"></path>
                            <path d="M26.7630522,15.9021739 C26.9542168,15.8748036 27.3365462,15.8748036 27.5277108,15.8474332 C27.5004016,16.5864327 28.0465864,17.079099 28.5927711,17.4896542 C28.456225,17.9823206 28.3196787,18.5023572 28.1558233,19.0223939 C28.0738956,19.0771346 27.8827309,19.186616 27.8008032,19.2413567 C27.4457832,18.9950236 26.9542168,18.7760607 26.8995984,18.2833945 C26.6538152,17.5443949 27.3092369,16.7780251 26.8722892,16.0663961 L26.7630522,15.9021739 L26.7630522,15.9021739 L26.7630522,15.9021739 Z" id="Stroke-47" stroke="#D8D8D8" stroke-width="0.2"></path>
                            <path d="M26.8722892,16.0663961 C27.3092369,16.7780251 26.6538152,17.5443949 26.8995984,18.2833945 C26.9542168,18.7760607 27.4457832,18.9950236 27.8008032,19.2413567 C28.7566265,19.7887637 29.6032129,20.6098743 30.7228916,20.8562074 C30.7502007,21.0204295 30.77751,21.3488738 30.77751,21.5130959 C31.1325301,21.3488738 31.4602409,21.1299109 31.8425703,21.1572813 C31.9518072,20.9383185 32.0610442,20.7467261 32.1975904,20.5551336 C32.279518,20.828837 32.3614458,21.1025406 32.4433735,21.3762441 C31.3783133,22.1426139 30.1767068,21.4036145 29.0024096,21.4857255 C28.920482,21.3488738 28.7839357,21.1025406 28.702008,20.9656888 C28.3469879,20.8835778 27.9919678,20.8014667 27.6369478,20.6919854 L27.6369478,19.9256155 C26.8722892,19.6792823 26.2441767,19.186616 25.4522089,19.0771346 C25.7253012,18.639209 25.7526105,18.1191724 25.8345381,17.6538764 C26.0257028,17.0243583 26.4899598,16.5590623 26.8722892,16.0663961" id="Fill-49" fill="#E2E2E2"></path>
                            <path d="M26.8722892,16.0663961 C27.3092369,16.7780251 26.6538152,17.5443949 26.8995984,18.2833945 C26.9542168,18.7760607 27.4457832,18.9950236 27.8008032,19.2413567 C28.7566265,19.7887637 29.6032129,20.6098743 30.7228916,20.8562074 C30.7502007,21.0204295 30.77751,21.3488738 30.77751,21.5130959 C31.1325301,21.3488738 31.4602409,21.1299109 31.8425703,21.1572813 C31.9518072,20.9383185 32.0610442,20.7467261 32.1975904,20.5551336 C32.279518,20.828837 32.3614458,21.1025406 32.4433735,21.3762441 C31.3783133,22.1426139 30.1767068,21.4036145 29.0024096,21.4857255 C28.920482,21.3488738 28.7839357,21.1025406 28.702008,20.9656888 C28.3469879,20.8835778 27.9919678,20.8014667 27.6369478,20.6919854 L27.6369478,19.9256155 C26.8722892,19.6792823 26.2441767,19.186616 25.4522089,19.0771346 C25.7253012,18.639209 25.7526105,18.1191724 25.8345381,17.6538764 C26.0257028,17.0243583 26.4899598,16.5590623 26.8722892,16.0663961 L26.8722892,16.0663961 L26.8722892,16.0663961 Z" id="Stroke-51" stroke="#D8D8D8" stroke-width="0.2"></path>
                            <path d="M28.5927711,17.4896542 C29.384739,17.9823206 30.2313253,18.4476166 30.9959839,19.0497643 C30.8321285,19.6245416 30.6682731,20.2266894 30.7228916,20.8562074 C29.6032129,20.6098743 28.7566265,19.7887637 27.8008032,19.2413567 C27.8827309,19.186616 28.0738956,19.0771346 28.1558233,19.0223939 C28.3196787,18.5023572 28.456225,17.9823206 28.5927711,17.4896542" id="Fill-53" fill="#D8D8D8"></path>
                            <path d="M28.5927711,17.4896542 C29.384739,17.9823206 30.2313253,18.4476166 30.9959839,19.0497643 C30.8321285,19.6245416 30.6682731,20.2266894 30.7228916,20.8562074 C29.6032129,20.6098743 28.7566265,19.7887637 27.8008032,19.2413567 C27.8827309,19.186616 28.0738956,19.0771346 28.1558233,19.0223939 C28.3196787,18.5023572 28.456225,17.9823206 28.5927711,17.4896542 L28.5927711,17.4896542 L28.5927711,17.4896542 Z" id="Stroke-55" stroke="#D8D8D8" stroke-width="0.2"></path>
                            <path d="M36.2393575,17.7633578 C36.3485944,17.6812467 36.5397591,17.5443949 36.648996,17.4896542 C36.9493976,17.9002095 37.2771084,18.3107648 37.6594378,18.6665793 C37.1405622,19.1318753 36.4305221,19.0223939 35.8024096,18.8855422 C35.8570281,19.0223939 35.966265,19.2960975 36.0208836,19.4329492 C35.4473895,19.5424305 35.0104418,19.9256155 34.5188755,20.1719487 L33.535743,20.1719487 C33.9726907,18.9402829 35.2835341,18.639209 36.4578313,18.5297277 C36.3759036,18.2833945 36.3212851,18.0096909 36.2393575,17.7633578" id="Fill-57" fill="#E2E2E2"></path>
                            <path d="M36.2393575,17.7633578 C36.3485944,17.6812467 36.5397591,17.5443949 36.648996,17.4896542 C36.9493976,17.9002095 37.2771084,18.3107648 37.6594378,18.6665793 C37.1405622,19.1318753 36.4305221,19.0223939 35.8024096,18.8855422 C35.8570281,19.0223939 35.966265,19.2960975 36.0208836,19.4329492 C35.4473895,19.5424305 35.0104418,19.9256155 34.5188755,20.1719487 L33.535743,20.1719487 C33.9726907,18.9402829 35.2835341,18.639209 36.4578313,18.5297277 C36.3759036,18.2833945 36.3212851,18.0096909 36.2393575,17.7633578 L36.2393575,17.7633578 L36.2393575,17.7633578 Z" id="Stroke-59" stroke="#E2E2E2" stroke-width="0.2"></path>
                            <path d="M31.0506024,18.639209 C32.033735,18.9129125 32.962249,18.2833945 33.9180722,18.5023572 C33.3718876,19.2139864 32.7710843,19.8708748 32.1975904,20.5551336 C32.0610442,20.746726 31.9518072,20.9383185 31.8425703,21.1572813 C31.4602409,21.1299109 31.1325301,21.3488738 30.77751,21.5130959 C30.77751,21.3488738 30.7502007,21.0204295 30.7228916,20.8562074 C30.6682731,20.2266894 30.8321285,19.6245416 30.9959839,19.0497643 C30.9959839,18.9402829 31.0506024,18.72132 31.0506024,18.639209" id="Fill-61" fill="#D8D8D8"></path>
                            <path d="M31.0506024,18.639209 C32.033735,18.9129125 32.962249,18.2833945 33.9180722,18.5023572 C33.3718876,19.2139864 32.7710843,19.8708748 32.1975904,20.5551336 C32.0610442,20.746726 31.9518072,20.9383185 31.8425703,21.1572813 C31.4602409,21.1299109 31.1325301,21.3488738 30.77751,21.5130959 C30.77751,21.3488738 30.7502007,21.0204295 30.7228916,20.8562074 C30.6682731,20.2266894 30.8321285,19.6245416 30.9959839,19.0497643 C30.9959839,18.9402829 31.0506024,18.72132 31.0506024,18.639209 L31.0506024,18.639209 L31.0506024,18.639209 Z" id="Stroke-63" stroke="#D8D8D8" stroke-width="0.2"></path>
                            <path d="M12.8353414,28.4651651 C12.5895582,30.1347564 12.0706827,31.7496072 11.0875502,33.0907544 C12.0433735,33.4739392 13.2176707,33.6381613 14.1461848,33.0907544 C15.8393575,32.0506809 16.0851406,29.3136459 14.5831325,27.999869 C14.064257,27.4798323 12.8080322,27.5893137 12.8353414,28.4651651" id="Fill-65" fill="#FFFFFF"></path>
                            <path d="M39.8168675,27.8903876 C39.5164659,29.7242011 39.079518,31.6127554 37.9052208,33.1181246 C38.8610442,33.4465689 39.9807229,33.610791 40.9365462,33.1181246 C42.7935743,32.1054217 42.9301205,29.0673127 41.2369478,27.8356469 C40.8,27.534573 40.2538152,27.7809062 39.8168675,27.8903876" id="Fill-67" fill="#FFFFFF"></path>
                            <g id="Group-72">
                                <path d="M0.365139604,0.027370351 C0.288941797,0.164222105 0.174645087,0.383184914 0.136546185,0.492666317 C0.479436312,1.17692509 1.20331547,-0.109481404 0.365139604,0.027370351" id="Fill-69" fill="#FFFFFF"></path>
                                <path d="M0.365139604,0.027370351 C0.288941797,0.164222105 0.174645087,0.383184914 0.136546185,0.492666317 C0.479436312,1.17692509 1.20331547,-0.109481404 0.365139604,0.027370351" id="Stroke-71" stroke="#FFFFFF" stroke-width="0.094"></path>
                            </g>
                            <path d="M45.5791164,27.3156103 C45.0056225,28.0546097 45.1148594,29.1220534 45.6064257,29.8884232 C46.0706827,29.4504977 46.097992,28.7662388 46.1799197,28.1640912 C46.2072289,27.8082766 46.1526105,27.0419068 45.5791164,27.3156103" id="Fill-73" fill="#FFFFFF"></path>
                            <path d="M52.9253012,29.8610529 C53.0618474,29.0399424 53.362249,28.0819801 52.897992,27.3156103 C51.6963855,27.3977214 51.6963855,29.7789418 52.9253012,29.8610529" id="Fill-75" fill="#FFFFFF"></path>
                            <path d="M55.9839357,27.370351 C55.902008,28.1640912 55.4104418,29.5052384 56.4481928,29.8063122 C56.6393575,28.9852017 56.7759036,28.1640912 56.7212851,27.3429807 C56.5301205,27.3429807 56.1751004,27.370351 55.9839357,27.370351" id="Fill-77" fill="#FFFFFF"></path>
                            <path d="M44.7871486,29.8884232 C44.5686747,30.2168675 44.7871486,30.873756 45.2240964,30.7916449 C45.7702811,30.5726821 45.1967871,29.6968309 44.7871486,29.8884232" id="Fill-79" fill="#FFFFFF"></path>
                            <path d="M55.3831325,29.9157936 C55.1100402,30.1894971 55.4650603,30.8463855 55.8473895,30.6274228 C56.0931727,30.3263489 55.7381526,29.7242011 55.3831325,29.9157936" id="Fill-81" fill="#FFFFFF"></path>
                            <path d="M51.8875502,30.1894971 C51.6144579,30.5453117 52.2971888,30.9284966 52.5429719,30.6000524 C52.788755,30.2442378 52.1606425,29.8884232 51.8875502,30.1894971" id="Fill-83" fill="#FFFFFF"></path>
                            <path d="M53.0719669,23.8943164 C53.9101428,23.7574647 53.1862637,25.0438712 52.8433735,24.3596123 C52.8814723,24.2501309 52.9957691,24.0311682 53.0719669,23.8943164" id="Fill-85" fill="#FFFFFF"></path>
                            <path d="M18.6248996,27.4524621 C18.2698795,28.0819801 18.0240964,29.6968309 19.0072289,29.7242011 C19.2530121,28.9852017 19.362249,28.1640912 19.2530121,27.370351 C19.143775,27.370351 18.897992,27.3156103 18.788755,27.28824 L18.6248996,27.4524621" id="Fill-87" fill="#FFFFFF"></path>
                            <path d="M26.8176707,27.4250916 C26.4080322,28.0272394 26.2168675,29.6968309 27.1726907,29.7242011 C27.3638554,29.1494238 27.4730923,28.547276 27.4457832,27.9451283 C27.4730923,27.5619434 27.2273093,27.0145364 26.8176707,27.4250916" id="Fill-89" fill="#FFFFFF"></path>
                            <path d="M18.0041105,30.1705783 C17.8961442,30.6510271 18.076088,30.8226159 18.5439419,30.7196626 C18.6878969,30.2392139 18.507953,30.0333072 18.0041105,30.1705783" id="Fill-91" fill="#FFFFFF"></path>
                            <path d="M26.1998011,30.1705783 C26.0598355,30.6510271 26.2347925,30.8226159 26.7246725,30.7196626 C26.8646382,30.2392139 26.689681,30.0333072 26.1998011,30.1705783" id="Fill-93" fill="#FFFFFF"></path>
                            <path d="M18.6248996,27.4524621 L18.788755,27.28824 C18.897992,27.3156103 19.143775,27.370351 19.2530121,27.370351 C19.362249,28.1640912 19.2530121,28.9852017 19.0072289,29.7242011 C18.0240964,29.6968309 18.2698795,28.0819801 18.6248996,27.4524621" id="Fill-95" fill="#FFFFFF"></path>
                            <path d="M26.8176707,27.4250916 C27.2273093,27.0145364 27.4730923,27.5619434 27.4457832,27.9451283 C27.4730923,28.547276 27.3638554,29.1494238 27.1726907,29.7242011 C26.2168675,29.6968309 26.4080322,28.0272394 26.8176707,27.4250916" id="Fill-97" fill="#FFFFFF"></path>
                            <path d="M45.5791164,27.3156103 C46.1526105,27.0419068 46.2072289,27.8082766 46.1799197,28.1640912 C46.097992,28.7662388 46.0706827,29.4504977 45.6064257,29.8884232 C45.1148594,29.1220534 45.0056225,28.0546097 45.5791164,27.3156103" id="Fill-99" fill="#FFFFFF"></path>
                            <path d="M52.9253012,29.8610529 C51.6963855,29.7789418 51.6963855,27.3977214 52.897992,27.3156103 C53.362249,28.0819801 53.0618474,29.0399424 52.9253012,29.8610529" id="Fill-101" fill="#FFFFFF"></path>
                            <path d="M55.9839357,27.370351 C56.1751004,27.370351 56.5301205,27.3429807 56.7212851,27.3429807 C56.7759036,28.1640912 56.6393575,28.9852017 56.4481928,29.8063122 C55.4104418,29.5052384 55.902008,28.1640912 55.9839357,27.370351" id="Fill-103" fill="#FFFFFF"></path>
                            <path d="M39.8168675,27.8903876 C40.2538152,27.7809062 40.8,27.534573 41.2369478,27.8356469 C42.9301205,29.0673127 42.7935743,32.1054217 40.9365462,33.1181246 C39.9807229,33.610791 38.8610442,33.4465689 37.9052208,33.1181246 C39.079518,31.6127554 39.5164659,29.7242011 39.8168675,27.8903876" id="Fill-105" fill="#FFFFFF"></path>
                            <path d="M44.7871486,29.8884232 C45.1967871,29.6968309 45.7702811,30.5726821 45.2240964,30.7916449 C44.7871486,30.873756 44.5686747,30.2168675 44.7871486,29.8884232" id="Fill-107" fill="#FFFFFF"></path>
                            <path d="M55.3831325,29.9157936 C55.7381526,29.7242011 56.0931727,30.3263489 55.8473895,30.6274228 C55.4650603,30.8463855 55.1100402,30.1894971 55.3831325,29.9157936" id="Fill-109" fill="#FFFFFF"></path>
                            <path d="M18.0041105,30.1705783 C18.507953,30.0333072 18.6878969,30.2392139 18.5439419,30.7196626 C18.076088,30.8226159 17.8961442,30.6510271 18.0041105,30.1705783" id="Fill-111" fill="#FFFFFF"></path>
                            <path d="M26.1998011,30.1705783 C26.689681,30.0333072 26.8646382,30.2392139 26.7246725,30.7196626 C26.2347925,30.8226159 26.0598355,30.6510271 26.1998011,30.1705783" id="Fill-113" fill="#FFFFFF"></path>
                            <path d="M51.8875502,30.1894971 C52.1606425,29.8884232 52.788755,30.2442378 52.5429719,30.6000524 C52.2971888,30.9284966 51.6144579,30.5453117 51.8875502,30.1894971" id="Fill-115" fill="#FFFFFF"></path>
                            <path d="M34,37.4426402 C34.2730923,36.5394185 35.2289157,36.1562337 36.0481928,35.9646412 C37.1951807,35.8551598 38.4514056,35.9099005 39.543775,36.3204558 C38.9702811,36.2930854 38.3967871,36.2930854 37.8506024,36.3204558 C38.7244979,37.5521216 40.7180722,37.4973809 41.264257,39.0574908 C41.8923694,39.9607124 40.6088353,40.6723416 39.8168675,40.6449712 C38.3967871,40.4807491 37.0859437,39.7691199 35.6385542,39.7417497 C36.0481928,40.9734155 37.6594378,40.8365637 38.2602409,41.8492667 C38.0963855,41.8218963 37.8232932,41.794526 37.6594378,41.794526 C37.3317269,41.7671556 37.0040161,41.7397853 36.6763052,41.7124149 C36.1574297,41.1376375 35.4746988,40.7270823 35.0104418,40.1249345 C34.4369478,39.3311944 34.1911647,38.3732321 34,37.4426402" id="Fill-117" fill="#E2E2E2"></path>
                            <path d="M34,37.4426402 C34.2730923,36.5394185 35.2289157,36.1562337 36.0481928,35.9646412 C37.1951807,35.8551598 38.4514056,35.9099005 39.543775,36.3204558 C38.9702811,36.2930854 38.3967871,36.2930854 37.8506024,36.3204558 C38.7244979,37.5521216 40.7180722,37.4973809 41.264257,39.0574908 C41.8923694,39.9607124 40.6088353,40.6723416 39.8168675,40.6449712 C38.3967871,40.4807491 37.0859437,39.7691199 35.6385542,39.7417497 C36.0481928,40.9734155 37.6594378,40.8365637 38.2602409,41.8492667 C38.0963855,41.8218963 37.8232932,41.794526 37.6594378,41.794526 C37.3317269,41.7671556 37.0040161,41.7397853 36.6763052,41.7124149 C36.1574297,41.1376375 35.4746988,40.7270823 35.0104418,40.1249345 C34.4369478,39.3311944 34.1911647,38.3732321 34,37.4426402 L34,37.4426402 L34,37.4426402 Z" id="Stroke-119" stroke="#D8D8D8" stroke-width="0.2"></path>
                            <path d="M29.4120482,36.5941592 C30.3678715,36.183604 31.4056225,36.101493 32.4160643,36.101493 C33.3991968,36.2930854 33.3445783,37.3605291 33.7542168,38.0721582 C33.6449799,38.4006024 33.5630522,38.7564169 33.4811245,39.0848612 C33.2626507,39.5501572 32.9895582,39.9607124 32.743775,40.398638 C32.6072289,40.7544526 32.5253012,41.1376375 32.4160643,41.5208224 C31.5967871,42.3145626 30.2586346,42.3145626 29.6032129,43.2998952 C30.2859437,43.1356732 30.9140563,42.7524882 31.5967871,42.5882661 C32.0064257,42.6430068 32.388755,42.8345993 32.7710843,42.9440807 C32.4433735,43.518858 31.7879518,43.7651912 31.2144579,43.984154 C29.9309236,43.6009691 28.6200803,43.2998952 27.2819278,43.1356732 L27.0907631,43.1083027 C26.9269077,42.4787847 26.7084337,41.876637 26.4626507,41.2744892 C27.7461848,41.6850445 29.1116465,41.6303038 30.4497993,41.7124149 C30.5590362,41.3018596 30.6955823,40.9186748 30.8048193,40.5081195 C30.1220883,40.8913043 29.4120482,41.1923782 28.6473895,41.32923 C28.9751004,40.2070456 30.313253,40.0975642 31.0506024,39.3585647 C31.5967871,38.8932687 31.7333334,38.1816396 31.8971888,37.4973809 C31.2963855,37.3057884 30.6409638,36.9499738 30.0128514,37.2236773 C28.8931727,37.6342325 27.8008032,38.0721582 26.7084337,38.5921948 C27.2273093,37.5247511 28.3742972,37.0320849 29.4120482,36.5941592" id="Fill-121" fill="#D8D8D8"></path>
                            <path d="M29.4120482,36.5941592 C30.3678715,36.183604 31.4056225,36.101493 32.4160643,36.101493 C33.3991968,36.2930854 33.3445783,37.3605291 33.7542168,38.0721582 C33.6449799,38.4006024 33.5630522,38.7564169 33.4811245,39.0848612 C33.2626507,39.5501572 32.9895582,39.9607124 32.743775,40.398638 C32.6072289,40.7544526 32.5253012,41.1376375 32.4160643,41.5208224 C31.5967871,42.3145626 30.2586346,42.3145626 29.6032129,43.2998952 C30.2859437,43.1356732 30.9140563,42.7524882 31.5967871,42.5882661 C32.0064257,42.6430068 32.388755,42.8345993 32.7710843,42.9440807 C32.4433735,43.518858 31.7879518,43.7651912 31.2144579,43.984154 C29.9309236,43.6009691 28.6200803,43.2998952 27.2819278,43.1356732 L27.0907631,43.1083027 C26.9269077,42.4787847 26.7084337,41.876637 26.4626507,41.2744892 C27.7461848,41.6850445 29.1116465,41.6303038 30.4497993,41.7124149 C30.5590362,41.3018596 30.6955823,40.9186748 30.8048193,40.5081195 C30.1220883,40.8913043 29.4120482,41.1923782 28.6473895,41.32923 C28.9751004,40.2070456 30.313253,40.0975642 31.0506024,39.3585647 C31.5967871,38.8932687 31.7333334,38.1816396 31.8971888,37.4973809 C31.2963855,37.3057884 30.6409638,36.9499738 30.0128514,37.2236773 C28.8931727,37.6342325 27.8008032,38.0721582 26.7084337,38.5921948 C27.2273093,37.5247511 28.3742972,37.0320849 29.4120482,36.5941592 L29.4120482,36.5941592 L29.4120482,36.5941592 Z" id="Stroke-123" stroke="#D8D8D8" stroke-width="0.2"></path>
                            <path d="M37.8506024,36.3204558 C38.3967871,36.2930854 38.9702811,36.2930854 39.543775,36.3204558 C41.0730923,36.8678627 42.3566265,37.8531954 43.3670682,39.1122315 C43.7493976,39.7691199 43.5582329,40.5354898 43.2851406,41.1923782 L43.0939759,41.2744892 C42.4385542,41.6029335 41.8104418,42.0682294 41.0730923,42.2050812 C40.1172691,42.2598219 39.188755,41.9861183 38.2602409,41.8492667 C37.6594378,40.8365637 36.0481928,40.9734155 35.6385542,39.7417497 C37.0859437,39.7691199 38.3967871,40.4807491 39.8168675,40.6449712 C40.6088353,40.6723416 41.8923694,39.9607124 41.264257,39.0574908 C40.7180722,37.4973809 38.7244979,37.5521215 37.8506024,36.3204558" id="Fill-125" fill="#D8D8D8"></path>
                            <path d="M37.8506024,36.3204558 C38.3967871,36.2930854 38.9702811,36.2930854 39.543775,36.3204558 C41.0730923,36.8678627 42.3566265,37.8531954 43.3670682,39.1122315 C43.7493976,39.7691199 43.5582329,40.5354898 43.2851406,41.1923782 L43.0939759,41.2744892 C42.4385542,41.6029335 41.8104418,42.0682294 41.0730923,42.2050812 C40.1172691,42.2598219 39.188755,41.9861183 38.2602409,41.8492667 C37.6594378,40.8365637 36.0481928,40.9734155 35.6385542,39.7417497 C37.0859437,39.7691199 38.3967871,40.4807491 39.8168675,40.6449712 C40.6088353,40.6723416 41.8923694,39.9607124 41.264257,39.0574908 C40.7180722,37.4973809 38.7244979,37.5521215 37.8506024,36.3204558 L37.8506024,36.3204558 L37.8506024,36.3204558 Z" id="Stroke-127" stroke="#D8D8D8" stroke-width="0.2"></path>
                            <path d="M30.0128514,37.2236773 C30.6409638,36.9499738 31.2963855,37.3057884 31.8971888,37.4973809 C31.7333334,38.1816396 31.5967871,38.8932687 31.0506024,39.3585647 C30.313253,40.0975642 28.9751004,40.2070456 28.6473895,41.32923 C29.4120482,41.1923782 30.1220883,40.8913043 30.8048193,40.5081195 C30.6955823,40.9186748 30.5590362,41.3018596 30.4497993,41.7124149 C29.1116465,41.6303038 27.7461848,41.6850445 26.4626507,41.2744892 C25.7253012,40.5081195 25.8891566,39.1943426 26.7084337,38.5921949 C27.8008032,38.0721582 28.8931727,37.6342325 30.0128514,37.2236773" id="Fill-129" fill="#E2E2E2"></path>
                            <path d="M30.0128514,37.2236773 C30.6409638,36.9499738 31.2963855,37.3057884 31.8971888,37.4973809 C31.7333334,38.1816396 31.5967871,38.8932687 31.0506024,39.3585647 C30.313253,40.0975642 28.9751004,40.2070456 28.6473895,41.32923 C29.4120482,41.1923782 30.1220883,40.8913043 30.8048193,40.5081195 C30.6955823,40.9186748 30.5590362,41.3018596 30.4497993,41.7124149 C29.1116465,41.6303038 27.7461848,41.6850445 26.4626507,41.2744892 C25.7253012,40.5081195 25.8891566,39.1943426 26.7084337,38.5921949 C27.8008032,38.0721582 28.8931727,37.6342325 30.0128514,37.2236773 L30.0128514,37.2236773 L30.0128514,37.2236773 Z" id="Stroke-131" stroke="#D8D8D8" stroke-width="0.2"></path>
                            <path d="M33.7542168,38.0721582 C33.8088353,37.9079361 33.9453815,37.6068622 34,37.4426402 C34.1911647,38.3732321 34.4369478,39.3311944 35.0104418,40.1249345 C35.4746988,40.7270823 36.1574297,41.1376375 36.6763052,41.7124149 C37.0040161,41.7397853 37.3317269,41.7671556 37.6594378,41.794526 C37.8779117,42.0955999 38.0690764,42.5061551 38.4514056,42.6703772 L38.2056225,42.7251179 C37.1951807,42.7524882 36.2939759,42.2871922 35.4473895,41.8492667 C34.9012049,41.3839707 34.3004016,41.0281561 33.7815261,40.5354898 C33.4811245,40.1249345 33.5630522,39.5775275 33.4811245,39.0848612 C33.5630522,38.7564169 33.6449799,38.4006024 33.7542168,38.0721582" id="Fill-133" fill="#D8D8D8"></path>
                            <path d="M33.7542168,38.0721582 C33.8088353,37.9079361 33.9453815,37.6068622 34,37.4426402 C34.1911647,38.3732321 34.4369478,39.3311944 35.0104418,40.1249345 C35.4746988,40.7270823 36.1574297,41.1376375 36.6763052,41.7124149 C37.0040161,41.7397853 37.3317269,41.7671556 37.6594378,41.794526 C37.8779117,42.0955999 38.0690764,42.5061551 38.4514056,42.6703772 L38.2056225,42.7251179 C37.1951807,42.7524882 36.2939759,42.2871922 35.4473895,41.8492667 C34.9012049,41.3839707 34.3004016,41.0281561 33.7815261,40.5354898 C33.4811245,40.1249345 33.5630522,39.5775275 33.4811245,39.0848612 C33.5630522,38.7564169 33.6449799,38.4006024 33.7542168,38.0721582 L33.7542168,38.0721582 L33.7542168,38.0721582 Z" id="Stroke-135" stroke="#D8D8D8" stroke-width="0.2"></path>
                            <g id="Group-140" transform="translate(48.883535, 38.646936)">
                                <path d="M0.109236948,0.465295966 C0.409638554,0.821110529 0.846586346,0.930591933 1.28353414,1.01270299 L1.28353414,0.164222105 C0.873895582,0.246333159 0.491566265,0.355814562 0.109236948,0.465295966" id="Fill-137" fill="#BAB2A1"></path>
                                <path d="M0.109236948,0.465295966 C0.409638554,0.821110529 0.846586346,0.930591933 1.28353414,1.01270299 L1.28353414,0.164222105 C0.873895582,0.246333159 0.491566265,0.355814562 0.109236948,0.465295966" id="Stroke-139" stroke="#BAB2A1" stroke-width="0.094"></path>
                            </g>
                            <path d="M56.5301205,39.8786013 C56.5028112,40.2617863 56.5028112,40.6449712 56.5574297,41.0281561 C56.0385542,41.5755631 55.328514,41.7397853 54.6184739,41.6303038 L54.6184739,41.8218963 C55.6016065,41.7397853 56.7485944,42.040859 57.5951807,41.3566003 C57.3493976,41.3566003 56.9124498,41.32923 56.6666666,41.32923 C56.6666666,40.8639339 56.8578313,40.2891566 56.5301205,39.8786013" id="Fill-141" fill="#BAB2A1"></path>
                            <path d="M56.5301205,39.8786013 C56.5028112,40.2617863 56.5028112,40.6449712 56.5574297,41.0281561 C56.0385542,41.5755631 55.328514,41.7397853 54.6184739,41.6303038 L54.6184739,41.8218963 C55.6016065,41.7397853 56.7485944,42.040859 57.5951807,41.3566003 C57.3493976,41.3566003 56.9124498,41.32923 56.6666666,41.32923 C56.6666666,40.8639339 56.8578313,40.2891566 56.5301205,39.8786013 L56.5301205,39.8786013 L56.5301205,39.8786013 Z" id="Stroke-143" stroke="#BAB2A1" stroke-width="0.094"></path>
                            <path d="M48.9927711,39.1122315 C49.3751004,39.0027501 49.7574297,38.8932687 50.1670682,38.8111576 L50.1670682,39.6596386 C49.7301205,39.5775275 49.2931727,39.4680461 48.9927711,39.1122315" id="Fill-145" fill="#FFFFFF"></path>
                            <path d="M32.743775,40.398638 C32.9895582,39.9607124 33.2626507,39.5501572 33.4811245,39.0848612 C33.5630522,39.5775275 33.4811245,40.1249345 33.7815261,40.5354898 C34.3004016,41.0281561 34.9012049,41.3839707 35.4473895,41.8492667 C36.1028112,42.6156365 37.0586346,42.9714511 38.0690764,42.9440807 L38.3421687,42.9714511 C39.297992,43.2177841 40.2538152,43.1904138 41.2369478,43.2725248 C40.0353414,44.0662651 38.5333334,43.7104505 37.2497993,43.3820063 C36.3485944,43.2998952 35.720482,42.5608958 34.8192771,42.4514143 C34.5461848,42.3145626 34.3004016,42.1503405 34.0273093,41.9861183 C33.6995984,41.411341 33.2080322,40.9186748 32.743775,40.398638" id="Fill-147" fill="#E2E2E2"></path>
                            <path d="M32.743775,40.398638 C32.9895582,39.9607124 33.2626507,39.5501572 33.4811245,39.0848612 C33.5630522,39.5775275 33.4811245,40.1249345 33.7815261,40.5354898 C34.3004016,41.0281561 34.9012049,41.3839707 35.4473895,41.8492667 C36.1028112,42.6156365 37.0586346,42.9714511 38.0690764,42.9440807 L38.3421687,42.9714511 C39.297992,43.2177841 40.2538152,43.1904138 41.2369478,43.2725248 C40.0353414,44.0662651 38.5333334,43.7104505 37.2497993,43.3820063 C36.3485944,43.2998952 35.720482,42.5608958 34.8192771,42.4514143 C34.5461848,42.3145626 34.3004016,42.1503405 34.0273093,41.9861183 C33.6995984,41.411341 33.2080322,40.9186748 32.743775,40.398638 L32.743775,40.398638 L32.743775,40.398638 Z" id="Stroke-149" stroke="#D8D8D8" stroke-width="0.2"></path>
                            <path d="M56.5301205,39.8786013 C56.8578313,40.2891566 56.6666666,40.8639339 56.6666666,41.32923 C56.9124498,41.32923 57.3493976,41.3566003 57.5951807,41.3566003 C56.7485944,42.040859 55.6016065,41.7397853 54.6184739,41.8218963 L54.6184739,41.6303038 C55.328514,41.7397853 56.0385542,41.5755631 56.5574297,41.0281561 C56.5028112,40.6449712 56.5028112,40.2617863 56.5301205,39.8786013" id="Fill-151" fill="#FFFFFF"></path>
                            <path d="M32.4160643,41.5208224 C32.5253012,41.1376375 32.6072289,40.7544526 32.743775,40.398638 C33.2080322,40.9186748 33.6995984,41.411341 34.0273093,41.9861183 C34.0273093,43.0809325 34.9558233,43.8473023 35.8024096,44.3399685 C35.502008,44.4220796 35.2289157,44.5041907 34.928514,44.5863017 C34.3277108,44.0115244 33.6176707,43.518858 33.071486,42.88934 C32.8257028,42.424044 32.6072289,41.9587481 32.4160643,41.5208224" id="Fill-153" fill="#D8D8D8"></path>
                            <path d="M32.4160643,41.5208224 C32.5253012,41.1376375 32.6072289,40.7544526 32.743775,40.398638 C33.2080322,40.9186748 33.6995984,41.411341 34.0273093,41.9861183 C34.0273093,43.0809325 34.9558233,43.8473023 35.8024096,44.3399685 C35.502008,44.4220796 35.2289157,44.5041907 34.928514,44.5863017 C34.3277108,44.0115244 33.6176707,43.518858 33.071486,42.88934 C32.8257028,42.424044 32.6072289,41.9587481 32.4160643,41.5208224 L32.4160643,41.5208224 L32.4160643,41.5208224 Z" id="Stroke-155" stroke="#D8D8D8" stroke-width="0.2"></path>
                            <path d="M41.0730923,42.2050812 C41.8104418,42.0682294 42.4385542,41.6029335 43.0939759,41.2744892 C42.984739,41.6850445 43.0393575,42.2598219 42.5751004,42.4514143 C41.2369478,42.9714511 39.762249,42.9440807 38.3421687,42.9714511 L38.0690764,42.9440807 L38.2056225,42.7251179 L38.4514056,42.6703772 C38.0690764,42.5061551 37.8779117,42.0955999 37.6594378,41.794526 C37.8232932,41.794526 38.0963855,41.8218963 38.2602409,41.8492667 C39.188755,41.9861183 40.1172691,42.2598219 41.0730923,42.2050812" id="Fill-157" fill="#D8D8D8"></path>
                            <path d="M41.0730923,42.2050812 C41.8104418,42.0682294 42.4385542,41.6029335 43.0939759,41.2744892 C42.984739,41.6850445 43.0393575,42.2598219 42.5751004,42.4514143 C41.2369478,42.9714511 39.762249,42.9440807 38.3421687,42.9714511 L38.0690764,42.9440807 L38.2056225,42.7251179 L38.4514056,42.6703772 C38.0690764,42.5061551 37.8779117,42.0955999 37.6594378,41.794526 C37.8232932,41.794526 38.0963855,41.8218963 38.2602409,41.8492667 C39.188755,41.9861183 40.1172691,42.2598219 41.0730923,42.2050812 L41.0730923,42.2050812 L41.0730923,42.2050812 Z" id="Stroke-159" stroke="#D8D8D8" stroke-width="0.2"></path>
                            <path d="M29.6032129,43.2998952 C30.2586346,42.3145626 31.5967871,42.3145626 32.4160643,41.5208224 C32.6072289,41.9587481 32.8257028,42.424044 33.071486,42.88934 L32.7710843,42.9440807 C32.388755,42.8345993 32.0064257,42.6430068 31.5967871,42.5882661 C30.9140563,42.7524882 30.2859437,43.1356732 29.6032129,43.2998952" id="Fill-161" fill="#E2E2E2"></path>
                            <path d="M29.6032129,43.2998952 C30.2586346,42.3145626 31.5967871,42.3145626 32.4160643,41.5208224 C32.6072289,41.9587481 32.8257028,42.424044 33.071486,42.88934 L32.7710843,42.9440807 C32.388755,42.8345993 32.0064257,42.6430068 31.5967871,42.5882661 C30.9140563,42.7524882 30.2859437,43.1356732 29.6032129,43.2998952 L29.6032129,43.2998952 L29.6032129,43.2998952 Z" id="Stroke-163" stroke="#D8D8D8" stroke-width="0.2"></path>
                            <path d="M35.4473895,41.8492667 C36.2939759,42.2871922 37.1951807,42.7524882 38.2056225,42.7251179 L38.0690764,42.9440807 C37.0586346,42.9714511 36.1028112,42.6156365 35.4473895,41.8492667" id="Fill-165" fill="#E2E2E2"></path>
                            <path d="M35.4473895,41.8492667 C36.2939759,42.2871922 37.1951807,42.7524882 38.2056225,42.7251179 L38.0690764,42.9440807 C37.0586346,42.9714511 36.1028112,42.6156365 35.4473895,41.8492667 L35.4473895,41.8492667 L35.4473895,41.8492667 Z" id="Stroke-167" stroke="#D8D8D8" stroke-width="0.2"></path>
                            <path d="M35.8024096,44.3399685 C34.9558233,43.8473023 34.0273093,43.0809325 34.0273093,41.9861183 C34.3004016,42.1503405 34.5461848,42.3145626 34.8192771,42.4514143 C35.5293173,43.3546359 36.7582329,43.5462284 37.7686747,43.9294133 C39.3799197,44.4768203 40.9911647,43.902043 42.520482,43.4914877 C42.6297189,44.914746 41.1277108,45.4074122 40.0080322,45.5716343 C38.2875502,45.7084861 36.3485944,45.7084861 34.928514,44.5863017 C35.2289157,44.5041907 35.502008,44.4220796 35.8024096,44.3399685" id="Fill-169" fill="#D8D8D8"></path>
                            <path d="M35.8024096,44.3399685 C34.9558233,43.8473023 34.0273093,43.0809325 34.0273093,41.9861183 C34.3004016,42.1503405 34.5461848,42.3145626 34.8192771,42.4514143 C35.5293173,43.3546359 36.7582329,43.5462284 37.7686747,43.9294133 C39.3799197,44.4768203 40.9911647,43.902043 42.520482,43.4914877 C42.6297189,44.914746 41.1277108,45.4074122 40.0080322,45.5716343 C38.2875502,45.7084861 36.3485944,45.7084861 34.928514,44.5863017 C35.2289157,44.5041907 35.502008,44.4220796 35.8024096,44.3399685 L35.8024096,44.3399685 L35.8024096,44.3399685 Z" id="Stroke-171" stroke="#D8D8D8" stroke-width="0.2"></path>
                            <path d="M27.2819278,43.1356732 C28.6200803,43.2998952 29.9309236,43.6009691 31.2144579,43.984154 C29.9855421,44.5589314 27.6915663,44.7778942 27.2819278,43.1356732" id="Fill-173" fill="#E2E2E2"></path>
                            <path d="M27.2819278,43.1356732 C28.6200803,43.2998952 29.9309236,43.6009691 31.2144579,43.984154 C29.9855421,44.5589314 27.6915663,44.7778942 27.2819278,43.1356732 L27.2819278,43.1356732 L27.2819278,43.1356732 Z" id="Stroke-175" stroke="#D8D8D8" stroke-width="0.2"></path>
                        </g>
                    </g>
                </g>
            </g>
        </g>
    </g>
</svg>