<?xml version="1.0" encoding="UTF-8" standalone="no"?>
<svg width="180px" height="80px" viewBox="0 0 180 80" version="1.1" xmlns="http://www.w3.org/2000/svg" xmlns:xlink="http://www.w3.org/1999/xlink">
    <!-- Generator: Sketch 39.1 (31720) - http://www.bohemiancoding.com/sketch -->
    <title>code_invaders</title>
    <desc>Created with Sketch.</desc>
    <defs></defs>
    <g id="logos" stroke="none" stroke-width="1" fill="none" fill-rule="evenodd">
        <g id="code_invaders" fill="#FFFFFF">
            <g id="Imported-Layers" transform="translate(39.000000, 23.000000)">
                <path d="M42.4475924,4.20866089 L46.6923516,4.20866089 L46.6923516,21.0424184 L42.4475924,21.0424184 L42.4475924,25.2509021 L38.2026544,25.2509021 L38.2026544,29.459563 L42.4475924,29.459563 L42.4475924,33.6678694 L38.2026544,33.6678694 L38.2026544,29.459563 L33.9578952,29.459563 L33.9578952,25.2509021 L12.7342777,25.2509021 L12.7342777,29.459563 L8.48951848,29.459563 L8.48951848,33.6678694 L4.24475924,33.6678694 L4.24475924,29.459563 L8.48951848,29.459563 L8.48951848,25.2509021 L4.24475924,25.2509021 L4.24475924,21.0424184 L0,21.0424184 L0,4.20866089 L4.24475924,4.20866089 L4.24475924,12.625451 L8.48951848,12.625451 L8.48951848,8.41696736 L12.7342777,8.41696736 L12.7342777,4.20866089 L8.48951848,4.20866089 L8.48951848,0 L12.7342777,0 L12.7342777,4.20866089 L16.979037,4.20866089 L16.979037,8.41696736 L29.7133147,8.41696736 L29.7133147,4.20866089 L33.9578952,4.20866089 L33.9578952,0 L38.2026544,0 L38.2026544,4.20866089 L33.9578952,4.20866089 L33.9578952,8.41696736 L38.2026544,8.41696736 L38.2026544,12.625451 L42.4475924,12.625451 L42.4475924,4.20866089 L42.4475924,4.20866089 Z M12.7342777,16.8339347 L16.979037,16.8339347 L16.979037,12.6252738 L12.7342777,12.6252738 L12.7342777,16.8339347 Z M29.7133147,16.8339347 L33.9578952,16.8339347 L33.9578952,12.6252738 L29.7133147,12.6252738 L29.7133147,16.8339347 Z" id="Fill-1"></path>
                <g id="Group" transform="translate(55.250000, 5.600000)">
                    <polyline id="Fill-2" points="8.55075104 0.436976556 2.0043342 0.436976556 2.0043342 2.42319371 0.000996587252 2.42319371 0.000996587252 12.8862766 2.0043342 12.8862766 2.0043342 14.8724938 8.55075104 14.8724938 8.55075104 12.8862766 10.5542674 12.8862766 10.5542674 10.3682396 8.01452577 10.3682396 8.01452577 12.3546339 2.54055947 12.3546339 2.54055947 2.95483642 8.01452577 2.95483642 8.01452577 4.94105358 10.5542674 4.94105358 10.5542674 2.42319371 8.55075104 2.42319371 8.55075104 0.436976556"></polyline>
                    <path d="M20.5711342,0.436976556 L14.0247173,0.436976556 L14.0247173,2.42319371 L12.0213797,2.42319371 L12.0213797,12.8862766 L14.0247173,12.8862766 L14.0247173,14.8724938 L20.5711342,14.8724938 L20.5711342,12.8862766 L22.5746505,12.8862766 L22.5746505,2.42319371 L20.5711342,2.42319371 L20.5711342,0.436976556 L20.5711342,0.436976556 Z M14.5609426,2.95483642 L20.0349089,2.95483642 L20.0349089,12.3546339 L14.5609426,12.3546339 L14.5609426,2.95483642 Z" id="Fill-3"></path>
                    <path d="M32.5915173,0.436976556 L24.0417629,0.436976556 L24.0417629,14.8724938 L32.5915173,14.8724938 L32.5915173,12.8862766 L34.5950337,12.8862766 L34.5950337,2.42319371 L32.5915173,2.42319371 L32.5915173,0.436976556 L32.5915173,0.436976556 Z M26.5813257,2.95483642 L32.055292,2.95483642 L32.055292,12.3546339 L26.5813257,12.3546339 L26.5813257,2.95483642 Z" id="Fill-4"></path>
                    <polyline id="Fill-5" points="46.6154168 2.95483642 46.6154168 0.436976556 36.062146 0.436976556 36.062146 14.8724938 46.6154168 14.8724938 46.6154168 12.3546339 38.6017089 12.3546339 38.6017089 8.91366511 44.6119005 8.91366511 44.6119005 6.39580525 38.6017089 6.39580525 38.6017089 2.95483642 46.6154168 2.95483642"></polyline>
                    <polyline id="Fill-6" points="0.000996587252 19.0138133 1.03162156 19.0138133 1.03162156 23.8508759 0.000996587252 23.8508759 0.000996587252 25.1463119 3.36938499 25.1463119 3.36938499 23.8508759 2.33858128 23.8508759 2.33858128 19.0138133 3.36938499 19.0138133 3.36938499 17.7185544 0.000996587252 17.7185544 0.000996587252 19.0138133"></polyline>
                    <polyline id="Fill-7" points="8.2479625 21.8065324 7.49295732 21.8065324 7.49295732 20.7845379 6.46197487 20.7845379 6.46197487 19.7625434 5.43117116 19.7625434 5.43117116 17.7185544 4.12439017 17.7185544 4.12439017 25.1463119 5.43117116 25.1463119 5.43117116 21.0581567 6.18617634 21.0581567 6.18617634 22.0801512 7.21698005 22.0801512 7.21698005 23.1023229 8.2479625 23.1023229 8.2479625 25.1463119 9.55456474 25.1463119 9.55456474 17.7185544 8.2479625 17.7185544 8.2479625 21.8065324"></polyline>
                    <polyline id="Fill-8" points="14.4329635 22.8288814 13.4021598 22.8288814 13.4021598 23.8508759 12.6471546 23.8508759 12.6471546 22.8288814 11.6161722 22.8288814 11.6161722 17.7185544 10.3093912 17.7185544 10.3093912 23.1023229 11.3401949 23.1023229 11.3401949 24.1243174 12.3711773 24.1243174 12.3711773 25.1463119 13.6779583 25.1463119 13.6779583 24.1243174 14.7089408 24.1243174 14.7089408 23.1023229 15.7399232 23.1023229 15.7399232 17.7185544 14.4329635 17.7185544 14.4329635 22.8288814"></polyline>
                    <path d="M20.8941205,18.7403717 L19.8633168,18.7403717 L19.8633168,17.7185544 L18.5563571,17.7185544 L18.5563571,18.7403717 L17.5255534,18.7403717 L17.5255534,19.7625434 L16.4945709,19.7625434 L16.4945709,25.1463119 L17.8015307,25.1463119 L17.8015307,23.1023229 L20.6181433,23.1023229 L20.6181433,25.1463119 L21.9249242,25.1463119 L21.9249242,19.7625434 L20.8941205,19.7625434 L20.8941205,18.7403717 L20.8941205,18.7403717 Z M17.8015307,20.0361622 L18.8323344,20.0361622 L18.8323344,19.0138133 L19.5871608,19.0138133 L19.5871608,20.0361622 L20.6181433,20.0361622 L20.6181433,21.8065324 L17.8015307,21.8065324 L17.8015307,20.0361622 L17.8015307,20.0361622 Z" id="Fill-9"></path>
                    <path d="M27.0793003,17.7185544 L22.6799294,17.7185544 L22.6799294,25.1463119 L27.0793003,25.1463119 L27.0793003,24.1243174 L28.1102827,24.1243174 L28.1102827,18.7403717 L27.0793003,18.7403717 L27.0793003,17.7185544 L27.0793003,17.7185544 Z M23.9867104,19.0138133 L26.803323,19.0138133 L26.803323,23.8508759 L23.9867104,23.8508759 L23.9867104,19.0138133 Z" id="Fill-10"></path>
                    <polyline id="Fill-11" points="28.8649304 25.1463119 34.2952837 25.1463119 34.2952837 23.8508759 30.1717114 23.8508759 30.1717114 22.0801512 33.26448 22.0801512 33.26448 20.7845379 30.1717114 20.7845379 30.1717114 19.0138133 34.2952837 19.0138133 34.2952837 17.7185544 28.8649304 17.7185544 28.8649304 25.1463119"></polyline>
                    <path d="M39.449481,17.7185544 L35.0502889,17.7185544 L35.0502889,25.1463119 L36.3568912,25.1463119 L36.3568912,22.0801512 L37.1120751,22.0801512 L37.1120751,23.1023229 L38.1428788,23.1023229 L38.1428788,24.1243174 L39.1736825,24.1243174 L39.1736825,25.1463119 L40.4804635,25.1463119 L40.4804635,23.8508759 L39.449481,23.8508759 L39.449481,22.8288814 L38.4186773,22.8288814 L38.4186773,22.0801512 L39.449481,22.0801512 L39.449481,21.0581567 L40.4804635,21.0581567 L40.4804635,18.7403717 L39.449481,18.7403717 L39.449481,17.7185544 L39.449481,17.7185544 Z M36.3568912,19.0138133 L39.1736825,19.0138133 L39.1736825,20.7845379 L36.3568912,20.7845379 L36.3568912,19.0138133 Z" id="Fill-12"></path>
                    <polyline id="Fill-13" points="46.6656432 20.0361622 46.6656432 18.7403717 45.6348395 18.7403717 45.6348395 17.7185544 42.2660936 17.7185544 42.2660936 18.7403717 41.2354687 18.7403717 41.2354687 21.0581567 42.2660936 21.0581567 42.2660936 22.0801512 45.3586835 22.0801512 45.3586835 23.8508759 42.5422497 23.8508759 42.5422497 22.8288814 41.2354687 22.8288814 41.2354687 24.1243174 42.2660936 24.1243174 42.2660936 25.1463119 45.6348395 25.1463119 45.6348395 24.1243174 46.6656432 24.1243174 46.6656432 21.8065324 45.6348395 21.8065324 45.6348395 20.7845379 42.5422497 20.7845379 42.5422497 19.0138133 45.3586835 19.0138133 45.3586835 20.0361622 46.6656432 20.0361622"></polyline>
                </g>
            </g>
        </g>
    </g>
</svg>