<?xml version="1.0" encoding="UTF-8" standalone="no"?>
<svg width="180px" height="80px" viewBox="0 0 180 80" version="1.1" xmlns="http://www.w3.org/2000/svg" xmlns:xlink="http://www.w3.org/1999/xlink">
    <!-- Generator: Sketch 40 (33762) - http://www.bohemiancoding.com/sketch -->
    <title>food_truck</title>
    <desc>Created with Sketch.</desc>
    <defs>
        <polygon id="path-1" points="17.062741 40.8566434 142.629969 40.8566434 142.629969 0.0666608392 0 0.0666608392 0 40.8566434 17.062741 40.8566434 0 40.8566434 0 0.0666557605 34.125482 0.0666557605 34.125482 40.8566434 17.062741 40.8566434"></polygon>
    </defs>
    <g id="Page-1" stroke="none" stroke-width="1" fill="none" fill-rule="evenodd">
        <g id="food_truck">
            <g id="Page-1" transform="translate(19.000000, 20.000000)">
                <g id="Group-3" transform="translate(0.000000, 0.076696)">
                    <mask id="mask-2" fill="white">
                        <use xlink:href="#path-1"></use>
                    </mask>
                    <g id="Clip-2"></g>
                    <path d="M12.041958,29.8611888 C13.6332168,33.2300699 15.2674825,36.5559441 16.8730769,39.8961538 C16.9304196,40.0251748 17.0164336,40.1111888 17.1454545,40.1541958 C18.7797203,36.6993007 20.5,33.2874126 22.1342657,29.8325175 C20.8870629,29.0583916 19.5251748,28.484965 18.2493007,27.7681818 C17.8622378,27.4958042 17.4608392,27.8111888 17.0594406,27.8398601 C16.7727273,27.7395105 16.5003497,27.6104895 16.2136364,27.5388112 C14.8804196,28.4132867 13.4181818,29.0583916 12.041958,29.8611888 M22.9370629,24.8293706 C22.1342657,25.0730769 21.3171329,25.2594406 20.4856643,25.4171329 C20.2562937,25.4744755 19.9265734,25.5031469 19.8835664,25.7898601 C19.7545455,26.2629371 19.5538462,26.7646853 19.1237762,27.0513986 C18.9804196,27.1660839 18.5646853,27.3811189 18.9087413,27.5388112 C20.9587413,28.5996503 22.9800699,29.7178322 25.0587413,30.7356643 C25.7611888,31.1227273 26.477972,31.5241259 27.2234266,31.8251748 C27.1517483,31.051049 26.9653846,30.2912587 26.8363636,29.5314685 C26.5783217,28.0262238 26.3346154,26.5066434 26.0479021,25.0157343 C25.3167832,25.4171329 24.2559441,25.4888112 23.7255245,24.729021 C23.4674825,24.729021 23.1951049,24.7433566 22.9370629,24.8293706 M8.32902098,24.2846154 C7.95629371,26.779021 7.46888112,29.2590909 7.12482517,31.7534965 C7.1965035,31.7391608 7.33986014,31.7104895 7.41153846,31.6961538 C10.1783217,30.1909091 13.0311189,28.829021 15.7692308,27.2520979 C15.4681818,26.6786713 15.0381119,26.1339161 15.0381119,25.4458042 L14.9520979,25.3454545 C13.5328671,24.9440559 12.1566434,24.3706294 10.7230769,23.9835664 C10.0206294,24.384965 9.10314685,24.7863636 8.32902098,24.2846154 M16.1706294,23.9692308 C16.3713287,23.7685315 16.9304196,23.5534965 16.8730769,24.0552448 C16.7727273,24.0695804 16.5863636,24.1125874 16.486014,24.1269231 C16.4716783,24.2129371 16.4286713,24.3993007 16.4143357,24.4853147 C16.3426573,24.5426573 16.1993007,24.643007 16.1276224,24.7003497 C16.1993007,25.0157343 16.6723776,25.3024476 16.3283217,25.6321678 C16.098951,25.4744755 16.2136364,24.7576923 15.7835664,24.9870629 C15.7118881,25.6034965 15.9555944,26.2629371 16.486014,26.5783217 C16.9447552,26.6643357 17.4034965,26.2916084 17.4751748,25.8472028 C17.2601399,25.9475524 17.0451049,26.0479021 16.8730769,26.2055944 C16.658042,26.0909091 16.4286713,26.0192308 16.2136364,25.9188811 C16.4143357,25.7325175 16.658042,25.5748252 16.8730769,25.4171329 C16.8730769,25.5318182 16.8874126,25.7468531 16.8874126,25.8615385 C17.1311189,25.8328671 17.3318182,25.7038462 17.5611888,25.6034965 C17.5755245,25.3024476 17.5325175,25.0157343 17.4608392,24.729021 C17.2888112,24.7146853 17.1311189,24.643007 16.9877622,24.5426573 C17.1024476,24.4136364 17.4895105,24.4136364 17.3461538,24.1412587 C17.1454545,23.8545455 16.8874126,23.4388112 16.486014,23.5248252 C16.2566434,23.5248252 16.2423077,23.8115385 16.1706294,23.9692308 M26.822028,22.8653846 C26.3632867,22.9370629 25.9045455,23.0374126 25.4601399,23.2094406 C24.729021,23.5104895 23.8975524,23.4674825 23.1664336,23.7828671 C22.55,24.0409091 21.8475524,24.0552448 21.2167832,24.2702797 C20.715035,24.4566434 20.1846154,24.6 19.6541958,24.7146853 C19.4678322,24.729021 19.2241259,24.901049 19.3388112,25.1160839 C20.1702797,25.3167832 20.9300699,24.729021 21.7472028,24.643007 C22.6073427,24.5713287 23.3814685,24.1125874 24.2416084,24.0122378 C24.9440559,23.9118881 25.6034965,23.5821678 26.3059441,23.4818182 C26.9223776,23.3958042 27.4958042,23.1520979 28.0835664,22.9657343 C28.3559441,22.9083916 28.4132867,22.6216783 28.484965,22.4066434 C27.9115385,22.463986 27.3954545,22.7793706 26.822028,22.8653846 M8.77342657,22.4353147 C8.74475524,22.9370629 8.68741259,23.4674825 8.90244755,23.9405594 C9.07447552,23.9118881 9.26083916,23.8688811 9.27517483,23.6681818 C9.27517483,23.2237762 9.0458042,22.8367133 9.0027972,22.4066434 C8.94545455,22.4066434 8.83076923,22.420979 8.77342657,22.4353147 M9.06013986,22.0052448 C9.01713287,22.248951 9.16048951,22.506993 9.23216783,22.7506993 C9.4472028,22.6503497 9.36118881,21.9622378 9.06013986,22.0052448 M22.5356643,20.1272727 L22.5213287,20.2276224 C22.7506993,20.2276224 22.9657343,20.241958 23.1807692,20.241958 L23.1807692,20.370979 C23.1090909,20.370979 22.9800699,20.3853147 22.9083916,20.3996503 L22.9083916,20.543007 C23.7255245,20.5573427 24.513986,20.2276224 25.3311189,20.198951 C25.5461538,20.1272727 25.9045455,20.198951 25.9618881,19.9265734 C25.7181818,19.9122378 25.4888112,19.9265734 25.2451049,19.9409091 L25.2594406,19.8405594 C25.4888112,19.8835664 25.6321678,19.8118881 25.7038462,19.6541958 C24.6286713,19.5681818 23.6108392,20.0555944 22.5356643,20.1272727 M5.46188811,16.9877622 C5.43321678,17.3174825 5.80594406,17.4608392 5.99230769,17.6758741 C6.33636364,17.9482517 6.56573427,18.3926573 6.9958042,18.536014 C7.02447552,18.0629371 7.01013986,17.5755245 7.01013986,17.0881119 C6.52272727,16.8874126 5.97797203,17.0451049 5.46188811,16.9877622 M7.48321678,16.9734266 C7.48321678,17.9912587 7.49755245,19.0234266 7.46888112,20.0555944 C8.02797203,19.8835664 8.6013986,20.1272727 9.16048951,20.1416084 C10.1353147,20.1846154 11.0527972,20.5 12.0276224,20.5716783 C12.5006993,20.6146853 12.9881119,20.6863636 13.4611888,20.7723776 C13.5041958,19.9839161 13.5328671,19.1954545 13.4611888,18.3926573 C12.7013986,18.4213287 11.9559441,18.4356643 11.1961538,18.406993 C11.1961538,18.7367133 11.1674825,19.0807692 11.1674825,19.4104895 C10.6513986,19.3388112 10.0493007,19.4534965 9.59055944,19.2097902 C9.49020979,18.3783217 9.56188811,17.5325175 9.54755245,16.701049 C9.49020979,16.6867133 9.36118881,16.6723776 9.30384615,16.658042 C9.18916084,17.5038462 9.27517483,18.363986 9.27517483,19.2241259 C8.77342657,19.2527972 8.27167832,19.1667832 7.76993007,19.1954545 C7.75559441,18.3496503 7.82727273,17.5038462 7.72692308,16.658042 C7.56923077,16.7153846 7.48321678,16.8157343 7.48321678,16.9734266 M4.45839161,16.1132867 C4.07132867,16.2566434 3.51223776,16.227972 3.2972028,16.6437063 C3.92797203,16.6437063 4.44405594,16.2423077 5.04615385,16.141958 C5.69125874,16.0272727 6.25034965,15.6545455 6.89545455,15.5685315 C9.14615385,15.5255245 11.3968531,15.5972028 13.6332168,15.5255245 L13.6045455,15.3678322 C11.4541958,15.2818182 9.30384615,15.3678322 7.1534965,15.3248252 C6.22167832,15.4538462 5.3472028,15.8122378 4.45839161,16.1132867 M13.9199301,15.4108392 C13.9055944,16.1993007 13.9055944,17.0020979 13.9199301,17.8048951 C14.35,17.8765734 14.8517483,18.0772727 15.2388112,17.8765734 C15.3821678,17.0594406 15.4108392,16.2136364 15.3391608,15.3821678 C14.9234266,15.1241259 14.3786713,15.4251748 13.9199301,15.4108392 M24.9440559,14.6940559 C24.1269231,14.6653846 23.3097902,14.6797203 22.4926573,14.6797203 C22.3493007,15.4681818 22.6216783,16.2853147 22.8223776,17.0594406 C23.8115385,17.2888112 24.8867133,17.0020979 25.9045455,17.0451049 C26.3346154,17.0451049 26.2772727,16.5146853 26.2199301,16.227972 C26.0765734,15.6402098 26.0192308,15.0094406 25.8041958,14.436014 C25.5318182,14.565035 25.2451049,14.7227273 24.9440559,14.6940559 M26.0622378,11.7695804 C26.0622378,12.1423077 25.9475524,12.5293706 26.1052448,12.8877622 C26.2486014,13.2748252 26.779021,12.9881119 26.9797203,13.3178322 C27.2664336,13.5328671 27.1660839,13.9055944 27.1804196,14.220979 C27.1517483,15.0954545 27.2664336,16.0129371 26.951049,16.8587413 C26.736014,17.4034965 27.3811189,17.7905594 27.8111888,17.9482517 C28.0979021,18.0629371 28.2842657,17.7618881 28.4562937,17.5898601 C29.9758741,16.1132867 31.5097902,14.6367133 33.015035,13.1314685 C33.101049,13.0167832 33.3734266,12.8590909 33.2013986,12.7157343 C31.2660839,12.472028 29.3307692,12.1566434 27.3954545,11.8986014 C26.951049,11.8412587 26.5066434,11.7265734 26.0622378,11.7695804 M24.0552448,11.7409091 C24.643007,11.7409091 25.2020979,11.8842657 25.7755245,11.8986014 C25.4744755,11.6262238 25.0157343,11.6692308 24.6286713,11.5975524 C24.4423077,11.6118881 24.1269231,11.4972028 24.0552448,11.7409091 M6.37937063,11.9846154 C4.57307692,12.256993 2.75244755,12.4003497 0.974825175,12.7874126 C1.03216783,12.9164336 1.11818182,13.0311189 1.23286713,13.1171329 C2.09300699,13.9199301 2.91013986,14.7657343 3.78461538,15.5541958 C4.12867133,15.6688811 4.47272727,15.4108392 4.81678322,15.3248252 C5.57657343,15.0954545 6.33636364,14.8517483 7.09615385,14.6223776 C7.1534965,14.2926573 7.05314685,13.8769231 7.25384615,13.5902098 C8.31468531,13.1458042 9.4041958,12.8017483 10.4506993,12.3286713 C10.508042,11.8842657 10.0493007,11.6548951 9.71958042,11.4828671 C8.6013986,11.6548951 7.46888112,11.7409091 6.37937063,11.9846154 M10.4363636,11.3395105 C10.465035,11.7122378 10.9954545,11.6405594 11.1531469,11.9272727 C11.2678322,12.0706294 11.3538462,12.3143357 11.5975524,12.2426573 C12.084965,12.1423077 12.5293706,11.8699301 13.0167832,11.7552448 C12.9737762,11.5975524 12.9451049,11.3681818 12.7157343,11.4111888 C11.9559441,11.4111888 11.1961538,11.2104895 10.4363636,11.3395105 M13.2748252,10.5940559 C13.4755245,11.0671329 14.048951,11.3825175 14.5363636,11.1674825 C14.9377622,10.9954545 15.5255245,10.9954545 15.7979021,10.6227273 C14.9520979,10.5653846 14.1062937,10.5653846 13.2748252,10.5940559 M15.4681818,9.33251748 C15.9699301,9.79125874 16.6006993,10.120979 17.1741259,10.5223776 C17.1454545,10.5797203 17.0594406,10.7087413 17.0307692,10.7660839 C16.6867133,10.7087413 16.2996503,10.6513986 15.9842657,10.8520979 C15.5255245,11.1388112 14.9520979,11.1101399 14.479021,11.3681818 C13.8912587,11.6835664 13.2031469,11.7552448 12.6153846,12.084965 C11.6548951,12.386014 10.6944056,12.7587413 9.73391608,13.0741259 C9.27517483,13.3321678 8.74475524,13.4325175 8.25734266,13.6045455 C8.04230769,13.7048951 7.72692308,13.7622378 7.75559441,14.048951 C8.42937063,13.9772727 8.98846154,13.5615385 9.6479021,13.4181818 C10.206993,13.3034965 10.6800699,12.9737762 11.2248252,12.8447552 C11.7839161,12.7300699 12.2713287,12.4003497 12.8304196,12.2856643 C13.3465035,12.1853147 13.7765734,11.8555944 14.2926573,11.7409091 C14.9377622,11.5975524 15.5111888,11.2391608 16.1562937,11.0671329 C16.0559441,11.2104895 15.9555944,11.3538462 15.8839161,11.5115385 C14.4933566,11.9272727 13.1744755,12.5437063 11.7839161,12.9737762 C10.4076923,13.5328671 9.0027972,13.9772727 7.62657343,14.5363636 C7.69825175,14.7800699 7.66958042,15.2388112 8.02797203,15.2388112 C9.79125874,15.2674825 11.5545455,15.2531469 13.3178322,15.2531469 C14.0202797,15.1384615 14.7227273,15.1097902 15.4251748,14.9951049 C15.4538462,15.0237762 15.5255245,15.0954545 15.5541958,15.1241259 C15.5828671,15.6832168 15.5541958,16.2423077 15.5541958,16.8013986 C15.5685315,17.2027972 15.4251748,17.6328671 15.7262238,17.9482517 C15.1384615,18.1776224 14.4933566,17.9482517 13.8912587,18.0772727 C13.6762238,19.1237762 13.8912587,20.198951 13.7479021,21.2597902 C12.9451049,21.1594406 12.1423077,21.1307692 11.3681818,20.8870629 C10.465035,20.6146853 9.49020979,20.672028 8.58706294,20.3853147 C8.04230769,20.2132867 7.41153846,20.198951 6.92412587,20.5286713 C7.1534965,20.672028 7.44020979,20.672028 7.69825175,20.7293706 C8.41503497,20.8583916 9.10314685,21.1451049 9.83426573,21.1594406 C10.9524476,21.2311189 11.9702797,21.7185315 13.0884615,21.7758741 C13.8482517,21.9479021 14.6367133,22.0625874 15.4251748,22.0052448 C15.4395105,22.0625874 15.4538462,22.1772727 15.4681818,22.2346154 C14.5793706,22.420979 13.6762238,22.2776224 12.8304196,22.0052448 C11.9846154,21.7328671 11.0671329,21.7615385 10.2213287,21.4748252 C9.41853147,21.1737762 8.55839161,21.1451049 7.72692308,20.9587413 C7.66958042,21.4318182 7.65524476,21.9192308 7.69825175,22.3923077 C7.88461538,22.463986 8.08531469,22.5213287 8.28601399,22.5356643 C8.41503497,22.1629371 8.41503497,21.6898601 8.77342657,21.4318182 C9.46153846,21.5321678 9.49020979,22.3923077 9.57622378,22.9370629 C9.97762238,23.2094406 10.4363636,23.3958042 10.9094406,23.4961538 C11.5115385,23.6251748 12.0276224,23.9692308 12.6297203,24.0695804 C13.3321678,24.1986014 13.9629371,24.7003497 14.7083916,24.643007 C15.2244755,23.9405594 15.0954545,22.8797203 15.7405594,22.2202797 C16.0129371,21.9335664 16.5003497,21.9192308 16.8013986,22.2059441 C17.2601399,22.4926573 17.4034965,23.0374126 17.6758741,23.4818182 C17.9912587,23.7111888 18.3783217,23.8688811 18.7653846,23.9262238 C19.1954545,23.8688811 19.5681818,23.6251748 19.9695804,23.4818182 C20.5286713,23.3958042 21.0877622,23.2954545 21.5895105,23.0517483 C21.7615385,22.765035 21.5465035,22.3062937 21.8762238,22.1055944 C21.9192308,22.334965 21.7041958,23.1090909 22.1342657,22.8797203 C22.2202797,21.9048951 22.1055944,20.8870629 22.334965,19.9409091 C22.6646853,19.6255245 23.2524476,19.7975524 23.6681818,19.5538462 C23.7111888,19.5538462 23.8258741,19.5251748 23.8832168,19.5108392 C24.729021,19.6398601 25.5461538,19.2958042 26.3776224,19.2384615 C26.434965,20.2276224 26.4493007,21.2311189 26.348951,22.2059441 C25.1304196,22.3206294 24.0122378,22.851049 22.7937063,22.9800699 C22.0912587,23.0804196 21.4604895,23.4388112 20.758042,23.4961538 C20.3423077,23.5534965 19.7545455,23.6251748 19.5968531,24.0982517 C19.7688811,24.1842657 19.9695804,24.2846154 20.1702797,24.2272727 C21.1020979,24.0695804 22.0195804,23.8545455 22.9083916,23.5248252 C23.6825175,23.3814685 24.427972,23.1664336 25.1877622,22.9513986 C26.3202797,22.808042 27.3524476,22.248951 28.4993007,22.2059441 C28.4993007,22.1055944 28.527972,21.9048951 28.5423077,21.8045455 C28.398951,21.6468531 28.1552448,21.7185315 27.9688811,21.6898601 C27.9975524,20.8297203 27.9975524,19.9695804 27.9688811,19.0951049 C27.9545455,18.8944056 28.0835664,18.6076923 27.8685315,18.4643357 C27.5101399,18.2493007 27.1804196,17.9769231 26.7933566,17.7905594 C26.4923077,17.6472028 26.5353147,17.2458042 26.477972,16.9734266 C26.2342657,17.3461538 25.7325175,17.2458042 25.3597902,17.2744755 C24.427972,17.2458042 23.5104895,17.4034965 22.593007,17.2888112 C22.3206294,16.5576923 22.4353147,15.7692308 22.2776224,15.0094406 C22.2059441,14.6797203 22.2632867,14.3213287 22.4783217,14.0346154 C23.7541958,14.0059441 25.0300699,14.048951 26.3059441,14.0202797 C26.3202797,13.9629371 26.3632867,13.8339161 26.391958,13.7765734 C26.7073427,13.9199301 26.5783217,14.3213287 26.6213287,14.5937063 C26.5066434,14.608042 26.3059441,14.6367133 26.1912587,14.6367133 C26.1339161,15.1097902 26.3059441,15.5541958 26.5353147,15.9412587 C26.5066434,16.184965 26.3059441,16.3856643 26.391958,16.6293706 C26.5783217,16.7870629 26.693007,16.4573427 26.7216783,16.313986 C26.779021,15.8122378 26.7216783,15.2961538 26.7933566,14.7944056 C26.8076923,14.436014 26.9223776,14.0346154 26.7503497,13.6905594 C26.6213287,13.4325175 26.3059441,13.5758741 26.0909091,13.6188811 C25.9905594,13.4755245 25.8328671,13.3751748 25.6465035,13.3895105 C24.8293706,13.3178322 24.0265734,13.2461538 23.2094406,13.2604895 C21.1594406,13.1314685 19.0951049,13.0167832 17.0307692,12.9451049 C17.2027972,13.2461538 17.5038462,13.4611888 17.6041958,13.8052448 C17.3174825,13.7479021 17.1167832,13.5328671 16.8730769,13.4038462 C16.6437063,13.3608392 16.572028,13.6475524 16.3856643,13.7192308 C16.5146853,15.0811189 16.9304196,16.443007 16.7440559,17.8192308 C16.486014,17.8335664 16.1993007,17.8909091 15.9555944,17.7618881 C15.7262238,17.5038462 15.7405594,17.1454545 15.7692308,16.8300699 C15.9699301,16.7870629 16.184965,16.7870629 16.3713287,16.701049 C16.486014,16.2853147 16.486014,15.7835664 16.2853147,15.3821678 C16.1276224,15.3391608 15.9555944,15.3104895 15.7835664,15.3104895 C15.6115385,14.9090909 15.8695804,14.4933566 15.8552448,14.0776224 C15.8409091,13.8195804 15.9412587,13.5902098 16.0416084,13.3608392 C16.4143357,13.2174825 16.572028,12.6727273 17.0307692,12.7587413 C18.234965,12.8304196 19.4391608,12.8447552 20.629021,12.8447552 C22.334965,12.9594406 24.0409091,13.0597902 25.7468531,13.1027972 C25.7038462,12.7730769 25.6751748,12.4433566 25.6178322,12.127972 C24.0122378,11.9559441 22.4066434,11.7265734 20.801049,11.7265734 C19.6972028,11.6262238 18.579021,11.5545455 17.4751748,11.3968531 C17.0737762,11.2678322 16.7583916,11.5688811 16.3713287,11.6262238 C16.3283217,11.3825175 16.529021,11.1818182 16.7583916,11.1674825 C19.1667832,11.1101399 21.5321678,11.7839161 23.9405594,11.6692308 L23.8832168,11.5402098 C23.3814685,11.3538462 22.8367133,11.4111888 22.3206294,11.3108392 C22.5213287,11.2965035 22.722028,11.2534965 22.9370629,11.2104895 C22.9083916,11.0241259 22.6933566,11.0241259 22.5643357,10.9667832 C21.9335664,10.4793706 21.1451049,10.2356643 20.5286713,9.74825175 C20.2706294,9.53321678 19.9265734,9.6048951 19.6255245,9.57622378 C18.234965,9.6479021 16.8587413,9.30384615 15.4681818,9.33251748 M9.06013986,10.6800699 C8.97412587,10.7947552 8.90244755,10.9237762 8.87377622,11.0671329 C9.63356643,11.2104895 10.2786713,10.6083916 11.0241259,10.7804196 C11.3251748,10.7804196 11.7695804,10.8807692 11.9416084,10.551049 C12.170979,10.1353147 12.3286713,9.70524476 12.5437063,9.28951049 C12.7874126,8.67307692 13.2174825,8.12832168 13.3465035,7.46888112 C11.6118881,8.04230769 10.2356643,9.31818182 9.06013986,10.6800699 M17.1024476,0.903146853 C15.7118881,3.97097902 14.134965,6.96713287 12.7587413,10.034965 C13.6475524,10.0636364 14.565035,10.1926573 15.4395105,10.0493007 C15.5398601,9.69090909 15.0667832,9.70524476 14.9234266,9.47587413 C14.5506993,9.13181818 15.0524476,8.58706294 15.4538462,8.73041958 C17.0594406,8.94545455 18.6937063,8.94545455 20.2993007,9.13181818 C20.7006993,9.30384615 21.0160839,9.66223776 21.4604895,9.76258741 C20.1702797,6.9527972 18.751049,4.18601399 17.4034965,1.4048951 C17.3174825,1.21853147 17.2171329,1.06083916 17.1024476,0.903146853 M17.0594406,0.0716783217 C17.2601399,0.0286713287 17.3174825,0.272377622 17.4034965,0.401398601 C18.4786713,2.52307692 19.5108392,4.67342657 20.5573427,6.82377622 C20.758042,7.3972028 21.5321678,7.3541958 21.8618881,7.81293706 L21.9048951,7.94195804 C21.5895105,7.76993007 21.2597902,7.62657343 20.9444056,7.48321678 C21.1307692,8.05664336 21.4604895,8.57272727 21.7041958,9.11748252 C21.9048951,9.50454545 22.0339161,9.92027972 22.2776224,10.2786713 C23.0947552,10.8951049 24.1842657,11.1244755 25.1734266,11.0527972 C25.1877622,10.9954545 25.2020979,10.8807692 25.2164336,10.8234266 C25.2307692,10.7660839 25.2737762,10.6800699 25.2881119,10.6227273 C25.4601399,10.7947552 25.5748252,11.0671329 25.8328671,11.1531469 C26.9223776,11.3395105 28.0118881,11.4972028 29.0870629,11.6979021 C29.3020979,11.7839161 29.5458042,11.8125874 29.7751748,11.7839161 C30.9506993,11.8412587 32.0832168,12.1566434 33.2444056,12.2713287 C33.4164336,12.3573427 33.6027972,12.386014 33.7891608,12.3573427 L34.1188811,12.3573427 C34.1905594,12.8304196 33.6601399,13.0597902 33.4164336,13.3895105 C31.8538462,14.9377622 30.3055944,16.5003497 28.743007,18.0486014 C28.613986,18.191958 28.441958,18.3353147 28.3702797,18.536014 C28.3846154,19.3818182 28.2986014,20.2276224 28.3559441,21.0734266 C28.398951,21.1164336 28.4706294,21.2024476 28.5136364,21.2454545 C28.8146853,21.4461538 29.0870629,21.9048951 28.9006993,22.248951 C28.8003497,22.3636364 28.7573427,22.4926573 28.786014,22.6503497 C28.7286713,23.2954545 28.0548951,23.4674825 27.5101399,23.5391608 C26.9223776,23.5678322 26.6356643,24.1986014 26.477972,24.686014 C26.8793706,27.1804196 27.3667832,29.6604895 27.7681818,32.1692308 C27.8398601,32.3269231 27.7395105,32.627972 27.5244755,32.541958 C25.8328671,31.7678322 24.2272727,30.7786713 22.5356643,30.0332168 C20.8153846,33.6458042 19.0520979,37.2583916 17.2888112,40.8566434 L16.8157343,40.8566434 C15.1241259,37.2870629 13.3321678,33.7604895 11.6835664,30.1622378 C11.3108392,30.1479021 11.0384615,30.4059441 10.7374126,30.5636364 C9.46153846,31.2374126 8.2,31.9398601 6.92412587,32.6136364 C6.76643357,32.7283217 6.46538462,32.6566434 6.49405594,32.4416084 C6.89545455,30.1192308 7.22517483,27.7968531 7.66958042,25.4888112 C7.76993007,24.9870629 7.76993007,24.4566434 7.94195804,23.9548951 C8.04230769,23.7111888 8.14265734,23.3384615 7.89895105,23.1377622 C7.64090909,22.9657343 7.32552448,22.8940559 7.03881119,22.8223776 L7.03881119,22.7076923 C7.03881119,22.2632867 7.03881119,21.8332168 7.01013986,21.3888112 C6.98146853,21.0590909 6.53706294,21.1164336 6.29335664,21.0447552 L6.29335664,20.9157343 C6.29335664,20.6576923 6.3506993,20.3996503 6.27902098,20.1416084 C6.45104895,20.0412587 6.63741259,19.9552448 6.82377622,19.9122378 C6.88111888,19.6685315 6.93846154,19.3818182 6.80944056,19.1524476 C6.15,18.5216783 5.47622378,17.8909091 4.84545455,17.2314685 C4.02832168,17.2171329 3.21118881,17.2458042 2.39405594,17.2314685 L2.46573427,17.1167832 C3.16818182,17.1597902 3.87062937,17.1454545 4.57307692,17.1311189 L4.57307692,16.9734266 C3.79895105,16.9590909 3.03916084,16.9590909 2.26503497,16.9447552 C2.15034965,16.7153846 2.09300699,16.4143357 2.2506993,16.1993007 C2.58041958,16.0559441 2.92447552,15.9412587 3.2541958,15.7835664 C3.0965035,15.4968531 2.79545455,15.3104895 2.56608392,15.0667832 C1.79195804,14.306993 1.0034965,13.5758741 0.243706294,12.8017483 C0.114685315,12.6870629 0.0716783217,12.5293706 0,12.3716783 C0.114685315,12.3716783 0.32972028,12.3716783 0.43006993,12.3573427 C0.630769231,12.386014 0.817132867,12.3573427 0.989160839,12.2713287 C2.10734266,12.1566434 3.19685315,11.8555944 4.3006993,11.7839161 C4.5013986,11.8125874 4.68776224,11.7839161 4.85979021,11.6979021 C6.00664336,11.5832168 7.12482517,11.3108392 8.25734266,11.1674825 C9.01713287,10.3073427 9.73391608,9.37552448 10.6513986,8.70174825 C11.3108392,8.18566434 12.0562937,7.7986014 12.7730769,7.38286713 C13.1027972,7.25384615 13.5472028,7.22517483 13.6905594,6.83811189 C14.5937063,4.91713287 15.5828671,3.01048951 16.5146853,1.07517483 C16.7297203,0.75979021 16.7870629,0.344055944 17.0594406,0.0716783217" id="Fill-1" fill="#FFFFFF" mask="url(#mask-2)"></path>
                </g>
                <path d="M17.1024476,0.979842657 C17.2171329,1.13753497 17.3174825,1.29522727 17.4034965,1.48159091 C18.751049,4.26270979 20.1702797,7.02949301 21.4604895,9.83928322 C21.0160839,9.73893357 20.7006993,9.38054196 20.2993007,9.20851399 C18.6937063,9.02215035 17.0594406,9.02215035 15.4538462,8.80711538 C15.0524476,8.66375874 14.5506993,9.20851399 14.9234266,9.55256993 C15.0667832,9.78194056 15.5398601,9.7676049 15.4395105,10.1259965 C14.565035,10.2693531 13.6475524,10.1403322 12.7587413,10.1116608 C14.134965,7.04382867 15.7118881,4.04767483 17.1024476,0.979842657" id="Fill-4" fill="#FFFFFF"></path>
                <path d="M9.06013986,10.7567657 C10.2356643,9.39487762 11.6118881,8.1190035 13.3465035,7.54557692 C13.2174825,8.20501748 12.7874126,8.74977273 12.5437063,9.36620629 C12.3286713,9.78194056 12.170979,10.2120105 11.9416084,10.6277448 C11.7695804,10.957465 11.3251748,10.8571154 11.0241259,10.8571154 C10.2786713,10.6850874 9.63356643,11.2871853 8.87377622,11.1438287 C8.90244755,11.000472 8.97412587,10.871451 9.06013986,10.7567657" id="Fill-6" fill="#FFFFFF"></path>
                <path d="M20.9444056,7.55991259 C21.2597902,7.70326923 21.5895105,7.84662587 21.9048951,8.01865385 C23.1664336,8.79277972 24.298951,9.73893357 25.2164336,10.9001224 C25.2020979,10.957465 25.1877622,11.0721503 25.1734266,11.129493 C24.1842657,11.2011713 23.0947552,10.9718007 22.2776224,10.3553671 C22.0339161,9.99697552 21.9048951,9.58124126 21.7041958,9.19417832 C21.4604895,8.64942308 21.1307692,8.13333916 20.9444056,7.55991259" id="Fill-8" fill="#FFFFFF"></path>
                <path d="M15.4681818,9.40921329 C16.8587413,9.38054196 18.234965,9.7245979 19.6255245,9.65291958 C19.9265734,9.68159091 20.2706294,9.60991259 20.5286713,9.82494755 C21.1451049,10.3123601 21.9335664,10.5560664 22.5643357,11.043479 C22.3923077,11.215507 22.1486014,11.1725 21.9335664,11.1725 C20.586014,11.1151573 19.2527972,10.8427797 17.9052448,10.7424301 C17.6615385,10.7137587 17.4178322,10.6707517 17.1741259,10.5990734 C16.6006993,10.1976748 15.9699301,9.86795455 15.4681818,9.40921329" id="Fill-12" fill="#FFFFFF"></path>
                <path d="M13.2748252,10.6707517 C14.1062937,10.6420804 14.9520979,10.6420804 15.7979021,10.6994231 C15.5255245,11.0721503 14.9377622,11.0721503 14.5363636,11.2441783 C14.048951,11.4592133 13.4755245,11.1438287 13.2748252,10.6707517" id="Fill-16" fill="#FFFFFF"></path>
                <path d="M15.9842657,10.9287937 C16.2996503,10.7280944 16.6867133,10.7854371 17.0307692,10.8427797 C18.7653846,11.2011713 20.5573427,11.215507 22.3206294,11.387535 C22.8367133,11.4878846 23.3814685,11.430542 23.8832168,11.6169056 L23.9405594,11.7459266 C21.5321678,11.8606119 19.1667832,11.1868357 16.7583916,11.2441783 C16.529021,11.258514 16.3283217,11.4592133 16.3713287,11.7029196 C16.7583916,11.6455769 17.0737762,11.344528 17.4751748,11.473549 C18.579021,11.6312413 19.6972028,11.7029196 20.801049,11.8032692 C22.4066434,11.8032692 24.0122378,12.0326399 25.6178322,12.2046678 C25.6751748,12.5200524 25.7038462,12.8497727 25.7468531,13.179493 C24.0409091,13.136486 22.334965,13.0361364 20.629021,12.921451 C19.4391608,12.921451 18.234965,12.9071154 17.0307692,12.8354371 C16.572028,12.7494231 16.4143357,13.2941783 16.0416084,13.437535 C16.0702797,12.8067657 15.8552448,12.2046678 15.8839161,11.5882343 C15.9555944,11.430542 16.0559441,11.2871853 16.1562937,11.1438287 C15.5111888,11.3158566 14.9377622,11.6742483 14.2926573,11.8176049 C13.7765734,11.9322902 13.3465035,12.2620105 12.8304196,12.3623601 C12.2713287,12.4770455 11.7839161,12.8067657 11.2248252,12.921451 C10.6800699,13.050472 10.206993,13.3801923 9.6479021,13.4948776 C8.98846154,13.6382343 8.42937063,14.0539685 7.75559441,14.1256469 C7.72692308,13.8389336 8.04230769,13.7815909 8.25734266,13.6812413 C8.74475524,13.5092133 9.27517483,13.4088636 9.73391608,13.1508217 C10.6944056,12.8354371 11.6548951,12.4627098 12.6153846,12.1616608 C13.2031469,11.8319406 13.8912587,11.7602622 14.479021,11.4448776 C14.9520979,11.1868357 15.5255245,11.215507 15.9842657,10.9287937" id="Fill-18" fill="#FFFFFF"></path>
                <path d="M10.4363636,11.4162063 C11.1961538,11.2871853 11.9559441,11.4878846 12.7157343,11.4878846 C12.9451049,11.4448776 12.9737762,11.6742483 13.0167832,11.8319406 C12.5293706,11.9466259 12.084965,12.2190035 11.5975524,12.3193531 C11.3538462,12.3910315 11.2678322,12.1473252 11.1531469,12.0039685 C10.9954545,11.7172552 10.465035,11.7889336 10.4363636,11.4162063" id="Fill-20" fill="#FFFFFF"></path>
                <path d="M6.37937063,12.0613112 C7.46888112,11.8176049 8.6013986,11.7315909 9.71958042,11.5595629 C10.0493007,11.7315909 10.508042,11.9609615 10.4506993,12.4053671 C9.4041958,12.8784441 8.31468531,13.2225 7.25384615,13.6669056 C7.05314685,13.9536189 7.1534965,14.3693531 7.09615385,14.6990734 C6.33636364,14.9284441 5.57657343,15.1721503 4.81678322,15.401521 C4.47272727,15.487535 4.12867133,15.7455769 3.78461538,15.6308916 C2.91013986,14.8424301 2.09300699,13.9966259 1.23286713,13.1938287 C1.11818182,13.1078147 1.03216783,12.9931294 0.974825175,12.8641084 C2.75244755,12.4770455 4.57307692,12.3336888 6.37937063,12.0613112" id="Fill-22" fill="#FFFFFF"></path>
                <path d="M19.7545455,20.3473252 C19.6828671,21.1931294 19.7115385,22.0532692 19.7545455,22.9134091 C20.241958,22.9707517 20.8870629,22.9277448 21.1451049,22.4259965 C21.2311189,21.680542 21.2884615,20.9207517 21.2311189,20.1752972 C20.758042,20.0319406 20.1559441,20.0892832 19.7545455,20.3473252 M11.7839161,13.050472 C13.1744755,12.6204021 14.4933566,12.0039685 15.8839161,11.5882343 C15.8552448,12.2046678 16.0702797,12.8067657 16.0416084,13.437535 C15.9412587,13.6669056 15.8409091,13.8962762 15.8552448,14.1543182 C15.8695804,14.5700524 15.6115385,14.9857867 15.7835664,15.3871853 C15.9555944,15.3871853 16.1276224,15.4158566 16.2853147,15.4588636 C16.486014,15.8602622 16.486014,16.3620105 16.3713287,16.7777448 C16.184965,16.8637587 15.9699301,16.8637587 15.7692308,16.9067657 C15.7405594,17.2221503 15.7262238,17.580542 15.9555944,17.8385839 C16.1993007,17.9676049 16.486014,17.9102622 16.7440559,17.8959266 C16.8013986,18.0679545 16.8730769,18.2399825 16.9447552,18.4120105 C17.1167832,18.4263462 17.2744755,18.4406818 17.4321678,18.4406818 C17.4034965,18.6700524 17.3174825,18.8850874 17.3604895,19.114458 C17.7045455,19.4871853 18.2062937,19.630542 18.6363636,19.8742483 C19.2384615,20.2613112 19.9839161,19.9889336 20.629021,19.9172552 C21.6181818,19.673549 22.6503497,19.630542 23.6681818,19.630542 C23.2524476,19.8742483 22.6646853,19.7022203 22.334965,20.0176049 C22.1055944,20.9637587 22.2202797,21.9815909 22.1342657,22.9564161 C21.7041958,23.1857867 21.9192308,22.4116608 21.8762238,22.1822902 C21.5465035,22.3829895 21.7615385,22.8417308 21.5895105,23.1284441 C21.0877622,23.3721503 20.5286713,23.4725 19.9695804,23.558514 C19.5681818,23.7018706 19.1954545,23.9455769 18.7653846,24.0029196 C18.3783217,23.9455769 17.9912587,23.7878846 17.6758741,23.558514 C17.4034965,23.1141084 17.2601399,22.5693531 16.8013986,22.2826399 C16.5003497,21.9959266 16.0129371,22.0102622 15.7405594,22.2969755 C15.0954545,22.9564161 15.2244755,24.0172552 14.7083916,24.7197028 C13.9629371,24.7770455 13.3321678,24.2752972 12.6297203,24.1462762 C12.0276224,24.0459266 11.5115385,23.7018706 10.9094406,23.5728497 C10.4363636,23.4725 9.97762238,23.2861364 9.57622378,23.0137587 C9.49020979,22.4690035 9.46153846,21.6088636 8.77342657,21.508514 C8.41503497,21.7665559 8.41503497,22.2396329 8.28601399,22.6123601 C8.08531469,22.5980245 7.88461538,22.5406818 7.69825175,22.4690035 C7.65524476,21.9959266 7.66958042,21.508514 7.72692308,21.0354371 C8.55839161,21.2218007 9.41853147,21.250472 10.2213287,21.551521 C11.0671329,21.8382343 11.9846154,21.8095629 12.8304196,22.0819406 C13.6762238,22.3543182 14.5793706,22.4976748 15.4681818,22.3113112 C15.4538462,22.2539685 15.4395105,22.1392832 15.4251748,22.0819406 C14.6367133,22.1392832 13.8482517,22.0245979 13.0884615,21.8525699 C11.9702797,21.7952273 10.9524476,21.3078147 9.83426573,21.2361364 C9.10314685,21.2218007 8.41503497,20.9350874 7.69825175,20.8060664 C7.44020979,20.7487238 7.1534965,20.7487238 6.92412587,20.6053671 C7.41153846,20.2756469 8.04230769,20.2899825 8.58706294,20.4620105 C9.49020979,20.7487238 10.465035,20.6913811 11.3681818,20.9637587 C12.1423077,21.207465 12.9451049,21.2361364 13.7479021,21.336486 C13.8912587,20.2756469 13.6762238,19.200472 13.8912587,18.1539685 C14.4933566,18.0249476 15.1384615,18.2543182 15.7262238,18.0249476 C15.4251748,17.7095629 15.5685315,17.279493 15.5541958,16.8780944 C15.5541958,16.3190035 15.5828671,15.7599126 15.5541958,15.2008217 C15.5255245,15.1721503 15.4538462,15.100472 15.4251748,15.0718007 C14.7227273,15.186486 14.0202797,15.2151573 13.3178322,15.3298427 C11.5545455,15.3298427 9.79125874,15.3441783 8.02797203,15.315507 C7.66958042,15.315507 7.69825175,14.8567657 7.62657343,14.6130594 C9.0027972,14.0539685 10.4076923,13.6095629 11.7839161,13.050472" id="Fill-24" fill="#FFFFFF"></path>
                <path id="Fill-26" fill="#FFFFFF"></path>
                <path d="M26.0622378,11.8462762 C26.5066434,11.8032692 26.951049,11.9179545 27.3954545,11.9752972 C29.3307692,12.2333392 31.2660839,12.5487238 33.2013986,12.7924301 C33.3734266,12.9357867 33.101049,13.093479 33.015035,13.2081643 C31.5097902,14.7134091 29.9758741,16.1899825 28.4562937,17.6665559 C28.2842657,17.8385839 28.0979021,18.1396329 27.8111888,18.0249476 C27.3811189,17.8672552 26.736014,17.4801923 26.951049,16.9354371 C27.2664336,16.0896329 27.1517483,15.1721503 27.1804196,14.2976748 C27.1660839,13.9822902 27.2664336,13.6095629 26.9797203,13.394528 C26.779021,13.0648077 26.2486014,13.351521 26.1052448,12.964458 C25.9475524,12.6060664 26.0622378,12.2190035 26.0622378,11.8462762" id="Fill-28" fill="#FFFFFF"></path>
                <path d="M22.0625874,14.0396329 C21.8475524,14.4840385 22.5356643,14.0683042 22.0625874,14.0396329 M16.8587413,13.9822902 C16.7870629,14.8137587 16.9304196,15.6165559 17.0451049,16.4336888 C17.1167832,16.9067657 17.1454545,17.408514 17.3748252,17.8529196 C18.751049,17.8815909 20.1129371,17.580542 21.4748252,17.537535 C21.7472028,17.5518706 22.0052448,17.4658566 22.1916084,17.279493 C22.2776224,16.1756469 21.7041958,15.1578147 21.8762238,14.0539685 C20.198951,14.0969755 18.536014,13.9966259 16.8587413,13.9822902 M17.0307692,13.0218007 C19.0951049,13.093479 21.1594406,13.2081643 23.2094406,13.3371853 C24.0265734,13.3228497 24.8293706,13.394528 25.6465035,13.4662063 C25.8328671,13.4518706 25.9905594,13.5522203 26.0909091,13.6955769 C26.1339161,13.7815909 26.1912587,13.9536189 26.2342657,14.0396329 C25.0013986,14.0826399 23.7685315,14.0539685 22.55,14.0252972 L22.4783217,14.1113112 C22.2632867,14.3980245 22.2059441,14.7564161 22.2776224,15.0861364 C22.4353147,15.8459266 22.3206294,16.6343881 22.593007,17.365507 C23.5104895,17.4801923 24.427972,17.3225 25.3597902,17.3511713 C25.7325175,17.3225 26.2342657,17.4228497 26.477972,17.0501224 C26.5353147,17.3225 26.4923077,17.7238986 26.7933566,17.8672552 C27.1804196,18.0536189 27.5101399,18.3259965 27.8685315,18.5410315 C28.0835664,18.6843881 27.9545455,18.9711014 27.9688811,19.1718007 C27.5674825,19.1001224 27.1517483,19.0284441 26.736014,19.114458 C25.7898601,19.286486 24.8293706,19.3581643 23.8832168,19.587535 C23.8258741,19.6018706 23.7111888,19.630542 23.6681818,19.630542 C22.6503497,19.630542 21.6181818,19.673549 20.629021,19.9172552 C19.9839161,19.9889336 19.2384615,20.2613112 18.6363636,19.8742483 C18.2062937,19.630542 17.7045455,19.4871853 17.3604895,19.114458 C17.3174825,18.8850874 17.4034965,18.6700524 17.4321678,18.4406818 C17.2744755,18.4406818 17.1167832,18.4263462 16.9447552,18.4120105 C16.8730769,18.2399825 16.8013986,18.0679545 16.7440559,17.8959266 C16.9304196,16.5197028 16.5146853,15.1578147 16.3856643,13.7959266 C16.572028,13.7242483 16.6437063,13.437535 16.8730769,13.480542 C17.1167832,13.6095629 17.3174825,13.8245979 17.6041958,13.8819406 C17.5038462,13.5378846 17.2027972,13.3228497 17.0307692,13.0218007" id="Fill-30" fill="#FFFFFF"></path>
                <path d="M26.0909091,13.6955769 C26.3059441,13.6525699 26.6213287,13.5092133 26.7503497,13.7672552 C26.9223776,14.1113112 26.8076923,14.5127098 26.7933566,14.8711014 C26.7216783,15.3728497 26.779021,15.8889336 26.7216783,16.3906818 C26.693007,16.5340385 26.5783217,16.8637587 26.391958,16.7060664 C26.3059441,16.4623601 26.5066434,16.2616608 26.5353147,16.0179545 C26.3059441,15.6308916 26.1339161,15.186486 26.1912587,14.7134091 C26.3059441,14.7134091 26.5066434,14.6847378 26.6213287,14.6704021 C26.5783217,14.3980245 26.7073427,13.9966259 26.391958,13.8532692 C26.3632867,13.9106119 26.3202797,14.0396329 26.3059441,14.0969755 C25.0300699,14.1256469 23.7541958,14.0826399 22.4783217,14.1113112 L22.55,14.0252972 C23.7685315,14.0539685 25.0013986,14.0826399 26.2342657,14.0396329 C26.1912587,13.9536189 26.1339161,13.7815909 26.0909091,13.6955769" id="Fill-32" fill="#FFFFFF"></path>
                <path d="M17.1597902,14.6990734 C17.0737762,15.3441783 17.2601399,15.9606119 17.3174825,16.5913811 C17.3461538,16.8780944 17.3461538,17.193479 17.4608392,17.4658566 C17.5468531,17.6808916 17.8479021,17.623549 18.0486014,17.623549 C18.7653846,17.537535 19.4821678,17.494528 20.198951,17.4801923 C20.7723776,17.2938287 21.3601399,17.408514 21.9335664,17.3225 C22.0912587,16.4336888 21.8475524,15.573549 21.7902098,14.7134091 C20.2562937,14.6560664 18.708042,14.6560664 17.1597902,14.6990734" id="Fill-34" fill="#FFFFFF"></path>
                <path id="Fill-36" fill="#FFFFFF"></path>
                <path d="M24.9440559,14.7707517 C25.2451049,14.7994231 25.5318182,14.6417308 25.8041958,14.5127098 C26.0192308,15.0861364 26.0765734,15.7169056 26.2199301,16.3046678 C26.2772727,16.5913811 26.3346154,17.1218007 25.9045455,17.1218007 C24.8867133,17.0787937 23.8115385,17.365507 22.8223776,17.1361364 C22.6216783,16.3620105 22.3493007,15.5448776 22.4926573,14.7564161 C23.3097902,14.7564161 24.1269231,14.7420804 24.9440559,14.7707517" id="Fill-38" fill="#FFFFFF"></path>
                <path d="M17.1597902,14.6990734 C18.708042,14.6560664 20.2562937,14.6560664 21.7902098,14.7134091 C21.8475524,15.573549 22.0912587,16.4336888 21.9335664,17.3225 C21.3601399,17.408514 20.7723776,17.2938287 20.198951,17.4801923 C19.4821678,17.494528 18.7653846,17.537535 18.0486014,17.623549 C17.8479021,17.623549 17.5468531,17.6808916 17.4608392,17.4658566 C17.3461538,17.193479 17.3461538,16.8780944 17.3174825,16.5913811 C17.2601399,15.9606119 17.0737762,15.3441783 17.1597902,14.6990734" id="Fill-40" fill="#FFFFFF"></path>
                <path d="M13.9199301,15.487535 C14.3786713,15.5018706 14.9234266,15.2008217 15.3391608,15.4588636 C15.4108392,16.2903322 15.3821678,17.1361364 15.2388112,17.9532692 C14.8517483,18.1539685 14.35,17.9532692 13.9199301,17.8815909 C13.9055944,17.0787937 13.9055944,16.2759965 13.9199301,15.487535" id="Fill-42" fill="#FFFFFF"></path>
                <path d="M4.45839161,16.1899825 C5.3472028,15.8889336 6.22167832,15.530542 7.1534965,15.401521 C9.30384615,15.444528 11.4541958,15.358514 13.6045455,15.444528 L13.6332168,15.6022203 C11.3968531,15.6738986 9.14615385,15.6022203 6.89545455,15.6452273 C6.25034965,15.7312413 5.69125874,16.1039685 5.04615385,16.2186538 C4.44405594,16.3190035 3.92797203,16.7204021 3.2972028,16.7204021 C3.51223776,16.3046678 4.07132867,16.3333392 4.45839161,16.1899825" id="Fill-44" fill="#FFFFFF"></path>
                <path d="M7.48321678,17.0501224 C7.48321678,16.8924301 7.56923077,16.7920804 7.72692308,16.7347378 C7.82727273,17.580542 7.75559441,18.4263462 7.76993007,19.2721503 C8.27167832,19.243479 8.77342657,19.329493 9.27517483,19.3008217 C9.27517483,18.4406818 9.18916084,17.580542 9.30384615,16.7347378 C9.36118881,16.7490734 9.49020979,16.7634091 9.54755245,16.7777448 C9.56188811,17.6092133 9.49020979,18.4550175 9.59055944,19.286486 C10.0493007,19.5301923 10.6513986,19.415507 11.1674825,19.4871853 C11.1674825,19.157465 11.1961538,18.8134091 11.1961538,18.4836888 C11.9559441,18.5123601 12.7013986,18.4980245 13.4611888,18.4693531 C13.5328671,19.2721503 13.5041958,20.0606119 13.4611888,20.8490734 C12.9881119,20.7630594 12.5006993,20.6913811 12.0276224,20.6483741 C11.0527972,20.5766958 10.1353147,20.2613112 9.16048951,20.2183042 C8.6013986,20.2039685 8.02797203,19.9602622 7.46888112,20.1322902 C7.49755245,19.1001224 7.48321678,18.0679545 7.48321678,17.0501224" id="Fill-46" fill="#FFFFFF"></path>
                <path id="Fill-48" fill="#FFFFFF"></path>
                <path d="M5.46188811,17.064458 C5.97797203,17.1218007 6.52272727,16.9641084 7.01013986,17.1648077 C7.01013986,17.6522203 7.02447552,18.1396329 6.9958042,18.6127098 C6.56573427,18.4693531 6.33636364,18.0249476 5.99230769,17.7525699 C5.80594406,17.537535 5.43321678,17.3941783 5.46188811,17.064458" id="Fill-50" fill="#FFFFFF"></path>
                <path id="Fill-52" fill="#FFFFFF"></path>
                <path d="M46.3472028,20.2469755 C44.884965,20.7057168 44.1681818,22.5550175 44.8562937,23.9025699 C45.3293706,25.0494231 46.7629371,25.6801923 47.9241259,25.2501224 C49.156993,24.8487238 49.8737762,23.4438287 49.5870629,22.1822902 C49.3576923,20.7487238 47.7377622,19.7452273 46.3472028,20.2469755 M46.3472028,18.8134091 C47.6374126,18.6127098 49.0853147,18.9137587 50.0027972,19.9029196 C51.5940559,21.3938287 51.551049,24.2322902 49.9311189,25.6801923 C48.3398601,27.1997727 45.5013986,27.0850874 44.0391608,25.4221503 C42.6199301,23.8308916 42.7632867,21.1071154 44.4118881,19.7165559 C44.9566434,19.243479 45.6304196,18.9424301 46.3472028,18.8134091" id="Fill-54" fill="#FFFFFF"></path>
                <path d="M55.5076923,20.2183042 C54.6905594,20.4620105 54.0597902,21.164458 53.8304196,21.9672552 C53.472028,23.0711014 53.9307692,24.4043182 54.9342657,25.0064161 C55.8660839,25.6228497 57.184965,25.4651573 57.9590909,24.6766958 C58.9195804,23.7448776 59.0199301,22.0962762 58.1741259,21.0497727 C57.5576923,20.2613112 56.4681818,19.9172552 55.5076923,20.2183042 M55.522028,18.8134091 C56.6402098,18.6413811 57.8730769,18.8564161 58.7762238,19.5731993 C60.6828671,20.9924301 60.7832168,24.1749476 59.0055944,25.7231993 C57.3426573,27.2571154 54.3465035,27.0564161 52.998951,25.221451 C51.7374126,23.601521 51.9667832,21.0211014 53.5437063,19.7022203 C54.1027972,19.2148077 54.7909091,18.9137587 55.522028,18.8134091" id="Fill-56" fill="#FFFFFF"></path>
                <path d="M93.8269087,20.1179545 C95.2891465,18.4120105 98.256629,18.2686538 99.8192164,19.8885839 C99.5325031,20.2469755 99.2027829,20.5623601 98.8873983,20.8920804 C98.3999857,20.5766958 97.9269087,20.1896329 97.3248108,20.1466259 C96.2209647,19.9602622 95.0597759,20.6197028 94.6440416,21.6662063 C94.2139717,22.5980245 94.3859997,23.8022203 95.1171185,24.5476748 C95.8482374,25.3648077 97.1384472,25.6228497 98.1419437,25.1497727 C98.557678,24.9777448 98.8730626,24.6480245 99.2027829,24.3613112 C99.5898458,24.5190035 99.8908948,24.9060664 100.206279,25.2071154 C100.206279,25.4651573 99.9339017,25.6228497 99.7762094,25.780542 C97.9699157,27.314458 94.8304052,27.0277448 93.5258598,24.9634091 C92.5653703,23.515507 92.6800556,21.4368357 93.8269087,20.1179545" id="Fill-58" fill="#FFFFFF"></path>
                <path d="M112.577972,18.9567657 C113.696154,18.5553671 115.015035,18.7560664 115.961189,19.4728497 C115.76049,19.8742483 115.473776,20.2183042 115.215734,20.5910315 C114.771329,20.3759965 114.326923,20.0892832 113.810839,20.1179545 C113.294755,20.0892832 112.577972,20.4046678 112.678322,21.0211014 C112.764336,21.465507 113.251748,21.6518706 113.61014,21.8095629 C114.412937,22.1392832 115.316084,22.4116608 115.860839,23.1427797 C116.391259,23.9312413 116.348252,25.0780944 115.731818,25.8092133 C115.187063,26.4399825 114.341259,26.7840385 113.524126,26.7266958 C112.506294,26.7840385 111.545804,26.2679545 110.786014,25.608514 C111.058392,25.2357867 111.388112,24.8200524 111.78951,24.6050175 C112.348601,25.0064161 112.950699,25.436486 113.667483,25.3791434 C114.341259,25.4221503 114.986364,24.6193531 114.570629,23.9885839 C114.054545,23.3291434 113.137063,23.214458 112.434615,22.8417308 C111.689161,22.4976748 111.058392,21.7522203 111.13007,20.8920804 C111.115734,20.0176049 111.78951,19.2578147 112.577972,18.9567657" id="Fill-60" fill="#FFFFFF"></path>
                <path d="M138.410825,19.2578147 C139.586349,18.4693531 141.234951,18.6413811 142.353133,19.4728497 C142.152433,19.8742483 141.86572,20.2326399 141.607678,20.6053671 C141.034251,20.2326399 140.331804,19.9602622 139.658028,20.2183042 C139.213622,20.3329895 138.898237,20.9064161 139.199286,21.3078147 C139.572014,21.6948776 140.131105,21.8382343 140.618517,22.0532692 C141.320965,22.3256469 142.037748,22.7127098 142.424811,23.386486 C142.783202,24.2036189 142.682853,25.2501224 142.037748,25.8952273 C141.536,26.4256469 140.790545,26.7840385 140.045091,26.7266958 C138.984251,26.8127098 137.966419,26.2822902 137.192293,25.5941783 C137.436,25.1927797 137.823063,24.8773951 138.181454,24.5620105 C138.797888,25.1211014 139.701035,25.6228497 140.532503,25.264458 C141.148937,25.0494231 141.306629,24.1319406 140.761874,23.7592133 C140.030755,23.1857867 139.027258,23.0997727 138.29614,22.4976748 C137.220965,21.7665559 137.321314,19.9459266 138.410825,19.2578147" id="Fill-62" fill="#FFFFFF"></path>
                <path d="M37.9751748,18.8707517 C38.9786713,18.7990734 39.9821678,18.8564161 40.9856643,18.8420804 C41.5447552,18.8564161 42.1181818,18.7847378 42.6772727,18.8994231 C42.6629371,19.3151573 42.6629371,19.7452273 42.6772727,20.1752972 C41.6451049,20.2899825 40.5986014,20.2039685 39.5664336,20.2039685 C39.4517483,20.7200524 39.4947552,21.250472 39.5377622,21.7665559 C40.2975524,21.8238986 41.0716783,21.7952273 41.8314685,21.7808916 C41.9318182,22.2396329 41.9318182,22.6983741 41.8314685,23.1571154 C41.0716783,23.1427797 40.2975524,23.0997727 39.5377622,23.171451 C39.4660839,24.3183042 39.5090909,25.4651573 39.5234266,26.5976748 C39.0073427,26.6406818 38.4912587,26.6263462 37.9751748,26.6263462 L37.9751748,18.8707517 Z" id="Fill-64" fill="#FFFFFF"></path>
                <path d="M62.9479021,20.2183042 C62.9765734,21.8669056 62.9765734,23.515507 62.9622378,25.1784441 C63.9657343,25.3218007 65.2416084,25.3791434 65.9583916,24.4903322 C66.9618881,23.4151573 66.7898601,21.5228497 65.5856643,20.6627098 C64.8258741,20.0749476 63.8367133,20.2469755 62.9479021,20.2183042 M61.4713287,18.8707517 C62.6468531,18.8134091 63.8367133,18.7990734 65.0122378,18.9567657 C66.3741259,19.1287937 67.520979,20.1896329 67.9223776,21.4798427 C68.5244755,23.2001224 67.8076923,25.2931294 66.1734266,26.1676049 C64.7255245,26.9130594 63.0339161,26.5403322 61.4713287,26.6263462 C61.3996503,25.1497727 61.456993,23.6588636 61.4426573,22.1822902 C61.456993,21.0784441 61.3996503,19.9745979 61.4713287,18.8707517" id="Fill-66" fill="#FFFFFF"></path>
                <path d="M71.4202797,18.9137587 C72.1513986,18.7560664 72.9255245,18.8707517 73.670979,18.8420804 C74.8034965,18.8707517 75.9503497,18.7704021 77.0828671,18.8994231 C77.0685315,19.3151573 77.0685315,19.7452273 77.0828671,20.1609615 C76.3947552,20.2899825 75.6923077,20.2039685 74.9898601,20.2183042 C75.0185315,22.3543182 75.0328671,24.4903322 74.9898601,26.6120105 C74.4881119,26.6263462 74.0006993,26.6263462 73.5132867,26.6263462 C73.4416084,24.4903322 73.4846154,22.3399825 73.4846154,20.2039685 C72.7965035,20.2039685 72.0940559,20.2899825 71.4202797,20.1466259 L71.4202797,18.9137587 Z" id="Fill-68" fill="#FFFFFF"></path>
                <path d="M79.734965,20.2183042 L79.734965,21.8525699 C80.2653846,21.8382343 80.8101399,21.8812413 81.3548951,21.8382343 C82.0286713,21.6231993 82.0716783,20.5480245 81.4265734,20.2899825 C80.8674825,20.1466259 80.2940559,20.2469755 79.734965,20.2183042 M78.2440559,18.8707517 C79.3765734,18.8277448 80.5377622,18.7847378 81.6846154,18.9280944 C82.7884615,19.071451 83.5769231,20.2326399 83.4048951,21.3221503 C83.3188811,22.1106119 82.7597902,22.7987238 82.0286713,23.0711014 C82.9174825,24.2896329 83.9496503,25.4078147 84.8527972,26.6120105 C84.2076923,26.5976748 83.5482517,26.6980245 82.9031469,26.5690035 C82.0143357,25.4508217 81.1398601,24.3183042 80.208042,23.2287937 C80.0503497,23.2287937 79.8926573,23.2287937 79.734965,23.214458 C79.7206294,24.3469755 79.777972,25.479493 79.7062937,26.6263462 L78.2297203,26.6263462 C78.1723776,25.0494231 78.2297203,23.4725 78.201049,21.8955769 C78.2297203,20.8920804 78.1723776,19.8742483 78.2440559,18.8707517" id="Fill-70" fill="#FFFFFF"></path>
                <path d="M85.0248252,18.8994231 C85.5409091,18.7990734 86.056993,18.8277448 86.5730769,18.8707517 C86.6017483,20.5336888 86.5157343,22.2109615 86.6160839,23.8882343 C86.6734266,25.0924301 88.1643357,25.7231993 89.1678322,25.221451 C89.8702797,24.9490734 90.2143357,24.1892832 90.2,23.4725 C90.2143357,21.9529196 90.2143357,20.4190035 90.1856643,18.8994231 C90.6874126,18.7990734 91.2034965,18.7990734 91.7052448,18.8994231 C91.6765734,20.5193531 91.6909091,22.1392832 91.6909091,23.7592133 C91.6765734,24.8487238 91.0601399,25.9238986 90.0566434,26.3826399 C88.8811189,26.9273951 87.4045455,26.8843881 86.315035,26.1676049 C85.4835664,25.608514 85.0678322,24.6050175 85.0391608,23.6301923 C85.0391608,22.0532692 85.0678322,20.4763462 85.0248252,18.8994231" id="Fill-72" fill="#FFFFFF"></path>
                <path d="M101.338811,18.8707517 C101.854895,18.8277448 102.370979,18.7847378 102.887063,18.8994231 C102.872727,19.8599126 102.844056,20.8204021 102.901399,21.7808916 C103.417483,21.4941783 103.718531,20.9494231 104.148601,20.5480245 C104.722028,20.0176049 105.195105,19.3725 105.797203,18.8707517 C106.413636,18.7990734 107.044406,18.8277448 107.675175,18.8707517 C107.488811,19.2578147 107.159091,19.5301923 106.872378,19.8312413 C106.026573,20.6913811 105.195105,21.551521 104.377972,22.4403322 C105.467483,23.601521 106.513986,24.7913811 107.589161,25.9669056 C107.78986,26.1676049 107.990559,26.3539685 108.105245,26.6120105 C107.474476,26.6406818 106.858042,26.6263462 106.227273,26.6120105 C105.338462,25.6801923 104.521329,24.7053671 103.646853,23.7592133 C103.403147,23.5011713 103.216783,23.171451 102.901399,23.0137587 C102.844056,24.2179545 102.872727,25.4078147 102.887063,26.5976748 C102.370979,26.6406818 101.854895,26.6406818 101.338811,26.6263462 L101.338811,18.8707517 Z" id="Fill-74" fill="#FFFFFF"></path>
                <path d="M116.563287,18.8994231 C117.409091,18.7704021 118.269231,18.8707517 119.115035,18.8420804 C120.147203,18.8850874 121.208042,18.7560664 122.225874,18.9137587 C122.211538,19.329493 122.225874,19.7308916 122.225874,20.1466259 C121.552098,20.2899825 120.84965,20.2039685 120.161538,20.2183042 C120.161538,22.3543182 120.19021,24.4903322 120.132867,26.6263462 C119.616783,26.6406818 119.086364,26.6406818 118.57028,26.5976748 C118.613287,24.6480245 118.57028,22.6983741 118.598951,20.7487238 C118.598951,20.5623601 118.584615,20.3903322 118.541608,20.2039685 C117.882168,20.2039685 117.222727,20.2756469 116.563287,20.1752972 C116.577622,19.7452273 116.577622,19.3151573 116.563287,18.8994231" id="Fill-76" fill="#FFFFFF"></path>
                <path d="M125.609091,21.508514 C125.351049,22.1679545 124.978322,22.7987238 124.820629,23.4868357 C125.408392,23.5298427 125.981818,23.558514 126.56958,23.4868357 C126.397552,22.9134091 126.110839,22.3973252 125.895804,21.8382343 C125.824126,21.723549 125.795455,21.4941783 125.609091,21.508514 M125.15035,18.8707517 C125.508741,18.8277448 125.881469,18.8134091 126.254196,18.8994231 C127.329371,21.4798427 128.447552,24.0459266 129.551399,26.6120105 C129.006643,26.6263462 128.447552,26.6550175 127.902797,26.5833392 C127.702098,26.0385839 127.458392,25.4938287 127.243357,24.9490734 C126.211189,24.8773951 125.179021,24.9060664 124.146853,24.9204021 C123.903147,25.4938287 123.688112,26.0672552 123.401399,26.6263462 C122.885315,26.6263462 122.354895,26.6406818 121.838811,26.6120105 C122.913986,24.0172552 124.032168,21.4368357 125.15035,18.8707517" id="Fill-78" fill="#FFFFFF"></path>
                <path d="M131.916783,20.2183042 L131.916783,21.8525699 C132.604895,21.7378846 133.565385,22.1536189 134.00979,21.4225 C134.196154,20.9780944 134.024126,20.3616608 133.508042,20.2613112 C132.977622,20.1752972 132.432867,20.2326399 131.916783,20.2183042 M130.425874,18.8707517 C131.486713,18.8134091 132.547552,18.8134091 133.594056,18.8850874 C134.43986,18.9280944 135.213986,19.4871853 135.486364,20.2899825 C135.902098,21.379493 135.3,22.6983741 134.21049,23.0854371 C135.113636,24.2896329 136.145804,25.4078147 137.034615,26.6120105 C136.418182,26.6406818 135.801748,26.6263462 135.185315,26.6263462 C134.282168,25.565507 133.436364,24.4473252 132.547552,23.386486 C132.404196,23.1571154 132.131818,23.2431294 131.916783,23.214458 C131.902448,24.3469755 131.95979,25.479493 131.888112,26.6263462 L130.425874,26.6263462 C130.354196,25.3791434 130.411538,24.1462762 130.397203,22.8990734 C130.411538,21.551521 130.354196,20.2039685 130.425874,18.8707517" id="Fill-80" fill="#FFFFFF"></path>
                <path d="M26.8363636,19.3725 C26.693007,19.8599126 26.7503497,20.3903322 26.736014,20.8920804 C26.7646853,21.1071154 26.6786713,21.4081643 26.951049,21.508514 C27.2377622,21.465507 27.5674825,21.379493 27.7395105,21.121451 C27.7681818,20.5336888 27.7395105,19.9315909 27.7538462,19.3438287 C27.4814685,19.243479 27.0370629,19.0571154 26.8363636,19.3725 M26.736014,19.114458 C27.1517483,19.0284441 27.5674825,19.1001224 27.9688811,19.1718007 C27.9975524,20.0462762 27.9975524,20.9064161 27.9688811,21.7665559 C28.1552448,21.7952273 28.398951,21.723549 28.5423077,21.8812413 C27.7825175,21.7952273 27.0944056,22.1679545 26.348951,22.2826399 C26.4493007,21.3078147 26.434965,20.3043182 26.3776224,19.3151573 C25.5461538,19.3725 24.729021,19.7165559 23.8832168,19.587535 C24.8293706,19.3581643 25.7898601,19.286486 26.736014,19.114458" id="Fill-82" fill="#FFFFFF"></path>
                <path d="M27.1087413,19.4728497 C27.2807692,19.415507 27.4671329,19.415507 27.6534965,19.458514 C27.7825175,19.8742483 27.2664336,19.9745979 26.9653846,20.0032692 C27.0083916,19.8312413 26.9367133,19.587535 27.1087413,19.4728497" id="Fill-86" fill="#FFFFFF"></path>
                <path d="M22.5356643,20.2039685 C23.6108392,20.1322902 24.6286713,19.6448776 25.7038462,19.7308916 C25.6321678,19.8885839 25.4888112,19.9602622 25.2594406,19.9172552 L25.2451049,20.0176049 C25.4888112,20.0032692 25.7181818,19.9889336 25.9618881,20.0032692 C25.9045455,20.2756469 25.5461538,20.2039685 25.3311189,20.2756469 C24.513986,20.3043182 23.7255245,20.6340385 22.9083916,20.6197028 L22.9083916,20.4763462 C22.9800699,20.4620105 23.1090909,20.4476748 23.1807692,20.4476748 L23.1807692,20.3186538 C22.9657343,20.3186538 22.7506993,20.3043182 22.5213287,20.3043182 L22.5356643,20.2039685 Z" id="Fill-88" fill="#FFFFFF"></path>
                <path id="Fill-92" fill="#FFFFFF"></path>
                <path d="M26.9797203,20.3473252 C27.1087413,20.3043182 27.2234266,20.2469755 27.3381119,20.1896329 C27.4958042,20.2899825 27.5388112,20.4333392 27.5101399,20.5910315 C27.3381119,20.6483741 27.0657343,20.6053671 27.1087413,20.8490734 C27.2377622,20.8347378 27.3811189,20.8060664 27.5244755,20.7773951 C27.5244755,20.8634091 27.4958042,21.0497727 27.4958042,21.1501224 C27.2951049,21.207465 27.0083916,21.2791434 26.9797203,20.9924301 C26.9367133,20.7773951 26.9653846,20.5623601 26.9797203,20.3473252" id="Fill-94" fill="#FFFFFF"></path>
                <path d="M20.0986014,20.7343881 C20.0125874,20.2469755 20.629021,20.3759965 20.9157343,20.3186538 C20.9587413,20.5050175 20.9444056,20.6913811 20.9013986,20.8777448 C20.6433566,20.8920804 20.0986014,21.1931294 20.0986014,20.7343881" id="Fill-96" fill="#FFFFFF"></path>
                <path d="M20.2562937,21.3651573 C21.0304196,20.8634091 21.1594406,22.5693531 20.3853147,22.4259965 C19.9409091,22.2683042 20.0125874,21.6662063 20.2562937,21.3651573" id="Fill-98" fill="#FFFFFF"></path>
                <path id="Fill-100" fill="#FFFFFF"></path>
                <path d="M26.348951,22.2826399 C27.0944056,22.1679545 27.7825175,21.7952273 28.5423077,21.8812413 C28.527972,21.9815909 28.4993007,22.1822902 28.4993007,22.2826399 C27.3524476,22.3256469 26.3202797,22.8847378 25.1877622,23.0280944 C24.427972,23.2431294 23.6825175,23.4581643 22.9083916,23.601521 C22.0195804,23.9312413 21.1020979,24.1462762 20.1702797,24.3039685 C19.9695804,24.3613112 19.7688811,24.2609615 19.5968531,24.1749476 C19.7545455,23.7018706 20.3423077,23.6301923 20.758042,23.5728497 C21.4604895,23.515507 22.0912587,23.1571154 22.7937063,23.0567657 C24.0122378,22.9277448 25.1304196,22.3973252 26.348951,22.2826399" id="Fill-102" fill="#FFFFFF"></path>
                <path id="Fill-104" fill="#FFFFFF"></path>
                <path id="Fill-106" fill="#FFFFFF"></path>
                <path d="M8.77342657,22.5120105 C8.83076923,22.4976748 8.94545455,22.4833392 9.0027972,22.4833392 C9.0458042,22.9134091 9.27517483,23.300472 9.27517483,23.7448776 C9.26083916,23.9455769 9.07447552,23.9885839 8.90244755,24.0172552 C8.68741259,23.5441783 8.74475524,23.0137587 8.77342657,22.5120105" id="Fill-108" fill="#FFFFFF"></path>
                <path d="M26.822028,22.9420804 C27.3954545,22.8560664 27.9115385,22.5406818 28.484965,22.4833392 C28.4132867,22.6983741 28.3559441,22.9850874 28.0835664,23.0424301 C27.4958042,23.2287937 26.9223776,23.4725 26.3059441,23.558514 C25.6034965,23.6588636 24.9440559,23.9885839 24.2416084,24.0889336 C23.3814685,24.1892832 22.6073427,24.6480245 21.7472028,24.7197028 C20.9300699,24.8057168 20.1702797,25.393479 19.3388112,25.1927797 C19.2241259,24.9777448 19.4678322,24.8057168 19.6541958,24.7913811 C20.1846154,24.6766958 20.715035,24.5333392 21.2167832,24.3469755 C21.8475524,24.1319406 22.55,24.1176049 23.1664336,23.8595629 C23.8975524,23.5441783 24.729021,23.5871853 25.4601399,23.2861364 C25.9045455,23.1141084 26.3632867,23.0137587 26.822028,22.9420804" id="Fill-110" fill="#FFFFFF"></path>
                <path id="Fill-112" fill="#FFFFFF"></path>
                <path d="M16.356993,24.7627098 C16.5003497,24.9777448 16.6006993,25.264458 16.8730769,25.350472 C16.8157343,25.1641084 16.7583916,24.9920804 16.701049,24.8200524 C16.615035,24.8057168 16.443007,24.7770455 16.356993,24.7627098 M16.1706294,24.0459266 C16.2423077,23.8882343 16.2566434,23.601521 16.486014,23.601521 C16.8874126,23.515507 17.1454545,23.9312413 17.3461538,24.2179545 C17.4895105,24.4903322 17.1024476,24.4903322 16.9877622,24.6193531 C17.1311189,24.7197028 17.2888112,24.7913811 17.4608392,24.8057168 C17.5325175,25.0924301 17.5755245,25.3791434 17.5611888,25.6801923 C17.3318182,25.780542 17.1311189,25.9095629 16.8874126,25.9382343 C16.8874126,25.823549 16.8730769,25.608514 16.8730769,25.4938287 C16.658042,25.651521 16.4143357,25.8092133 16.2136364,25.9955769 C16.4286713,26.0959266 16.658042,26.1676049 16.8730769,26.2822902 C17.0451049,26.1245979 17.2601399,26.0242483 17.4751748,25.9238986 C17.4034965,26.3683042 16.9447552,26.7410315 16.486014,26.6550175 C15.9555944,26.3396329 15.7118881,25.6801923 15.7835664,25.0637587 C16.2136364,24.8343881 16.098951,25.5511713 16.3283217,25.7088636 C16.6723776,25.3791434 16.1993007,25.0924301 16.1276224,24.7770455 C16.1993007,24.7197028 16.3426573,24.6193531 16.4143357,24.5620105 C16.4286713,24.4759965 16.4716783,24.2896329 16.486014,24.2036189 C16.5863636,24.1892832 16.7727273,24.1462762 16.8730769,24.1319406 C16.9304196,23.6301923 16.3713287,23.8452273 16.1706294,24.0459266" id="Fill-114" fill="#FDFDFE"></path>
                <path d="M8.32902098,24.3613112 C9.10314685,24.8630594 10.0206294,24.4616608 10.7230769,24.0602622 C12.1566434,24.4473252 13.5328671,25.0207517 14.9520979,25.4221503 L15.0381119,25.5225 C15.0381119,26.2106119 15.4681818,26.7553671 15.7692308,27.3287937 C13.0311189,28.9057168 10.1783217,30.2676049 7.41153846,31.7728497 C7.33986014,31.7871853 7.1965035,31.8158566 7.12482517,31.8301923 C7.46888112,29.3357867 7.95629371,26.8557168 8.32902098,24.3613112" id="Fill-116" fill="#FFFFFF"></path>
                <path d="M16.356993,24.7627098 C16.443007,24.7770455 16.615035,24.8057168 16.701049,24.8200524 C16.7583916,24.9920804 16.8157343,25.1641084 16.8730769,25.350472 C16.6006993,25.264458 16.5003497,24.9777448 16.356993,24.7627098" id="Fill-118" fill="#FFFFFF"></path>
                <path d="M22.9370629,24.9060664 C23.1951049,24.8200524 23.4674825,24.8057168 23.7255245,24.8057168 C24.2559441,25.565507 25.3167832,25.4938287 26.0479021,25.0924301 C26.3346154,26.5833392 26.5783217,28.1029196 26.8363636,29.6081643 C26.9653846,30.3679545 27.1517483,31.1277448 27.2234266,31.9018706 C26.477972,31.6008217 25.7611888,31.1994231 25.0587413,30.8123601 C22.9800699,29.794528 20.9587413,28.6763462 18.9087413,27.615507 C18.5646853,27.4578147 18.9804196,27.2427797 19.1237762,27.1280944 C19.5538462,26.8413811 19.7545455,26.3396329 19.8835664,25.8665559 C19.9265734,25.5798427 20.2562937,25.5511713 20.4856643,25.4938287 C21.3171329,25.3361364 22.1342657,25.1497727 22.9370629,24.9060664" id="Fill-120" fill="#FFFFFF"></path>
                <path d="M12.041958,29.9378846 C13.4181818,29.1350874 14.8804196,28.4899825 16.2136364,27.615507 C16.5003497,27.6871853 16.7727273,27.8162063 17.0594406,27.9165559 C17.4608392,27.8878846 17.8622378,27.5725 18.2493007,27.8448776 C19.5251748,28.5616608 20.8870629,29.1350874 22.1342657,29.9092133 C20.5,33.3641084 18.7797203,36.7759965 17.1454545,40.2308916 C17.0164336,40.1878846 16.9304196,40.1018706 16.8730769,39.9728497 C15.2674825,36.6326399 13.6332168,33.3067657 12.041958,29.9378846" id="Fill-122" fill="#FFFFFF"></path>
            </g>
        </g>
    </g>
</svg>