<svg xmlns="http://www.w3.org/2000/svg" width="180" height="80" viewBox="0 0 180 80">
  <g fill="#FFFFFF" fill-rule="evenodd" transform="translate(23 34)">
    <g transform="translate(5)">
      <path/>
      <path/>
      <g transform="translate(47 1)">
        <path d="M.83855472 1.04741019C1.40142022 1.02443609 1.96428571 1.01294904 2.52715121 1.04741019 3.96303258 3.31035923 5.3644528 5.58479532 6.78884712 7.84774436 7.07602339 8.24979114 7.27130326 8.72076023 7.60442774 9.08834586 7.66186299 8.59440267 7.59294069 8.08897243 7.60442774 7.59502924 7.60442774 5.41248956 7.59294069 3.22994987 7.60442774 1.04741019 8.06390977 1.02443609 8.52339181 1.02443609 8.98287385 1.04741019 8.9943609 4.56244779 8.9943609 8.08897243 8.98287385 11.6154971 8.48893066 11.6269841 8.00647452 11.6269841 7.51253133 11.60401 5.88137009 8.9160401 4.1927736 6.27401838 2.53863826 3.59753551 2.4352548 3.45969089 2.3663325 3.27589808 2.20551378 3.20697577 2.26294904 5.51587302 2.23997494 7.81328321 2.23997494 10.1221805 2.23997494 10.6161236 2.26294904 11.1100668 2.21700084 11.6154971 1.7575188 11.6269841 1.29803676 11.6269841.827067669 11.60401.815580618 8.08897243.815580618 4.57393484.83855472 1.04741019zM29.7974102 1.05889724C30.2454052 1.01294904 30.7048872 1.02443609 31.1643693 1.04741019 31.2218045 2.42585631 31.1873434 3.81578947 31.1643693 5.20572264 31.566416 4.86111111 31.9340017 4.45906433 32.462406 4.29824561 33.4847536 3.94214703 34.7827903 4.10296575 35.5524227 4.93003342 36.0808271 5.52736007 36.2301587 6.35442774 36.2186717 7.1355472 36.2071846 8.62886383 36.2416458 10.1221805 36.2071846 11.6154971L34.8172515 11.6154971C34.7483292 10.018797 34.8172515 8.41060986 34.7827903 6.81390977 34.702381 6.40037594 34.5300752 5.963868 34.1739766 5.72263993 33.7259816 5.38951546 33.128655 5.36654135 32.6117377 5.49289891 31.8191312 5.76858814 31.3022139 6.5726817 31.1988304 7.38826232 31.1643693 8.78968254 31.2218045 10.2025898 31.1643693 11.6154971 30.7048872 11.6154971 30.2454052 11.6269841 29.7859231 11.60401 29.7974102 8.08897243 29.7859231 4.57393484 29.7974102 1.05889724zM45.6380535 1.04741019C46.0975355 1.02443609 46.5455305 1.02443609 47.0050125 1.04741019 47.0394737 3.45969089 47.0050125 5.8719716 47.0164996 8.2842523 47.0509607 9.03091061 46.9246032 9.80054302 46.5340434 10.4438179 46.0401003 11.2823726 45.1096491 11.822264 44.1447368 11.8452381 43.0075188 11.9486216 41.8128655 11.5236007 41.1236424 10.6046366 40.8594403 10.2255639 40.5607769 9.81203008 40.572264 9.34106099 40.9857978 9.18024227 41.3878446 8.9619883 41.8243525 8.84711779 42.0081454 9.22619048 42.14599 9.65121136 42.4561404 9.96136174 43.1223893 10.6505848 44.3744779 10.7195071 45.0407268 9.99582289 45.4427736 9.62823726 45.6150794 9.05388471 45.6265664 8.52548037 45.6380535 6.03279031 45.6265664 3.54010025 45.6380535 1.04741019zM25.2944862 2.18462824C25.7539683 2.13868003 26.2249373 2.13868003 26.6844194 2.18462824 26.7418546 2.90831245 26.7073935 3.63199666 26.6959064 4.35568087 27.2932331 4.39014202 27.8905597 4.33270677 28.4878864 4.40162907 28.4649123 4.80367586 28.4649123 5.21720969 28.4878864 5.61925647 27.8905597 5.66520468 27.2932331 5.60776942 26.6959064 5.66520468 26.7303676 6.96324144 26.7073935 8.24979114 26.7073935 9.5478279 26.7073935 9.91541353 26.9945698 10.237051 27.3276942 10.3863826 27.6263576 10.5242272 27.9365079 10.2944862 28.2581454 10.3519215 28.3615288 10.7539683 28.5797828 11.144528 28.6142439 11.5810359 27.7871763 11.7648287 26.833751 11.8796992 26.1100668 11.362782 25.5357143 11.0181704 25.3059733 10.3059733 25.2944862 9.66269841 25.2829992 8.3302005 25.3059733 6.98621554 25.2829992 5.64223058 24.8694653 5.63074353 24.4559315 5.64223058 24.0309106 5.64223058 24.0194236 5.21720969 24.0194236 4.79218881 24.0309106 4.37865497 24.4444444 4.35568087 24.8694653 4.36716792 25.2829992 4.36716792 25.3059733 3.64348371 25.2829992 2.90831245 25.2944862 2.18462824zM13.2790309 4.20634921C14.2784043 4.01106934 15.3696742 4.14891395 16.2426901 4.71177945 16.9778613 5.26315789 17.5981621 6.04427736 17.7704678 6.96324144 18.0116959 8.21532999 17.8623642 9.66269841 16.9548872 10.6276107 15.6453634 12.1898496 13.0148287 12.270259 11.5674603 10.8688388 10.7403926 10.0992063 10.3498329 8.9390142 10.4302423 7.82477026 10.372807 6.14766082 11.6134085 4.52798663 13.2790309 4.20634921L13.2790309 4.20634921zM13.6236424 5.46992481C13.3479532 5.55033417 13.083751 5.67669173 12.85401 5.83751044 11.5329992 6.77944862 11.4755639 9.01942356 12.7276525 10.0532581 13.4857978 10.7195071 14.7263993 10.7309942 15.5190058 10.0992063 16.8285297 9.09983292 16.8055556 6.80242272 15.4500835 5.83751044 14.9331662 5.43546366 14.2439432 5.34356725 13.6236424 5.46992481zM21.1706349 4.50501253C21.7449875 4.22932331 22.4227235 4.04553049 23.0430242 4.21783626 23.1578947 4.66583124 23.0659983 5.15977444 23.0889724 5.61925647 22.537594 5.63074353 21.9517544 5.53884712 21.4578112 5.81453634 20.7226399 6.12468672 20.286132 6.92878028 20.3205931 7.70989975 20.3205931 9.00793651 20.3091061 10.3059733 20.3320802 11.592523 19.8725982 11.6269841 19.4131161 11.6154971 18.9651211 11.6154971 18.9076859 9.43295739 18.9536341 7.25041771 18.93066 5.06787803 18.93066 4.83813701 18.942147 4.60839599 18.9651211 4.37865497 19.390142 4.35568087 19.8151629 4.35568087 20.2516708 4.37865497 20.286132 4.7232665 20.2746449 5.05639098 20.2746449 5.40100251 20.5503342 5.09085213 20.7800752 4.7002924 21.1706349 4.50501253zM50.3362573 4.37865497C51.2667084 4.01106934 52.3464912 4.03404344 53.2769424 4.42460317 54.3107769 4.88408521 55 5.92940685 55.1493317 7.02067669 55.1952799 7.38826232 55.2412281 7.767335 55.2527151 8.13492063 55.229741 8.16938179 55.1608187 8.22681704 55.1378446 8.2612782 53.2769424 8.3072264 51.404553 8.20384294 49.5436508 8.3072264 49.6240602 8.9390142 49.8538012 9.58228906 50.3592314 9.98433584 50.8761487 10.4897661 51.6457811 10.6390977 52.3350042 10.5127402 52.978279 10.3748956 53.5066834 9.90392648 53.8168338 9.32957393 54.2878028 9.32957393 54.7013367 9.66269841 55.1033835 9.89243943 54.7013367 10.8114035 53.8168338 11.4661654 52.8634085 11.7303676 51.9789056 11.9486216 51.0254804 11.8911863 50.1869256 11.5236007 49.0726817 10.9837093 48.3030493 9.85797828 48.1652047 8.64035088 48.0962824 7.82477026 48.1192565 6.96324144 48.4868421 6.20509607 48.8429407 5.40100251 49.4977026 4.7002924 50.3362573 4.37865497L50.3362573 4.37865497zM50.1984127 6.07873851C49.9571846 6.36591479 49.7044695 6.71052632 49.7733918 7.10108605 51.1058897 7.089599 52.4383876 7.10108605 53.7708855 7.10108605 53.7364244 6.77944862 53.5985798 6.49227235 53.426274 6.22807018 52.7025898 5.19423559 51.0139933 5.13680033 50.1984127 6.07873851zM58.7907268 4.45906433C59.4225146 4.07999165 60.2036341 4.0914787 60.8813701 4.29824561 60.8813701 4.7692147 60.6516291 5.19423559 60.5482456 5.64223058 60.0198413 5.64223058 59.4569758 5.50438596 58.9630326 5.76858814 58.3657059 6.09022556 57.9177109 6.71052632 57.8487886 7.38826232 57.8143275 8.78968254 57.8832498 10.2025898 57.8143275 11.6154971 57.3548454 11.6269841 56.8953634 11.6269841 56.4358814 11.60401L56.4358814 4.37865497C56.8838764 4.35568087 57.3318713 4.34419382 57.7798663 4.39014202 57.7798663 4.7002924 57.7798663 5.01044277 57.8028404 5.32059315 58.1015038 4.99895572 58.377193 4.64285714 58.7907268 4.45906433zM62.880117 4.28675856C63.7761069 4.03404344 64.7869674 4.03404344 65.6255221 4.47055138 66.1883876 4.7462406 66.7512531 5.20572264 66.8890977 5.84899749 66.4755639 6.02130326 66.0964912 6.26253133 65.6484962 6.31996658 65.154553 5.36654135 63.6956976 5.05639098 62.880117 5.78007519 62.6044277 5.99832916 62.5699666 6.45781119 62.8341688 6.68755221 63.3281119 7.12406015 64.005848 7.14703425 64.6031746 7.33082707 65.2579365 7.49164578 65.9356725 7.68692565 66.4411028 8.14640769 67.0843776 8.73224728 67.1992481 9.75459482 66.8201754 10.5127402 66.5100251 11.0411445 65.9931078 11.4431913 65.4187552 11.6499582 64.247076 12.052005 62.8571429 11.9141604 61.9037176 11.0756057 61.5016708 10.7080201 61.07665 10.2715121 61.0421888 9.70864662 61.4557226 9.59377611 61.8233083 9.30659983 62.2368421 9.24916458 62.4780702 9.67418546 62.7652464 10.1106934 63.2132414 10.3404344 63.8794904 10.7539683 64.8099415 10.6505848 65.3957811 10.1336675 65.6599833 9.85797828 65.6370092 9.37552214 65.3498329 9.12280702 64.8788638 8.68629908 64.2011278 8.62886383 63.6152882 8.45655806 62.8571429 8.29573935 62.0530493 8.04302423 61.547619 7.41123642 61.1685464 6.96324144 61.1570593 6.31996658 61.2719298 5.76858814 61.4557226 5.01044277 62.1679198 4.50501253 62.880117 4.28675856zM68.7959482 5.26315789C70.093985 3.71240602 72.8393901 3.72389307 74.1029657 5.3091061 74.7807018 6.12468672 74.9759816 7.23893066 74.9070593 8.2612782 73.03467 8.2842523 71.1507937 8.24979114 69.2784043 8.2842523 69.2439432 9.42147034 70.2088555 10.5012531 71.3575606 10.5472013 72.1042189 10.6276107 72.8738513 10.2715121 73.2988722 9.65121136 73.4137427 9.5478279 73.4711779 9.31808688 73.6434837 9.31808688 74.0455305 9.44444444 74.390142 9.67418546 74.7807018 9.82351713 74.7692147 10.0992063 74.5624478 10.3174603 74.4016291 10.5242272 73.1725146 12.0864662 70.5879282 12.3276942 69.0946115 11.0066834 68.3939014 10.3863826 67.9344194 9.49039265 67.85401 8.55994152 67.7161654 7.39974937 67.9688805 6.12468672 68.7959482 5.26315789L68.7959482 5.26315789zM70.4385965 5.65371763C69.9216792 5.95238095 69.4392231 6.46929825 69.427736 7.10108605 70.7487469 7.089599 72.0812448 7.089599 73.4022556 7.10108605 73.3792815 5.68817878 71.5643275 5.01044277 70.4385965 5.65371763zM75.2401838 4.37865497C75.734127 4.35568087 76.2395572 4.34419382 76.7335004 4.39014202 77.2963659 5.74561404 77.8592314 7.10108605 78.4220969 8.44507101 78.5829156 8.76670844 78.6288638 9.16875522 78.904553 9.42147034 79.559315 7.73287385 80.248538 6.06725146 80.914787 4.39014202 81.4087302 4.34419382 81.9141604 4.35568087 82.4081036 4.37865497 82.3736424 4.7232665 82.1898496 5.02192982 82.0634921 5.3320802 80.6850459 8.46804511 79.341061 11.6269841 77.9511278 14.751462 77.4916458 14.8548454 77.0091896 14.762949 76.5382206 14.7974102 76.5726817 14.3838764 76.8483709 14.0622389 76.9862155 13.6831662 77.3423141 12.8331245 77.8017962 12.0175439 78.1234336 11.144528 77.9051796 10.4208438 77.5261069 9.75459482 77.2389307 9.05388471 76.6875522 7.80179616 76.1476608 6.5497076 75.5962824 5.3091061 75.4584378 4.99895572 75.297619 4.71177945 75.2401838 4.37865497z"/>
      </g>
    </g>
    <g stroke-width=".094">
      <path stroke="#FFFFFF" d="M0.0413533835,0.0827067669 C1.68170426,0.0551378446 3.32205514,0.0551378446 4.96240602,0.0827067669 C6.1754386,2.19172932 7.40225564,4.30075188 8.61528822,6.40977444 C8.87719298,6.82330827 8.87719298,7.37468672 8.61528822,7.80200501 C7.40225564,9.91102757 6.1754386,12.0062657 4.96240602,14.1152882 C3.32205514,14.1290727 1.68170426,14.1428571 0.0413533835,14.1152882 C1.33709273,11.7719298 2.72932331,9.48370927 4.03884712,7.15413534 L4.03884712,7.04385965 C2.72932331,4.71428571 1.33709273,2.42606516 0.0413533835,0.0827067669 Z"/>
      <path stroke="#F3F3F3" d="M17.547619 1.55764411C19.6152882.59273183 22.2756892.964912281 23.8884712 2.61904762 23.5576441 3.00501253 23.1716792 3.3358396 22.8270677 3.72180451 22.2894737 3.34962406 21.7656642 2.92230576 21.10401 2.75689223 20.1115288 2.52255639 19.0087719 2.57769424 18.0989975 3.06015038 17.0789474 3.5839599 16.3070175 4.54887218 16.0037594 5.63784461 15.6453634 6.9887218 15.9348371 8.53258145 16.8997494 9.5802005 18.2919799 11.2205514 21.0626566 11.4411028 22.6616541 9.97994987 23.2819549 9.46992481 23.5576441 8.68421053 23.6817043 7.9122807 22.4548872 7.9122807 21.2280702 7.93984962 20.0012531 7.89849624 20.0150376 7.36090226 20.0150376 6.83709273 20.0012531 6.29949875 21.7380952 6.27192982 23.4749373 6.25814536 25.2117794 6.29949875 25.4323308 7.08521303 25.3220551 7.96741855 25.1428571 8.76691729 24.7844612 10.3659148 23.5162907 11.6892231 21.9862155 12.2130326 21.1729323 12.5162907 20.2907268 12.5714286 19.4223058 12.5162907 17.6716792 12.3646617 16.0175439 11.3721805 15.066416 9.89724311 14.2117794 8.61528822 13.9085213 6.9887218 14.2669173 5.5 14.6666667 3.76315789 15.9348371 2.27443609 17.547619 1.55764411zM38.4586466 2.60526316C40.5676692.551378446 44.3032581.48245614 46.3847118 2.61904762 46.0401003 3.00501253 45.6679198 3.36340852 45.3095238 3.72180451 44.8546366 3.4047619 44.4135338 3.03258145 43.8759398 2.85338346 42.4285714 2.35714286 40.6917293 2.67418546 39.6027569 3.76315789 38.0864662 5.16917293 37.9210526 7.71929825 39.1892231 9.3320802 40.4711779 11.1240602 43.283208 11.4962406 44.9924812 10.1177945 45.6954887 9.59398496 46.0676692 8.75313283 46.1641604 7.9122807 44.9373434 7.89849624 43.7105263 7.95363409 42.4837093 7.88471178 42.4974937 7.36090226 42.4974937 6.83709273 42.4837093 6.31328321 44.1654135 6.2443609 45.8609023 6.28571429 47.556391 6.28571429 47.8320802 6.23057644 47.7631579 6.58897243 47.7907268 6.7406015 47.914787 8.25689223 47.5150376 9.89724311 46.3984962 10.9724311 44.716792 12.7506266 41.8082707 12.9849624 39.6992481 11.8546366 37.9761905 10.9448622 36.735589 9.12531328 36.6253133 7.1679198 36.4874687 5.47243108 37.2042607 3.74937343 38.4586466 2.60526316zM26.60401 1.33709273C27.7481203 1.32330827 28.8922306 1.33709273 30.0501253 1.32330827 31.6077694 1.29573935 33.2343358 1.88847118 34.2681704 3.0877193 35.7293233 4.78320802 35.9085213 7.36090226 34.9987469 9.37343358 34.226817 11.0689223 32.4348371 12.1165414 30.6152882 12.226817 29.2781955 12.2819549 27.9411028 12.2406015 26.6177945 12.254386 26.5902256 8.61528822 26.6177945 4.97619048 26.60401 1.33709273L26.60401 1.33709273zM28.2719298 3.00501253C28.2994987 5.52756892 28.2719298 8.05012531 28.2857143 10.5726817 29.5538847 10.5313283 30.9047619 10.7518797 32.0764411 10.1453634 33.2067669 9.62155388 33.8270677 8.38095238 33.8684211 7.18170426 33.9786967 5.88596491 33.5927318 4.41102757 32.462406 3.65288221 31.235589 2.81203008 29.6779449 2.97744361 28.2719298 3.00501253z" opacity=".95"/>
    </g>
  </g>
</svg>
