<svg xmlns="http://www.w3.org/2000/svg" width="180" height="80" viewBox="0 0 180 80">
  <g fill="#FFFFFF" fill-rule="evenodd" stroke-width=".094" transform="translate(35 34)">
    <path stroke="#FFFFFF" d="M0.0413533835,0.0827067669 C1.68170426,0.0551378446 3.32205514,0.0551378446 4.96240602,0.0827067669 C6.1754386,2.19172932 7.40225564,4.30075188 8.61528822,6.40977444 C8.87719298,6.82330827 8.87719298,7.37468672 8.61528822,7.80200501 C7.40225564,9.91102757 6.1754386,12.0062657 4.96240602,14.1152882 C3.32205514,14.1290727 1.68170426,14.1428571 0.0413533835,14.1152882 C1.33709273,11.7719298 2.72932331,9.48370927 4.03884712,7.15413534 L4.03884712,7.04385965 C2.72932331,4.71428571 1.33709273,2.42606516 0.0413533835,0.0827067669 Z"/>
    <path stroke="#F3F3F3" d="M17.547619 1.55764411C19.6152882.59273183 22.2756892.964912281 23.8884712 2.61904762 23.5576441 3.00501253 23.1716792 3.3358396 22.8270677 3.72180451 22.2894737 3.34962406 21.7656642 2.92230576 21.10401 2.75689223 20.1115288 2.52255639 19.0087719 2.57769424 18.0989975 3.06015038 17.0789474 3.5839599 16.3070175 4.54887218 16.0037594 5.63784461 15.6453634 6.9887218 15.9348371 8.53258145 16.8997494 9.5802005 18.2919799 11.2205514 21.0626566 11.4411028 22.6616541 9.97994987 23.2819549 9.46992481 23.5576441 8.68421053 23.6817043 7.9122807 22.4548872 7.9122807 21.2280702 7.93984962 20.0012531 7.89849624 20.0150376 7.36090226 20.0150376 6.83709273 20.0012531 6.29949875 21.7380952 6.27192982 23.4749373 6.25814536 25.2117794 6.29949875 25.4323308 7.08521303 25.3220551 7.96741855 25.1428571 8.76691729 24.7844612 10.3659148 23.5162907 11.6892231 21.9862155 12.2130326 21.1729323 12.5162907 20.2907268 12.5714286 19.4223058 12.5162907 17.6716792 12.3646617 16.0175439 11.3721805 15.066416 9.89724311 14.2117794 8.61528822 13.9085213 6.9887218 14.2669173 5.5 14.6666667 3.76315789 15.9348371 2.27443609 17.547619 1.55764411zM38.4586466 2.60526316C40.5676692.551378446 44.3032581.48245614 46.3847118 2.61904762 46.0401003 3.00501253 45.6679198 3.36340852 45.3095238 3.72180451 44.8546366 3.4047619 44.4135338 3.03258145 43.8759398 2.85338346 42.4285714 2.35714286 40.6917293 2.67418546 39.6027569 3.76315789 38.0864662 5.16917293 37.9210526 7.71929825 39.1892231 9.3320802 40.4711779 11.1240602 43.283208 11.4962406 44.9924812 10.1177945 45.6954887 9.59398496 46.0676692 8.75313283 46.1641604 7.9122807 44.9373434 7.89849624 43.7105263 7.95363409 42.4837093 7.88471178 42.4974937 7.36090226 42.4974937 6.83709273 42.4837093 6.31328321 44.1654135 6.2443609 45.8609023 6.28571429 47.556391 6.28571429 47.8320802 6.23057644 47.7631579 6.58897243 47.7907268 6.7406015 47.914787 8.25689223 47.5150376 9.89724311 46.3984962 10.9724311 44.716792 12.7506266 41.8082707 12.9849624 39.6992481 11.8546366 37.9761905 10.9448622 36.735589 9.12531328 36.6253133 7.1679198 36.4874687 5.47243108 37.2042607 3.74937343 38.4586466 2.60526316zM26.60401 1.33709273C27.7481203 1.32330827 28.8922306 1.33709273 30.0501253 1.32330827 31.6077694 1.29573935 33.2343358 1.88847118 34.2681704 3.0877193 35.7293233 4.78320802 35.9085213 7.36090226 34.9987469 9.37343358 34.226817 11.0689223 32.4348371 12.1165414 30.6152882 12.226817 29.2781955 12.2819549 27.9411028 12.2406015 26.6177945 12.254386 26.5902256 8.61528822 26.6177945 4.97619048 26.60401 1.33709273L26.60401 1.33709273zM28.2719298 3.00501253C28.2994987 5.52756892 28.2719298 8.05012531 28.2857143 10.5726817 29.5538847 10.5313283 30.9047619 10.7518797 32.0764411 10.1453634 33.2067669 9.62155388 33.8270677 8.38095238 33.8684211 7.18170426 33.9786967 5.88596491 33.5927318 4.41102757 32.462406 3.65288221 31.235589 2.81203008 29.6779449 2.97744361 28.2719298 3.00501253z" opacity=".95"/>
    <path stroke="#F5F5F5" d="M53.2493734 2.35714286C53.1942356 2.05388471 53.566416 2.12280702 53.7593985 2.12280702 54.1315789 2.13659148 54.5313283 2.06766917 54.9035088 2.1641604 56.2819549 4.28696742 57.5914787 6.46491228 58.9423559 8.60150376 59.2042607 8.98746867 59.3834586 9.44235589 59.7556391 9.7593985 59.7418546 7.22305764 59.7142857 4.67293233 59.7556391 2.13659148 60.1829574 2.10902256 60.6240602 2.12280702 61.0513784 2.12280702 61.1478697 3.92857143 61.0651629 5.76190476 61.0927318 7.58145363 61.0927318 9.13909774 61.1065163 10.6967419 61.0927318 12.254386 60.6240602 12.2819549 60.1691729 12.3095238 59.7142857 12.254386 59.5764411 12.1578947 59.5075188 11.9924812 59.4110276 11.8546366 58.0050125 9.5802005 56.585213 7.31954887 55.179198 5.05889724 55 4.76942356 54.8483709 4.45238095 54.5864662 4.23182957 54.6829574 6.90601504 54.6278195 9.5802005 54.6278195 12.254386 54.1591479 12.2957393 53.7042607 12.2819549 53.2493734 12.2406015 53.2493734 8.94611529 53.2493734 5.65162907 53.2493734 2.35714286zM83.2719298 2.13659148C83.7957393 2.10902256 84.3333333 2.12280702 84.8571429 2.12280702 85.7117794 3.47368421 86.4837093 4.86591479 87.3659148 6.18922306 88.179198 4.83834586 88.9649123 3.47368421 89.7919799 2.12280702 90.3157895 2.12280702 90.8533835 2.10902256 91.377193 2.12280702 90.3157895 3.98370927 89.1303258 5.76190476 88.0413534 7.5952381 87.9862155 9.13909774 88.0275689 10.6967419 88.0275689 12.2406015 87.5726817 12.2957393 87.1315789 12.2957393 86.6766917 12.254386 86.6491228 10.7932331 86.6766917 9.31829574 86.6629073 7.8433584 86.7042607 7.45739348 86.3734336 7.1679198 86.2080201 6.83709273 85.2293233 5.26566416 84.1954887 3.73558897 83.2719298 2.13659148zM103.796992 2.12280702C104.238095 2.12280702 104.665414 2.10902256 105.106516 2.13659148 105.134085 4.14912281 105.078947 6.1754386 105.134085 8.18796992 106.181704 7.30576441 107.022556 6.18922306 108.070175 5.32080201 108.635338 5.29323308 109.200501 5.29323308 109.765664 5.33458647 108.97995 6.31328321 107.987469 7.11278195 107.146617 8.03634085L107.132832 8.13283208C108.015038 9.52506266 109.048872 10.820802 109.87594 12.254386 109.338346 12.2681704 108.786967 12.254386 108.235589 12.254386 107.518797 11.2067669 106.843358 10.1315789 106.126566 9.0839599 105.76817 9.38721805 105.451128 9.73182957 105.120301 10.0626566 105.106516 10.7932331 105.106516 11.5238095 105.120301 12.2406015 104.665414 12.2681704 104.224311 12.254386 103.769424 12.254386 103.741855 9.13909774 103.769424 6.01002506 103.755639 2.89473684 103.755639 2.63283208 103.755639 2.37092732 103.796992 2.12280702zM63.5050125 6.02380952C64.8558897 4.63157895 67.4887218 4.76942356 68.5914787 6.39598997 69.1015038 7.1679198 69.3082707 8.14661654 69.2117794 9.07017544 67.4197995 9.07017544 65.6140351 9.04260652 63.8082707 9.0839599 63.8220551 10.2418546 64.8421053 11.3032581 66.0275689 11.2343358 66.8684211 11.2894737 67.5162907 10.6553885 67.9573935 10.0075188 68.3571429 10.1867168 68.7568922 10.3796992 69.1428571 10.6002506 68.2330827 12.5162907 65.5037594 13.1090226 63.8358396 11.8408521 62.0576441 10.5037594 61.933584 7.56766917 63.5050125 6.02380952L63.5050125 6.02380952zM63.9323308 7.89849624C65.2142857 7.95363409 66.4962406 7.9122807 67.7781955 7.92606516 67.7368421 7.31954887 67.3233083 6.78195489 66.7994987 6.53383459 66.3859649 6.32706767 65.9172932 6.35463659 65.4761905 6.38220551 64.7042607 6.50626566 64.1115288 7.15413534 63.9323308 7.89849624zM93.1002506 5.18295739C93.9686717 4.97619048 94.906015 5.0726817 95.7055138 5.47243108 96.8634085 6.07894737 97.6491228 7.36090226 97.5802005 8.68421053 97.6629073 9.74561404 97.2769424 10.8483709 96.4774436 11.5651629 95.0576441 12.9573935 92.424812 12.7919799 91.2255639 11.1929825 90.4536341 10.2556391 90.3157895 8.95989975 90.5501253 7.81578947 90.8258145 6.56140351 91.8320802 5.47243108 93.1002506 5.18295739L93.1002506 5.18295739zM93.5137845 6.40977444C92.7556391 6.60275689 92.1491228 7.22305764 91.9285714 7.95363409 91.6666667 8.94611529 91.8596491 10.1591479 92.7142857 10.8070175 93.4724311 11.3997494 94.6578947 11.3859649 95.3884712 10.7518797 96.6015038 9.74561404 96.518797 7.55388471 95.1817043 6.68546366 94.6992481 6.34085213 94.0651629 6.31328321 93.5137845 6.40977444zM101.177945 5.2518797C101.715539 5.04511278 102.322055 5.11403509 102.873434 5.23809524 102.845865 5.70676692 102.639098 6.13408521 102.515038 6.57518797 102.101504 6.54761905 101.674185 6.47869674 101.260652 6.57518797 100.502506 6.82330827 99.9511278 7.5952381 99.9373434 8.39473684 99.89599 9.67669173 99.9373434 10.9724311 99.9235589 12.254386 99.4824561 12.2957393 99.0275689 12.2819549 98.5864662 12.254386 98.5864662 9.95238095 98.6002506 7.65037594 98.5864662 5.34837093 99.0137845 5.27944862 99.4411028 5.30701754 99.8684211 5.32080201 99.89599 5.65162907 99.89599 5.98245614 99.8546366 6.31328321 100.199248 5.85839599 100.626566 5.44486216 101.177945 5.2518797zM69.5150376 5.30701754L70.8659148 5.30701754C71.4035088 6.89223058 71.8170426 8.53258145 72.3270677 10.1315789 72.3546366 10.1867168 72.4097744 10.283208 72.4373434 10.3383459 72.9197995 8.8358396 73.4298246 7.33333333 73.9122807 5.83082707 73.981203 5.65162907 73.981203 5.43107769 74.160401 5.32080201 74.6015038 5.30701754 75.0701754 5.26566416 75.5112782 5.36215539 76.0213033 7.03007519 76.6140351 8.67042607 77.1102757 10.3383459 77.1516291 10.283208 77.2067669 10.1867168 77.2343358 10.1315789 77.7443609 8.53258145 78.1303258 6.89223058 78.6817043 5.30701754 79.1365915 5.30701754 79.6052632 5.29323308 80.0601504 5.33458647 79.3157895 7.63659148 78.5576441 9.92481203 77.8408521 12.2406015 77.358396 12.2957393 76.8759398 12.2957393 76.4072682 12.2406015 75.9799499 10.8759398 75.5388471 9.52506266 75.0977444 8.160401 74.9874687 7.8433584 74.9185464 7.49874687 74.7255639 7.20927318 74.1328321 8.87719298 73.6503759 10.5864662 73.0714286 12.254386 72.6027569 12.2957393 72.1478697 12.2819549 71.6929825 12.2406015 71.0864662 10.3659148 70.4799499 8.49122807 69.887218 6.61654135 69.7631579 6.18922306 69.556391 5.76190476 69.5150376 5.30701754z" opacity=".96"/>
  </g>
</svg>
