<svg xmlns="http://www.w3.org/2000/svg" width="180" height="80" viewBox="0 0 180 80">
  <g fill="#FFFFFF" fill-rule="evenodd" stroke="#FFFFFF" stroke-width=".094" transform="translate(40 22)">
    <path d="M12.4439919.936863544C15.2240326.0407331976 18.2281059-.132382892 21.0997963.397148676 23.7780041.896130346 26.3136456 2.04684318 28.503055 3.65580448 28.9714868 3.299389 29.5519348 3.07535642 30.1425662 3.10590631 31.0692464 3.11608961 31.9450102 3.70672098 32.3319756 4.54175153 32.688391 5.29531568 32.6272912 6.23217923 32.1690428 6.92464358 32.1181263 7.02647658 31.9450102 7.14867617 32.0570265 7.26069246 34.1242363 10 35.3462322 13.3706721 35.5295316 16.802444 35.6822811 19.2769857 35.305499 21.7922607 34.4093686 24.114053 33.2179226 27.2606925 31.0997963 30.0509165 28.3910387 32.0570265 25.5498982 34.1649695 22.0672098 35.3971487 18.5336049 35.5295316 15.2342159 35.6619145 11.904277 34.8574338 9.04276986 33.2077393 6.06924644 31.5071283 3.59470468 28.9307536 2.03665988 25.8655804.67209776 23.2077393-.77555756e-17 20.1934827.112016293 17.209776.213849287 13.808554 1.34419552 10.4582485 3.299389 7.67820774 5.50916497 4.51120163 8.76782077 2.09775967 12.4439919.936863544L12.4439919.936863544zM7.32179226 4.46028513C4.40936864 6.7413442 2.27087576 9.9898167 1.35437882 13.5641548.529531568 16.7413442.651731161 20.1425662 1.7107943 23.2484725 2.75967413 26.3849287 4.76578411 29.1955193 7.37270876 31.2219959 10.1629328 33.4114053 13.6558045 34.7046843 17.209776 34.8167006 20.0305499 34.9287169 22.8716904 34.3075356 25.3971487 33.0448065 28.4419552 31.5376782 30.9979633 29.0936864 32.6680244 26.1405295 34.1751527 23.4725051 34.9389002 20.3767821 34.8370672 17.311609 34.7454175 13.8492872 33.5437882 10.4175153 31.4562118 7.65784114 30.8350305 8.05498982 30.0305499 8.18737271 29.3279022 7.95315682 28.3197556 7.64765784 27.5763747 6.6496945 27.5967413 5.60081466 27.5763747 5.10183299 27.7596741 4.62321792 27.99389 4.19551935 24.9694501 1.92464358 21.191446.712830957 17.413442.824847251 13.7678208.896130346 10.1731161 2.19959267 7.32179226 4.46028513zM43.7270876 8.2892057C44.2158859 8.01425662 44.9083503 8.401222 44.8879837 8.97148676 44.9490835 9.60285132 44.114053 10.0203666 43.6252546 9.62321792 43.1670061 9.30753564 43.2281059 8.53360489 43.7270876 8.2892057zM82.0162933 8.2790224C82.5356415 8.00407332 83.2281059 8.47250509 83.1466395 9.06313646 83.1262729 9.65376782 82.3727088 9.9898167 81.904277 9.64358452 81.4256619 9.32790224 81.4765784 8.51323829 82.0162933 8.2790224z"/>
    <path d="M17.3421589 10.6211813C18.808554 10.5193483 20.305499 10.8757637 21.5580448 11.6395112 23.1160896 12.5763747 24.2973523 14.114053 24.7759674 15.8553971 25.203666 17.3625255 25.1323829 19.0020367 24.5519348 20.4582485 23.8798371 22.1894094 22.5050916 23.6252546 20.814664 24.389002 19.3584521 25.0610998 17.6782077 25.203666 16.1201629 24.8268839 14.6537678 24.4704684 13.3095723 23.6456212 12.3319756 22.4949084 11.2118126 21.1812627 10.5804481 19.4501018 10.6211813 17.7189409 10.6313646 16.1507128 11.1812627 14.6028513 12.1486762 13.3706721 13.3910387 11.7820774 15.3258656 10.7433809 17.3421589 10.6211813zM53.7169043 13.0142566C55.3360489 12.790224 57.0366599 13.0346232 58.4725051 13.8289206 59.8676171 14.592668 60.98778 15.8452138 61.5885947 17.3217923 62.3319756 19.1751527 62.3217923 21.3136456 61.5478615 23.1568228 60.9979633 24.4602851 60.0305499 25.6008147 58.8187373 26.3441955 57.1384929 27.3930754 55.0407332 27.6782077 53.1160896 27.2505092 51.5173116 26.8940937 50.0407332 25.98778 49.0529532 24.6741344 47.0875764 22.1384929 47.0773931 18.2790224 49.0325866 15.7331976 50.1425662 14.2464358 51.8839104 13.2688391 53.7169043 13.0142566L53.7169043 13.0142566zM54.1038697 13.6659878C52.8615071 13.7881874 51.6598778 14.2566191 50.6822811 15.0407332 49.6130346 15.9063136 48.8492872 17.1384929 48.5132383 18.4725051 48.1670061 19.9185336 48.2586558 21.4765784 48.8289206 22.8513238 49.4297352 24.3075356 50.6008147 25.5193483 52.0366599 26.1608961 53.910387 26.9959267 56.1608961 26.9551935 57.9837067 26.0081466 59.0224033 25.4684318 59.898167 24.6334012 60.4887984 23.6252546 61.395112 22.0773931 61.6191446 20.1731161 61.1812627 18.4419552 60.8044807 16.9144603 59.8472505 15.5498982 58.5336049 14.6843177 57.2403259 13.8391039 55.6415479 13.4928717 54.1038697 13.6659878zM70.5193483 13.0040733C72.3625255 12.7800407 74.3686354 13.0753564 75.8655804 14.2566191 77.1995927 15.3258656 77.8004073 17.0672098 77.9022403 18.7372709L77.9022403 27.0875764 77.1894094 27.0875764 77.1894094 19.0427699C77.1181263 17.4745418 76.6191446 15.7942974 75.3462322 14.7759674 73.9918534 13.6558045 72.0977597 13.4725051 70.407332 13.706721 68.910387 13.9205703 67.4541752 14.7556008 66.7209776 16.1099796 66.1812627 17.0570265 65.9979633 18.1670061 65.98778 19.2464358 65.9775967 21.8635438 65.98778 24.4704684 65.98778 27.0875764L65.2749491 27.0875764 65.2749491 13.3401222 65.98778 13.3401222C65.9979633 14.1955193 65.9775967 15.0509165 65.9979633 15.9063136 66.2219959 15.6720978 66.3238289 15.3564155 66.5274949 15.1120163 67.4847251 13.8798371 69.01222 13.2179226 70.5193483 13.0040733zM89.6843177 13.7270876C91.6496945 12.7393075 94.0325866 12.6782077 96.0590631 13.5234216 97.892057 14.2566191 99.3584521 15.8350305 99.9898167 17.7087576 99.7250509 17.7189409 99.4501018 17.7189409 99.185336 17.7189409 98.6354379 16.2729124 97.5661914 15.0101833 96.1710794 14.3177189 93.9409369 13.2281059 91.0488798 13.3706721 89.0936864 14.9592668 87.9837067 15.7331976 87.209776 16.9246436 86.8533605 18.2179226 86.2729124 20.1425662 86.5682281 22.3319756 87.7189409 23.9918534 88.6150713 25.2953157 90.0305499 26.2321792 91.5682281 26.5784114 93.3299389 26.9857434 95.2647658 26.6904277 96.7820774 25.7026477 97.8309572 25.0203666 98.7169043 24.0325866 99.114053 22.8309572 99.389002 22.790224 99.6639511 22.8105906 99.9389002 22.8105906 99.5112016 24.1344196 98.6150713 25.2953157 97.4847251 26.0997963 94.6232179 28.1364562 90.2953157 27.8513238 87.8207739 25.305499 85.4989817 22.9735234 85.203666 19.0224033 86.9246436 16.2627291 87.5967413 15.1832994 88.5641548 14.2973523 89.6843177 13.7270876zM43.7881874 13.3401222L44.5010183 13.3401222 44.5010183 27.0875764 43.7881874 27.0875764 43.7881874 13.3401222zM81.9755601 13.3401222L82.688391 13.3401222 82.688391 27.0875764 81.9755601 27.0875764 81.9755601 13.3401222z"/>
  </g>
</svg>
