<?xml version="1.0" encoding="UTF-8" standalone="no"?>
<svg width="218px" height="16px" viewBox="0 0 218 16" version="1.1" xmlns="http://www.w3.org/2000/svg" xmlns:xlink="http://www.w3.org/1999/xlink">
    <!-- Generator: Sketch 39.1 (31720) - http://www.bohemiancoding.com/sketch -->
    <title>logo</title>
    <desc>Created with Sketch.</desc>
    <defs></defs>
    <g id="Page-1" stroke="none" stroke-width="1" fill="none" fill-rule="evenodd">
        <g id="logo" fill="#FFFFFF">
            <g id="ui">
                <g id="homepage">
                    <path d="M0.220703,15 L0.220703,0.78125 L3.902344,0.78125 C4.846359,0.78125 5.700843,0.9423812 6.46582,1.2646484 C7.230798,1.5869157 7.885088,2.0361299 8.428711,2.6123047 C8.972333,3.1884794 9.392251,3.8769491 9.688477,4.6777344 C9.984702,5.4785196 10.132812,6.3574171 10.132812,7.3144531 L10.132812,8.4863281 C10.132812,9.4433642 9.984702,10.320634 9.688477,11.1181641 C9.392251,11.9156941 8.977216,12.6025362 8.443359,13.1787109 C7.909503,13.7548857 7.268233,14.2024724 6.519531,14.5214844 C5.77083,14.8404964 4.944015,15 4.039062,15 L0.220703,15 L0.220703,15 Z M2.984375,3.0078125 L2.984375,12.7929688 L4.039062,12.7929688 C4.553388,12.7929688 5.013995,12.6953135 5.420898,12.5 C5.827802,12.3046865 6.17285,12.0214862 6.456055,11.6503906 C6.739259,11.279295 6.955728,10.8284532 7.105469,10.2978516 C7.255209,9.76725 7.330078,9.1634148 7.330078,8.4863281 L7.330078,7.2949219 C7.330078,6.6568979 7.256837,6.075849 7.110352,5.5517578 C6.963866,5.0276667 6.74577,4.5768248 6.456055,4.1992188 C6.16634,3.8216127 5.80827,3.5286469 5.381836,3.3203125 C4.955402,3.1119781 4.462242,3.0078125 3.902344,3.0078125 L2.984375,3.0078125 L2.984375,3.0078125 Z M23.30013,4.2382812 C23.710289,4.2382812 24.089517,4.2659502 24.437826,4.3212891 C24.786135,4.3766279 25.067707,4.4368486 25.282552,4.5019531 L24.882162,7.2070312 C24.524087,7.1223954 24.15788,7.0589195 23.783529,7.0166016 C23.409178,6.9742836 23.052736,6.953125 22.714193,6.953125 C21.95247,6.953125 21.342125,7.0996079 20.883138,7.3925781 C20.424152,7.6855483 20.08073,8.105466 19.852865,8.6523438 L19.852865,15 L17.138021,15 L17.138021,4.4335938 L19.667318,4.4335938 L19.794271,6.1621094 C20.223961,5.563148 20.738278,5.0927751 21.33724,4.7509766 C21.936201,4.409178 22.590491,4.2382812 23.30013,4.2382812 L23.30013,4.2382812 L23.30013,4.2382812 Z M30.676433,9.6191406 C30.676433,8.8509076 30.787109,8.1396517 31.008464,7.4853516 C31.229819,6.8310514 31.553709,6.2630232 31.980144,5.78125 C32.406578,5.2994768 32.927406,4.9218764 33.542644,4.6484375 C34.157881,4.3749986 34.862627,4.2382812 35.656901,4.2382812 C36.451176,4.2382812 37.157549,4.3749986 37.776042,4.6484375 C38.394535,4.9218764 38.91699,5.2994768 39.343425,5.78125 C39.769859,6.2630232 40.093749,6.8310514 40.315104,7.4853516 C40.53646,8.1396517 40.647136,8.8509076 40.647136,9.6191406 L40.647136,9.8242188 C40.647136,10.5989622 40.53646,11.3134733 40.315104,11.9677734 C40.093749,12.6220736 39.771487,13.1901018 39.348308,13.671875 C38.925128,14.1536482 38.4043,14.529621 37.785808,14.7998047 C37.167315,15.0699883 36.464197,15.2050781 35.676433,15.2050781 C34.882158,15.2050781 34.174157,15.0699883 33.552409,14.7998047 C32.930661,14.529621 32.406578,14.1536482 31.980144,13.671875 C31.553709,13.1901018 31.229819,12.6220736 31.008464,11.9677734 C30.787109,11.3134733 30.676433,10.5989622 30.676433,9.8242188 L30.676433,9.6191406 L30.676433,9.6191406 Z M33.391276,9.8242188 C33.391276,10.2669293 33.433594,10.6819642 33.518229,11.0693359 C33.602865,11.4567077 33.736328,11.7952459 33.91862,12.0849609 C34.100913,12.3746759 34.336913,12.6041658 34.626628,12.7734375 C34.916343,12.9427092 35.266274,13.0273438 35.676433,13.0273438 C36.07357,13.0273438 36.415363,12.9427092 36.701823,12.7734375 C36.988283,12.6041658 37.221028,12.3746759 37.400065,12.0849609 C37.579103,11.7952459 37.710937,11.4567077 37.795573,11.0693359 C37.880209,10.6819642 37.922526,10.2669293 37.922526,9.8242188 L37.922526,9.6191406 C37.922526,9.189451 37.880209,8.782554 37.795573,8.3984375 C37.710937,8.014321 37.579103,7.6757827 37.400065,7.3828125 C37.221028,7.0898423 36.988283,6.8587248 36.701823,6.6894531 C36.415363,6.5201814 36.06706,6.4355469 35.656901,6.4355469 C35.253254,6.4355469 34.908205,6.5201814 34.621745,6.6894531 C34.335285,6.8587248 34.100913,7.0898423 33.91862,7.3828125 C33.736328,7.6757827 33.602865,8.014321 33.518229,8.3984375 C33.433594,8.782554 33.391276,9.189451 33.391276,9.6191406 L33.391276,9.8242188 L33.391276,9.8242188 Z M47.105469,4.4335938 L52.857422,4.4335938 L52.857422,12.7929688 L55.71875,12.7929688 L55.71875,15 L47.105469,15 L47.105469,12.7929688 L50.113282,12.7929688 L50.113282,6.6503906 L47.105469,6.6503906 L47.105469,4.4335938 L47.105469,4.4335938 Z M49.917969,1.7285156 C49.917969,1.5201813 49.955404,1.3264983 50.030274,1.1474609 C50.105144,0.9684236 50.210937,0.8154303 50.347657,0.6884766 C50.484376,0.5615228 50.648763,0.4622399 50.840821,0.390625 C51.032879,0.3190101 51.246093,0.2832031 51.480469,0.2832031 C51.962242,0.2832031 52.344726,0.4182929 52.62793,0.6884766 C52.911135,0.9586602 53.052735,1.3053364 53.052735,1.7285156 C53.052735,2.1516948 52.911135,2.498371 52.62793,2.7685547 C52.344726,3.0387383 51.962242,3.1738281 51.480469,3.1738281 C51.246093,3.1738281 51.032879,3.1380212 50.840821,3.0664062 C50.648763,2.9947913 50.484376,2.8955084 50.347657,2.7685547 C50.210937,2.6416009 50.105144,2.4886077 50.030274,2.3095703 C49.955404,2.130533 49.917969,1.93685 49.917969,1.7285156 L49.917969,1.7285156 L49.917969,1.7285156 Z M61.434896,9.6386719 C61.434896,8.8378866 61.527669,8.1054721 61.713217,7.4414062 C61.898765,6.7773404 62.170572,6.2076847 62.528646,5.7324219 C62.886721,5.2571591 63.321287,4.8893242 63.832357,4.6289062 C64.343428,4.3684883 64.927732,4.2382812 65.585287,4.2382812 C66.138675,4.2382812 66.625324,4.3375641 67.045248,4.5361328 C67.465172,4.7347015 67.83789,5.0162742 68.163412,5.3808594 L68.163412,0 L70.888021,0 L70.888021,15 L68.43685,15 L68.300131,13.8964844 C67.968098,14.3066427 67.577477,14.6256499 67.128256,14.8535156 C66.679035,15.0813813 66.158207,15.1953125 65.565756,15.1953125 C64.921221,15.1953125 64.343428,15.0602227 63.832357,14.7900391 C63.321287,14.5198554 62.888349,14.1471378 62.533529,13.671875 C62.17871,13.1966122 61.906903,12.6318392 61.7181,11.9775391 C61.529297,11.3232389 61.434896,10.611983 61.434896,9.84375 L61.434896,9.6386719 L61.434896,9.6386719 Z M64.14974,9.84375 C64.14974,10.2864605 64.187175,10.6982403 64.262045,11.0791016 C64.336915,11.4599628 64.458984,11.7919908 64.628256,12.0751953 C64.797528,12.3583999 65.015624,12.5813794 65.282553,12.7441406 C65.549481,12.9069019 65.874999,12.9882812 66.259115,12.9882812 C66.727868,12.9882812 67.116861,12.8873708 67.426107,12.6855469 C67.735354,12.4837229 67.98112,12.207033 68.163412,11.8554688 L68.163412,7.578125 C67.98112,7.2200503 67.736981,6.9417328 67.43099,6.7431641 C67.124999,6.5445954 66.740888,6.4453125 66.278646,6.4453125 C65.89453,6.4453125 65.567385,6.5283195 65.297201,6.6943359 C65.027018,6.8603524 64.807293,7.0882147 64.638021,7.3779297 C64.46875,7.6676447 64.345053,8.006183 64.266928,8.3935547 C64.188802,8.7809264 64.14974,9.1959613 64.14974,9.6386719 L64.14974,9.84375 L64.14974,9.84375 Z M81.731121,13.0273438 C81.998049,13.0273438 82.251953,12.9882816 82.492839,12.9101562 C82.733726,12.8320309 82.945312,12.7213549 83.127605,12.578125 C83.309898,12.4348951 83.451498,12.2623708 83.55241,12.0605469 C83.653322,11.8587229 83.697266,11.6341158 83.684246,11.3867188 L86.242839,11.3867188 C86.25586,11.9335965 86.143557,12.4414039 85.905925,12.9101562 C85.668294,13.3789086 85.344404,13.7825504 84.934246,14.1210938 C84.524087,14.4596371 84.047204,14.7249339 83.503582,14.9169922 C82.959959,15.1090504 82.38542,15.2050781 81.779949,15.2050781 C80.959632,15.2050781 80.240238,15.0667332 79.621746,14.7900391 C79.003253,14.513345 78.487308,14.134117 78.073894,13.6523438 C77.66048,13.1705705 77.347984,12.6057975 77.136394,11.9580078 C76.924804,11.3102181 76.819011,10.6152381 76.819011,9.8730469 L76.819011,9.5800781 C76.819011,8.8378869 76.923177,8.1429069 77.131511,7.4951172 C77.339846,6.8473275 77.652342,6.2825545 78.069011,5.8007812 C78.48568,5.319008 79.001625,4.9381524 79.616863,4.6582031 C80.2321,4.3782538 80.946611,4.2382812 81.760417,4.2382812 C82.411462,4.2382812 83.01367,4.3359365 83.567058,4.53125 C84.120446,4.7265635 84.59733,5.0016258 84.997722,5.3564453 C85.398115,5.7112648 85.708984,6.140948 85.930339,6.6455078 C86.151695,7.1500676 86.25586,7.7148406 86.242839,8.3398438 L83.684246,8.3398438 C83.697266,8.0794258 83.658204,7.8320324 83.567058,7.5976562 C83.475912,7.3632801 83.34245,7.1614592 83.166667,6.9921875 C82.990885,6.8229158 82.779299,6.687826 82.531902,6.5869141 C82.284505,6.4860021 82.014325,6.4355469 81.721355,6.4355469 C81.291665,6.4355469 80.936851,6.5234366 80.656902,6.6992188 C80.376953,6.8750009 80.153973,7.1093735 79.987957,7.4023438 C79.82194,7.695314 79.704754,8.0305971 79.636394,8.4082031 C79.568034,8.7858092 79.533855,9.1764303 79.533855,9.5800781 L79.533855,9.8730469 C79.533855,10.2832052 79.566407,10.678709 79.631511,11.0595703 C79.696616,11.4404316 79.812174,11.7757147 79.978191,12.0654297 C80.144207,12.3551447 80.368814,12.5878897 80.652019,12.7636719 C80.935224,12.939454 81.29492,13.0273438 81.731121,13.0273438 L81.731121,13.0273438 L81.731121,13.0273438 Z M92.017579,9.6191406 C92.017579,8.8509076 92.128255,8.1396517 92.34961,7.4853516 C92.570966,6.8310514 92.894856,6.2630232 93.32129,5.78125 C93.747724,5.2994768 94.268553,4.9218764 94.88379,4.6484375 C95.499027,4.3749986 96.203773,4.2382812 96.998048,4.2382812 C97.792323,4.2382812 98.498696,4.3749986 99.117188,4.6484375 C99.735681,4.9218764 100.258137,5.2994768 100.684571,5.78125 C101.111006,6.2630232 101.434896,6.8310514 101.656251,7.4853516 C101.877606,8.1396517 101.988282,8.8509076 101.988282,9.6191406 L101.988282,9.8242188 C101.988282,10.5989622 101.877606,11.3134733 101.656251,11.9677734 C101.434896,12.6220736 101.112633,13.1901018 100.689454,13.671875 C100.266275,14.1536482 99.745447,14.529621 99.126954,14.7998047 C98.508461,15.0699883 97.805343,15.2050781 97.017579,15.2050781 C96.223304,15.2050781 95.515304,15.0699883 94.893556,14.7998047 C94.271808,14.529621 93.747724,14.1536482 93.32129,13.671875 C92.894856,13.1901018 92.570966,12.6220736 92.34961,11.9677734 C92.128255,11.3134733 92.017579,10.5989622 92.017579,9.8242188 L92.017579,9.6191406 L92.017579,9.6191406 Z M94.732423,9.8242188 C94.732423,10.2669293 94.77474,10.6819642 94.859376,11.0693359 C94.944012,11.4567077 95.077474,11.7952459 95.259767,12.0849609 C95.442059,12.3746759 95.678059,12.6041658 95.967774,12.7734375 C96.257489,12.9427092 96.607421,13.0273438 97.017579,13.0273438 C97.414716,13.0273438 97.75651,12.9427092 98.04297,12.7734375 C98.329429,12.6041658 98.562175,12.3746759 98.741212,12.0849609 C98.920249,11.7952459 99.052084,11.4567077 99.13672,11.0693359 C99.221356,10.6819642 99.263673,10.2669293 99.263673,9.8242188 L99.263673,9.6191406 C99.263673,9.189451 99.221356,8.782554 99.13672,8.3984375 C99.052084,8.014321 98.920249,7.6757827 98.741212,7.3828125 C98.562175,7.0898423 98.329429,6.8587248 98.04297,6.6894531 C97.75651,6.5201814 97.408206,6.4355469 96.998048,6.4355469 C96.5944,6.4355469 96.249351,6.5201814 95.962892,6.6894531 C95.676432,6.8587248 95.442059,7.0898423 95.259767,7.3828125 C95.077474,7.6757827 94.944012,8.014321 94.859376,8.3984375 C94.77474,8.782554 94.732423,9.189451 94.732423,9.6191406 L94.732423,9.8242188 L94.732423,9.8242188 Z M110.184897,4.4335938 L110.350913,5.8984375 C110.728519,5.3710911 111.187498,4.9625666 111.727866,4.6728516 C112.268233,4.3831366 112.867185,4.2382812 113.524741,4.2382812 C114.058598,4.2382812 114.546874,4.3164055 114.989584,4.4726562 C115.432295,4.628907 115.814778,4.877928 116.137045,5.2197266 C116.459313,5.5615251 116.709961,6.0009739 116.888999,6.5380859 C117.068036,7.075198 117.157553,7.7278607 117.157553,8.4960938 L117.157553,15 L114.442709,15 L114.442709,8.5351562 C114.442709,8.1184875 114.395509,7.7750665 114.301108,7.5048828 C114.206706,7.2346992 114.071617,7.0214852 113.895834,6.8652344 C113.720052,6.7089836 113.508466,6.5999352 113.261069,6.5380859 C113.013672,6.4762367 112.733727,6.4453125 112.421225,6.4453125 C111.958983,6.4453125 111.565107,6.538085 111.239584,6.7236328 C110.914062,6.9091806 110.650393,7.1647119 110.448569,7.4902344 L110.448569,15 L107.723959,15 L107.723959,4.4335938 L110.184897,4.4335938 L110.184897,4.4335938 Z M131.277345,15 L131.277345,0.78125 L136.052736,0.78125 C136.827479,0.78125 137.532225,0.8593742 138.166994,1.015625 C138.801762,1.1718758 139.343749,1.4095036 139.79297,1.7285156 C140.242191,2.0475276 140.588867,2.4511694 140.833009,2.9394531 C141.077151,3.4277368 141.19922,4.0039029 141.19922,4.6679688 C141.19271,5.3320346 141.015303,5.9277317 140.666994,6.4550781 C140.318685,6.9824245 139.805994,7.3828111 139.128908,7.65625 C139.539066,7.7604172 139.89388,7.9166656 140.193361,8.125 C140.492841,8.3333344 140.741862,8.5791001 140.940431,8.8623047 C141.139,9.1455092 141.285483,9.4547509 141.379884,9.7900391 C141.474286,10.1253272 141.521486,10.4720034 141.521486,10.8300781 C141.521486,11.5136753 141.404299,12.1158828 141.169923,12.6367188 C140.935547,13.1575547 140.600264,13.5937482 140.164064,13.9453125 C139.727864,14.2968768 139.19727,14.560546 138.572267,14.7363281 C137.947264,14.9121103 137.244146,15 136.462892,15 L131.277345,15 L131.277345,15 Z M134.031251,8.7304688 L134.031251,12.7832031 L136.472658,12.7832031 C137.221359,12.7766927 137.792643,12.5927752 138.186525,12.2314453 C138.580407,11.8701154 138.777345,11.3964873 138.777345,10.8105469 C138.783856,10.159502 138.608076,9.6516945 138.250001,9.2871094 C137.891927,8.9225242 137.338547,8.7369792 136.589845,8.7304688 L134.031251,8.7304688 L134.031251,8.7304688 Z M134.031251,6.7480469 L136.072267,6.7480469 C136.83399,6.7415364 137.419921,6.5820328 137.83008,6.2695312 C138.240238,5.9570297 138.448569,5.4980499 138.45508,4.8925781 C138.45508,4.2285123 138.250003,3.7516291 137.839845,3.4619141 C137.429687,3.1721991 136.837245,3.0240886 136.062501,3.0175781 L134.031251,3.0175781 L134.031251,6.7480469 L134.031251,6.7480469 Z M146.358726,9.6191406 C146.358726,8.8509076 146.469402,8.1396517 146.690757,7.4853516 C146.912112,6.8310514 147.236002,6.2630232 147.662436,5.78125 C148.088871,5.2994768 148.609699,4.9218764 149.224936,4.6484375 C149.840174,4.3749986 150.544919,4.2382812 151.339194,4.2382812 C152.133469,4.2382812 152.839842,4.3749986 153.458335,4.6484375 C154.076828,4.9218764 154.599283,5.2994768 155.025718,5.78125 C155.452152,6.2630232 155.776042,6.8310514 155.997397,7.4853516 C156.218753,8.1396517 156.329429,8.8509076 156.329429,9.6191406 L156.329429,9.8242188 C156.329429,10.5989622 156.218753,11.3134733 155.997397,11.9677734 C155.776042,12.6220736 155.45378,13.1901018 155.030601,13.671875 C154.607421,14.1536482 154.086593,14.529621 153.468101,14.7998047 C152.849608,15.0699883 152.14649,15.2050781 151.358726,15.2050781 C150.564451,15.2050781 149.85645,15.0699883 149.234702,14.7998047 C148.612954,14.529621 148.088871,14.1536482 147.662436,13.671875 C147.236002,13.1901018 146.912112,12.6220736 146.690757,11.9677734 C146.469402,11.3134733 146.358726,10.5989622 146.358726,9.8242188 L146.358726,9.6191406 L146.358726,9.6191406 Z M149.073569,9.8242188 C149.073569,10.2669293 149.115887,10.6819642 149.200522,11.0693359 C149.285158,11.4567077 149.41862,11.7952459 149.600913,12.0849609 C149.783206,12.3746759 150.019206,12.6041658 150.308921,12.7734375 C150.598636,12.9427092 150.948567,13.0273438 151.358726,13.0273438 C151.755863,13.0273438 152.097656,12.9427092 152.384116,12.7734375 C152.670576,12.6041658 152.903321,12.3746759 153.082358,12.0849609 C153.261396,11.7952459 153.39323,11.4567077 153.477866,11.0693359 C153.562502,10.6819642 153.604819,10.2669293 153.604819,9.8242188 L153.604819,9.6191406 C153.604819,9.189451 153.562502,8.782554 153.477866,8.3984375 C153.39323,8.014321 153.261396,7.6757827 153.082358,7.3828125 C152.903321,7.0898423 152.670576,6.8587248 152.384116,6.6894531 C152.097656,6.5201814 151.749353,6.4355469 151.339194,6.4355469 C150.935546,6.4355469 150.590498,6.5201814 150.304038,6.6894531 C150.017578,6.8587248 149.783206,7.0898423 149.600913,7.3828125 C149.41862,7.6757827 149.285158,8.014321 149.200522,8.3984375 C149.115887,8.782554 149.073569,9.189451 149.073569,9.6191406 L149.073569,9.8242188 L149.073569,9.8242188 Z M168.881512,12.0996094 C168.881512,11.9368481 168.844078,11.7936204 168.769207,11.6699219 C168.694337,11.5462233 168.560875,11.4306646 168.368817,11.3232422 C168.176759,11.2158198 167.921227,11.1165369 167.602215,11.0253906 C167.283203,10.9342443 166.879561,10.8430994 166.391278,10.7519531 C165.772785,10.6282546 165.208012,10.4736337 164.696942,10.2880859 C164.185872,10.1025381 163.74805,9.877931 163.383465,9.6142578 C163.01888,9.3505846 162.734052,9.0462257 162.528973,8.7011719 C162.323894,8.3561181 162.221356,7.9589866 162.221356,7.5097656 C162.221356,7.0735655 162.325522,6.656903 162.533856,6.2597656 C162.74219,5.8626282 163.041666,5.5143244 163.432293,5.2148438 C163.82292,4.9153631 164.298176,4.6777353 164.858075,4.5019531 C165.417973,4.326171 166.049477,4.2382812 166.752606,4.2382812 C167.488287,4.2382812 168.149087,4.3245434 168.735028,4.4970703 C169.320968,4.6695972 169.817383,4.907225 170.224286,5.2099609 C170.631189,5.5126968 170.942058,5.8723938 171.156903,6.2890625 C171.371748,6.7057312 171.479168,7.1582007 171.479168,7.6464844 L168.764325,7.6464844 C168.764325,7.2363261 168.598311,6.892905 168.266278,6.6162109 C167.934245,6.3395168 167.429693,6.2011719 166.752606,6.2011719 C166.121092,6.2011719 165.644209,6.315103 165.321942,6.5429688 C164.999675,6.7708345 164.838543,7.0507796 164.838543,7.3828125 C164.838543,7.5390633 164.871095,7.6839186 164.9362,7.8173828 C165.001304,7.950847 165.116863,8.0712885 165.282879,8.1787109 C165.448896,8.2861333 165.675131,8.3837886 165.96159,8.4716797 C166.24805,8.5595708 166.61263,8.6360674 167.05534,8.7011719 C167.693364,8.8053391 168.285806,8.9388013 168.832684,9.1015625 C169.379562,9.2643237 169.851562,9.4742826 170.2487,9.7314453 C170.645837,9.9886081 170.956706,10.3011049 171.181317,10.6689453 C171.405927,11.0367857 171.518231,11.4746068 171.518231,11.9824219 C171.518231,12.4511742 171.405927,12.882485 171.181317,13.2763672 C170.956706,13.6702494 170.637699,14.0104152 170.224286,14.296875 C169.810872,14.5833348 169.311203,14.8063143 168.725262,14.9658203 C168.139322,15.1253263 167.485031,15.2050781 166.762372,15.2050781 C165.968097,15.2050781 165.266606,15.1009125 164.657879,14.8925781 C164.049152,14.6842438 163.539717,14.4124366 163.129559,14.0771484 C162.719401,13.7418603 162.408531,13.3610047 162.196942,12.9345703 C161.985352,12.5081359 161.879559,12.0800803 161.879559,11.6503906 L164.46745,11.6503906 C164.486981,11.9368504 164.565105,12.1826162 164.701825,12.3876953 C164.838544,12.5927745 165.014324,12.7587884 165.229168,12.8857422 C165.444013,13.0126959 165.689779,13.1054685 165.966473,13.1640625 C166.243167,13.2226565 166.527995,13.2519531 166.820965,13.2519531 C167.491542,13.2519531 168.002604,13.1445323 168.354168,12.9296875 C168.705733,12.7148427 168.881512,12.4381527 168.881512,12.0996094 L168.881512,12.0996094 L168.881512,12.0996094 Z M182.380861,1.8457031 L182.380861,4.4335938 L186.326174,4.4335938 L186.326174,6.4355469 L182.380861,6.4355469 L182.380861,10.9765625 C182.380861,11.360679 182.424806,11.6813138 182.512697,11.9384766 C182.600588,12.1956393 182.725913,12.4007154 182.888674,12.5537109 C183.051435,12.7067065 183.248373,12.8157549 183.479494,12.8808594 C183.710615,12.9459639 183.969402,12.9785156 184.255861,12.9785156 C184.464196,12.9785156 184.67741,12.9687501 184.89551,12.9492188 C185.11361,12.9296874 185.321941,12.9052736 185.52051,12.8759766 C185.719078,12.8466795 185.904623,12.8157554 186.07715,12.7832031 C186.249677,12.7506509 186.397788,12.7180991 186.521486,12.6855469 L186.785158,14.5507812 C186.596355,14.6614589 186.375003,14.7574866 186.121096,14.8388672 C185.867188,14.9202478 185.597009,14.9869789 185.310549,15.0390625 C185.024089,15.0911461 184.72624,15.1318358 184.416994,15.1611328 C184.107748,15.1904298 183.803389,15.2050781 183.503908,15.2050781 C182.924478,15.2050781 182.398767,15.1285815 181.92676,14.9755859 C181.454752,14.8225904 181.05111,14.5849625 180.715822,14.2626953 C180.380534,13.9404281 180.121748,13.5302759 179.939455,13.0322266 C179.757162,12.5341772 179.666018,11.9368524 179.666018,11.2402344 L179.666018,6.4355469 L177.253908,6.4355469 L177.253908,4.4335938 L179.666018,4.4335938 L179.666018,1.8457031 L182.380861,1.8457031 L182.380861,1.8457031 Z M192.364585,9.6191406 C192.364585,8.8509076 192.475261,8.1396517 192.696617,7.4853516 C192.917972,6.8310514 193.241862,6.2630232 193.668296,5.78125 C194.094731,5.2994768 194.615559,4.9218764 195.230796,4.6484375 C195.846034,4.3749986 196.550779,4.2382812 197.345054,4.2382812 C198.139329,4.2382812 198.845702,4.3749986 199.464195,4.6484375 C200.082687,4.9218764 200.605143,5.2994768 201.031578,5.78125 C201.458012,6.2630232 201.781902,6.8310514 202.003257,7.4853516 C202.224613,8.1396517 202.335289,8.8509076 202.335289,9.6191406 L202.335289,9.8242188 C202.335289,10.5989622 202.224613,11.3134733 202.003257,11.9677734 C201.781902,12.6220736 201.45964,13.1901018 201.03646,13.671875 C200.613281,14.1536482 200.092453,14.529621 199.47396,14.7998047 C198.855468,15.0699883 198.15235,15.2050781 197.364585,15.2050781 C196.570311,15.2050781 195.86231,15.0699883 195.240562,14.7998047 C194.618814,14.529621 194.094731,14.1536482 193.668296,13.671875 C193.241862,13.1901018 192.917972,12.6220736 192.696617,11.9677734 C192.475261,11.3134733 192.364585,10.5989622 192.364585,9.8242188 L192.364585,9.6191406 L192.364585,9.6191406 Z M195.079429,9.8242188 C195.079429,10.2669293 195.121746,10.6819642 195.206382,11.0693359 C195.291018,11.4567077 195.42448,11.7952459 195.606773,12.0849609 C195.789065,12.3746759 196.025066,12.6041658 196.314781,12.7734375 C196.604496,12.9427092 196.954427,13.0273438 197.364585,13.0273438 C197.761723,13.0273438 198.103516,12.9427092 198.389976,12.7734375 C198.676436,12.6041658 198.909181,12.3746759 199.088218,12.0849609 C199.267256,11.7952459 199.39909,11.4567077 199.483726,11.0693359 C199.568362,10.6819642 199.610679,10.2669293 199.610679,9.8242188 L199.610679,9.6191406 C199.610679,9.189451 199.568362,8.782554 199.483726,8.3984375 C199.39909,8.014321 199.267256,7.6757827 199.088218,7.3828125 C198.909181,7.0898423 198.676436,6.8587248 198.389976,6.6894531 C198.103516,6.5201814 197.755212,6.4355469 197.345054,6.4355469 C196.941406,6.4355469 196.596358,6.5201814 196.309898,6.6894531 C196.023438,6.8587248 195.789065,7.0898423 195.606773,7.3828125 C195.42448,7.6757827 195.291018,8.014321 195.206382,8.3984375 C195.121746,8.782554 195.079429,9.189451 195.079429,9.6191406 L195.079429,9.8242188 L195.079429,9.8242188 Z M210.531903,4.4335938 L210.697919,5.8984375 C211.075525,5.3710911 211.534505,4.9625666 212.074872,4.6728516 C212.615239,4.3831366 213.214192,4.2382812 213.871747,4.2382812 C214.405604,4.2382812 214.89388,4.3164055 215.336591,4.4726562 C215.779301,4.628907 216.161784,4.877928 216.484052,5.2197266 C216.806319,5.5615251 217.056967,6.0009739 217.236005,6.5380859 C217.415042,7.075198 217.50456,7.7278607 217.50456,8.4960938 L217.50456,15 L214.789716,15 L214.789716,8.5351562 C214.789716,8.1184875 214.742516,7.7750665 214.648114,7.5048828 C214.553713,7.2346992 214.418623,7.0214852 214.242841,6.8652344 C214.067059,6.7089836 213.855472,6.5999352 213.608075,6.5380859 C213.360678,6.4762367 213.080733,6.4453125 212.768231,6.4453125 C212.305989,6.4453125 211.912113,6.538085 211.586591,6.7236328 C211.261068,6.9091806 210.997399,7.1647119 210.795575,7.4902344 L210.795575,15 L208.070966,15 L208.070966,4.4335938 L210.531903,4.4335938 L210.531903,4.4335938 Z" id="Droidcon_Boston"></path>
                </g>
            </g>
        </g>
    </g>
</svg>