<?xml version="1.0" encoding="UTF-8" standalone="no"?>
<svg width="1447px" height="126px" viewBox="0 0 1447 126" version="1.1" xmlns="http://www.w3.org/2000/svg" xmlns:xlink="http://www.w3.org/1999/xlink">
    <!-- Generator: Sketch 39.1 (31720) - http://www.bohemiancoding.com/sketch -->
    <title>Artboard</title>
    <desc>Created with Sketch.</desc>
    <defs></defs>
    <g id="UI" stroke="none" stroke-width="1" fill="none" fill-rule="evenodd">
        <g id="Artboard" fill="#03FFB7">
            <g id="noun_659379_cc" transform="translate(0.000000, 43.500000) scale(-1, 1) translate(-0.000000, -43.500000) translate(-52.000000, 0.000000)">
                <g id="Group">
                    <g id="Shape">
                        <path d="M79.9007068,24.0511301 L71.8707545,24.0511301 L71.8707545,16.1158562 L63.8874881,16.1158562 L63.8874881,24.0511301 L56.0442789,24.0511301 L56.0442789,24.0511301 L56.0442789,16.1158562 L48.0376695,16.1158562 L48.0376695,24.0511301 L48.0376695,24.0978082 L40.1244317,24.0978082 L40.1244317,31.916387 L39.8910029,31.9864041 L31.9544222,31.9864041 L31.9544222,31.916387 L31.9544222,24.0978082 L23.9711557,24.0978082 L23.9711557,24.0511301 L23.9711557,16.1158562 L15.9645463,16.1158562 L15.9645463,24.0511301 L15.9645463,24.0511301 L8.0513085,24.0511301 L8.0513085,31.8697089 L0.208099331,31.8697089 L0.208099331,39.7349658 L0.208099331,39.9683562 L0.208099331,47.7169178 L8.12133715,47.7169178 L8.12133715,55.7455479 L15.9645463,55.7455479 L16.1279465,55.7455479 L16.1279465,63.7275 L24.0411843,63.7275 L24.0411843,71.6160959 L32.0011079,71.6160959 L32.0011079,79.5980479 L40.0077173,79.5980479 L40.0077173,71.5927568 L47.9909838,71.5927568 L47.9909838,63.704161 L55.9509074,63.704161 L55.9509074,55.7455479 L56.0676218,55.7455479 L63.9108309,55.7455479 L63.9108309,47.7169178 L71.8940974,47.7169178 L71.8940974,55.7455479 L79.9473926,55.7455479 L79.9473926,47.7169178 L71.8707545,47.7169178 L71.8707545,39.9683562 L71.8707545,39.7349658 L71.8707545,32.0330822 L79.9240497,32.0330822 L79.9240497,39.9683562 L87.9073161,39.9683562 L87.9073161,31.8697089 L79.9007068,31.8697089 L79.9007068,24.1678253 L87.8839733,24.1678253 L87.8839733,16.1158562 L79.9007068,16.1158562 L79.9007068,24.0511301 L79.9007068,24.0511301 Z M47.8976122,63.4474315 L47.8976122,63.6341438 L47.8976122,63.4474315 Z M24.1578988,63.6341438 L24.1578988,63.4474315 L24.1578988,63.6341438 Z M71.8707545,31.8697089 L63.9341738,31.8697089 L63.9341738,24.1678253 L71.8707545,24.1678253 L71.8707545,31.8697089 L71.8707545,31.8697089 Z"></path>
                    </g>
                </g>
            </g>
            <g id="noun_659379_cc-copy-17" transform="translate(1447.000000, 43.500000) scale(-1, 1) translate(-1447.000000, -43.500000) translate(1395.000000, 0.000000)">
                <g id="Group">
                    <g>
                        <rect id="Rectangle-path" x="95.8905826" y="6.85025685" width="8.0999809" height="8.02863014"></rect>
                        <rect id="Rectangle-path" x="79.9007068" y="0.198630137" width="7.98326648" height="8.02863014"></rect>
                        <path d="M79.9007068,24.0511301 L71.8707545,24.0511301 L71.8707545,16.1158562 L63.8874881,16.1158562 L63.8874881,24.0511301 L56.0442789,24.0511301 L56.0442789,24.0511301 L56.0442789,16.1158562 L48.0376695,16.1158562 L48.0376695,24.0511301 L48.0376695,24.0978082 L40.1244317,24.0978082 L40.1244317,31.916387 L39.8910029,31.9864041 L31.9544222,31.9864041 L31.9544222,31.916387 L31.9544222,24.0978082 L23.9711557,24.0978082 L23.9711557,24.0511301 L23.9711557,16.1158562 L15.9645463,16.1158562 L15.9645463,24.0511301 L15.9645463,24.0511301 L8.0513085,24.0511301 L8.0513085,31.8697089 L0.208099331,31.8697089 L0.208099331,39.7349658 L0.208099331,39.9683562 L0.208099331,47.7169178 L8.12133715,47.7169178 L8.12133715,55.7455479 L15.9645463,55.7455479 L16.1279465,55.7455479 L16.1279465,63.7275 L24.0411843,63.7275 L24.0411843,71.6160959 L32.0011079,71.6160959 L32.0011079,79.5980479 L40.0077173,79.5980479 L40.0077173,71.5927568 L47.9909838,71.5927568 L47.9909838,63.704161 L55.9509074,63.704161 L55.9509074,55.7455479 L56.0676218,55.7455479 L63.9108309,55.7455479 L63.9108309,47.7169178 L71.8940974,47.7169178 L71.8940974,55.7455479 L79.9473926,55.7455479 L79.9473926,47.7169178 L71.8707545,47.7169178 L71.8707545,39.9683562 L71.8707545,39.7349658 L71.8707545,32.0330822 L79.9240497,32.0330822 L79.9240497,39.9683562 L87.9073161,39.9683562 L87.9073161,31.8697089 L79.9007068,31.8697089 L79.9007068,24.1678253 L87.8839733,24.1678253 L87.8839733,16.1158562 L79.9007068,16.1158562 L79.9007068,24.0511301 L79.9007068,24.0511301 Z M47.8976122,63.4474315 L47.8976122,63.6341438 L47.8976122,63.4474315 Z M24.1578988,63.6341438 L24.1578988,63.4474315 L24.1578988,63.6341438 Z M71.8707545,31.8697089 L63.9341738,31.8697089 L63.9341738,24.1678253 L71.8707545,24.1678253 L71.8707545,31.8697089 L71.8707545,31.8697089 Z" id="Shape"></path>
                        <rect id="Rectangle-path" x="55.81085" y="63.8208562" width="8.07663801" height="8.05196918"></rect>
                    </g>
                </g>
            </g>
            <g id="noun_659379_cc-copy" transform="translate(79.000000, -0.500000) scale(-1, 1) translate(-79.000000, 0.500000) translate(27.000000, -44.000000)">
                <g id="Group">
                    <g>
                        <path d="M79.9007068,24.0511301 L71.8707545,24.0511301 L71.8707545,16.1158562 L63.8874881,16.1158562 L63.8874881,24.0511301 L56.0442789,24.0511301 L56.0442789,24.0511301 L56.0442789,16.1158562 L48.0376695,16.1158562 L48.0376695,24.0511301 L48.0376695,24.0978082 L40.1244317,24.0978082 L40.1244317,31.916387 L39.8910029,31.9864041 L31.9544222,31.9864041 L31.9544222,31.916387 L31.9544222,24.0978082 L23.9711557,24.0978082 L23.9711557,24.0511301 L23.9711557,16.1158562 L15.9645463,16.1158562 L15.9645463,24.0511301 L15.9645463,24.0511301 L8.0513085,24.0511301 L8.0513085,31.8697089 L0.208099331,31.8697089 L0.208099331,39.7349658 L0.208099331,39.9683562 L0.208099331,47.7169178 L8.12133715,47.7169178 L8.12133715,55.7455479 L15.9645463,55.7455479 L16.1279465,55.7455479 L16.1279465,63.7275 L24.0411843,63.7275 L24.0411843,71.6160959 L32.0011079,71.6160959 L32.0011079,79.5980479 L40.0077173,79.5980479 L40.0077173,71.5927568 L47.9909838,71.5927568 L47.9909838,63.704161 L55.9509074,63.704161 L55.9509074,55.7455479 L56.0676218,55.7455479 L63.9108309,55.7455479 L63.9108309,47.7169178 L71.8940974,47.7169178 L71.8940974,55.7455479 L79.9473926,55.7455479 L79.9473926,47.7169178 L71.8707545,47.7169178 L71.8707545,39.9683562 L71.8707545,39.7349658 L71.8707545,32.0330822 L79.9240497,32.0330822 L79.9240497,39.9683562 L87.9073161,39.9683562 L87.9073161,31.8697089 L79.9007068,31.8697089 L79.9007068,24.1678253 L87.8839733,24.1678253 L87.8839733,16.1158562 L79.9007068,16.1158562 L79.9007068,24.0511301 L79.9007068,24.0511301 Z M47.8976122,63.4474315 L47.8976122,63.6341438 L47.8976122,63.4474315 Z M24.1578988,63.6341438 L24.1578988,63.4474315 L24.1578988,63.6341438 Z M71.8707545,31.8697089 L63.9341738,31.8697089 L63.9341738,24.1678253 L71.8707545,24.1678253 L71.8707545,31.8697089 L71.8707545,31.8697089 Z" id="Shape"></path>
                        <rect id="Rectangle-path" x="55.81085" y="63.8208562" width="8.07663801" height="8.05196918"></rect>
                    </g>
                </g>
            </g>
            <g id="noun_659379_cc-copy-2" transform="translate(156.000000, 43.500000) scale(-1, 1) translate(-156.000000, -43.500000) translate(104.000000, 0.000000)">
                <g id="Group">
                    <g>
                        <rect id="Rectangle-path" x="95.8905826" y="6.85025685" width="8.0999809" height="8.02863014"></rect>
                        <rect id="Rectangle-path" x="79.9007068" y="0.198630137" width="7.98326648" height="8.02863014"></rect>
                        <path d="M79.9007068,24.0511301 L71.8707545,24.0511301 L71.8707545,16.1158562 L63.8874881,16.1158562 L63.8874881,24.0511301 L56.0442789,24.0511301 L56.0442789,24.0511301 L56.0442789,16.1158562 L48.0376695,16.1158562 L48.0376695,24.0511301 L48.0376695,24.0978082 L40.1244317,24.0978082 L40.1244317,31.916387 L39.8910029,31.9864041 L31.9544222,31.9864041 L31.9544222,31.916387 L31.9544222,24.0978082 L23.9711557,24.0978082 L23.9711557,24.0511301 L23.9711557,16.1158562 L15.9645463,16.1158562 L15.9645463,24.0511301 L15.9645463,24.0511301 L8.0513085,24.0511301 L8.0513085,31.8697089 L0.208099331,31.8697089 L0.208099331,39.7349658 L0.208099331,39.9683562 L0.208099331,47.7169178 L8.12133715,47.7169178 L8.12133715,55.7455479 L15.9645463,55.7455479 L16.1279465,55.7455479 L16.1279465,63.7275 L24.0411843,63.7275 L24.0411843,71.6160959 L32.0011079,71.6160959 L32.0011079,79.5980479 L40.0077173,79.5980479 L40.0077173,71.5927568 L47.9909838,71.5927568 L47.9909838,63.704161 L55.9509074,63.704161 L55.9509074,55.7455479 L56.0676218,55.7455479 L63.9108309,55.7455479 L63.9108309,47.7169178 L71.8940974,47.7169178 L71.8940974,55.7455479 L79.9473926,55.7455479 L79.9473926,47.7169178 L71.8707545,47.7169178 L71.8707545,39.9683562 L71.8707545,39.7349658 L71.8707545,32.0330822 L79.9240497,32.0330822 L79.9240497,39.9683562 L87.9073161,39.9683562 L87.9073161,31.8697089 L79.9007068,31.8697089 L79.9007068,24.1678253 L87.8839733,24.1678253 L87.8839733,16.1158562 L79.9007068,16.1158562 L79.9007068,24.0511301 L79.9007068,24.0511301 Z M47.8976122,63.4474315 L47.8976122,63.6341438 L47.8976122,63.4474315 Z M24.1578988,63.6341438 L24.1578988,63.4474315 L24.1578988,63.6341438 Z M71.8707545,31.8697089 L63.9341738,31.8697089 L63.9341738,24.1678253 L71.8707545,24.1678253 L71.8707545,31.8697089 L71.8707545,31.8697089 Z" id="Shape"></path>
                        <rect id="Rectangle-path" x="55.81085" y="63.8208562" width="8.07663801" height="8.05196918"></rect>
                    </g>
                </g>
            </g>
            <g id="noun_659379_cc-copy-3" transform="translate(208.000000, 65.500000) scale(-1, 1) translate(-208.000000, -65.500000) translate(156.000000, 22.000000)">
                <g id="Group">
                    <g>
                        <rect id="Rectangle-path" x="95.8905826" y="6.85025685" width="8.0999809" height="8.02863014"></rect>
                        <rect id="Rectangle-path" x="79.9007068" y="0.198630137" width="7.98326648" height="8.02863014"></rect>
                        <path d="M79.9007068,24.0511301 L71.8707545,24.0511301 L71.8707545,16.1158562 L63.8874881,16.1158562 L63.8874881,24.0511301 L56.0442789,24.0511301 L56.0442789,24.0511301 L56.0442789,16.1158562 L48.0376695,16.1158562 L48.0376695,24.0511301 L48.0376695,24.0978082 L40.1244317,24.0978082 L40.1244317,31.916387 L39.8910029,31.9864041 L31.9544222,31.9864041 L31.9544222,31.916387 L31.9544222,24.0978082 L23.9711557,24.0978082 L23.9711557,24.0511301 L23.9711557,16.1158562 L15.9645463,16.1158562 L15.9645463,24.0511301 L15.9645463,24.0511301 L8.0513085,24.0511301 L8.0513085,31.8697089 L0.208099331,31.8697089 L0.208099331,39.7349658 L0.208099331,39.9683562 L0.208099331,47.7169178 L8.12133715,47.7169178 L8.12133715,55.7455479 L15.9645463,55.7455479 L16.1279465,55.7455479 L16.1279465,63.7275 L24.0411843,63.7275 L24.0411843,71.6160959 L32.0011079,71.6160959 L32.0011079,79.5980479 L40.0077173,79.5980479 L40.0077173,71.5927568 L47.9909838,71.5927568 L47.9909838,63.704161 L55.9509074,63.704161 L55.9509074,55.7455479 L56.0676218,55.7455479 L63.9108309,55.7455479 L63.9108309,47.7169178 L71.8940974,47.7169178 L71.8940974,55.7455479 L79.9473926,55.7455479 L79.9473926,47.7169178 L71.8707545,47.7169178 L71.8707545,39.9683562 L71.8707545,39.7349658 L71.8707545,32.0330822 L79.9240497,32.0330822 L79.9240497,39.9683562 L87.9073161,39.9683562 L87.9073161,31.8697089 L79.9007068,31.8697089 L79.9007068,24.1678253 L87.8839733,24.1678253 L87.8839733,16.1158562 L79.9007068,16.1158562 L79.9007068,24.0511301 L79.9007068,24.0511301 Z M47.8976122,63.4474315 L47.8976122,63.6341438 L47.8976122,63.4474315 Z M24.1578988,63.6341438 L24.1578988,63.4474315 L24.1578988,63.6341438 Z M71.8707545,31.8697089 L63.9341738,31.8697089 L63.9341738,24.1678253 L71.8707545,24.1678253 L71.8707545,31.8697089 L71.8707545,31.8697089 Z" id="Shape"></path>
                        <rect id="Rectangle-path" x="55.81085" y="63.8208562" width="8.07663801" height="8.05196918"></rect>
                    </g>
                </g>
            </g>
            <g id="noun_659379_cc-copy-4" transform="translate(233.000000, 21.500000) scale(-1, 1) translate(-233.000000, -21.500000) translate(181.000000, -22.000000)">
                <g id="Group">
                    <g>
                        <path d="M79.9007068,24.0511301 L71.8707545,24.0511301 L71.8707545,16.1158562 L63.8874881,16.1158562 L63.8874881,24.0511301 L56.0442789,24.0511301 L56.0442789,24.0511301 L56.0442789,16.1158562 L48.0376695,16.1158562 L48.0376695,24.0511301 L48.0376695,24.0978082 L40.1244317,24.0978082 L40.1244317,31.916387 L39.8910029,31.9864041 L31.9544222,31.9864041 L31.9544222,31.916387 L31.9544222,24.0978082 L23.9711557,24.0978082 L23.9711557,24.0511301 L23.9711557,16.1158562 L15.9645463,16.1158562 L15.9645463,24.0511301 L15.9645463,24.0511301 L8.0513085,24.0511301 L8.0513085,31.8697089 L0.208099331,31.8697089 L0.208099331,39.7349658 L0.208099331,39.9683562 L0.208099331,47.7169178 L8.12133715,47.7169178 L8.12133715,55.7455479 L15.9645463,55.7455479 L16.1279465,55.7455479 L16.1279465,63.7275 L24.0411843,63.7275 L24.0411843,71.6160959 L32.0011079,71.6160959 L32.0011079,79.5980479 L40.0077173,79.5980479 L40.0077173,71.5927568 L47.9909838,71.5927568 L47.9909838,63.704161 L55.9509074,63.704161 L55.9509074,55.7455479 L56.0676218,55.7455479 L63.9108309,55.7455479 L63.9108309,47.7169178 L71.8940974,47.7169178 L71.8940974,55.7455479 L79.9473926,55.7455479 L79.9473926,47.7169178 L71.8707545,47.7169178 L71.8707545,39.9683562 L71.8707545,39.7349658 L71.8707545,32.0330822 L79.9240497,32.0330822 L79.9240497,39.9683562 L87.9073161,39.9683562 L87.9073161,31.8697089 L79.9007068,31.8697089 L79.9007068,24.1678253 L87.8839733,24.1678253 L87.8839733,16.1158562 L79.9007068,16.1158562 L79.9007068,24.0511301 L79.9007068,24.0511301 Z M47.8976122,63.4474315 L47.8976122,63.6341438 L47.8976122,63.4474315 Z M24.1578988,63.6341438 L24.1578988,63.4474315 L24.1578988,63.6341438 Z M71.8707545,31.8697089 L63.9341738,31.8697089 L63.9341738,24.1678253 L71.8707545,24.1678253 L71.8707545,31.8697089 L71.8707545,31.8697089 Z" id="Shape"></path>
                        <rect id="Rectangle-path" x="55.81085" y="63.8208562" width="8.07663801" height="8.05196918"></rect>
                    </g>
                </g>
            </g>
            <g id="noun_659379_cc-copy-5" transform="translate(269.000000, 31.500000) scale(-1, 1) translate(-269.000000, -31.500000) translate(217.000000, -12.000000)">
                <g id="Group">
                    <g>
                        <rect id="Rectangle-path" x="95.8905826" y="6.85025685" width="8.0999809" height="8.02863014"></rect>
                        <path d="M79.9007068,24.0511301 L71.8707545,24.0511301 L71.8707545,16.1158562 L63.8874881,16.1158562 L63.8874881,24.0511301 L56.0442789,24.0511301 L56.0442789,24.0511301 L56.0442789,16.1158562 L48.0376695,16.1158562 L48.0376695,24.0511301 L48.0376695,24.0978082 L40.1244317,24.0978082 L40.1244317,31.916387 L39.8910029,31.9864041 L31.9544222,31.9864041 L31.9544222,31.916387 L31.9544222,24.0978082 L23.9711557,24.0978082 L23.9711557,24.0511301 L23.9711557,16.1158562 L15.9645463,16.1158562 L15.9645463,24.0511301 L15.9645463,24.0511301 L8.0513085,24.0511301 L8.0513085,31.8697089 L0.208099331,31.8697089 L0.208099331,39.7349658 L0.208099331,39.9683562 L0.208099331,47.7169178 L8.12133715,47.7169178 L8.12133715,55.7455479 L15.9645463,55.7455479 L16.1279465,55.7455479 L16.1279465,63.7275 L24.0411843,63.7275 L24.0411843,71.6160959 L32.0011079,71.6160959 L32.0011079,79.5980479 L40.0077173,79.5980479 L40.0077173,71.5927568 L47.9909838,71.5927568 L47.9909838,63.704161 L55.9509074,63.704161 L55.9509074,55.7455479 L56.0676218,55.7455479 L63.9108309,55.7455479 L63.9108309,47.7169178 L71.8940974,47.7169178 L71.8940974,55.7455479 L79.9473926,55.7455479 L79.9473926,47.7169178 L71.8707545,47.7169178 L71.8707545,39.9683562 L71.8707545,39.7349658 L71.8707545,32.0330822 L79.9240497,32.0330822 L79.9240497,39.9683562 L87.9073161,39.9683562 L87.9073161,31.8697089 L79.9007068,31.8697089 L79.9007068,24.1678253 L87.8839733,24.1678253 L87.8839733,16.1158562 L79.9007068,16.1158562 L79.9007068,24.0511301 L79.9007068,24.0511301 Z M47.8976122,63.4474315 L47.8976122,63.6341438 L47.8976122,63.4474315 Z M24.1578988,63.6341438 L24.1578988,63.4474315 L24.1578988,63.6341438 Z M71.8707545,31.8697089 L63.9341738,31.8697089 L63.9341738,24.1678253 L71.8707545,24.1678253 L71.8707545,31.8697089 L71.8707545,31.8697089 Z" id="Shape"></path>
                        <rect id="Rectangle-path" x="55.81085" y="63.8208562" width="8.07663801" height="8.05196918"></rect>
                    </g>
                </g>
            </g>
            <g id="noun_659379_cc-copy-6" transform="translate(411.000000, 43.500000) scale(-1, 1) translate(-411.000000, -43.500000) translate(359.000000, 0.000000)">
                <g id="Group">
                    <g>
                        <rect id="Rectangle-path" x="95.8905826" y="6.85025685" width="8.0999809" height="8.02863014"></rect>
                        <rect id="Rectangle-path" x="79.9007068" y="0.198630137" width="7.98326648" height="8.02863014"></rect>
                        <path d="M79.9007068,24.0511301 L71.8707545,24.0511301 L71.8707545,16.1158562 L63.8874881,16.1158562 L63.8874881,24.0511301 L56.0442789,24.0511301 L56.0442789,24.0511301 L56.0442789,16.1158562 L48.0376695,16.1158562 L48.0376695,24.0511301 L48.0376695,24.0978082 L40.1244317,24.0978082 L40.1244317,31.916387 L39.8910029,31.9864041 L31.9544222,31.9864041 L31.9544222,31.916387 L31.9544222,24.0978082 L23.9711557,24.0978082 L23.9711557,24.0511301 L23.9711557,16.1158562 L15.9645463,16.1158562 L15.9645463,24.0511301 L15.9645463,24.0511301 L8.0513085,24.0511301 L8.0513085,31.8697089 L0.208099331,31.8697089 L0.208099331,39.7349658 L0.208099331,39.9683562 L0.208099331,47.7169178 L8.12133715,47.7169178 L8.12133715,55.7455479 L15.9645463,55.7455479 L16.1279465,55.7455479 L16.1279465,63.7275 L24.0411843,63.7275 L24.0411843,71.6160959 L32.0011079,71.6160959 L32.0011079,79.5980479 L40.0077173,79.5980479 L40.0077173,71.5927568 L47.9909838,71.5927568 L47.9909838,63.704161 L55.9509074,63.704161 L55.9509074,55.7455479 L56.0676218,55.7455479 L63.9108309,55.7455479 L63.9108309,47.7169178 L71.8940974,47.7169178 L71.8940974,55.7455479 L79.9473926,55.7455479 L79.9473926,47.7169178 L71.8707545,47.7169178 L71.8707545,39.9683562 L71.8707545,39.7349658 L71.8707545,32.0330822 L79.9240497,32.0330822 L79.9240497,39.9683562 L87.9073161,39.9683562 L87.9073161,31.8697089 L79.9007068,31.8697089 L79.9007068,24.1678253 L87.8839733,24.1678253 L87.8839733,16.1158562 L79.9007068,16.1158562 L79.9007068,24.0511301 L79.9007068,24.0511301 Z M47.8976122,63.4474315 L47.8976122,63.6341438 L47.8976122,63.4474315 Z M24.1578988,63.6341438 L24.1578988,63.4474315 L24.1578988,63.6341438 Z M71.8707545,31.8697089 L63.9341738,31.8697089 L63.9341738,24.1678253 L71.8707545,24.1678253 L71.8707545,31.8697089 L71.8707545,31.8697089 Z" id="Shape"></path>
                        <rect id="Rectangle-path" x="55.81085" y="63.8208562" width="8.07663801" height="8.05196918"></rect>
                    </g>
                </g>
            </g>
            <g id="noun_659379_cc-copy-7" transform="translate(392.000000, -0.500000) scale(-1, 1) translate(-392.000000, 0.500000) translate(340.000000, -44.000000)">
                <g id="Group">
                    <g>
                        <path d="M79.9007068,24.0511301 L71.8707545,24.0511301 L71.8707545,16.1158562 L63.8874881,16.1158562 L63.8874881,24.0511301 L56.0442789,24.0511301 L56.0442789,24.0511301 L56.0442789,16.1158562 L48.0376695,16.1158562 L48.0376695,24.0511301 L48.0376695,24.0978082 L40.1244317,24.0978082 L40.1244317,31.916387 L39.8910029,31.9864041 L31.9544222,31.9864041 L31.9544222,31.916387 L31.9544222,24.0978082 L23.9711557,24.0978082 L23.9711557,24.0511301 L23.9711557,16.1158562 L15.9645463,16.1158562 L15.9645463,24.0511301 L15.9645463,24.0511301 L8.0513085,24.0511301 L8.0513085,31.8697089 L0.208099331,31.8697089 L0.208099331,39.7349658 L0.208099331,39.9683562 L0.208099331,47.7169178 L8.12133715,47.7169178 L8.12133715,55.7455479 L15.9645463,55.7455479 L16.1279465,55.7455479 L16.1279465,63.7275 L24.0411843,63.7275 L24.0411843,71.6160959 L32.0011079,71.6160959 L32.0011079,79.5980479 L40.0077173,79.5980479 L40.0077173,71.5927568 L47.9909838,71.5927568 L47.9909838,63.704161 L55.9509074,63.704161 L55.9509074,55.7455479 L56.0676218,55.7455479 L63.9108309,55.7455479 L63.9108309,47.7169178 L71.8940974,47.7169178 L71.8940974,55.7455479 L79.9473926,55.7455479 L79.9473926,47.7169178 L71.8707545,47.7169178 L71.8707545,39.9683562 L71.8707545,39.7349658 L71.8707545,32.0330822 L79.9240497,32.0330822 L79.9240497,39.9683562 L87.9073161,39.9683562 L87.9073161,31.8697089 L79.9007068,31.8697089 L79.9007068,24.1678253 L87.8839733,24.1678253 L87.8839733,16.1158562 L79.9007068,16.1158562 L79.9007068,24.0511301 L79.9007068,24.0511301 Z M47.8976122,63.4474315 L47.8976122,63.6341438 L47.8976122,63.4474315 Z M24.1578988,63.6341438 L24.1578988,63.4474315 L24.1578988,63.6341438 Z M71.8707545,31.8697089 L63.9341738,31.8697089 L63.9341738,24.1678253 L71.8707545,24.1678253 L71.8707545,31.8697089 L71.8707545,31.8697089 Z" id="Shape"></path>
                        <rect id="Rectangle-path" x="55.81085" y="63.8208562" width="8.07663801" height="8.05196918"></rect>
                    </g>
                </g>
            </g>
            <g id="noun_659379_cc-copy-8" transform="translate(515.000000, 43.500000) scale(-1, 1) translate(-515.000000, -43.500000) translate(463.000000, 0.000000)">
                <g id="Group">
                    <g>
                        <rect id="Rectangle-path" x="95.8905826" y="6.85025685" width="8.0999809" height="8.02863014"></rect>
                        <rect id="Rectangle-path" x="79.9007068" y="0.198630137" width="7.98326648" height="8.02863014"></rect>
                        <path d="M79.9007068,24.0511301 L71.8707545,24.0511301 L71.8707545,16.1158562 L63.8874881,16.1158562 L63.8874881,24.0511301 L56.0442789,24.0511301 L56.0442789,24.0511301 L56.0442789,16.1158562 L48.0376695,16.1158562 L48.0376695,24.0511301 L48.0376695,24.0978082 L40.1244317,24.0978082 L40.1244317,31.916387 L39.8910029,31.9864041 L31.9544222,31.9864041 L31.9544222,31.916387 L31.9544222,24.0978082 L23.9711557,24.0978082 L23.9711557,24.0511301 L23.9711557,16.1158562 L15.9645463,16.1158562 L15.9645463,24.0511301 L15.9645463,24.0511301 L8.0513085,24.0511301 L8.0513085,31.8697089 L0.208099331,31.8697089 L0.208099331,39.7349658 L0.208099331,39.9683562 L0.208099331,47.7169178 L8.12133715,47.7169178 L8.12133715,55.7455479 L15.9645463,55.7455479 L16.1279465,55.7455479 L16.1279465,63.7275 L24.0411843,63.7275 L24.0411843,71.6160959 L32.0011079,71.6160959 L32.0011079,79.5980479 L40.0077173,79.5980479 L40.0077173,71.5927568 L47.9909838,71.5927568 L47.9909838,63.704161 L55.9509074,63.704161 L55.9509074,55.7455479 L56.0676218,55.7455479 L63.9108309,55.7455479 L63.9108309,47.7169178 L71.8940974,47.7169178 L71.8940974,55.7455479 L79.9473926,55.7455479 L79.9473926,47.7169178 L71.8707545,47.7169178 L71.8707545,39.9683562 L71.8707545,39.7349658 L71.8707545,32.0330822 L79.9240497,32.0330822 L79.9240497,39.9683562 L87.9073161,39.9683562 L87.9073161,31.8697089 L79.9007068,31.8697089 L79.9007068,24.1678253 L87.8839733,24.1678253 L87.8839733,16.1158562 L79.9007068,16.1158562 L79.9007068,24.0511301 L79.9007068,24.0511301 Z M47.8976122,63.4474315 L47.8976122,63.6341438 L47.8976122,63.4474315 Z M24.1578988,63.6341438 L24.1578988,63.4474315 L24.1578988,63.6341438 Z M71.8707545,31.8697089 L63.9341738,31.8697089 L63.9341738,24.1678253 L71.8707545,24.1678253 L71.8707545,31.8697089 L71.8707545,31.8697089 Z" id="Shape"></path>
                        <rect id="Rectangle-path" x="55.81085" y="63.8208562" width="8.07663801" height="8.05196918"></rect>
                    </g>
                </g>
            </g>
            <g id="noun_659379_cc-copy-9" transform="translate(885.000000, 21.500000) scale(-1, 1) translate(-885.000000, -21.500000) translate(833.000000, -22.000000)">
                <g id="Group">
                    <g>
                        <path d="M79.9007068,24.0511301 L71.8707545,24.0511301 L71.8707545,16.1158562 L63.8874881,16.1158562 L63.8874881,24.0511301 L56.0442789,24.0511301 L56.0442789,24.0511301 L56.0442789,16.1158562 L48.0376695,16.1158562 L48.0376695,24.0511301 L48.0376695,24.0978082 L40.1244317,24.0978082 L40.1244317,31.916387 L39.8910029,31.9864041 L31.9544222,31.9864041 L31.9544222,31.916387 L31.9544222,24.0978082 L23.9711557,24.0978082 L23.9711557,24.0511301 L23.9711557,16.1158562 L15.9645463,16.1158562 L15.9645463,24.0511301 L15.9645463,24.0511301 L8.0513085,24.0511301 L8.0513085,31.8697089 L0.208099331,31.8697089 L0.208099331,39.7349658 L0.208099331,39.9683562 L0.208099331,47.7169178 L8.12133715,47.7169178 L8.12133715,55.7455479 L15.9645463,55.7455479 L16.1279465,55.7455479 L16.1279465,63.7275 L24.0411843,63.7275 L24.0411843,71.6160959 L32.0011079,71.6160959 L32.0011079,79.5980479 L40.0077173,79.5980479 L40.0077173,71.5927568 L47.9909838,71.5927568 L47.9909838,63.704161 L55.9509074,63.704161 L55.9509074,55.7455479 L56.0676218,55.7455479 L63.9108309,55.7455479 L63.9108309,47.7169178 L71.8940974,47.7169178 L71.8940974,55.7455479 L79.9473926,55.7455479 L79.9473926,47.7169178 L71.8707545,47.7169178 L71.8707545,39.9683562 L71.8707545,39.7349658 L71.8707545,32.0330822 L79.9240497,32.0330822 L79.9240497,39.9683562 L87.9073161,39.9683562 L87.9073161,31.8697089 L79.9007068,31.8697089 L79.9007068,24.1678253 L87.8839733,24.1678253 L87.8839733,16.1158562 L79.9007068,16.1158562 L79.9007068,24.0511301 L79.9007068,24.0511301 Z M47.8976122,63.4474315 L47.8976122,63.6341438 L47.8976122,63.4474315 Z M24.1578988,63.6341438 L24.1578988,63.4474315 L24.1578988,63.6341438 Z M71.8707545,31.8697089 L63.9341738,31.8697089 L63.9341738,24.1678253 L71.8707545,24.1678253 L71.8707545,31.8697089 L71.8707545,31.8697089 Z" id="Shape"></path>
                        <rect id="Rectangle-path" x="55.81085" y="63.8208562" width="8.07663801" height="8.05196918"></rect>
                    </g>
                </g>
            </g>
            <g id="noun_659379_cc-copy-10" transform="translate(833.000000, 43.500000) scale(-1, 1) translate(-833.000000, -43.500000) translate(781.000000, 0.000000)">
                <g id="Group">
                    <g>
                        <rect id="Rectangle-path" x="95.8905826" y="6.85025685" width="8.0999809" height="8.02863014"></rect>
                        <rect id="Rectangle-path" x="79.9007068" y="0.198630137" width="7.98326648" height="8.02863014"></rect>
                        <path d="M79.9007068,24.0511301 L71.8707545,24.0511301 L71.8707545,16.1158562 L63.8874881,16.1158562 L63.8874881,24.0511301 L56.0442789,24.0511301 L56.0442789,24.0511301 L56.0442789,16.1158562 L48.0376695,16.1158562 L48.0376695,24.0511301 L48.0376695,24.0978082 L40.1244317,24.0978082 L40.1244317,31.916387 L39.8910029,31.9864041 L31.9544222,31.9864041 L31.9544222,31.916387 L31.9544222,24.0978082 L23.9711557,24.0978082 L23.9711557,24.0511301 L23.9711557,16.1158562 L15.9645463,16.1158562 L15.9645463,24.0511301 L15.9645463,24.0511301 L8.0513085,24.0511301 L8.0513085,31.8697089 L0.208099331,31.8697089 L0.208099331,39.7349658 L0.208099331,39.9683562 L0.208099331,47.7169178 L8.12133715,47.7169178 L8.12133715,55.7455479 L15.9645463,55.7455479 L16.1279465,55.7455479 L16.1279465,63.7275 L24.0411843,63.7275 L24.0411843,71.6160959 L32.0011079,71.6160959 L32.0011079,79.5980479 L40.0077173,79.5980479 L40.0077173,71.5927568 L47.9909838,71.5927568 L47.9909838,63.704161 L55.9509074,63.704161 L55.9509074,55.7455479 L56.0676218,55.7455479 L63.9108309,55.7455479 L63.9108309,47.7169178 L71.8940974,47.7169178 L71.8940974,55.7455479 L79.9473926,55.7455479 L79.9473926,47.7169178 L71.8707545,47.7169178 L71.8707545,39.9683562 L71.8707545,39.7349658 L71.8707545,32.0330822 L79.9240497,32.0330822 L79.9240497,39.9683562 L87.9073161,39.9683562 L87.9073161,31.8697089 L79.9007068,31.8697089 L79.9007068,24.1678253 L87.8839733,24.1678253 L87.8839733,16.1158562 L79.9007068,16.1158562 L79.9007068,24.0511301 L79.9007068,24.0511301 Z M47.8976122,63.4474315 L47.8976122,63.6341438 L47.8976122,63.4474315 Z M24.1578988,63.6341438 L24.1578988,63.4474315 L24.1578988,63.6341438 Z M71.8707545,31.8697089 L63.9341738,31.8697089 L63.9341738,24.1678253 L71.8707545,24.1678253 L71.8707545,31.8697089 L71.8707545,31.8697089 Z" id="Shape"></path>
                        <rect id="Rectangle-path" x="55.81085" y="63.8208562" width="8.07663801" height="8.05196918"></rect>
                    </g>
                </g>
            </g>
            <g id="noun_659379_cc-copy-28" transform="translate(781.000000, 31.500000) scale(-1, 1) translate(-781.000000, -31.500000) translate(729.000000, -12.000000)">
                <g id="Group">
                    <g>
                        <rect id="Rectangle-path" x="95.8905826" y="6.85025685" width="8.0999809" height="8.02863014"></rect>
                        <path d="M79.9007068,24.0511301 L71.8707545,24.0511301 L71.8707545,16.1158562 L63.8874881,16.1158562 L63.8874881,24.0511301 L56.0442789,24.0511301 L56.0442789,24.0511301 L56.0442789,16.1158562 L48.0376695,16.1158562 L48.0376695,24.0511301 L48.0376695,24.0978082 L40.1244317,24.0978082 L40.1244317,31.916387 L39.8910029,31.9864041 L31.9544222,31.9864041 L31.9544222,31.916387 L31.9544222,24.0978082 L23.9711557,24.0978082 L23.9711557,24.0511301 L23.9711557,16.1158562 L15.9645463,16.1158562 L15.9645463,24.0511301 L15.9645463,24.0511301 L8.0513085,24.0511301 L8.0513085,31.8697089 L0.208099331,31.8697089 L0.208099331,39.7349658 L0.208099331,39.9683562 L0.208099331,47.7169178 L8.12133715,47.7169178 L8.12133715,55.7455479 L15.9645463,55.7455479 L16.1279465,55.7455479 L16.1279465,63.7275 L24.0411843,63.7275 L24.0411843,71.6160959 L32.0011079,71.6160959 L32.0011079,79.5980479 L40.0077173,79.5980479 L40.0077173,71.5927568 L47.9909838,71.5927568 L47.9909838,63.704161 L55.9509074,63.704161 L55.9509074,55.7455479 L56.0676218,55.7455479 L63.9108309,55.7455479 L63.9108309,47.7169178 L71.8940974,47.7169178 L71.8940974,55.7455479 L79.9473926,55.7455479 L79.9473926,47.7169178 L71.8707545,47.7169178 L71.8707545,39.9683562 L71.8707545,39.7349658 L71.8707545,32.0330822 L79.9240497,32.0330822 L79.9240497,39.9683562 L87.9073161,39.9683562 L87.9073161,31.8697089 L79.9007068,31.8697089 L79.9007068,24.1678253 L87.8839733,24.1678253 L87.8839733,16.1158562 L79.9007068,16.1158562 L79.9007068,24.0511301 L79.9007068,24.0511301 Z M47.8976122,63.4474315 L47.8976122,63.6341438 L47.8976122,63.4474315 Z M24.1578988,63.6341438 L24.1578988,63.4474315 L24.1578988,63.6341438 Z M71.8707545,31.8697089 L63.9341738,31.8697089 L63.9341738,24.1678253 L71.8707545,24.1678253 L71.8707545,31.8697089 L71.8707545,31.8697089 Z" id="Shape"></path>
                        <rect id="Rectangle-path" x="55.81085" y="63.8208562" width="8.07663801" height="8.05196918"></rect>
                    </g>
                </g>
            </g>
            <g id="noun_659379_cc-copy-29" transform="translate(677.000000, -0.500000) scale(-1, 1) translate(-677.000000, 0.500000) translate(625.000000, -44.000000)">
                <g id="Group">
                    <g>
                        <path d="M79.9007068,24.0511301 L71.8707545,24.0511301 L71.8707545,16.1158562 L63.8874881,16.1158562 L63.8874881,24.0511301 L56.0442789,24.0511301 L56.0442789,24.0511301 L56.0442789,16.1158562 L48.0376695,16.1158562 L48.0376695,24.0511301 L48.0376695,24.0978082 L40.1244317,24.0978082 L40.1244317,31.916387 L39.8910029,31.9864041 L31.9544222,31.9864041 L31.9544222,31.916387 L31.9544222,24.0978082 L23.9711557,24.0978082 L23.9711557,24.0511301 L23.9711557,16.1158562 L15.9645463,16.1158562 L15.9645463,24.0511301 L15.9645463,24.0511301 L8.0513085,24.0511301 L8.0513085,31.8697089 L0.208099331,31.8697089 L0.208099331,39.7349658 L0.208099331,39.9683562 L0.208099331,47.7169178 L8.12133715,47.7169178 L8.12133715,55.7455479 L15.9645463,55.7455479 L16.1279465,55.7455479 L16.1279465,63.7275 L24.0411843,63.7275 L24.0411843,71.6160959 L32.0011079,71.6160959 L32.0011079,79.5980479 L40.0077173,79.5980479 L40.0077173,71.5927568 L47.9909838,71.5927568 L47.9909838,63.704161 L55.9509074,63.704161 L55.9509074,55.7455479 L56.0676218,55.7455479 L63.9108309,55.7455479 L63.9108309,47.7169178 L71.8940974,47.7169178 L71.8940974,55.7455479 L79.9473926,55.7455479 L79.9473926,47.7169178 L71.8707545,47.7169178 L71.8707545,39.9683562 L71.8707545,39.7349658 L71.8707545,32.0330822 L79.9240497,32.0330822 L79.9240497,39.9683562 L87.9073161,39.9683562 L87.9073161,31.8697089 L79.9007068,31.8697089 L79.9007068,24.1678253 L87.8839733,24.1678253 L87.8839733,16.1158562 L79.9007068,16.1158562 L79.9007068,24.0511301 L79.9007068,24.0511301 Z M47.8976122,63.4474315 L47.8976122,63.6341438 L47.8976122,63.4474315 Z M24.1578988,63.6341438 L24.1578988,63.4474315 L24.1578988,63.6341438 Z M71.8707545,31.8697089 L63.9341738,31.8697089 L63.9341738,24.1678253 L71.8707545,24.1678253 L71.8707545,31.8697089 L71.8707545,31.8697089 Z" id="Shape"></path>
                        <rect id="Rectangle-path" x="55.81085" y="63.8208562" width="8.07663801" height="8.05196918"></rect>
                    </g>
                </g>
            </g>
            <g id="noun_659379_cc-copy-30" transform="translate(609.000000, -0.500000) scale(-1, 1) translate(-609.000000, 0.500000) translate(557.000000, -44.000000)">
                <g id="Group">
                    <g>
                        <path d="M79.9007068,24.0511301 L71.8707545,24.0511301 L71.8707545,16.1158562 L63.8874881,16.1158562 L63.8874881,24.0511301 L56.0442789,24.0511301 L56.0442789,24.0511301 L56.0442789,16.1158562 L48.0376695,16.1158562 L48.0376695,24.0511301 L48.0376695,24.0978082 L40.1244317,24.0978082 L40.1244317,31.916387 L39.8910029,31.9864041 L31.9544222,31.9864041 L31.9544222,31.916387 L31.9544222,24.0978082 L23.9711557,24.0978082 L23.9711557,24.0511301 L23.9711557,16.1158562 L15.9645463,16.1158562 L15.9645463,24.0511301 L15.9645463,24.0511301 L8.0513085,24.0511301 L8.0513085,31.8697089 L0.208099331,31.8697089 L0.208099331,39.7349658 L0.208099331,39.9683562 L0.208099331,47.7169178 L8.12133715,47.7169178 L8.12133715,55.7455479 L15.9645463,55.7455479 L16.1279465,55.7455479 L16.1279465,63.7275 L24.0411843,63.7275 L24.0411843,71.6160959 L32.0011079,71.6160959 L32.0011079,79.5980479 L40.0077173,79.5980479 L40.0077173,71.5927568 L47.9909838,71.5927568 L47.9909838,63.704161 L55.9509074,63.704161 L55.9509074,55.7455479 L56.0676218,55.7455479 L63.9108309,55.7455479 L63.9108309,47.7169178 L71.8940974,47.7169178 L71.8940974,55.7455479 L79.9473926,55.7455479 L79.9473926,47.7169178 L71.8707545,47.7169178 L71.8707545,39.9683562 L71.8707545,39.7349658 L71.8707545,32.0330822 L79.9240497,32.0330822 L79.9240497,39.9683562 L87.9073161,39.9683562 L87.9073161,31.8697089 L79.9007068,31.8697089 L79.9007068,24.1678253 L87.8839733,24.1678253 L87.8839733,16.1158562 L79.9007068,16.1158562 L79.9007068,24.0511301 L79.9007068,24.0511301 Z M47.8976122,63.4474315 L47.8976122,63.6341438 L47.8976122,63.4474315 Z M24.1578988,63.6341438 L24.1578988,63.4474315 L24.1578988,63.6341438 Z M71.8707545,31.8697089 L63.9341738,31.8697089 L63.9341738,24.1678253 L71.8707545,24.1678253 L71.8707545,31.8697089 L71.8707545,31.8697089 Z" id="Shape"></path>
                        <rect id="Rectangle-path" x="55.81085" y="63.8208562" width="8.07663801" height="8.05196918"></rect>
                    </g>
                </g>
            </g>
            <g id="noun_659379_cc-copy-31" transform="translate(636.000000, 21.500000) scale(-1, 1) translate(-636.000000, -21.500000) translate(584.000000, -22.000000)">
                <g id="Group">
                    <g>
                        <path d="M79.9007068,24.0511301 L71.8707545,24.0511301 L71.8707545,16.1158562 L63.8874881,16.1158562 L63.8874881,24.0511301 L56.0442789,24.0511301 L56.0442789,24.0511301 L56.0442789,16.1158562 L48.0376695,16.1158562 L48.0376695,24.0511301 L48.0376695,24.0978082 L40.1244317,24.0978082 L40.1244317,31.916387 L39.8910029,31.9864041 L31.9544222,31.9864041 L31.9544222,31.916387 L31.9544222,24.0978082 L23.9711557,24.0978082 L23.9711557,24.0511301 L23.9711557,16.1158562 L15.9645463,16.1158562 L15.9645463,24.0511301 L15.9645463,24.0511301 L8.0513085,24.0511301 L8.0513085,31.8697089 L0.208099331,31.8697089 L0.208099331,39.7349658 L0.208099331,39.9683562 L0.208099331,47.7169178 L8.12133715,47.7169178 L8.12133715,55.7455479 L15.9645463,55.7455479 L16.1279465,55.7455479 L16.1279465,63.7275 L24.0411843,63.7275 L24.0411843,71.6160959 L32.0011079,71.6160959 L32.0011079,79.5980479 L40.0077173,79.5980479 L40.0077173,71.5927568 L47.9909838,71.5927568 L47.9909838,63.704161 L55.9509074,63.704161 L55.9509074,55.7455479 L56.0676218,55.7455479 L63.9108309,55.7455479 L63.9108309,47.7169178 L71.8940974,47.7169178 L71.8940974,55.7455479 L79.9473926,55.7455479 L79.9473926,47.7169178 L71.8707545,47.7169178 L71.8707545,39.9683562 L71.8707545,39.7349658 L71.8707545,32.0330822 L79.9240497,32.0330822 L79.9240497,39.9683562 L87.9073161,39.9683562 L87.9073161,31.8697089 L79.9007068,31.8697089 L79.9007068,24.1678253 L87.8839733,24.1678253 L87.8839733,16.1158562 L79.9007068,16.1158562 L79.9007068,24.0511301 L79.9007068,24.0511301 Z M47.8976122,63.4474315 L47.8976122,63.6341438 L47.8976122,63.4474315 Z M24.1578988,63.6341438 L24.1578988,63.4474315 L24.1578988,63.6341438 Z M71.8707545,31.8697089 L63.9341738,31.8697089 L63.9341738,24.1678253 L71.8707545,24.1678253 L71.8707545,31.8697089 L71.8707545,31.8697089 Z" id="Shape"></path>
                        <rect id="Rectangle-path" x="55.81085" y="63.8208562" width="8.07663801" height="8.05196918"></rect>
                    </g>
                </g>
            </g>
            <g id="noun_659379_cc-copy-27" transform="translate(781.000000, -12.500000) scale(-1, 1) translate(-781.000000, 12.500000) translate(729.000000, -56.000000)">
                <g id="Group">
                    <g>
                        <path d="M79.9007068,24.0511301 L71.8707545,24.0511301 L71.8707545,16.1158562 L63.8874881,16.1158562 L63.8874881,24.0511301 L56.0442789,24.0511301 L56.0442789,24.0511301 L56.0442789,16.1158562 L48.0376695,16.1158562 L48.0376695,24.0511301 L48.0376695,24.0978082 L40.1244317,24.0978082 L40.1244317,31.916387 L39.8910029,31.9864041 L31.9544222,31.9864041 L31.9544222,31.916387 L31.9544222,24.0978082 L23.9711557,24.0978082 L23.9711557,24.0511301 L23.9711557,16.1158562 L15.9645463,16.1158562 L15.9645463,24.0511301 L15.9645463,24.0511301 L8.0513085,24.0511301 L8.0513085,31.8697089 L0.208099331,31.8697089 L0.208099331,39.7349658 L0.208099331,39.9683562 L0.208099331,47.7169178 L8.12133715,47.7169178 L8.12133715,55.7455479 L15.9645463,55.7455479 L16.1279465,55.7455479 L16.1279465,63.7275 L24.0411843,63.7275 L24.0411843,71.6160959 L32.0011079,71.6160959 L32.0011079,79.5980479 L40.0077173,79.5980479 L40.0077173,71.5927568 L47.9909838,71.5927568 L47.9909838,63.704161 L55.9509074,63.704161 L55.9509074,55.7455479 L56.0676218,55.7455479 L63.9108309,55.7455479 L63.9108309,47.7169178 L71.8940974,47.7169178 L71.8940974,55.7455479 L79.9473926,55.7455479 L79.9473926,47.7169178 L71.8707545,47.7169178 L71.8707545,39.9683562 L71.8707545,39.7349658 L71.8707545,32.0330822 L79.9240497,32.0330822 L79.9240497,39.9683562 L87.9073161,39.9683562 L87.9073161,31.8697089 L79.9007068,31.8697089 L79.9007068,24.1678253 L87.8839733,24.1678253 L87.8839733,16.1158562 L79.9007068,16.1158562 L79.9007068,24.0511301 L79.9007068,24.0511301 Z M47.8976122,63.4474315 L47.8976122,63.6341438 L47.8976122,63.4474315 Z M24.1578988,63.6341438 L24.1578988,63.4474315 L24.1578988,63.6341438 Z M71.8707545,31.8697089 L63.9341738,31.8697089 L63.9341738,24.1678253 L71.8707545,24.1678253 L71.8707545,31.8697089 L71.8707545,31.8697089 Z" id="Shape"></path>
                        <rect id="Rectangle-path" x="55.81085" y="63.8208562" width="8.07663801" height="8.05196918"></rect>
                    </g>
                </g>
            </g>
            <g id="noun_659379_cc-copy-11" transform="translate(688.000000, 86.500000) scale(-1, 1) translate(-688.000000, -86.500000) translate(636.000000, 43.000000)">
                <g id="Group">
                    <g>
                        <rect id="Rectangle-path" x="95.8905826" y="6.85025685" width="8.0999809" height="8.02863014"></rect>
                        <rect id="Rectangle-path" x="79.9007068" y="0.198630137" width="7.98326648" height="8.02863014"></rect>
                        <path d="M79.9007068,24.0511301 L71.8707545,24.0511301 L71.8707545,16.1158562 L63.8874881,16.1158562 L63.8874881,24.0511301 L56.0442789,24.0511301 L56.0442789,24.0511301 L56.0442789,16.1158562 L48.0376695,16.1158562 L48.0376695,24.0511301 L48.0376695,24.0978082 L40.1244317,24.0978082 L40.1244317,31.916387 L39.8910029,31.9864041 L31.9544222,31.9864041 L31.9544222,31.916387 L31.9544222,24.0978082 L23.9711557,24.0978082 L23.9711557,24.0511301 L23.9711557,16.1158562 L15.9645463,16.1158562 L15.9645463,24.0511301 L15.9645463,24.0511301 L8.0513085,24.0511301 L8.0513085,31.8697089 L0.208099331,31.8697089 L0.208099331,39.7349658 L0.208099331,39.9683562 L0.208099331,47.7169178 L8.12133715,47.7169178 L8.12133715,55.7455479 L15.9645463,55.7455479 L16.1279465,55.7455479 L16.1279465,63.7275 L24.0411843,63.7275 L24.0411843,71.6160959 L32.0011079,71.6160959 L32.0011079,79.5980479 L40.0077173,79.5980479 L40.0077173,71.5927568 L47.9909838,71.5927568 L47.9909838,63.704161 L55.9509074,63.704161 L55.9509074,55.7455479 L56.0676218,55.7455479 L63.9108309,55.7455479 L63.9108309,47.7169178 L71.8940974,47.7169178 L71.8940974,55.7455479 L79.9473926,55.7455479 L79.9473926,47.7169178 L71.8707545,47.7169178 L71.8707545,39.9683562 L71.8707545,39.7349658 L71.8707545,32.0330822 L79.9240497,32.0330822 L79.9240497,39.9683562 L87.9073161,39.9683562 L87.9073161,31.8697089 L79.9007068,31.8697089 L79.9007068,24.1678253 L87.8839733,24.1678253 L87.8839733,16.1158562 L79.9007068,16.1158562 L79.9007068,24.0511301 L79.9007068,24.0511301 Z M47.8976122,63.4474315 L47.8976122,63.6341438 L47.8976122,63.4474315 Z M24.1578988,63.6341438 L24.1578988,63.4474315 L24.1578988,63.6341438 Z M71.8707545,31.8697089 L63.9341738,31.8697089 L63.9341738,24.1678253 L71.8707545,24.1678253 L71.8707545,31.8697089 L71.8707545,31.8697089 Z" id="Shape"></path>
                        <rect id="Rectangle-path" x="55.81085" y="63.8208562" width="8.07663801" height="8.05196918"></rect>
                    </g>
                </g>
            </g>
            <g id="noun_659379_cc-copy-12" transform="translate(1017.000000, 31.500000) scale(-1, 1) translate(-1017.000000, -31.500000) translate(965.000000, -12.000000)">
                <g id="Group">
                    <g>
                        <rect id="Rectangle-path" x="95.8905826" y="6.85025685" width="8.0999809" height="8.02863014"></rect>
                        <path d="M79.9007068,24.0511301 L71.8707545,24.0511301 L71.8707545,16.1158562 L63.8874881,16.1158562 L63.8874881,24.0511301 L56.0442789,24.0511301 L56.0442789,24.0511301 L56.0442789,16.1158562 L48.0376695,16.1158562 L48.0376695,24.0511301 L48.0376695,24.0978082 L40.1244317,24.0978082 L40.1244317,31.916387 L39.8910029,31.9864041 L31.9544222,31.9864041 L31.9544222,31.916387 L31.9544222,24.0978082 L23.9711557,24.0978082 L23.9711557,24.0511301 L23.9711557,16.1158562 L15.9645463,16.1158562 L15.9645463,24.0511301 L15.9645463,24.0511301 L8.0513085,24.0511301 L8.0513085,31.8697089 L0.208099331,31.8697089 L0.208099331,39.7349658 L0.208099331,39.9683562 L0.208099331,47.7169178 L8.12133715,47.7169178 L8.12133715,55.7455479 L15.9645463,55.7455479 L16.1279465,55.7455479 L16.1279465,63.7275 L24.0411843,63.7275 L24.0411843,71.6160959 L32.0011079,71.6160959 L32.0011079,79.5980479 L40.0077173,79.5980479 L40.0077173,71.5927568 L47.9909838,71.5927568 L47.9909838,63.704161 L55.9509074,63.704161 L55.9509074,55.7455479 L56.0676218,55.7455479 L63.9108309,55.7455479 L63.9108309,47.7169178 L71.8940974,47.7169178 L71.8940974,55.7455479 L79.9473926,55.7455479 L79.9473926,47.7169178 L71.8707545,47.7169178 L71.8707545,39.9683562 L71.8707545,39.7349658 L71.8707545,32.0330822 L79.9240497,32.0330822 L79.9240497,39.9683562 L87.9073161,39.9683562 L87.9073161,31.8697089 L79.9007068,31.8697089 L79.9007068,24.1678253 L87.8839733,24.1678253 L87.8839733,16.1158562 L79.9007068,16.1158562 L79.9007068,24.0511301 L79.9007068,24.0511301 Z M47.8976122,63.4474315 L47.8976122,63.6341438 L47.8976122,63.4474315 Z M24.1578988,63.6341438 L24.1578988,63.4474315 L24.1578988,63.6341438 Z M71.8707545,31.8697089 L63.9341738,31.8697089 L63.9341738,24.1678253 L71.8707545,24.1678253 L71.8707545,31.8697089 L71.8707545,31.8697089 Z" id="Shape"></path>
                        <rect id="Rectangle-path" x="55.81085" y="63.8208562" width="8.07663801" height="8.05196918"></rect>
                    </g>
                </g>
            </g>
            <g id="noun_659379_cc-copy-24" transform="translate(956.000000, 43.500000) scale(-1, 1) translate(-956.000000, -43.500000) translate(904.000000, 0.000000)">
                <g id="Group">
                    <g>
                        <rect id="Rectangle-path" x="95.8905826" y="6.85025685" width="8.0999809" height="8.02863014"></rect>
                        <rect id="Rectangle-path" x="79.9007068" y="0.198630137" width="7.98326648" height="8.02863014"></rect>
                        <path d="M79.9007068,24.0511301 L71.8707545,24.0511301 L71.8707545,16.1158562 L63.8874881,16.1158562 L63.8874881,24.0511301 L56.0442789,24.0511301 L56.0442789,24.0511301 L56.0442789,16.1158562 L48.0376695,16.1158562 L48.0376695,24.0511301 L48.0376695,24.0978082 L40.1244317,24.0978082 L40.1244317,31.916387 L39.8910029,31.9864041 L31.9544222,31.9864041 L31.9544222,31.916387 L31.9544222,24.0978082 L23.9711557,24.0978082 L23.9711557,24.0511301 L23.9711557,16.1158562 L15.9645463,16.1158562 L15.9645463,24.0511301 L15.9645463,24.0511301 L8.0513085,24.0511301 L8.0513085,31.8697089 L0.208099331,31.8697089 L0.208099331,39.7349658 L0.208099331,39.9683562 L0.208099331,47.7169178 L8.12133715,47.7169178 L8.12133715,55.7455479 L15.9645463,55.7455479 L16.1279465,55.7455479 L16.1279465,63.7275 L24.0411843,63.7275 L24.0411843,71.6160959 L32.0011079,71.6160959 L32.0011079,79.5980479 L40.0077173,79.5980479 L40.0077173,71.5927568 L47.9909838,71.5927568 L47.9909838,63.704161 L55.9509074,63.704161 L55.9509074,55.7455479 L56.0676218,55.7455479 L63.9108309,55.7455479 L63.9108309,47.7169178 L71.8940974,47.7169178 L71.8940974,55.7455479 L79.9473926,55.7455479 L79.9473926,47.7169178 L71.8707545,47.7169178 L71.8707545,39.9683562 L71.8707545,39.7349658 L71.8707545,32.0330822 L79.9240497,32.0330822 L79.9240497,39.9683562 L87.9073161,39.9683562 L87.9073161,31.8697089 L79.9007068,31.8697089 L79.9007068,24.1678253 L87.8839733,24.1678253 L87.8839733,16.1158562 L79.9007068,16.1158562 L79.9007068,24.0511301 L79.9007068,24.0511301 Z M47.8976122,63.4474315 L47.8976122,63.6341438 L47.8976122,63.4474315 Z M24.1578988,63.6341438 L24.1578988,63.4474315 L24.1578988,63.6341438 Z M71.8707545,31.8697089 L63.9341738,31.8697089 L63.9341738,24.1678253 L71.8707545,24.1678253 L71.8707545,31.8697089 L71.8707545,31.8697089 Z" id="Shape"></path>
                        <rect id="Rectangle-path" x="55.81085" y="63.8208562" width="8.07663801" height="8.05196918"></rect>
                    </g>
                </g>
            </g>
            <g id="noun_659379_cc-copy-26" transform="translate(1060.000000, 43.500000) scale(-1, 1) translate(-1060.000000, -43.500000) translate(1008.000000, 0.000000)">
                <g id="Group">
                    <g>
                        <rect id="Rectangle-path" x="95.8905826" y="6.85025685" width="8.0999809" height="8.02863014"></rect>
                        <rect id="Rectangle-path" x="79.9007068" y="0.198630137" width="7.98326648" height="8.02863014"></rect>
                        <path d="M79.9007068,24.0511301 L71.8707545,24.0511301 L71.8707545,16.1158562 L63.8874881,16.1158562 L63.8874881,24.0511301 L56.0442789,24.0511301 L56.0442789,24.0511301 L56.0442789,16.1158562 L48.0376695,16.1158562 L48.0376695,24.0511301 L48.0376695,24.0978082 L40.1244317,24.0978082 L40.1244317,31.916387 L39.8910029,31.9864041 L31.9544222,31.9864041 L31.9544222,31.916387 L31.9544222,24.0978082 L23.9711557,24.0978082 L23.9711557,24.0511301 L23.9711557,16.1158562 L15.9645463,16.1158562 L15.9645463,24.0511301 L15.9645463,24.0511301 L8.0513085,24.0511301 L8.0513085,31.8697089 L0.208099331,31.8697089 L0.208099331,39.7349658 L0.208099331,39.9683562 L0.208099331,47.7169178 L8.12133715,47.7169178 L8.12133715,55.7455479 L15.9645463,55.7455479 L16.1279465,55.7455479 L16.1279465,63.7275 L24.0411843,63.7275 L24.0411843,71.6160959 L32.0011079,71.6160959 L32.0011079,79.5980479 L40.0077173,79.5980479 L40.0077173,71.5927568 L47.9909838,71.5927568 L47.9909838,63.704161 L55.9509074,63.704161 L55.9509074,55.7455479 L56.0676218,55.7455479 L63.9108309,55.7455479 L63.9108309,47.7169178 L71.8940974,47.7169178 L71.8940974,55.7455479 L79.9473926,55.7455479 L79.9473926,47.7169178 L71.8707545,47.7169178 L71.8707545,39.9683562 L71.8707545,39.7349658 L71.8707545,32.0330822 L79.9240497,32.0330822 L79.9240497,39.9683562 L87.9073161,39.9683562 L87.9073161,31.8697089 L79.9007068,31.8697089 L79.9007068,24.1678253 L87.8839733,24.1678253 L87.8839733,16.1158562 L79.9007068,16.1158562 L79.9007068,24.0511301 L79.9007068,24.0511301 Z M47.8976122,63.4474315 L47.8976122,63.6341438 L47.8976122,63.4474315 Z M24.1578988,63.6341438 L24.1578988,63.4474315 L24.1578988,63.6341438 Z M71.8707545,31.8697089 L63.9341738,31.8697089 L63.9341738,24.1678253 L71.8707545,24.1678253 L71.8707545,31.8697089 L71.8707545,31.8697089 Z" id="Shape"></path>
                        <rect id="Rectangle-path" x="55.81085" y="63.8208562" width="8.07663801" height="8.05196918"></rect>
                    </g>
                </g>
            </g>
            <g id="noun_659379_cc-copy-25" transform="translate(937.000000, 65.500000) scale(-1, 1) translate(-937.000000, -65.500000) translate(885.000000, 22.000000)">
                <g id="Group">
                    <g>
                        <rect id="Rectangle-path" x="95.8905826" y="6.85025685" width="8.0999809" height="8.02863014"></rect>
                        <rect id="Rectangle-path" x="79.9007068" y="0.198630137" width="7.98326648" height="8.02863014"></rect>
                        <path d="M79.9007068,24.0511301 L71.8707545,24.0511301 L71.8707545,16.1158562 L63.8874881,16.1158562 L63.8874881,24.0511301 L56.0442789,24.0511301 L56.0442789,24.0511301 L56.0442789,16.1158562 L48.0376695,16.1158562 L48.0376695,24.0511301 L48.0376695,24.0978082 L40.1244317,24.0978082 L40.1244317,31.916387 L39.8910029,31.9864041 L31.9544222,31.9864041 L31.9544222,31.916387 L31.9544222,24.0978082 L23.9711557,24.0978082 L23.9711557,24.0511301 L23.9711557,16.1158562 L15.9645463,16.1158562 L15.9645463,24.0511301 L15.9645463,24.0511301 L8.0513085,24.0511301 L8.0513085,31.8697089 L0.208099331,31.8697089 L0.208099331,39.7349658 L0.208099331,39.9683562 L0.208099331,47.7169178 L8.12133715,47.7169178 L8.12133715,55.7455479 L15.9645463,55.7455479 L16.1279465,55.7455479 L16.1279465,63.7275 L24.0411843,63.7275 L24.0411843,71.6160959 L32.0011079,71.6160959 L32.0011079,79.5980479 L40.0077173,79.5980479 L40.0077173,71.5927568 L47.9909838,71.5927568 L47.9909838,63.704161 L55.9509074,63.704161 L55.9509074,55.7455479 L56.0676218,55.7455479 L63.9108309,55.7455479 L63.9108309,47.7169178 L71.8940974,47.7169178 L71.8940974,55.7455479 L79.9473926,55.7455479 L79.9473926,47.7169178 L71.8707545,47.7169178 L71.8707545,39.9683562 L71.8707545,39.7349658 L71.8707545,32.0330822 L79.9240497,32.0330822 L79.9240497,39.9683562 L87.9073161,39.9683562 L87.9073161,31.8697089 L79.9007068,31.8697089 L79.9007068,24.1678253 L87.8839733,24.1678253 L87.8839733,16.1158562 L79.9007068,16.1158562 L79.9007068,24.0511301 L79.9007068,24.0511301 Z M47.8976122,63.4474315 L47.8976122,63.6341438 L47.8976122,63.4474315 Z M24.1578988,63.6341438 L24.1578988,63.4474315 L24.1578988,63.6341438 Z M71.8707545,31.8697089 L63.9341738,31.8697089 L63.9341738,24.1678253 L71.8707545,24.1678253 L71.8707545,31.8697089 L71.8707545,31.8697089 Z" id="Shape"></path>
                        <rect id="Rectangle-path" x="55.81085" y="63.8208562" width="8.07663801" height="8.05196918"></rect>
                    </g>
                </g>
            </g>
            <g id="noun_659379_cc-copy-13" transform="translate(1137.000000, 65.500000) scale(-1, 1) translate(-1137.000000, -65.500000) translate(1085.000000, 22.000000)">
                <g id="Group">
                    <g>
                        <rect id="Rectangle-path" x="95.8905826" y="6.85025685" width="8.0999809" height="8.02863014"></rect>
                        <rect id="Rectangle-path" x="79.9007068" y="0.198630137" width="7.98326648" height="8.02863014"></rect>
                        <path d="M79.9007068,24.0511301 L71.8707545,24.0511301 L71.8707545,16.1158562 L63.8874881,16.1158562 L63.8874881,24.0511301 L56.0442789,24.0511301 L56.0442789,24.0511301 L56.0442789,16.1158562 L48.0376695,16.1158562 L48.0376695,24.0511301 L48.0376695,24.0978082 L40.1244317,24.0978082 L40.1244317,31.916387 L39.8910029,31.9864041 L31.9544222,31.9864041 L31.9544222,31.916387 L31.9544222,24.0978082 L23.9711557,24.0978082 L23.9711557,24.0511301 L23.9711557,16.1158562 L15.9645463,16.1158562 L15.9645463,24.0511301 L15.9645463,24.0511301 L8.0513085,24.0511301 L8.0513085,31.8697089 L0.208099331,31.8697089 L0.208099331,39.7349658 L0.208099331,39.9683562 L0.208099331,47.7169178 L8.12133715,47.7169178 L8.12133715,55.7455479 L15.9645463,55.7455479 L16.1279465,55.7455479 L16.1279465,63.7275 L24.0411843,63.7275 L24.0411843,71.6160959 L32.0011079,71.6160959 L32.0011079,79.5980479 L40.0077173,79.5980479 L40.0077173,71.5927568 L47.9909838,71.5927568 L47.9909838,63.704161 L55.9509074,63.704161 L55.9509074,55.7455479 L56.0676218,55.7455479 L63.9108309,55.7455479 L63.9108309,47.7169178 L71.8940974,47.7169178 L71.8940974,55.7455479 L79.9473926,55.7455479 L79.9473926,47.7169178 L71.8707545,47.7169178 L71.8707545,39.9683562 L71.8707545,39.7349658 L71.8707545,32.0330822 L79.9240497,32.0330822 L79.9240497,39.9683562 L87.9073161,39.9683562 L87.9073161,31.8697089 L79.9007068,31.8697089 L79.9007068,24.1678253 L87.8839733,24.1678253 L87.8839733,16.1158562 L79.9007068,16.1158562 L79.9007068,24.0511301 L79.9007068,24.0511301 Z M47.8976122,63.4474315 L47.8976122,63.6341438 L47.8976122,63.4474315 Z M24.1578988,63.6341438 L24.1578988,63.4474315 L24.1578988,63.6341438 Z M71.8707545,31.8697089 L63.9341738,31.8697089 L63.9341738,24.1678253 L71.8707545,24.1678253 L71.8707545,31.8697089 L71.8707545,31.8697089 Z" id="Shape"></path>
                        <rect id="Rectangle-path" x="55.81085" y="63.8208562" width="8.07663801" height="8.05196918"></rect>
                    </g>
                </g>
            </g>
            <g id="noun_659379_cc-copy-14" transform="translate(1205.000000, 65.500000) scale(-1, 1) translate(-1205.000000, -65.500000) translate(1153.000000, 22.000000)">
                <g id="Group">
                    <g>
                        <rect id="Rectangle-path" x="95.8905826" y="6.85025685" width="8.0999809" height="8.02863014"></rect>
                        <rect id="Rectangle-path" x="79.9007068" y="0.198630137" width="7.98326648" height="8.02863014"></rect>
                        <path d="M79.9007068,24.0511301 L71.8707545,24.0511301 L71.8707545,16.1158562 L63.8874881,16.1158562 L63.8874881,24.0511301 L56.0442789,24.0511301 L56.0442789,24.0511301 L56.0442789,16.1158562 L48.0376695,16.1158562 L48.0376695,24.0511301 L48.0376695,24.0978082 L40.1244317,24.0978082 L40.1244317,31.916387 L39.8910029,31.9864041 L31.9544222,31.9864041 L31.9544222,31.916387 L31.9544222,24.0978082 L23.9711557,24.0978082 L23.9711557,24.0511301 L23.9711557,16.1158562 L15.9645463,16.1158562 L15.9645463,24.0511301 L15.9645463,24.0511301 L8.0513085,24.0511301 L8.0513085,31.8697089 L0.208099331,31.8697089 L0.208099331,39.7349658 L0.208099331,39.9683562 L0.208099331,47.7169178 L8.12133715,47.7169178 L8.12133715,55.7455479 L15.9645463,55.7455479 L16.1279465,55.7455479 L16.1279465,63.7275 L24.0411843,63.7275 L24.0411843,71.6160959 L32.0011079,71.6160959 L32.0011079,79.5980479 L40.0077173,79.5980479 L40.0077173,71.5927568 L47.9909838,71.5927568 L47.9909838,63.704161 L55.9509074,63.704161 L55.9509074,55.7455479 L56.0676218,55.7455479 L63.9108309,55.7455479 L63.9108309,47.7169178 L71.8940974,47.7169178 L71.8940974,55.7455479 L79.9473926,55.7455479 L79.9473926,47.7169178 L71.8707545,47.7169178 L71.8707545,39.9683562 L71.8707545,39.7349658 L71.8707545,32.0330822 L79.9240497,32.0330822 L79.9240497,39.9683562 L87.9073161,39.9683562 L87.9073161,31.8697089 L79.9007068,31.8697089 L79.9007068,24.1678253 L87.8839733,24.1678253 L87.8839733,16.1158562 L79.9007068,16.1158562 L79.9007068,24.0511301 L79.9007068,24.0511301 Z M47.8976122,63.4474315 L47.8976122,63.6341438 L47.8976122,63.4474315 Z M24.1578988,63.6341438 L24.1578988,63.4474315 L24.1578988,63.6341438 Z M71.8707545,31.8697089 L63.9341738,31.8697089 L63.9341738,24.1678253 L71.8707545,24.1678253 L71.8707545,31.8697089 L71.8707545,31.8697089 Z" id="Shape"></path>
                        <rect id="Rectangle-path" x="55.81085" y="63.8208562" width="8.07663801" height="8.05196918"></rect>
                    </g>
                </g>
            </g>
            <g id="noun_659379_cc-copy-15" transform="translate(1287.000000, 21.500000) scale(-1, 1) translate(-1287.000000, -21.500000) translate(1235.000000, -22.000000)">
                <g id="Group">
                    <g>
                        <path d="M79.9007068,24.0511301 L71.8707545,24.0511301 L71.8707545,16.1158562 L63.8874881,16.1158562 L63.8874881,24.0511301 L56.0442789,24.0511301 L56.0442789,24.0511301 L56.0442789,16.1158562 L48.0376695,16.1158562 L48.0376695,24.0511301 L48.0376695,24.0978082 L40.1244317,24.0978082 L40.1244317,31.916387 L39.8910029,31.9864041 L31.9544222,31.9864041 L31.9544222,31.916387 L31.9544222,24.0978082 L23.9711557,24.0978082 L23.9711557,24.0511301 L23.9711557,16.1158562 L15.9645463,16.1158562 L15.9645463,24.0511301 L15.9645463,24.0511301 L8.0513085,24.0511301 L8.0513085,31.8697089 L0.208099331,31.8697089 L0.208099331,39.7349658 L0.208099331,39.9683562 L0.208099331,47.7169178 L8.12133715,47.7169178 L8.12133715,55.7455479 L15.9645463,55.7455479 L16.1279465,55.7455479 L16.1279465,63.7275 L24.0411843,63.7275 L24.0411843,71.6160959 L32.0011079,71.6160959 L32.0011079,79.5980479 L40.0077173,79.5980479 L40.0077173,71.5927568 L47.9909838,71.5927568 L47.9909838,63.704161 L55.9509074,63.704161 L55.9509074,55.7455479 L56.0676218,55.7455479 L63.9108309,55.7455479 L63.9108309,47.7169178 L71.8940974,47.7169178 L71.8940974,55.7455479 L79.9473926,55.7455479 L79.9473926,47.7169178 L71.8707545,47.7169178 L71.8707545,39.9683562 L71.8707545,39.7349658 L71.8707545,32.0330822 L79.9240497,32.0330822 L79.9240497,39.9683562 L87.9073161,39.9683562 L87.9073161,31.8697089 L79.9007068,31.8697089 L79.9007068,24.1678253 L87.8839733,24.1678253 L87.8839733,16.1158562 L79.9007068,16.1158562 L79.9007068,24.0511301 L79.9007068,24.0511301 Z M47.8976122,63.4474315 L47.8976122,63.6341438 L47.8976122,63.4474315 Z M24.1578988,63.6341438 L24.1578988,63.4474315 L24.1578988,63.6341438 Z M71.8707545,31.8697089 L63.9341738,31.8697089 L63.9341738,24.1678253 L71.8707545,24.1678253 L71.8707545,31.8697089 L71.8707545,31.8697089 Z" id="Shape"></path>
                        <rect id="Rectangle-path" x="55.81085" y="63.8208562" width="8.07663801" height="8.05196918"></rect>
                    </g>
                </g>
            </g>
            <g id="noun_659379_cc-copy-16" transform="translate(1360.000000, 43.500000) scale(-1, 1) translate(-1360.000000, -43.500000) translate(1308.000000, 0.000000)">
                <g id="Group">
                    <g>
                        <rect id="Rectangle-path" x="95.8905826" y="6.85025685" width="8.0999809" height="8.02863014"></rect>
                        <rect id="Rectangle-path" x="79.9007068" y="0.198630137" width="7.98326648" height="8.02863014"></rect>
                        <path d="M79.9007068,24.0511301 L71.8707545,24.0511301 L71.8707545,16.1158562 L63.8874881,16.1158562 L63.8874881,24.0511301 L56.0442789,24.0511301 L56.0442789,24.0511301 L56.0442789,16.1158562 L48.0376695,16.1158562 L48.0376695,24.0511301 L48.0376695,24.0978082 L40.1244317,24.0978082 L40.1244317,31.916387 L39.8910029,31.9864041 L31.9544222,31.9864041 L31.9544222,31.916387 L31.9544222,24.0978082 L23.9711557,24.0978082 L23.9711557,24.0511301 L23.9711557,16.1158562 L15.9645463,16.1158562 L15.9645463,24.0511301 L15.9645463,24.0511301 L8.0513085,24.0511301 L8.0513085,31.8697089 L0.208099331,31.8697089 L0.208099331,39.7349658 L0.208099331,39.9683562 L0.208099331,47.7169178 L8.12133715,47.7169178 L8.12133715,55.7455479 L15.9645463,55.7455479 L16.1279465,55.7455479 L16.1279465,63.7275 L24.0411843,63.7275 L24.0411843,71.6160959 L32.0011079,71.6160959 L32.0011079,79.5980479 L40.0077173,79.5980479 L40.0077173,71.5927568 L47.9909838,71.5927568 L47.9909838,63.704161 L55.9509074,63.704161 L55.9509074,55.7455479 L56.0676218,55.7455479 L63.9108309,55.7455479 L63.9108309,47.7169178 L71.8940974,47.7169178 L71.8940974,55.7455479 L79.9473926,55.7455479 L79.9473926,47.7169178 L71.8707545,47.7169178 L71.8707545,39.9683562 L71.8707545,39.7349658 L71.8707545,32.0330822 L79.9240497,32.0330822 L79.9240497,39.9683562 L87.9073161,39.9683562 L87.9073161,31.8697089 L79.9007068,31.8697089 L79.9007068,24.1678253 L87.8839733,24.1678253 L87.8839733,16.1158562 L79.9007068,16.1158562 L79.9007068,24.0511301 L79.9007068,24.0511301 Z M47.8976122,63.4474315 L47.8976122,63.6341438 L47.8976122,63.4474315 Z M24.1578988,63.6341438 L24.1578988,63.4474315 L24.1578988,63.6341438 Z M71.8707545,31.8697089 L63.9341738,31.8697089 L63.9341738,24.1678253 L71.8707545,24.1678253 L71.8707545,31.8697089 L71.8707545,31.8697089 Z" id="Shape"></path>
                        <rect id="Rectangle-path" x="55.81085" y="63.8208562" width="8.07663801" height="8.05196918"></rect>
                    </g>
                </g>
            </g>
            <g id="noun_659379_cc-copy-19" transform="translate(1330.000000, 31.500000) scale(-1, 1) translate(-1330.000000, -31.500000) translate(1278.000000, -12.000000)">
                <g id="Group">
                    <g>
                        <rect id="Rectangle-path" x="95.8905826" y="6.85025685" width="8.0999809" height="8.02863014"></rect>
                        <path d="M79.9007068,24.0511301 L71.8707545,24.0511301 L71.8707545,16.1158562 L63.8874881,16.1158562 L63.8874881,24.0511301 L56.0442789,24.0511301 L56.0442789,24.0511301 L56.0442789,16.1158562 L48.0376695,16.1158562 L48.0376695,24.0511301 L48.0376695,24.0978082 L40.1244317,24.0978082 L40.1244317,31.916387 L39.8910029,31.9864041 L31.9544222,31.9864041 L31.9544222,31.916387 L31.9544222,24.0978082 L23.9711557,24.0978082 L23.9711557,24.0511301 L23.9711557,16.1158562 L15.9645463,16.1158562 L15.9645463,24.0511301 L15.9645463,24.0511301 L8.0513085,24.0511301 L8.0513085,31.8697089 L0.208099331,31.8697089 L0.208099331,39.7349658 L0.208099331,39.9683562 L0.208099331,47.7169178 L8.12133715,47.7169178 L8.12133715,55.7455479 L15.9645463,55.7455479 L16.1279465,55.7455479 L16.1279465,63.7275 L24.0411843,63.7275 L24.0411843,71.6160959 L32.0011079,71.6160959 L32.0011079,79.5980479 L40.0077173,79.5980479 L40.0077173,71.5927568 L47.9909838,71.5927568 L47.9909838,63.704161 L55.9509074,63.704161 L55.9509074,55.7455479 L56.0676218,55.7455479 L63.9108309,55.7455479 L63.9108309,47.7169178 L71.8940974,47.7169178 L71.8940974,55.7455479 L79.9473926,55.7455479 L79.9473926,47.7169178 L71.8707545,47.7169178 L71.8707545,39.9683562 L71.8707545,39.7349658 L71.8707545,32.0330822 L79.9240497,32.0330822 L79.9240497,39.9683562 L87.9073161,39.9683562 L87.9073161,31.8697089 L79.9007068,31.8697089 L79.9007068,24.1678253 L87.8839733,24.1678253 L87.8839733,16.1158562 L79.9007068,16.1158562 L79.9007068,24.0511301 L79.9007068,24.0511301 Z M47.8976122,63.4474315 L47.8976122,63.6341438 L47.8976122,63.4474315 Z M24.1578988,63.6341438 L24.1578988,63.4474315 L24.1578988,63.6341438 Z M71.8707545,31.8697089 L63.9341738,31.8697089 L63.9341738,24.1678253 L71.8707545,24.1678253 L71.8707545,31.8697089 L71.8707545,31.8697089 Z" id="Shape"></path>
                        <rect id="Rectangle-path" x="55.81085" y="63.8208562" width="8.07663801" height="8.05196918"></rect>
                    </g>
                </g>
            </g>
            <g id="noun_659379_cc-copy-20" transform="translate(1235.000000, 65.500000) scale(-1, 1) translate(-1235.000000, -65.500000) translate(1183.000000, 22.000000)">
                <g id="Group">
                    <g>
                        <rect id="Rectangle-path" x="95.8905826" y="6.85025685" width="8.0999809" height="8.02863014"></rect>
                        <rect id="Rectangle-path" x="79.9007068" y="0.198630137" width="7.98326648" height="8.02863014"></rect>
                        <path d="M79.9007068,24.0511301 L71.8707545,24.0511301 L71.8707545,16.1158562 L63.8874881,16.1158562 L63.8874881,24.0511301 L56.0442789,24.0511301 L56.0442789,24.0511301 L56.0442789,16.1158562 L48.0376695,16.1158562 L48.0376695,24.0511301 L48.0376695,24.0978082 L40.1244317,24.0978082 L40.1244317,31.916387 L39.8910029,31.9864041 L31.9544222,31.9864041 L31.9544222,31.916387 L31.9544222,24.0978082 L23.9711557,24.0978082 L23.9711557,24.0511301 L23.9711557,16.1158562 L15.9645463,16.1158562 L15.9645463,24.0511301 L15.9645463,24.0511301 L8.0513085,24.0511301 L8.0513085,31.8697089 L0.208099331,31.8697089 L0.208099331,39.7349658 L0.208099331,39.9683562 L0.208099331,47.7169178 L8.12133715,47.7169178 L8.12133715,55.7455479 L15.9645463,55.7455479 L16.1279465,55.7455479 L16.1279465,63.7275 L24.0411843,63.7275 L24.0411843,71.6160959 L32.0011079,71.6160959 L32.0011079,79.5980479 L40.0077173,79.5980479 L40.0077173,71.5927568 L47.9909838,71.5927568 L47.9909838,63.704161 L55.9509074,63.704161 L55.9509074,55.7455479 L56.0676218,55.7455479 L63.9108309,55.7455479 L63.9108309,47.7169178 L71.8940974,47.7169178 L71.8940974,55.7455479 L79.9473926,55.7455479 L79.9473926,47.7169178 L71.8707545,47.7169178 L71.8707545,39.9683562 L71.8707545,39.7349658 L71.8707545,32.0330822 L79.9240497,32.0330822 L79.9240497,39.9683562 L87.9073161,39.9683562 L87.9073161,31.8697089 L79.9007068,31.8697089 L79.9007068,24.1678253 L87.8839733,24.1678253 L87.8839733,16.1158562 L79.9007068,16.1158562 L79.9007068,24.0511301 L79.9007068,24.0511301 Z M47.8976122,63.4474315 L47.8976122,63.6341438 L47.8976122,63.4474315 Z M24.1578988,63.6341438 L24.1578988,63.4474315 L24.1578988,63.6341438 Z M71.8707545,31.8697089 L63.9341738,31.8697089 L63.9341738,24.1678253 L71.8707545,24.1678253 L71.8707545,31.8697089 L71.8707545,31.8697089 Z" id="Shape"></path>
                        <rect id="Rectangle-path" x="55.81085" y="63.8208562" width="8.07663801" height="8.05196918"></rect>
                    </g>
                </g>
            </g>
            <g id="noun_659379_cc-copy-21" transform="translate(1183.000000, 21.500000) scale(-1, 1) translate(-1183.000000, -21.500000) translate(1131.000000, -22.000000)">
                <g id="Group">
                    <g>
                        <path d="M79.9007068,24.0511301 L71.8707545,24.0511301 L71.8707545,16.1158562 L63.8874881,16.1158562 L63.8874881,24.0511301 L56.0442789,24.0511301 L56.0442789,24.0511301 L56.0442789,16.1158562 L48.0376695,16.1158562 L48.0376695,24.0511301 L48.0376695,24.0978082 L40.1244317,24.0978082 L40.1244317,31.916387 L39.8910029,31.9864041 L31.9544222,31.9864041 L31.9544222,31.916387 L31.9544222,24.0978082 L23.9711557,24.0978082 L23.9711557,24.0511301 L23.9711557,16.1158562 L15.9645463,16.1158562 L15.9645463,24.0511301 L15.9645463,24.0511301 L8.0513085,24.0511301 L8.0513085,31.8697089 L0.208099331,31.8697089 L0.208099331,39.7349658 L0.208099331,39.9683562 L0.208099331,47.7169178 L8.12133715,47.7169178 L8.12133715,55.7455479 L15.9645463,55.7455479 L16.1279465,55.7455479 L16.1279465,63.7275 L24.0411843,63.7275 L24.0411843,71.6160959 L32.0011079,71.6160959 L32.0011079,79.5980479 L40.0077173,79.5980479 L40.0077173,71.5927568 L47.9909838,71.5927568 L47.9909838,63.704161 L55.9509074,63.704161 L55.9509074,55.7455479 L56.0676218,55.7455479 L63.9108309,55.7455479 L63.9108309,47.7169178 L71.8940974,47.7169178 L71.8940974,55.7455479 L79.9473926,55.7455479 L79.9473926,47.7169178 L71.8707545,47.7169178 L71.8707545,39.9683562 L71.8707545,39.7349658 L71.8707545,32.0330822 L79.9240497,32.0330822 L79.9240497,39.9683562 L87.9073161,39.9683562 L87.9073161,31.8697089 L79.9007068,31.8697089 L79.9007068,24.1678253 L87.8839733,24.1678253 L87.8839733,16.1158562 L79.9007068,16.1158562 L79.9007068,24.0511301 L79.9007068,24.0511301 Z M47.8976122,63.4474315 L47.8976122,63.6341438 L47.8976122,63.4474315 Z M24.1578988,63.6341438 L24.1578988,63.4474315 L24.1578988,63.6341438 Z M71.8707545,31.8697089 L63.9341738,31.8697089 L63.9341738,24.1678253 L71.8707545,24.1678253 L71.8707545,31.8697089 L71.8707545,31.8697089 Z" id="Shape"></path>
                        <rect id="Rectangle-path" x="55.81085" y="63.8208562" width="8.07663801" height="8.05196918"></rect>
                    </g>
                </g>
            </g>
            <g id="noun_659379_cc-copy-22" transform="translate(1131.000000, 21.500000) scale(-1, 1) translate(-1131.000000, -21.500000) translate(1079.000000, -22.000000)">
                <g id="Group">
                    <g>
                        <path d="M79.9007068,24.0511301 L71.8707545,24.0511301 L71.8707545,16.1158562 L63.8874881,16.1158562 L63.8874881,24.0511301 L56.0442789,24.0511301 L56.0442789,24.0511301 L56.0442789,16.1158562 L48.0376695,16.1158562 L48.0376695,24.0511301 L48.0376695,24.0978082 L40.1244317,24.0978082 L40.1244317,31.916387 L39.8910029,31.9864041 L31.9544222,31.9864041 L31.9544222,31.916387 L31.9544222,24.0978082 L23.9711557,24.0978082 L23.9711557,24.0511301 L23.9711557,16.1158562 L15.9645463,16.1158562 L15.9645463,24.0511301 L15.9645463,24.0511301 L8.0513085,24.0511301 L8.0513085,31.8697089 L0.208099331,31.8697089 L0.208099331,39.7349658 L0.208099331,39.9683562 L0.208099331,47.7169178 L8.12133715,47.7169178 L8.12133715,55.7455479 L15.9645463,55.7455479 L16.1279465,55.7455479 L16.1279465,63.7275 L24.0411843,63.7275 L24.0411843,71.6160959 L32.0011079,71.6160959 L32.0011079,79.5980479 L40.0077173,79.5980479 L40.0077173,71.5927568 L47.9909838,71.5927568 L47.9909838,63.704161 L55.9509074,63.704161 L55.9509074,55.7455479 L56.0676218,55.7455479 L63.9108309,55.7455479 L63.9108309,47.7169178 L71.8940974,47.7169178 L71.8940974,55.7455479 L79.9473926,55.7455479 L79.9473926,47.7169178 L71.8707545,47.7169178 L71.8707545,39.9683562 L71.8707545,39.7349658 L71.8707545,32.0330822 L79.9240497,32.0330822 L79.9240497,39.9683562 L87.9073161,39.9683562 L87.9073161,31.8697089 L79.9007068,31.8697089 L79.9007068,24.1678253 L87.8839733,24.1678253 L87.8839733,16.1158562 L79.9007068,16.1158562 L79.9007068,24.0511301 L79.9007068,24.0511301 Z M47.8976122,63.4474315 L47.8976122,63.6341438 L47.8976122,63.4474315 Z M24.1578988,63.6341438 L24.1578988,63.4474315 L24.1578988,63.6341438 Z M71.8707545,31.8697089 L63.9341738,31.8697089 L63.9341738,24.1678253 L71.8707545,24.1678253 L71.8707545,31.8697089 L71.8707545,31.8697089 Z" id="Shape"></path>
                        <rect id="Rectangle-path" x="55.81085" y="63.8208562" width="8.07663801" height="8.05196918"></rect>
                    </g>
                </g>
            </g>
            <g id="noun_659379_cc-copy-23" transform="translate(1121.000000, 43.500000) scale(-1, 1) translate(-1121.000000, -43.500000) translate(1069.000000, 0.000000)">
                <g id="Group">
                    <g>
                        <rect id="Rectangle-path" x="95.8905826" y="6.85025685" width="8.0999809" height="8.02863014"></rect>
                        <rect id="Rectangle-path" x="79.9007068" y="0.198630137" width="7.98326648" height="8.02863014"></rect>
                        <path d="M79.9007068,24.0511301 L71.8707545,24.0511301 L71.8707545,16.1158562 L63.8874881,16.1158562 L63.8874881,24.0511301 L56.0442789,24.0511301 L56.0442789,24.0511301 L56.0442789,16.1158562 L48.0376695,16.1158562 L48.0376695,24.0511301 L48.0376695,24.0978082 L40.1244317,24.0978082 L40.1244317,31.916387 L39.8910029,31.9864041 L31.9544222,31.9864041 L31.9544222,31.916387 L31.9544222,24.0978082 L23.9711557,24.0978082 L23.9711557,24.0511301 L23.9711557,16.1158562 L15.9645463,16.1158562 L15.9645463,24.0511301 L15.9645463,24.0511301 L8.0513085,24.0511301 L8.0513085,31.8697089 L0.208099331,31.8697089 L0.208099331,39.7349658 L0.208099331,39.9683562 L0.208099331,47.7169178 L8.12133715,47.7169178 L8.12133715,55.7455479 L15.9645463,55.7455479 L16.1279465,55.7455479 L16.1279465,63.7275 L24.0411843,63.7275 L24.0411843,71.6160959 L32.0011079,71.6160959 L32.0011079,79.5980479 L40.0077173,79.5980479 L40.0077173,71.5927568 L47.9909838,71.5927568 L47.9909838,63.704161 L55.9509074,63.704161 L55.9509074,55.7455479 L56.0676218,55.7455479 L63.9108309,55.7455479 L63.9108309,47.7169178 L71.8940974,47.7169178 L71.8940974,55.7455479 L79.9473926,55.7455479 L79.9473926,47.7169178 L71.8707545,47.7169178 L71.8707545,39.9683562 L71.8707545,39.7349658 L71.8707545,32.0330822 L79.9240497,32.0330822 L79.9240497,39.9683562 L87.9073161,39.9683562 L87.9073161,31.8697089 L79.9007068,31.8697089 L79.9007068,24.1678253 L87.8839733,24.1678253 L87.8839733,16.1158562 L79.9007068,16.1158562 L79.9007068,24.0511301 L79.9007068,24.0511301 Z M47.8976122,63.4474315 L47.8976122,63.6341438 L47.8976122,63.4474315 Z M24.1578988,63.6341438 L24.1578988,63.4474315 L24.1578988,63.6341438 Z M71.8707545,31.8697089 L63.9341738,31.8697089 L63.9341738,24.1678253 L71.8707545,24.1678253 L71.8707545,31.8697089 L71.8707545,31.8697089 Z" id="Shape"></path>
                        <rect id="Rectangle-path" x="55.81085" y="63.8208562" width="8.07663801" height="8.05196918"></rect>
                    </g>
                </g>
            </g>
        </g>
    </g>
</svg>