<?xml version="1.0" encoding="UTF-8" standalone="no"?>
<svg width="60px" height="15px" viewBox="0 0 60 15" version="1.1" xmlns="http://www.w3.org/2000/svg" xmlns:xlink="http://www.w3.org/1999/xlink">
    <!-- Generator: Sketch 39.1 (31720) - http://www.bohemiancoding.com/sketch -->
    <title>map_ascii</title>
    <desc>Created with Sketch.</desc>
    <defs></defs>
    <g id="ui" stroke="none" stroke-width="1" fill="none" fill-rule="evenodd">
        <g id="map" transform="translate(-151.000000, -657.000000)" fill="#FFFFFF">
            <g id="map_ascii" transform="translate(151.000000, 657.000000)">
                <path d="M5.124024,13.449219 L5.124024,12.047364 L5.983399,12.047364 L5.983399,13.449219 L5.124024,13.449219 Z M1.708008,13.449219 L1.708008,12.047364 L2.562012,12.047364 L2.562012,13.449219 L1.708008,13.449219 Z M3.416016,11.48877 L3.416016,10.086914 L4.27002,10.086914 L4.27002,11.48877 L3.416016,11.48877 Z M0,11.48877 L0,10.086914 L0.848633,10.086914 L0.848633,11.48877 L0,11.48877 Z M5.124024,9.522949 L5.124024,8.121094 L5.983399,8.121094 L5.983399,9.522949 L5.124024,9.522949 Z M1.708008,9.522949 L1.708008,8.121094 L2.562012,8.121094 L2.562012,9.522949 L1.708008,9.522949 Z M3.416016,7.5625 L3.416016,6.160645 L4.27002,6.160645 L4.27002,7.5625 L3.416016,7.5625 Z M0,7.5625 L0,6.160645 L0.848633,6.160645 L0.848633,7.5625 L0,7.5625 Z M5.124024,5.59668 L5.124024,4.194824 L5.983399,4.194824 L5.983399,5.59668 L5.124024,5.59668 Z M1.708008,5.59668 L1.708008,4.194824 L2.562012,4.194824 L2.562012,5.59668 L1.708008,5.59668 Z M3.416016,3.636231 L3.416016,2.234375 L4.27002,2.234375 L4.27002,3.636231 L3.416016,3.636231 Z M0,3.636231 L0,2.234375 L0.848633,2.234375 L0.848633,3.636231 L0,3.636231 Z" id="Shape"></path>
                <path d="M12.124024,13.449219 L12.124024,12.047364 L12.983399,12.047364 L12.983399,13.449219 L12.124024,13.449219 Z M8.708008,13.449219 L8.708008,12.047364 L9.562012,12.047364 L9.562012,13.449219 L8.708008,13.449219 Z M10.416016,11.48877 L10.416016,10.086914 L11.27002,10.086914 L11.27002,11.48877 L10.416016,11.48877 Z M7,11.48877 L7,10.086914 L7.848633,10.086914 L7.848633,11.48877 L7,11.48877 Z M12.124024,9.522949 L12.124024,8.121094 L12.983399,8.121094 L12.983399,9.522949 L12.124024,9.522949 Z M8.708008,9.522949 L8.708008,8.121094 L9.562012,8.121094 L9.562012,9.522949 L8.708008,9.522949 Z M10.416016,7.5625 L10.416016,6.160645 L11.27002,6.160645 L11.27002,7.5625 L10.416016,7.5625 Z M7,7.5625 L7,6.160645 L7.848633,6.160645 L7.848633,7.5625 L7,7.5625 Z M12.124024,5.59668 L12.124024,4.194824 L12.983399,4.194824 L12.983399,5.59668 L12.124024,5.59668 Z M8.708008,5.59668 L8.708008,4.194824 L9.562012,4.194824 L9.562012,5.59668 L8.708008,5.59668 Z M10.416016,3.636231 L10.416016,2.234375 L11.27002,2.234375 L11.27002,3.636231 L10.416016,3.636231 Z M7,3.636231 L7,2.234375 L7.848633,2.234375 L7.848633,3.636231 L7,3.636231 Z" id="Shape"></path>
                <path d="M17.421387,13.449219 L17.421387,7.841797 L20.837402,7.841797 L20.837402,13.449219 L17.421387,13.449219 Z M14,7.841797 L14,2.234375 L17.416016,2.234375 L17.416016,7.841797 L14,7.841797 Z" id="Shape"></path>
                <path d="M24.421387,13.449219 L24.421387,7.841797 L27.837402,7.841797 L27.837402,13.449219 L24.421387,13.449219 Z M21,7.841797 L21,2.234375 L24.416016,2.234375 L24.416016,7.841797 L21,7.841797 Z" id="Shape"></path>
                <polygon id="Shape" points="35.31543 14.018555 34.359375 14.018555 27.521973 0 28.478027 0"></polygon>
                <polygon id="Shape" points="42.31543 14.018555 41.359375 14.018555 34.521973 0 35.478027 0"></polygon>
                <path d="M45.421387,13.449219 L45.421387,7.841797 L48.837402,7.841797 L48.837402,13.449219 L45.421387,13.449219 Z M42,7.841797 L42,2.234375 L45.416016,2.234375 L45.416016,7.841797 L42,7.841797 Z" id="Shape"></path>
                <path d="M56.845703,7.111328 L56.845703,0 L57.705078,0 L57.705078,6.1875 L59.837402,6.1875 L59.837402,7.111328 L56.845703,7.111328 Z M55.126953,8.958985 L55.126953,0 L55.986328,0 L55.986328,8.035157 L59.837402,8.035157 L59.837402,8.958985 L55.126953,8.958985 Z" id="Shape"></path>
            </g>
        </g>
    </g>
</svg>