<?xml version="1.0" encoding="UTF-8" standalone="no"?>
<svg width="180px" height="80px" viewBox="0 0 180 80" version="1.1" xmlns="http://www.w3.org/2000/svg" xmlns:xlink="http://www.w3.org/1999/xlink">
    <!-- Generator: Sketch 39.1 (31720) - http://www.bohemiancoding.com/sketch -->
    <title>mobiletea</title>
    <desc>Created with Sketch.</desc>
    <defs></defs>
    <g id="logos" stroke="none" stroke-width="1" fill="none" fill-rule="evenodd">
        <g id="mobiletea" fill="#FFFFFF">
            <g id="Group" transform="translate(47.804348, 9.502415)">
                <g id="mobiletea_logo" transform="translate(0.000000, 0.000000)">
                    <path d="M17.4392794,1.41744895 C18.2782086,-0.573909551 21.4193155,-0.476293938 21.8290251,1.76886516 C24.3067926,14.0489093 24.3848326,27.0903552 29.9061571,38.5699512 C30.5304765,38.218535 30.5304765,37.261902 30.8036162,36.6371621 C32.3839247,29.1793293 32.3644147,21.5067421 33.4959936,13.9903399 C34.081293,9.69525293 34.4714926,5.10731912 36.9297502,1.39792583 C37.8272093,0.0313072495 39.9928172,-0.300585834 40.9292963,1.18317148 C42.0998951,3.19405311 42.5096047,5.53682782 42.8802943,7.82103316 C44.245993,17.0749933 45.2019821,26.4460921 47.8163195,35.4657747 C50.1380072,27.0317858 50.0209473,17.6802101 53.2791141,9.36335985 C53.8449035,7.41104759 56.6153208,6.25918335 57.8249396,8.2895881 C61.8635057,15.0055423 61.3952661,23.5761931 65.589912,30.2140548 C66.8190408,29.452653 67.3263003,27.7931876 68.1652294,26.6022771 C71.8916358,19.2811061 75.2668624,11.6085189 80.5930872,5.2635041 C81.5490763,4.42400983 83.0903647,2.76454441 84.3585135,3.79926991 C84.7877331,6.2982296 82.7586951,8.44577308 81.3539765,10.3199929 C76.0862816,16.7040539 73.0817446,24.5523492 68.3213093,31.2487803 C67.1897304,33.2401388 64.2437233,33.8063093 62.8975346,31.7173352 C58.6638688,25.626121 59.5418179,17.3678401 56.420221,10.9447328 C54.5082429,19.0077824 52.8889145,27.1294014 51.2110561,35.2119742 C50.5672268,37.0081014 50.313597,39.2727836 48.5186788,40.3270323 C46.294541,41.0103416 44.8898224,38.7261362 44.1874631,36.9885783 C40.6171366,26.8170314 41.4755757,15.5717128 39.4270278,5.2635041 C36.9102402,15.435051 36.3834707,25.958014 34.2568828,36.2076534 C33.6325635,38.4723356 33.1448139,41.3812809 30.8426362,42.5526682 C27.8576091,43.6069169 25.926121,40.3660785 24.950622,38.0428269 C20.931566,27.539387 20.892546,16.0988371 19.6634172,5.04874975 C16.0345608,12.7994294 15.1761216,21.5457883 13.751893,29.9212079 C13.5763032,32.322552 12.0155048,36.0514684 9.03047769,34.2748643 C5.53819113,32.5568295 2.55316407,29.9797773 0.0558865301,27.0317858 C-0.275783143,26.1922915 0.953345646,25.5089822 1.51913509,26.1727684 C4.07494257,28.5350662 6.86486982,30.6826097 10.0254867,32.1273208 C10.9229458,32.5373064 10.9229458,31.1511647 11.0985357,30.6045172 C12.5617842,20.8039097 12.4837443,10.2809466 17.4392794,1.41744895 L17.4392794,1.41744895 Z" id="Fill-3"></path>
                </g>
            </g>
            <path d="M54.15,66 L52.97,66 L52.97,59.01 L54.81,59.01 L56.92,63.4 L59.03,59.01 L60.86,59.01 L60.86,66 L59.68,66 L59.68,60.54 L57.24,65.39 L56.58,65.39 L54.15,60.54 L54.15,66 Z M68.03,59.92 C67.3366632,59.92 66.7516691,60.1666642 66.275,60.66 C65.798331,61.1533358 65.56,61.7516631 65.56,62.455 C65.56,63.1583368 65.798331,63.7566642 66.275,64.25 C66.7516691,64.7433358 67.3366632,64.99 68.03,64.99 C68.7233368,64.99 69.3083309,64.7433358 69.785,64.25 C70.261669,63.7566642 70.5,63.1583368 70.5,62.455 C70.5,61.7516631 70.261669,61.1533358 69.785,60.66 C69.3083309,60.1666642 68.7233368,59.92 68.03,59.92 L68.03,59.92 Z M68.03,66.07 C66.9899948,66.07 66.1166702,65.7250035 65.41,65.035 C64.7033298,64.3449966 64.35,63.4850051 64.35,62.455 C64.35,61.4249949 64.7033298,60.5650034 65.41,59.875 C66.1166702,59.1849966 66.9899948,58.84 68.03,58.84 C69.0700052,58.84 69.9433298,59.1849966 70.65,59.875 C71.3566702,60.5650034 71.71,61.4249949 71.71,62.455 C71.71,63.4850051 71.3566702,64.3449966 70.65,65.035 C69.9433298,65.7250035 69.0700052,66.07 68.03,66.07 L68.03,66.07 Z M78.26,66 L75.2,66 L75.2,59.01 L77.92,59.01 C78.3933357,59.01 78.801665,59.0666661 79.145,59.18 C79.488335,59.2933339 79.7433325,59.4466657 79.91,59.64 C80.2300016,60.0000018 80.39,60.4066644 80.39,60.86 C80.39,61.4066694 80.2166684,61.813332 79.87,62.08 C79.7433327,62.1733338 79.6566669,62.2316665 79.61,62.255 C79.5633331,62.2783334 79.4800006,62.3166664 79.36,62.37 C79.7933355,62.4633338 80.1383321,62.6583318 80.395,62.955 C80.651668,63.2516682 80.78,63.6199978 80.78,64.06 C80.78,64.5466691 80.613335,64.9766648 80.28,65.35 C79.8866647,65.7833355 79.2133381,66 78.26,66 L78.26,66 Z M76.38,61.91 L77.88,61.91 C78.7333376,61.91 79.16,61.6200029 79.16,61.04 C79.16,60.706665 79.0566677,60.4666674 78.85,60.32 C78.6433323,60.1733326 78.3233355,60.1 77.89,60.1 L76.38,60.1 L76.38,61.91 Z M76.38,64.91 L78.23,64.91 C78.6633355,64.91 78.9949989,64.8416673 79.225,64.705 C79.4550012,64.5683327 79.57,64.3100019 79.57,63.93 C79.57,63.3099969 79.0733383,63 78.08,63 L76.38,63 L76.38,64.91 Z M84.26,59.01 L85.44,59.01 L85.44,66 L84.26,66 L84.26,59.01 Z M89.38,66 L89.38,59.01 L90.56,59.01 L90.56,64.88 L93.75,64.88 L93.75,66 L89.38,66 Z M101.95,59.01 L101.95,60.12 L98.22,60.12 L98.22,61.97 L101.57,61.97 L101.57,63.02 L98.22,63.02 L98.22,64.89 L102.07,64.89 L102.07,66 L97.04,66 L97.04,59.01 L101.95,59.01 Z M108.22,60.09 L108.22,66 L107.04,66 L107.04,60.09 L104.92,60.09 L104.92,59.01 L110.34,59.01 L110.34,60.09 L108.22,60.09 Z M118.53,59.01 L118.53,60.12 L114.8,60.12 L114.8,61.97 L118.15,61.97 L118.15,63.02 L114.8,63.02 L114.8,64.89 L118.65,64.89 L118.65,66 L113.62,66 L113.62,59.01 L118.53,59.01 Z M123.15,64.41 L122.45,66 L121.19,66 L124.27,59.01 L125.53,59.01 L128.61,66 L127.35,66 L126.65,64.41 L123.15,64.41 Z M126.17,63.32 L124.9,60.44 L123.63,63.32 L126.17,63.32 Z" id="MOBILETEA"></path>
        </g>
    </g>
</svg>