<?xml version="1.0" encoding="UTF-8" standalone="no"?>
<svg width="180px" height="80px" viewBox="0 0 180 80" version="1.1" xmlns="http://www.w3.org/2000/svg" xmlns:xlink="http://www.w3.org/1999/xlink">
    <!-- Generator: Sketch 39.1 (31720) - http://www.bohemiancoding.com/sketch -->
    <title>new_england_engineers</title>
    <desc>Created with Sketch.</desc>
    <defs></defs>
    <g id="logos" stroke="none" stroke-width="1" fill="none" fill-rule="evenodd">
        <g id="new_england_engineers" fill="#FFFFFF">
            <g id="Group-2" transform="translate(37.000000, 28.000000)">
                <g id="#15284eff">
                    <path d="M90.8824655,0.781411765 C93.3819461,-0.214588235 96.2486456,-0.230823529 98.759382,0.736235294 C101.188514,1.65882353 103.239875,3.38258824 104.87407,5.37952941 C105.661972,6.35082353 106.371085,7.38917647 106.95568,8.49670588 C105.852617,10.5571765 104.375299,12.4242353 102.601111,13.9447059 C101.491716,14.8828235 100.249362,15.6748235 98.8951545,16.2063529 C96.3056279,17.244 93.3207429,17.2270588 90.743879,16.1576471 C88.3407758,15.18 86.32881,13.4230588 84.7206443,11.4105882 C84.0080145,10.4929412 83.3256345,9.53505882 82.8149047,8.48894118 C83.3783958,7.38494118 84.0952465,6.36352941 84.869783,5.39858824 C86.4828731,3.42847059 88.4941354,1.71529412 90.8824655,0.781411765 L90.8824655,0.781411765 Z M90.0917488,3.63670588 C87.8441157,4.70329412 85.919382,6.42494118 84.5412558,8.49529412 C84.7030572,8.75082353 84.8789283,8.99788235 85.0625378,9.23858824 C86.6193491,11.2545882 88.696739,12.9098824 91.1026561,13.7738824 C93.7217291,14.7232941 96.6904339,14.6357647 99.2518212,13.5416471 C101.679546,12.5025882 103.754826,10.6934118 105.218074,8.49882353 C105.007028,8.17058824 104.779099,7.85435294 104.535694,7.55011765 C102.942301,5.55811765 100.829034,3.94094118 98.3999014,3.13270588 C95.7006312,2.22494118 92.6636884,2.41694118 90.0917488,3.63670588 L90.0917488,3.63670588 Z" id="Shape"></path>
                    <path d="M0.588113083,0.656470588 C0.994727153,0.310588235 1.56595661,0.252705882 2.07598291,0.318352941 C2.65424721,0.405176471 3.13332018,0.830823529 3.38024326,1.34964706 C4.38763314,3.55058824 5.3908021,5.75435294 6.39889546,7.95529412 C6.40522682,5.48541176 6.39959895,3.01623529 6.4017094,0.546352941 C7.2578501,0.546352941 8.1139908,0.545647059 8.97013149,0.546352941 C8.97153846,4.248 8.97013149,7.94964706 8.97083498,11.652 C8.96661407,12.1510588 8.86390533,12.6832941 8.52623274,13.0687059 C8.16112426,13.4774118 7.5673833,13.5938824 7.04469428,13.5183529 C6.46713346,13.4096471 5.99017094,12.972 5.75168968,12.4432941 C4.69575937,10.1167059 3.64193951,7.78870588 2.58530572,5.46211765 C2.58741617,8.07105882 2.5860092,10.68 2.5860092,13.2889412 L0.0168836292,13.2889412 C0.0161801446,9.56541176 0.0175871137,5.84188235 0.0161801446,2.11835294 C0.0239184747,1.58823529 0.168132807,1.01152941 0.588113083,0.656470588 L0.588113083,0.656470588 Z" id="Shape"></path>
                    <path d="M30.0943655,2.46352941 C30.1063248,1.42870588 31.054622,0.551294118 32.0711571,0.546352941 C33.4809402,0.545647059 34.8900197,0.546352941 36.2998028,0.546352941 L36.2998028,3.16023529 C35.1453846,3.15952941 33.9909665,3.15952941 32.8365483,3.16023529 C32.8358448,3.88235294 32.8365483,4.60517647 32.8358448,5.328 C33.9325773,5.328 35.0286062,5.328 36.1253386,5.32870588 C36.1253386,6.14682353 36.1253386,6.96494118 36.1246351,7.78305882 L32.8365483,7.78305882 C32.8365483,8.74729412 32.8358448,9.71152941 32.8365483,10.6750588 C33.9909665,10.6750588 35.1453846,10.6757647 36.2998028,10.6750588 L36.2998028,13.2889412 C34.8914267,13.2889412 33.4837541,13.2896471 32.075378,13.2889412 C31.2424523,13.2938824 30.4531427,12.7101176 30.1963708,11.9174118 C30.0781854,11.5807059 30.0866272,11.22 30.0901446,10.8684706 C30.0936621,8.06682353 30.0859237,5.26517647 30.0943655,2.46352941 L30.0943655,2.46352941 Z" id="Shape"></path>
                    <path d="M54.5369362,0.546352941 L56.9822485,0.546352941 L56.9822485,13.2889412 L54.5369362,13.2889412 C54.5362327,9.04164706 54.5362327,4.79364706 54.5369362,0.546352941 L54.5369362,0.546352941 Z" id="Shape"></path>
                    <path d="M79.6161604,0.546352941 L82.0621762,0.546352941 C82.0614727,3.42282353 82.0663971,6.29929412 82.0600657,9.17505882 C82.04881,10.3870588 81.6752597,11.6576471 80.772689,12.5047059 C79.7329389,13.4929412 78.1191453,13.7336471 76.7972978,13.2338824 C75.8764366,12.8908235 75.1328534,12.1418824 74.7543787,11.2369412 C74.2598291,10.0814118 74.2478698,8.76211765 74.5201183,7.54870588 C74.7149836,6.72423529 75.1089349,5.91529412 75.7695069,5.36752941 C76.8542801,4.44847059 78.6699737,4.50282353 79.6231953,5.58847059 C79.6063116,3.90776471 79.6203813,2.22705882 79.6161604,0.546352941 L79.6161604,0.546352941 Z M77.8363445,7.02282353 C77.2932544,7.20423529 76.9830178,7.75694118 76.8725707,8.29058824 C76.7318738,8.97811765 76.7508679,9.72282353 77.0378895,10.3715294 C77.2320513,10.8134118 77.6499211,11.184 78.1479882,11.2030588 C78.6038462,11.2305882 79.0308613,10.9510588 79.2601972,10.5663529 C79.5514398,10.0870588 79.6217883,9.50682353 79.6133465,8.95482353 C79.5845036,8.37105882 79.4592834,7.74 79.0322682,7.31223529 C78.726956,7.00023529 78.2485865,6.88658824 77.8363445,7.02282353 L77.8363445,7.02282353 Z" id="Shape"></path>
                    <path d="M12.0964168,5.43105882 C13.0503419,4.71811765 14.34405,4.56070588 15.4745496,4.87552941 C16.6317817,5.19741176 17.5491256,6.16164706 17.9219724,7.29317647 C18.1245759,7.88329412 18.1632676,8.56517647 17.8903156,9.13835294 C17.6736423,9.59152941 17.1600986,9.81176471 16.6796187,9.81105882 C15.4428928,9.81458824 14.206167,9.80823529 12.9694412,9.81388235 C13.0419001,10.3369412 13.1938527,10.8981176 13.6089086,11.2552941 C13.9880868,11.5898824 14.5966009,11.6181176 14.9996976,11.3117647 C15.3451085,11.0611765 15.5167587,10.6496471 15.6265023,10.2508235 C16.4474688,10.2529412 17.2677318,10.2515294 18.0879947,10.2515294 C17.9008679,11.2277647 17.4063182,12.1743529 16.595904,12.7694118 C15.7235832,13.4301176 14.5550953,13.6150588 13.4977581,13.3990588 C12.5677515,13.2084706 11.7214596,12.6345882 11.2107298,11.8298824 C10.5262393,10.7618824 10.3785076,9.42705882 10.5522682,8.19035294 C10.701407,7.12305882 11.2135437,6.07341176 12.0964168,5.43105882 L12.0964168,5.43105882 Z M13.6764431,6.93882353 C13.2965615,7.21482353 13.1192834,7.67647059 13.0060224,8.11694118 C13.8903024,8.11835294 14.7745825,8.11835294 15.6588626,8.11623529 C15.5554504,7.668 15.3746548,7.19647059 14.9849244,6.92329412 C14.6050427,6.64517647 14.0499934,6.65435294 13.6764431,6.93882353 L13.6764431,6.93882353 Z" id="Shape"></path>
                    <path d="M22.9814333,4.98847059 C23.3493557,4.68917647 23.8699343,4.67929412 24.3117226,4.78023529 C24.8541091,4.92352941 25.154497,5.46635294 25.2733859,5.97952941 C25.5442275,7.19647059 25.7981854,8.41764706 26.0633991,9.636 C26.3525312,8.06117647 26.6128205,6.48070588 26.8942143,4.90447059 L29.3036489,4.90447059 C28.799954,7.26776471 28.3011834,9.63176471 27.7974885,11.9950588 C27.7032216,12.444 27.4682577,12.8731765 27.0982249,13.1505882 C26.6163379,13.5225882 25.9360684,13.5769412 25.3782051,13.3567059 C24.8928008,13.1611765 24.5586456,12.6889412 24.4587508,12.1828235 C24.2533333,11.1155294 24.0563577,10.0461176 23.8516437,8.97811765 C23.6490401,10.0087059 23.4478435,11.04 23.2494609,12.072 C23.1875542,12.4305882 23.0363051,12.7814118 22.7809402,13.044 C22.2167456,13.6037647 21.218501,13.6383529 20.6170217,13.1188235 C20.2807561,12.8357647 20.0640828,12.4284706 19.9648915,12.0035294 C19.4084352,9.63741176 18.8604208,7.26988235 18.303261,4.90447059 C19.1136752,4.90517647 19.9240894,4.90376471 20.7338001,4.90517647 C21.0475542,6.49270588 21.3648258,8.07952941 21.6736555,9.66847059 C21.9184681,8.46917647 22.17524,7.272 22.4242735,6.07341176 C22.5072847,5.67247059 22.6550164,5.25529412 22.9814333,4.98847059 L22.9814333,4.98847059 Z" id="Shape"></path>
                    <path d="M38.3687508,5.74658824 C39.0623866,5.01741176 40.0965089,4.69482353 41.0849047,4.72729412 C42.1457594,4.70894118 43.2495266,5.13670588 43.9023603,6 C44.5010256,6.77647059 44.6972978,7.79082353 44.6550888,8.75364706 C44.6543853,10.2656471 44.6550888,11.7769412 44.6543853,13.2889412 L42.2259566,13.2889412 C42.2252531,11.7536471 42.2259566,10.2183529 42.2252531,8.68305882 C42.2168113,8.26588235 42.1914859,7.81976471 41.9508941,7.464 C41.5492045,6.83364706 40.479908,6.84917647 40.0880671,7.48094118 C39.9030506,7.77247059 39.8369231,8.124 39.8348126,8.46564706 C39.8362196,10.0736471 39.8355161,11.6809412 39.8355161,13.2889412 L37.3895003,13.2889412 C37.3887968,11.6583529 37.3895003,10.0277647 37.3887968,8.39717647 C37.4028665,7.44070588 37.6877778,6.444 38.3687508,5.74658824 L38.3687508,5.74658824 Z" id="Shape"></path>
                    <path d="M46.6157002,6.03952941 C47.2952663,5.19741176 48.3744116,4.71105882 49.4514464,4.72729412 C50.4883826,4.69270588 51.5450164,5.10423529 52.247094,5.88 C53.0152991,6.70588235 53.3360881,7.85505882 53.3578961,8.96470588 C53.3642275,10.4237647 53.3585996,11.8828235 53.3607101,13.3418824 C53.363524,14.1847059 53.4001052,15.0557647 53.0990138,15.8590588 C52.7965155,16.7378824 52.1007692,17.4684706 51.2319658,17.7952941 C50.2822617,18.1517647 49.2017094,18.1581176 48.2484878,17.8150588 C47.3395858,17.4875294 46.6157002,16.7195294 46.3181262,15.8004706 C46.1429586,15.3 46.0909007,14.7677647 46.0733136,14.2404706 C46.8872452,14.2397647 47.7018803,14.2411765 48.515812,14.2397647 C48.5369165,14.6018824 48.5749047,14.9816471 48.7732873,15.2957647 C49.1630178,15.9409412 50.2428665,15.9494118 50.6480736,15.3169412 C50.8654504,14.9858824 50.9132873,14.5764706 50.9146943,14.1889412 C50.9132873,13.6821176 50.9146943,13.1752941 50.9132873,12.6691765 C50.3652728,13.1731765 49.6406838,13.5098824 48.8872518,13.4844706 C47.9945299,13.4929412 47.1193951,13.0510588 46.5861538,12.3345882 C45.8777449,11.4007059 45.6315253,10.188 45.6547403,9.03458824 C45.6420776,7.97011765 45.9375411,6.87317647 46.6157002,6.03952941 L46.6157002,6.03952941 Z M49.2087442,7.04047059 C48.6705786,7.17882353 48.3350164,7.69552941 48.2013544,8.20729412 C48.0374425,8.87223529 48.0444773,9.59011765 48.2674819,10.2409412 C48.4236555,10.6849412 48.764142,11.1077647 49.2425115,11.2101176 C49.6948521,11.328 50.1865878,11.1183529 50.4609467,10.7484706 C50.8162064,10.2832941 50.9090664,9.67623529 50.9146943,9.10517647 C50.9048455,8.52141176 50.8000263,7.89741176 50.4145168,7.43717647 C50.1296055,7.09058824 49.6427942,6.92258824 49.2087442,7.04047059 L49.2087442,7.04047059 Z" id="Shape"></path>
                    <path d="M58.7859829,5.83694118 C60.146522,4.37858824 62.7065023,4.34470588 64.1148784,5.75152941 C64.9682051,6.58164706 65.3297962,7.79788235 65.3480868,8.96611765 C65.3607495,10.4068235 65.3501972,11.8482353 65.3537147,13.2889412 L62.9076989,13.2889412 C62.9069954,13.0771765 62.9069954,12.8661176 62.9098093,12.6550588 C62.379382,13.1661176 61.6618277,13.4971765 60.9189481,13.4844706 C60.0740631,13.4992941 59.2305851,13.1258824 58.688902,12.4722353 C57.9544642,11.6018824 57.6758843,10.4385882 57.6393031,9.32117647 C57.595687,8.07952941 57.9066272,6.75529412 58.7859829,5.83694118 L58.7859829,5.83694118 Z M61.2305917,7.03411765 C60.6537344,7.16329412 60.3012886,7.72305882 60.1781788,8.26870588 C60.0121565,9.01905882 60.0311506,9.85411765 60.3997765,10.5437647 C60.6375542,11.0068235 61.1672781,11.3287059 61.6920776,11.2221176 C62.0740697,11.1635294 62.3878238,10.8861176 62.5777646,10.56 C62.8282051,10.1209412 62.902071,9.60564706 62.9076989,9.10729412 C62.8957396,8.54823529 62.8007692,7.95670588 62.4560618,7.50070588 C62.1824063,7.12588235 61.6857462,6.92047059 61.2305917,7.03411765 L61.2305917,7.03411765 Z" id="Shape"></path>
                    <path d="M67.9727876,5.30964706 C68.8528468,4.72729412 69.9727942,4.62070588 70.9914398,4.80564706 C71.961545,4.98352941 72.8521565,5.604 73.2960552,6.49623529 C73.6900066,7.25152941 73.7638725,8.12188235 73.7441749,8.96047059 C73.7434714,10.4032941 73.7441749,11.8461176 73.7434714,13.2889412 L71.2974556,13.2889412 C71.2967521,11.7049412 71.2967521,10.1216471 71.2974556,8.53764706 C71.2918277,8.15858824 71.235549,7.76047059 71.0167653,7.44141176 C70.5988955,6.83082353 69.5464826,6.85835294 69.1602696,7.48870588 C68.9485207,7.82117647 68.9056082,8.22705882 68.9063116,8.61317647 C68.9084221,10.1717647 68.9070151,11.7303529 68.9070151,13.2889412 L66.4609993,13.2889412 C66.4602959,12.1757647 66.4609993,11.0632941 66.4609993,9.95011765 C66.4821039,9.00635294 66.3751742,8.03576471 66.659382,7.11952941 C66.8732413,6.38964706 67.3290993,5.72188235 67.9727876,5.30964706 L67.9727876,5.30964706 Z" id="Shape"></path>
                    <path d="M80.1662853,14.0858824 C80.4286851,13.8487059 80.8711769,13.8649412 81.1244313,14.1091765 C81.2559829,14.2249412 81.2939711,14.4070588 81.3959763,14.5454118 C81.8089218,14.628 82.2324195,14.5687059 82.6495858,14.6047059 C82.9302761,14.7374118 83.2559895,15.0352941 83.1490598,15.3804706 C82.9183169,16.188 82.6770217,17.004 82.642551,17.8496471 C82.6327022,18.0698824 82.6509928,18.3162353 82.8043524,18.4898824 C82.980927,18.6981176 83.3425181,18.6430588 83.4909533,18.4312941 C83.4860289,18.1404706 83.5219066,17.7670588 83.8645036,17.688 C84.0326364,16.9122353 84.2844839,16.1597647 84.5539185,15.4143529 C84.4160355,15.1637647 84.2767456,14.8432941 84.4455819,14.5729412 C84.6383366,14.2771765 84.9204339,14.0202353 85.2616239,13.9136471 C85.4585996,13.8395294 85.7076331,13.944 85.7730572,14.1508235 C85.9186785,14.5305882 85.7048192,14.9103529 85.5380934,15.2435294 C85.8208941,15.7468235 86.2232873,16.1689412 86.5180473,16.6637647 C86.7938133,17.1225882 86.8669757,17.6809412 86.7691913,18.2025882 C87.0864629,18.1002353 87.3995135,17.9265882 87.5690533,17.6258824 C87.6921631,17.4388235 87.7139711,17.1868235 87.8926561,17.0392941 C88.242288,16.9588235 88.5271992,17.4310588 88.3696187,17.7338824 C88.0530506,18.564 87.1357068,18.9564706 86.3034845,18.9974118 C85.9355621,19.3002353 85.4550822,19.4689412 84.9781197,19.4188235 C84.5961275,19.3821176 84.2394609,19.2211765 83.9165615,19.0207059 C83.4965812,19.4491765 82.7909862,19.5614118 82.2732216,19.2494118 C81.8933399,19.0277647 81.7287245,18.5703529 81.7259106,18.1489412 C81.70762,17.22 81.9946417,16.3221176 82.3055819,15.4588235 L81.3108547,15.4588235 C81.2813083,16.1908235 81.1912623,16.9192941 81.0379027,17.6357647 C80.9098685,18.1750588 80.6200329,18.6896471 80.1683958,19.02 C79.7322354,19.3404706 79.1722617,19.4562353 78.6397239,19.4188235 C78.0368376,19.3743529 77.4747535,19.0362353 77.131453,18.54 C76.4715845,19.5021176 74.9780868,19.7258824 74.0677778,19.0009412 C73.9193425,18.8894118 73.7962327,18.7503529 73.6780473,18.6105882 C73.5000657,18.8710588 73.2967587,19.128 73.011144,19.2748235 C72.6657331,19.4527059 72.2232413,19.4957647 71.8792373,19.2924706 C71.5584484,19.1047059 71.4036818,18.7228235 71.3882051,18.3642353 C71.3713215,17.4324706 71.4043853,16.4992941 71.373432,15.5682353 C71.3846877,15.3769412 71.2165549,15.1164706 71.0139513,15.2752941 C70.461716,15.6776471 70.1585141,16.3574118 70.0234451,17.0124706 C69.9523932,17.7367059 70.0325904,18.468 69.982643,19.1936471 C69.9312886,19.4625882 69.5978369,19.4618824 69.3938264,19.3849412 C69.1947403,19.3376471 69.1194675,19.1329412 69.0716305,18.9578824 C68.7409928,19.308 68.2344839,19.5232941 67.7561144,19.3877647 C67.4852728,19.3207059 67.2897041,19.1047059 67.1532281,18.8724706 C66.8570611,19.4075294 66.4173833,19.8402353 65.9706706,20.2482353 C65.9692636,20.9604706 65.9706706,21.672 65.9706706,22.3835294 C65.9615253,22.8112941 65.8714793,23.2644706 65.5872715,23.5976471 C65.2559303,23.9936471 64.6298291,24.0988235 64.1908547,23.8263529 C63.8616239,23.6251765 63.6674622,23.2538824 63.6104799,22.8797647 C63.5506838,22.392 63.629474,21.8844706 63.8559961,21.4475294 C64.1373899,20.9068235 64.6030966,20.5016471 65.0540302,20.1063529 C65.0554372,19.7061176 65.0491059,19.3065882 65.0589546,18.9070588 C64.7430901,19.1936471 64.313261,19.3701176 63.883432,19.2938824 C63.5577186,19.2585882 63.2770283,19.0694118 63.060355,18.8329412 C62.8232807,19.1209412 62.5046022,19.3630588 62.126831,19.4110588 C61.7497633,19.4830588 61.3241552,19.3390588 61.1152202,19.0058824 C60.944977,18.7531765 60.9112097,18.4397647 60.920355,18.1432941 C60.923169,17.3654118 60.9210585,16.5868235 60.9224655,15.8089412 C60.9140237,15.6141176 60.9168376,15.3924706 60.7747337,15.2407059 C60.5665023,15.1898824 60.4018869,15.3734118 60.2724458,15.5096471 C59.8116634,16.0609412 59.4979093,16.7738824 59.5316765,17.5044706 C59.5218277,18.0684706 59.5577055,18.6352941 59.5147929,19.1971765 C59.4521828,19.488 59.0701907,19.4618824 58.8619592,19.3574118 C58.6692045,19.2741176 58.6241815,19.056 58.6023734,18.8703529 C57.8243195,19.5797647 56.5024721,19.632 55.7103485,18.9162353 C55.2143918,18.4778824 54.9646548,17.8072941 54.9569165,17.1529412 C54.9372189,16.3814118 55.1567061,15.5788235 55.6674359,14.9894118 C55.9474227,14.676 56.3378567,14.4211765 56.7712032,14.4303529 C57.1285733,14.4127059 57.4957922,14.5934118 57.6702564,14.9124706 C57.9157725,15.3487059 57.8777844,15.8872941 57.7237212,16.3482353 C57.4725773,17.0950588 56.8457725,17.688 56.094451,17.9131765 C56.2196713,18.1447059 56.3730309,18.3797647 56.6192505,18.4976471 C57.1243524,18.7411765 57.7968836,18.6282353 58.1584747,18.1849412 C58.4673044,17.7981176 58.646693,17.2962353 58.6185536,16.7978824 C58.5967456,16.1124706 58.6607627,15.4228235 58.5735306,14.7409412 C58.5805654,14.5898824 58.759954,14.5475294 58.8823603,14.5418824 C59.1328008,14.5411765 59.4289678,14.6555294 59.510572,14.916 C59.557002,15.1256471 59.5267521,15.3437647 59.5288626,15.5576471 C59.7230243,15.2032941 59.9340697,14.8341176 60.2773702,14.6047059 C60.5988626,14.3837647 61.0512032,14.3661176 61.3881723,14.5637647 C61.7082577,14.7656471 61.8257396,15.1644706 61.8341815,15.5251765 C61.8398093,16.3750588 61.8341815,17.2249412 61.8355884,18.0748235 C61.8376989,18.2696471 61.8602104,18.5223529 62.0628139,18.6155294 C62.4187771,18.6727059 62.6066075,18.3007059 62.7297173,18.0303529 C62.5925378,17.2058824 62.7501183,16.3270588 63.1912032,15.6162353 C63.6808284,14.8291765 64.5763642,14.2927059 65.5098882,14.3089412 C65.7089744,14.3068235 65.931979,14.3985882 66.0142867,14.5934118 C66.0846351,14.7487059 66.0459435,14.9216471 66.0283563,15.084 C65.7589218,15.1072941 65.4852663,15.0416471 65.2200526,15.1101176 C64.6924392,15.2223529 64.2372847,15.5865882 63.972071,16.0531765 C63.6737936,16.572 63.5865615,17.1882353 63.6280671,17.7790588 C63.6590204,18.0818824 63.8243393,18.4305882 64.1521631,18.492 C64.4223011,18.564 64.6748521,18.3656471 64.8021828,18.1411765 C64.9703156,17.8425882 65.0709139,17.4988235 65.0554372,17.1536471 C65.0469954,16.7611765 65.066693,16.368 65.0455884,15.9762353 C65.0441815,15.8414118 64.973833,15.6938824 65.0512163,15.5703529 C65.383261,15.3331765 65.9924786,15.5738824 65.9699671,16.0178824 C65.9720776,17.0830588 65.9678567,18.1489412 65.9713741,19.2148235 C66.3308547,18.7948235 66.6368705,18.3247059 66.8352531,17.8065882 C66.9365549,17.5284706 67.0645891,17.2461176 67.044188,16.9425882 C67.0216765,16.2112941 67.0856936,15.4764706 66.999165,14.7487059 C66.977357,14.6371765 67.1011703,14.5778824 67.1898093,14.5595294 C67.5063774,14.4847059 67.9333925,14.6661176 67.9523866,15.0303529 C67.9629389,16.0468235 67.9530901,17.0632941 67.9566075,18.0790588 C67.9615319,18.2308235 67.9636423,18.4016471 68.0663511,18.5251765 C68.1782051,18.6832941 68.4152794,18.6247059 68.5397962,18.5110588 C68.7360684,18.3303529 68.8366667,18.072 68.9168639,17.8228235 C69.004096,17.5115294 69.1025838,17.196 69.0835897,16.8684706 C69.0667061,16.1428235 69.117357,15.4143529 69.0434911,14.6915294 C69.2158448,14.4557647 69.5781394,14.5327059 69.7919987,14.6717647 C70.0902761,14.8665882 69.9770151,15.2618824 69.9960092,15.5604706 C70.2197173,15.1432941 70.4863379,14.6971765 70.9386785,14.5002353 C71.2784615,14.3724706 71.7089941,14.4035294 71.9805391,14.6654118 C72.2112821,14.8807059 72.2893688,15.2103529 72.3013281,15.516 C72.3062525,16.3955294 72.2949967,17.2757647 72.305549,18.1552941 C72.3006246,18.3628235 72.4061473,18.684 72.6734714,18.6141176 C73.0498356,18.5181176 73.1715385,18.0847059 73.2847995,17.7592941 C73.0941552,16.9891765 73.2109336,16.1477647 73.5880013,15.4517647 C73.8187442,15.0232941 74.1768179,14.6371765 74.6481525,14.4818824 C75.0174819,14.3745882 75.4627876,14.4183529 75.7455884,14.7021176 C76.0917028,15.0381176 76.1325049,15.5724706 76.0487903,16.0235294 C75.8848784,16.9136471 75.1905391,17.6590588 74.3301775,17.9167059 C74.4561012,18.1263529 74.5904668,18.3487059 74.8113609,18.4715294 C75.1328534,18.6536471 75.5352465,18.6607059 75.8813609,18.5463529 C76.2971203,18.4016471 76.5749967,18.0141176 76.719211,17.6131765 C76.7522748,17.4592941 76.7037344,17.2997647 76.7058448,17.1444706 C76.6861473,16.4590588 76.8620184,15.7567059 77.2566732,15.1912941 C77.4853057,14.8764706 77.789211,14.5955294 78.1683892,14.4804706 C78.5517883,14.3682353 79.0160881,14.4303529 79.293261,14.7402353 C79.6189744,15.1030588 79.6450033,15.6416471 79.5415911,16.0976471 C79.3593886,16.9581176 78.6713807,17.6583529 77.8412689,17.9174118 C77.9671926,18.1291765 78.1022617,18.3536471 78.3273767,18.4722353 C78.8289612,18.7489412 79.522597,18.6402353 79.8968508,18.1983529 C80.2141223,17.8284706 80.3407495,17.3385882 80.409691,16.8663529 C80.477929,16.3305882 80.5138067,15.7898824 80.5123997,15.2498824 C80.3309007,15.1185882 80.138146,14.9752941 80.0600592,14.7564706 C79.9847863,14.5355294 79.9897107,14.2574118 80.1662853,14.0858824 L80.1662853,14.0858824 Z M56.2133399,15.6176471 C55.9769691,16.1188235 55.9249112,16.6884706 55.9502367,17.2369412 C56.4862919,16.9729412 56.8485865,16.4181176 56.8964234,15.8237647 C56.9140105,15.6296471 56.9259698,15.3762353 56.7430638,15.2534118 C56.4954372,15.1912941 56.3097173,15.42 56.2133399,15.6176471 L56.2133399,15.6176471 Z M74.4561012,15.6127059 C74.2204339,16.1145882 74.1578238,16.6856471 74.192998,17.2348235 C74.8183958,16.932 75.197574,16.2225882 75.1384813,15.5343529 C75.1237081,15.4242353 75.0758711,15.3127059 74.9801972,15.2527059 C74.7367916,15.1976471 74.5503682,15.4157647 74.4561012,15.6127059 L74.4561012,15.6127059 Z M78.0684944,15.444 C77.7294149,15.9684706 77.6696187,16.6298824 77.7026824,17.2390588 C78.3519987,16.9108235 78.7649441,16.1385882 78.6200263,15.4164706 C78.5405325,15.1362353 78.176831,15.2428235 78.0684944,15.444 L78.0684944,15.444 Z M85.1399211,16.0489412 C84.8775214,16.6821176 84.7297896,17.3541176 84.5173373,18.0042353 C84.9056607,18.1821176 85.2989086,18.3712941 85.7294412,18.4171765 C85.9060158,18.1510588 86.0199803,17.8298824 85.9679224,17.5072941 C85.9095332,16.9270588 85.5373899,16.4470588 85.1399211,16.0489412 L85.1399211,16.0489412 Z M65.0512163,21.0381176 C64.5805851,21.5272941 64.3252202,22.2409412 64.4806903,22.9143529 C64.5137541,23.0512941 64.6101315,23.2468235 64.7831887,23.2023529 C64.995641,23.1501176 65.02167,22.8910588 65.0469954,22.7096471 C65.0624721,22.1527059 65.0519198,21.5950588 65.0512163,21.0381176 L65.0512163,21.0381176 Z" id="Shape"></path>
                </g>
                <g id="#e9001cff" transform="translate(89.623932, 3.247059)">
                    <path d="M4.99825773,0.0331764706 C5.24025641,0.0317647059 5.48295858,0.0345882353 5.72566075,0.0522352941 C5.76857331,0.3 5.81359632,0.547764706 5.85439842,0.796235294 C5.97610125,0.816705882 6.09850756,0.837176471 6.22302433,0.858352941 C6.33909928,0.639529412 6.45447074,0.419294118 6.56773176,0.199058824 C6.80832347,0.261882353 7.0439908,0.340941176 7.27403024,0.437647059 C7.23744905,0.686823529 7.20157133,0.935294118 7.16850756,1.18517647 C7.27543721,1.23952941 7.38377383,1.29388235 7.49211045,1.34894118 C7.66446417,1.16964706 7.84314924,0.996 8.02886917,0.830117647 C8.23358317,0.969176471 8.43337278,1.11529412 8.62683103,1.27129412 C8.51497699,1.49505882 8.40875082,1.72164706 8.3004142,1.94682353 C8.38131492,2.02941176 8.46291913,2.11129412 8.54522682,2.19458824 C8.77034188,2.08517647 8.99756739,1.98070588 9.22127548,1.86847059 C9.37674556,2.06258824 9.52588429,2.26235294 9.66376726,2.46988235 C9.48719264,2.64917647 9.31765286,2.83411765 9.14318869,3.01482353 C9.19946746,3.11858824 9.25574622,3.22305882 9.31413544,3.32823529 C9.56035503,3.29435294 9.80798159,3.26188235 10.0549047,3.22517647 C10.1449507,3.45458824 10.2216305,3.68964706 10.291979,3.92682353 C10.0731953,4.04541176 9.85370809,4.16329412 9.63140697,4.27482353 C9.65180802,4.39905882 9.67431953,4.524 9.69753452,4.64894118 C9.94375411,4.68988235 10.1892702,4.73435294 10.4361933,4.77741176 C10.4495595,5.02164706 10.448856,5.26658824 10.4481525,5.51152941 C10.2033399,5.55388235 9.95993425,5.59623529 9.7165286,5.64 C9.69964497,5.76847059 9.68276134,5.89694118 9.66798817,6.02611765 C9.88888231,6.14752941 10.1111834,6.26823529 10.3348915,6.38823529 C10.2779093,6.62047059 10.2103748,6.85058824 10.1329915,7.07717647 C9.88606838,7.04117647 9.63844181,7.00729412 9.39222222,6.97552941 C9.33453649,7.10329412 9.27755424,7.23105882 9.22127548,7.35811765 C9.38940828,7.54305882 9.56738988,7.71952941 9.74326101,7.89882353 C9.61804076,8.09929412 9.48508218,8.29411765 9.34227482,8.48117647 C9.11856673,8.37317647 8.89415516,8.26658824 8.67326101,8.15647059 C8.57266272,8.27011765 8.46925049,8.38235294 8.36583826,8.49247059 C8.47769231,8.71623529 8.59024984,8.94070588 8.70069691,9.16658824 C8.52482577,9.31270588 8.34332676,9.45176471 8.16042078,9.588 C7.97610782,9.42282353 7.79742275,9.252 7.62717949,9.07270588 C7.48226167,9.14894118 7.33945431,9.22588235 7.19594346,9.30141176 C7.22971072,9.55270588 7.26558843,9.80329412 7.30357659,10.0545882 C7.09464168,10.1357647 6.88289283,10.2084706 6.66973702,10.2755294 C6.5522551,10.0552941 6.43406969,9.83576471 6.31658777,9.61552941 C6.14915845,9.65223529 5.98243261,9.68258824 5.81641026,9.71717647 C5.77420118,9.96141176 5.73128863,10.2049412 5.69048652,10.4491765 C5.47099934,10.4647059 5.25151216,10.4668235 5.03343195,10.4668235 C4.98911243,10.2218824 4.94619987,9.97694118 4.90328731,9.73270588 C4.72671269,9.71082353 4.55224852,9.68752941 4.37778435,9.66352941 C4.25678501,9.88094118 4.14000657,10.1011765 4.02674556,10.3228235 C3.81710717,10.2677647 3.61098619,10.2021176 3.40697567,10.1329412 C3.44074293,9.888 3.47591716,9.64376471 3.5103879,9.39952941 C3.35210388,9.32258824 3.19944773,9.23435294 3.03623932,9.17082353 C2.81745562,9.28517647 2.67324129,9.51176471 2.48541091,9.67129412 C2.30602235,9.55129412 2.13155819,9.42564706 1.95990796,9.29647059 C2.06402367,9.07058824 2.17517423,8.84752941 2.28913872,8.62658824 C2.15618014,8.49247059 2.02392505,8.35976471 1.89096647,8.22776471 C1.66866535,8.34141176 1.44636423,8.45435294 1.21913872,8.556 C1.09251151,8.38305882 0.96799474,8.20870588 0.850512821,8.03082353 C1.02779093,7.85576471 1.19803419,7.67294118 1.36687048,7.48941176 C1.28315582,7.32776471 1.2022551,7.16470588 1.12346483,7.00094118 C0.877245233,7.01647059 0.619066404,7.12023529 0.379881657,7.07011765 C0.298277449,6.88094118 0.252550953,6.67976471 0.199789612,6.48282353 C0.420683761,6.36705882 0.641577909,6.24988235 0.861768573,6.13129412 C0.832925707,5.95482353 0.809007232,5.77905882 0.787902696,5.60258824 C0.545200526,5.54894118 0.287021696,5.54188235 0.056278764,5.44941176 C0.0400986193,5.23764706 0.0604996713,5.02588235 0.0745693623,4.81552941 C0.320788955,4.77176471 0.566305062,4.728 0.813228139,4.68352941 C0.838553583,4.51482353 0.86739645,4.34682353 0.899756739,4.17882353 C0.68026956,4.06588235 0.462892834,3.948 0.246923077,3.83011765 C0.309533202,3.61694118 0.384102564,3.408 0.463596318,3.19976471 C0.714036818,3.23011765 0.965180802,3.26470588 1.2156213,3.30494118 C1.28948718,3.16023529 1.36546351,3.01623529 1.44495726,2.87435294 C1.26838264,2.7 1.09813938,2.52 0.934930966,2.33435294 C1.06507561,2.14870588 1.20577252,1.97011765 1.3520973,1.79647059 C1.5800263,1.90588235 1.80795529,2.016 2.03447732,2.12964706 C2.14070348,2.02376471 2.24763314,1.91929412 2.35667324,1.81552941 C2.24974359,1.59247059 2.14070348,1.37011765 2.03166338,1.14847059 C2.22160421,1.00729412 2.41646943,0.873176471 2.61625904,0.745411765 C2.79353715,0.923294118 2.97011177,1.10329412 3.15794214,1.272 C3.28386588,1.212 3.41119658,1.15341176 3.53852728,1.09482353 C3.50194609,0.849176471 3.46606838,0.603529412 3.43933596,0.356470588 C3.66374753,0.278823529 3.89097304,0.212470588 4.12101249,0.152470588 C4.24130835,0.374117647 4.36019724,0.597882353 4.47416174,0.824470588 C4.60360289,0.805411765 4.7351545,0.787764706 4.8674096,0.770117647 C4.90961867,0.524470588 4.95253123,0.278117647 4.99825773,0.0331764706 L4.99825773,0.0331764706 Z M5.25010519,1.38564706 C4.96660092,2.29058824 4.66832347,3.19129412 4.37708087,4.09411765 C3.43441157,4.09552941 2.49103879,4.09129412 1.54836949,4.09623529 C2.31235371,4.65105882 3.07282051,5.20870588 3.8382117,5.76141176 C3.54485865,6.66282353 3.25291256,7.56494118 2.96237344,8.46705882 C3.72776463,7.91152941 4.49245233,7.35458824 5.25643655,6.79623529 C6.01760684,7.35670588 6.784405,7.91011765 7.54838922,8.46847059 C7.26066404,7.56494118 6.96309007,6.66423529 6.67325444,5.76141176 C7.43723866,5.20941176 8.19840894,4.65176471 8.96098619,4.09623529 C8.01761341,4.092 7.07494412,4.09552941 6.13227482,4.09411765 C5.83681131,3.192 5.55541749,2.28494118 5.25010519,1.38564706 L5.25010519,1.38564706 Z" id="Shape"></path>
                </g>
            </g>
        </g>
    </g>
</svg>