<?xml version="1.0" encoding="UTF-8" standalone="no"?>
<svg width="180px" height="80px" viewBox="0 0 180 80" version="1.1" xmlns="http://www.w3.org/2000/svg" xmlns:xlink="http://www.w3.org/1999/xlink">
    <!-- Generator: Sketch 40 (33762) - http://www.bohemiancoding.com/sketch -->
    <title>psp_imports</title>
    <desc>Created with Sketch.</desc>
    <defs></defs>
    <g id="Page-1" stroke="none" stroke-width="1" fill="none" fill-rule="evenodd">
        <g id="psp_imports" fill="#FFFFFF">
            <g id="Page-1" transform="translate(42.000000, 27.000000)">
                <path d="M0,26 L95.8148148,26 L95.8148148,0 L0,0 L0,26 Z M2.88888889,23.5921111 L93.4074074,23.5921111 L93.4074074,2.40740741 L2.88888889,2.40740741 L2.88888889,23.5921111 Z" id="Fill-1"></path>
                <g id="Group-22" transform="translate(8.666667, 7.703704)">
                    <path d="M0.433333333,0.577777778 C2.26296296,0.77037037 4.81481481,-0.192592593 6.01851852,1.63703704 C7.12592593,3.65925926 5.2,5.97037037 3.08148148,5.82592593 L3.08148148,5.48888889 C4.81481481,5.63333333 5.92222222,3.65925926 5.05555556,2.21481481 C4.71851852,1.05925926 3.46666667,0.962962963 2.5037037,0.914814815 C2.5037037,3.56296296 2.45555556,6.25925926 2.5037037,8.90740741 C2.74444444,9.1 3.17777778,9.38888889 3.37037037,9.58148148 C2.64814815,9.58148148 1.87777778,9.58148148 1.10740741,9.62962963 C1.82962963,6.83703704 1.44444444,3.94814815 1.44444444,1.10740741 C1.15555556,0.962962963 0.674074074,0.674074074 0.433333333,0.577777778" id="Fill-2"></path>
                    <path d="M8.81111111,1.15555556 C9.77407407,0.240740741 11.1703704,0.577777778 12.3259259,0.52962963 C12.3259259,1.15555556 12.3740741,1.73333333 12.4222222,2.31111111 C11.8444444,1.63703704 11.2185185,0.77037037 10.2074074,1.05925926 C8.95555556,0.962962963 8.66666667,2.79259259 9.58148148,3.41851852 C10.737037,4.62222222 12.8555556,5.63333333 12.4222222,7.60740741 C12.2296296,9.38888889 10.2074074,9.82222222 8.76296296,9.53333333 C7.51111111,9.58148148 7.94444444,8.08888889 7.75185185,7.27037037 C8.23333333,8.18518519 8.85925926,9.29259259 10.062963,9.1 C11.3148148,9.14814815 11.9888889,7.51111111 11.2666667,6.5962963 C10.4,5.53703704 9.05185185,4.86296296 8.37777778,3.61111111 C8.13703704,2.84074074 8.08888889,1.73333333 8.81111111,1.15555556" id="Fill-4"></path>
                    <path d="M13.9148148,0.577777778 C15.7444444,0.77037037 18.2962963,-0.192592593 19.5,1.63703704 C20.6074074,3.65925926 18.6814815,5.92222222 16.562963,5.82592593 L16.562963,5.48888889 C18.2962963,5.63333333 19.4037037,3.65925926 18.537037,2.21481481 C18.2,1.05925926 16.9481481,0.962962963 15.9851852,0.914814815 C15.9851852,3.56296296 15.937037,6.25925926 15.9851852,8.90740741 C16.2259259,9.1 16.6592593,9.38888889 16.8518519,9.58148148 C16.1296296,9.58148148 15.3592593,9.58148148 14.5888889,9.62962963 C15.3111111,6.83703704 14.9259259,3.94814815 14.9259259,1.10740741 C14.637037,0.962962963 14.1555556,0.674074074 13.9148148,0.577777778" id="Fill-6"></path>
                    <path d="M25.1333333,0.481481481 C25.9037037,0.52962963 26.6740741,0.52962963 27.4444444,0.577777778 C27.2518519,0.722222222 26.8185185,1.01111111 26.6259259,1.15555556 C26.6259259,3.75555556 26.5777778,6.30740741 26.6740741,8.90740741 C26.8666667,9.05185185 27.2518519,9.38888889 27.4444444,9.58148148 C26.6740741,9.58148148 25.9037037,9.58148148 25.1814815,9.62962963 C25.7592593,7.8962963 25.5666667,6.11481481 25.5666667,4.33333333 C25.5666667,3.03333333 25.7111111,1.68518519 25.1333333,0.481481481" id="Fill-8"></path>
                    <path d="M30.6222222,0.481481481 C30.9592593,0.674074074 31.2,0.962962963 31.3444444,1.3 C32.4518519,3.46666667 33.3185185,5.72962963 34.5703704,7.8 C35.8222222,5.39259259 36.737037,2.84074074 38.0851852,0.52962963 C38.8555556,3.08148148 38.662963,5.82592593 39.1925926,8.42592593 C39.2888889,9.05185185 40.0111111,9.1962963 40.4444444,9.58148148 L38.1333333,9.58148148 C37.7962963,7.51111111 38.037037,5.2962963 37.3148148,3.32222222 C36.3518519,5.44074074 35.4851852,7.65555556 34.2814815,9.67777778 C33.0296296,7.65555556 32.3074074,5.34444444 31.0074074,3.32222222 C31.2,5.39259259 29.9962963,7.75185185 31.2,9.62962963 C30.4296296,9.58148148 29.6592593,9.58148148 28.8888889,9.53333333 C29.0814815,9.38888889 29.5148148,9.1 29.7555556,8.95555556 C30.0444444,6.11481481 30.4296296,3.32222222 30.6222222,0.481481481" id="Fill-10"></path>
                    <path d="M41.3592593,0.52962963 C43.1888889,0.77037037 45.7888889,-0.192592593 46.9444444,1.73333333 C47.8111111,3.70740741 46.1259259,5.92222222 43.9592593,5.82592593 L43.9592593,5.48888889 C45.7407407,5.63333333 46.6555556,3.65925926 45.9333333,2.21481481 C45.5962963,1.10740741 44.3444444,0.962962963 43.3333333,0.866666667 C43.2851852,3.32222222 43.1888889,5.77777778 43.3333333,8.18518519 C43.2851852,8.85925926 43.8148148,9.29259259 44.2962963,9.62962963 C43.3333333,9.53333333 42.3703704,9.53333333 41.4074074,9.53333333 C41.6,9.38888889 42.0333333,9.1 42.2259259,8.95555556 C42.2740741,6.35555556 42.2740741,3.75555556 42.2740741,1.15555556 C42.0333333,1.01111111 41.6,0.674074074 41.3592593,0.52962963" id="Fill-12"></path>
                    <path d="M65.6259259,0.577777778 C68.1296296,0.481481481 70.5851852,0.52962963 73.0407407,0.577777778 C73.0888889,0.866666667 73.137037,1.49259259 73.1851852,1.78148148 C72.2222222,1.05925926 71.0185185,1.05925926 69.862963,1.01111111 C69.7185185,3.41851852 69.7185185,5.77777778 69.8148148,8.18518519 C69.7666667,8.85925926 70.2962963,9.24444444 70.7777778,9.62962963 C69.8148148,9.53333333 68.8518519,9.58148148 67.8888889,9.58148148 C68.0814815,9.38888889 68.4666667,9.05185185 68.6592593,8.90740741 C68.7555556,6.30740741 68.7074074,3.65925926 68.7074074,1.05925926 C67.6,1.05925926 66.3962963,1.01111111 65.4814815,1.78148148 C65.4814815,1.49259259 65.5777778,0.914814815 65.6259259,0.577777778" id="Fill-14"></path>
                    <path d="M74.2925926,2.07037037 C74.7259259,0.240740741 76.8925926,0.481481481 78.2888889,0.52962963 C78.2888889,1.15555556 78.337037,1.73333333 78.3851852,2.31111111 C77.7111111,1.2037037 76.5555556,0.722222222 75.3518519,1.2037037 C74.437037,3.08148148 76.5555556,4.04444444 77.6148148,5.2 C78.8666667,6.25925926 78.7222222,8.57037037 77.2296296,9.34074074 C76.3148148,9.77407407 75.2555556,9.53333333 74.2925926,9.43703704 C74.2444444,8.85925926 74.1962963,8.28148148 74.1,7.7037037 C74.7259259,8.81111111 76.4111111,9.82222222 77.2777778,8.42592593 C78.4814815,5.58518519 73.4259259,4.95925926 74.2925926,2.07037037" id="Fill-16"></path>
                    <path d="M55.8037037,7.07777778 C55.0814815,9.72592593 50.9888889,9.62962963 49.9777778,7.27037037 C48.8703704,5.2962963 49.062963,1.73333333 51.7111111,1.15555556 C55.0814815,0.144444444 57.0074074,4.38148148 55.8037037,7.07777778 M56.862963,2.84074074 C55.9,0.77037037 53.3,0.0962962963 51.2296296,0.722222222 C48.4851852,1.54074074 47.3296296,5.15185185 48.8222222,7.51111111 C50.2185185,10.1592593 54.3592593,10.3037037 56.1888889,8.04074074 C57.4407407,6.64444444 57.537037,4.52592593 56.862963,2.84074074" id="Fill-18"></path>
                    <path d="M60.7148148,5.72962963 C60.5703704,4.14074074 60.5703704,2.5037037 60.7148148,0.914814815 C61.5814815,1.01111111 62.6888889,0.962962963 63.1222222,1.92592593 C63.6037037,3.03333333 63.6037037,4.52592593 62.8333333,5.53703704 C62.2074074,5.87407407 61.437037,5.68148148 60.7148148,5.72962963 M63.2185185,6.16296296 C63.9407407,4.81481481 65.0481481,3.22592593 64.2296296,1.73333333 C63.1222222,-0.240740741 60.5222222,0.77037037 58.6925926,0.52962963 C58.9333333,0.674074074 59.3666667,1.01111111 59.6074074,1.15555556 L59.6074074,8.95555556 C59.3666667,9.1 58.9333333,9.38888889 58.7407407,9.58148148 C59.7037037,9.53333333 60.6666667,9.53333333 61.6296296,9.62962963 C60.2333333,9.0037037 60.6666667,7.36666667 60.6185185,6.16296296 C62.4962963,5.82592593 63.2666667,7.7037037 64.3259259,8.81111111 C65.0481481,9.82222222 66.3962963,9.53333333 67.4555556,9.58148148 C65.5777778,9.05185185 64.4703704,7.51111111 63.2185185,6.16296296" id="Fill-20"></path>
                </g>
            </g>
        </g>
    </g>
</svg>