<?xml version="1.0" encoding="UTF-8" standalone="no"?>
<svg width="180px" height="80px" viewBox="0 0 180 80" version="1.1" xmlns="http://www.w3.org/2000/svg" xmlns:xlink="http://www.w3.org/1999/xlink">
    <!-- Generator: Sketch 39.1 (31720) - http://www.bohemiancoding.com/sketch -->
    <title>realm</title>
    <desc>Created with Sketch.</desc>
    <defs></defs>
    <g id="logos" stroke="none" stroke-width="1" fill="none" fill-rule="evenodd">
        <g id="realm" fill="#FFFFFF">
            <g id="realmlogowordmarkwhite" transform="translate(33.500000, 21.898855)">
                <g id="#ffffffff" transform="translate(0.000000, 0.000000)">
                    <path d="M17.641804,0 L18.5302344,0 C21.7854048,0.0955042614 25.0092756,1.07783381 27.7588352,2.82339489 C30.0388991,4.25114347 31.9826918,6.20777699 33.3975994,8.49506392 C34.9802415,11.0271307 35.9400994,13.9476349 36.152777,16.9275284 C36.4312642,20.7822088 35.4015838,24.7035014 33.3341974,27.9626847 C31.5284446,30.8510866 28.8607457,33.1760937 25.7789276,34.6198935 C23.5229403,35.6840838 21.0486577,36.2755682 18.5559162,36.3558239 L17.6682884,36.3558239 C12.3914773,36.2113636 7.21739347,33.6576278 3.95901278,29.4955682 C2.05534801,27.0790696 0.773664773,24.1794318 0.263238636,21.1465696 C-0.652478693,15.897848 0.970291193,10.3160653 4.43252131,6.28803267 C7.69170455,2.45823153 12.6234162,0.147670455 17.641804,0 L17.641804,0 Z M13.248608,0.93337358 C10.5223224,1.71747159 7.97901989,3.14441761 5.91002841,5.08740767 C7.89394886,5.67568182 10.0255398,5.78402699 12.0511932,5.34904119 C15.2012287,4.68773438 17.9796804,2.92933239 21.0936009,2.14924716 C22.4226349,1.81056818 23.7998224,1.67252841 25.1697869,1.7246946 C24.1746165,1.29452415 23.1409233,0.951832386 22.0847585,0.704644886 C19.1843182,0.0168536932 16.1105256,0.102727273 13.248608,0.93337358 L13.248608,0.93337358 Z M20.8809233,2.45341619 C17.9307244,3.2543679 15.2678409,4.88115057 12.2735014,5.54727273 C10.1130185,6.04164773 7.82653409,5.93089489 5.71099432,5.27921875 C4.18533381,6.7503054 2.95100142,8.51191761 2.03207386,10.4195952 C5.13235085,8.77034091 8.68607244,7.95735085 12.196456,8.17885653 C15.7285085,8.37628551 19.1658594,9.39794034 22.7099503,9.45732955 C25.961108,9.52233665 29.2146733,8.60340909 31.9778764,6.8971733 C30.312571,4.82978693 28.179375,3.13639205 25.7741122,2.01040483 C24.1352912,1.85872159 22.4691832,2.02164062 20.8809233,2.45341619 L20.8809233,2.45341619 Z M22.4675781,9.69167614 C18.8199574,9.59135653 15.2814844,8.50710227 11.6346662,8.39554687 C8.24065341,8.27997869 4.83620739,9.14513494 1.86674716,10.7807457 C1.33304687,11.9556889 0.929360795,13.1884162 0.65568892,14.4484304 C1.60431108,15.0318892 2.62837358,15.4909517 3.69256392,15.8175923 C4.7615696,15.3954474 5.88033381,15.1025142 7.01835937,14.9484233 C8.9340625,14.6747514 10.8898935,14.8537216 12.7582457,15.3280327 C15.2461719,14.4612713 17.5864276,13.2116903 20.099233,12.4075284 C22.7380398,11.5223082 25.595142,11.2991974 28.3382812,11.7791264 C30.9955469,12.2277557 33.532429,13.3457173 35.665625,14.9917614 C35.1359375,12.1266335 33.9176562,9.38830966 32.1239418,7.09058949 C29.2491832,8.8690554 25.8511577,9.80884943 22.4675781,9.69167614 L22.4675781,9.69167614 Z M21.5149432,12.2510298 C18.6072798,12.9701207 15.9580398,14.4131179 13.1627344,15.4460085 C16.6410156,16.4219176 19.7918537,18.2621804 23.2155611,19.3905753 C24.6866477,18.6771023 26.223544,18.0719744 27.8342756,17.7637926 C30.5300639,17.2381179 33.3614844,17.4524006 35.955348,18.3488565 C35.9641761,17.3408452 35.8895384,16.3320312 35.721804,15.3376634 C34.2426918,14.173956 32.572571,13.2462003 30.7868821,12.6466903 C27.8166193,11.6426918 24.5582386,11.4934162 21.5149432,12.2510298 L21.5149432,12.2510298 Z M0.60272017,14.6996307 C0.398068182,15.7180753 0.284105114,16.752571 0.255213068,17.790277 C1.20142756,17.049517 2.24314631,16.4291406 3.34987216,15.9604474 C2.3900142,15.6466477 1.46867898,15.2196875 0.60272017,14.6996307 L0.60272017,14.6996307 Z M0.256015625,18.0928409 C0.241569602,19.9636009 0.543330966,21.8343608 1.11073864,23.6160369 C3.93975142,22.0285795 7.30727983,21.3913494 10.5142969,21.9202344 C12.2486222,22.2019318 13.9107173,22.7942187 15.5471307,23.4145952 C18.1048793,22.3263281 20.4330966,20.7878267 22.9121946,19.5430611 C20.4258736,18.7003764 18.0840128,17.4981463 15.6418324,16.5439062 C13.3978835,15.6635014 11.0183026,14.9901562 8.58735795,15.064794 C5.579375,15.1314062 2.60028409,16.2028196 0.256015625,18.0928409 L0.256015625,18.0928409 Z M27.3752131,18.1080895 C26.1192116,18.3970099 24.9097585,18.8608878 23.7452486,19.407429 C21.0526705,20.6658381 18.5848082,22.3600355 15.8529048,23.539794 C17.8424432,24.309446 19.8231534,25.1416974 21.9178267,25.5847088 C24.7757315,26.1898366 27.7853196,26.0542045 30.5782173,25.2002841 C32.2587713,24.6890554 33.8534517,23.9081676 35.3036719,22.9194176 C35.7001349,21.5149432 35.9120099,20.0599077 35.9521378,18.6024645 C33.2146165,17.6426065 30.2042259,17.451598 27.3752131,18.1080895 L27.3752131,18.1080895 Z M1.18698153,23.849581 C1.95101562,26.1336577 3.1668892,28.2676562 4.75514915,30.0782244 C4.8787429,30.2467614 5.10105114,30.2708381 5.28082386,30.3478835 C8.59137074,31.5380753 12.2654759,31.6873509 15.6626989,30.7716335 C17.9652344,30.1592827 20.0815767,29.0276776 22.3343537,28.2684588 C25.9458594,27.0365341 29.8270241,26.611179 33.6215128,27.0068395 C34.2900426,25.8278835 34.8157173,24.5710795 35.2073651,23.2741477 C31.5990696,25.6898437 27.0742543,26.6697656 22.7877983,25.9891974 C20.8464134,25.6922514 18.9892969,25.022919 17.1674929,24.3110511 C14.7509943,23.3712571 12.3200497,22.3359588 9.71816051,22.056669 C6.77919744,21.7404616 3.75676847,22.3977557 1.18698153,23.849581 L1.18698153,23.849581 Z M21.2749787,28.9105043 C19.0848011,29.7700426 16.9451847,30.8237997 14.6161648,31.2636009 C11.497429,31.8879901 8.21015625,31.6528409 5.21581676,30.5798224 C7.87147727,33.3646946 11.4532884,35.2402699 15.2469744,35.8742898 C19.2340767,36.5596733 23.4322514,35.7547088 26.9338068,33.7451065 C29.6528693,32.2154332 31.9353409,29.9369744 33.4963139,27.2371733 C29.3663565,26.8182386 25.1392898,27.3928693 21.2749787,28.9105043 L21.2749787,28.9105043 Z" id="Shape"></path>
                    <path d="M84.8366761,5.78322443 L89.326179,5.78322443 C89.3269815,12.8553551 89.326179,19.9282884 89.326179,27.000419 C87.8294105,27.0012216 86.332642,27.0012216 84.8366761,27.000419 C84.8358736,19.9282884 84.8358736,12.8561577 84.8366761,5.78322443 L84.8366761,5.78322443 Z" id="Shape"></path>
                    <path d="M73.1979972,10.8850781 C74.6915554,10.5247301 76.275,10.4854048 77.7741761,10.8401349 C79.0558594,11.1418963 80.2508665,11.8834588 80.9948366,12.9837642 C81.9779688,14.4155256 82.2596662,16.1980043 82.292571,17.9002273 C82.299794,20.9322869 82.2933736,23.9651491 82.2957813,26.9980114 C81.4699503,26.9980114 80.6441193,26.9972088 79.8190909,26.9980114 C79.5044886,26.3856605 79.1930966,25.7717045 78.8800994,25.1585511 C78.1056321,26.2572514 76.9001918,27.0325213 75.5880114,27.3118111 C74.4251065,27.5614063 73.1827486,27.480348 72.0784304,27.0285085 C70.9026847,26.5437642 69.877017,25.6312571 69.382642,24.4458807 C68.8906747,23.299027 68.9813636,21.9659801 69.4452415,20.8255469 C69.9155398,19.6690625 70.851321,18.7469247 71.9436009,18.1658736 C73.754169,17.2003977 75.8496449,16.9708665 77.8712855,16.957223 C77.8728906,16.3577131 77.6521875,15.7405469 77.1834943,15.3497017 C76.5294105,14.7927273 75.6305469,14.6434517 74.7966903,14.6562926 C73.2501634,14.7140767 71.7830895,15.445206 70.6707457,16.497358 C70.2221165,15.2220952 69.7734872,13.9460298 69.3256605,12.670767 C70.5150497,11.8842614 71.8031534,11.2173366 73.1979972,10.8850781 L73.1979972,10.8850781 Z M74.7076065,20.5960156 C74.163473,20.8696875 73.632983,21.3022656 73.4772869,21.9178267 C73.372152,22.2918182 73.4748793,22.699517 73.7132386,23.0012784 C74.0671662,23.4587358 74.6185227,23.7388281 75.1859304,23.8190838 C76.1465909,23.9643466 77.1810866,23.425831 77.595206,22.5446236 C77.9435156,21.7348437 77.843196,20.8311648 77.8592472,19.9732315 C76.7854261,19.9828622 75.681108,20.1160866 74.7076065,20.5960156 L74.7076065,20.5960156 Z" id="Shape"></path>
                    <path d="M58.8739631,11.1788139 C60.2070099,10.6683878 61.6949503,10.5993679 63.082571,10.9163778 C64.4477202,11.229375 65.6989062,12.0142756 66.5648651,13.1161861 C67.4845952,14.2710653 67.9877983,15.7108523 68.1723864,17.1634801 C68.3176491,18.277429 68.2839418,19.4090341 68.1402841,20.5213778 C64.9637642,20.5221804 61.7880469,20.5213778 58.6123295,20.5221804 C58.6829545,21.2565199 58.9879261,21.9844389 59.5465057,22.480419 C60.264794,23.1337003 61.2479261,23.4001491 62.1957457,23.4723793 C63.5785511,23.5871449 64.982223,23.2484659 66.1932812,22.5815412 C66.6090057,23.751669 67.0271378,24.9209943 67.4444673,26.0911222 C66.090554,26.7732955 64.5921804,27.1561151 63.0833736,27.282919 C61.3867685,27.3992898 59.6195384,27.1970455 58.0930753,26.4073295 C56.9325781,25.8134375 55.9719176,24.852777 55.3531463,23.7075284 C54.5353409,22.2075497 54.2504332,20.4716193 54.2704972,18.779027 C54.2985866,16.9612358 54.7857386,15.1201705 55.8282599,13.6153764 C56.5762429,12.529517 57.637223,11.6507173 58.8739631,11.1788139 L58.8739631,11.1788139 Z M60.0192116,14.6643182 C59.18375,15.1932031 58.7415412,16.1747301 58.6725213,17.1377983 C60.4100568,17.1369957 62.1475923,17.1377983 63.8859304,17.1369957 C63.8353693,16.3713565 63.6315199,15.5704048 63.089794,15.0005895 C62.320142,14.1779688 60.9509801,14.0407315 60.0192116,14.6643182 L60.0192116,14.6643182 Z" id="Shape"></path>
                    <path d="M97.5716477,11.1386861 C98.9737145,10.5311506 100.657479,10.6435085 101.968857,11.426804 C102.68554,11.8473437 103.273814,12.4709304 103.678303,13.1940341 C104.073963,12.4885866 104.582784,11.8176491 105.280206,11.3866761 C105.999297,10.9340341 106.86044,10.7783381 107.699112,10.7582741 C108.876463,10.7141335 110.114006,10.9910156 111.032933,11.7630753 C112.075455,12.6234162 112.615575,13.9428196 112.837884,15.2469744 C113.023274,16.2268963 112.9687,17.2268821 112.976726,18.2180398 C112.975923,21.1417543 112.977528,24.0654688 112.975923,26.9891832 L108.563466,26.9891832 C108.560256,24.1184375 108.557848,21.2476918 108.554638,18.3777486 C108.54581,17.6048864 108.539389,16.8063423 108.252876,16.0768182 C108.093168,15.6578835 107.769737,15.2726562 107.322713,15.1562855 C106.675852,14.9725 105.971207,15.2357386 105.518565,15.7116548 C104.856456,16.3930256 104.610874,17.3761577 104.609268,18.3031108 C104.606861,21.1987358 104.609268,24.0935582 104.608466,26.9891832 L100.176747,26.9891832 C100.176747,24.4932315 100.178352,21.9972798 100.175945,19.5013281 C100.158288,18.5896236 100.228111,17.6682884 100.063587,16.7662145 C99.9584517,16.2236861 99.7706534,15.6386222 99.3051705,15.2983381 C98.8244389,14.9564489 98.1559091,15.0471378 97.6695597,15.3304403 C96.9809659,15.7461648 96.5837003,16.5077912 96.3918892,17.2662074 C96.2321804,17.8649148 96.2747159,18.4885014 96.2699006,19.1016548 C96.2699006,21.730831 96.2707031,24.3600071 96.2699006,26.9891832 L91.8421946,26.9891832 C91.8405895,21.7388565 91.8421946,16.4877273 91.841392,11.2374006 C92.6495668,11.236598 93.4577415,11.2349929 94.2667187,11.2382031 C94.5540341,11.9661222 94.8445597,12.6932386 95.1350852,13.4195526 C95.6495241,12.4067259 96.5219034,11.5784872 97.5716477,11.1386861 L97.5716477,11.1386861 Z" id="Shape"></path>
                    <path d="M50.6012074,10.8585937 C51.8556037,10.6106037 53.1822301,11.0528125 54.1019602,11.9243892 C53.5794957,13.1659446 53.0554261,14.4066974 52.5072798,15.637017 C51.931044,15.1450497 51.1405256,14.9139134 50.3909375,15.0326918 C49.9086009,15.1273935 49.5313991,15.5021875 49.325142,15.9339631 C48.9816477,16.6394105 48.9054048,17.4395597 48.8957741,18.2148295 C48.8949716,21.1393466 48.8965767,24.0638636 48.8949716,26.9891832 L44.4656605,26.9891832 L44.4656605,11.2357955 L46.8885795,11.2357955 C47.1766974,11.9275994 47.4808665,12.6121804 47.756946,13.3079972 C48.1855114,12.0656392 49.3010653,11.0849148 50.6012074,10.8585937 L50.6012074,10.8585937 Z" id="Shape"></path>
                </g>
            </g>
        </g>
    </g>
</svg>