<?xml version="1.0" encoding="UTF-8" standalone="no"?>
<svg width="180px" height="80px" viewBox="0 0 180 80" version="1.1" xmlns="http://www.w3.org/2000/svg" xmlns:xlink="http://www.w3.org/1999/xlink">
    <!-- Generator: Sketch 40 (33762) - http://www.bohemiancoding.com/sketch -->
    <title>sach_ko</title>
    <desc>Created with Sketch.</desc>
    <defs>
        <polygon id="path-1" points="37.4687978 0.0027860262 0.110719214 0.0027860262 0.110719214 9.76702271 37.4687978 9.76702271 37.4687978 0.0027860262"></polygon>
    </defs>
    <g id="Page-1" stroke="none" stroke-width="1" fill="none" fill-rule="evenodd">
        <g id="sach_ko">
            <g id="Page-1" transform="translate(61.000000, 11.000000)">
                <g id="Group-3" transform="translate(7.978166, 0.123852)">
                    <mask id="mask-2" fill="white">
                        <use xlink:href="#path-1"></use>
                    </mask>
                    <g id="Clip-2"></g>
                    <path d="M14.8386668,0.623791266 C15.7884485,0.256542358 16.8142127,0.193223581 17.8146493,0.0412585153 C18.8277498,0.00326724891 19.8408502,-0.00939650655 20.8539507,0.0159310044 C21.613776,0.155232314 22.3862651,0.104577293 23.1460904,0.117241048 C23.8805882,0.332524891 24.6404135,0.319861135 25.3875751,0.484489956 C26.4133393,0.5858 27.4011122,0.851738865 28.4015489,1.06702271 C29.5919419,1.33296157 30.8203262,1.64955546 31.7827716,2.42204454 C32.023383,2.39671703 32.2893218,2.3207345 32.5046057,2.51069083 C32.4286231,2.52335459 32.2766581,2.53601834 32.2006755,2.5486821 C32.7072258,2.87793974 33.3024223,3.13121485 33.9102825,3.19453362 C34.6701079,3.47313624 35.2526406,4.055669 35.9744747,4.41025415 C36.4556974,4.7648393 37.0129026,5.01811441 37.4687978,5.41069083 C37.1775314,5.24606201 36.8229463,5.28405328 36.5443437,5.1067607 C36.4810249,5.11942445 36.3797148,5.15741572 36.3290598,5.18274323 C36.3543873,5.09409694 36.3797148,4.92946812 36.4050424,4.84082183 C36.265741,4.58754672 35.9618109,4.62553799 35.7211996,4.63820175 C35.1766581,4.4229179 34.8727279,3.85304891 34.3155227,3.66309258 C33.8216362,3.47313624 33.3277498,3.08055983 32.7705445,3.2578524 C32.4412869,3.18186987 32.1500205,2.99191354 31.8334266,2.85261223 C30.83299,2.40938079 29.794562,2.02946812 28.7434703,1.71287424 C28.5408502,1.64955546 28.3382301,1.71287424 28.1482738,1.7508655 C28.13561,1.67488297 28.0976188,1.5229179 28.084955,1.45959913 C28.1609376,1.68754672 28.3888852,1.62422795 28.5788415,1.6368917 C29.1993655,1.59890044 29.7185795,2.14344192 30.3517672,2.05479563 C30.3011122,1.90283057 30.1744747,1.80152052 30.0225096,1.7508655 C28.9207629,1.20632402 27.6037323,1.4089441 26.5019856,0.877066376 C25.602859,0.750428821 24.6404135,0.5858 23.7539507,0.877066376 C22.4495838,0.598463755 21.1072258,0.623791266 19.7775314,0.573136245 C19.283645,0.459162445 18.7897585,0.611127511 18.3338633,0.801083843 C17.8399769,1.06702271 17.2447803,0.889730131 16.7382301,1.11767773 C16.3076624,1.30763406 15.8264397,1.19366026 15.4085358,1.4089441 C15.5351734,1.26964279 15.6618109,1.13034148 15.7757847,0.978376419 C15.4591908,1.01636769 14.9019856,0.813747598 14.8006755,1.21898777 C14.6487105,1.32029782 14.7373568,0.902393886 14.5220729,1.05435895 C14.2687978,1.07968646 13.9775314,1.06702271 13.7369201,1.18099651 C13.5089725,1.49759039 13.9395402,1.67488297 14.1421603,1.85217555 C13.5089725,1.89016681 12.863121,1.95348559 12.2805882,2.23208821 C11.7993655,2.48536332 11.2294965,2.48536332 10.7609376,2.77662969 C10.7609376,2.71331092 10.7482738,2.59933712 10.7482738,2.53601834 C10.1024223,2.72597467 9.48189825,3.01724105 8.97534803,3.46047249 C9.05133057,3.4858 9.21595939,3.53645502 9.30460568,3.56178253 C8.72207293,3.90370393 8.0762214,4.13165153 7.43036987,4.3089441 C8.08888515,3.65042882 8.92469301,3.20719738 9.5832083,2.56134585 C9.2412869,2.72597467 8.87403799,2.85261223 8.53211659,3.0299048 C7.83561004,3.44780873 7.25307729,4.03034148 6.72119956,4.63820175 C6.53124323,4.85348559 6.25264061,4.81549432 6.03735677,4.68885677 C5.08757511,5.38536332 4.39106856,6.3858 3.35264061,6.955669 C2.92207293,6.98099651 2.70678908,7.37357293 2.46617773,7.67750306 C2.35220393,7.6648393 2.25089389,7.65217555 2.13692009,7.63951179 C1.94696376,8.26003581 1.364431,8.57662969 0.857880786,8.91855109 C0.870544541,8.96920611 0.921199563,9.09584367 0.933863319,9.15916245 C0.743906987,9.36178253 0.553950655,9.56440262 0.363994323,9.76702271 C0.528623144,9.48842009 0.414649345,9.24780873 0.110719214,9.15916245 C0.503295633,8.36134585 1.33910349,7.96876943 1.90897249,7.29759039 C2.61814279,6.47444629 3.50460568,5.82859476 4.44172358,5.25872576 C4.63167991,5.17007948 4.64434367,4.92946812 4.7203262,4.7648393 C4.84696376,4.75217555 4.96093755,4.77750306 5.08757511,4.75217555 C5.89805546,4.13165153 6.83517336,3.72641135 7.7343,3.24518865 C8.38015153,2.87793974 9.03866681,2.48536332 9.74783712,2.21942445 C10.7482738,1.89016681 11.774038,1.61156419 12.7871384,1.30763406 C13.3949987,0.902393886 14.1421603,0.839075109 14.8386668,0.623791266" id="Fill-1" fill="#FFFFFF" mask="url(#mask-2)"></path>
                </g>
                <path id="Fill-4" fill="#FFFFFF"></path>
                <path id="Fill-6" fill="#FFFFFF"></path>
                <path d="M24.0958721,2.52056856 C24.4757847,2.40659476 24.8683611,2.36860349 25.2609376,2.30528472 C25.2229463,2.36860349 25.1596275,2.49524105 25.1216362,2.55855983 C25.1596275,2.6218786 25.2229463,2.7358524 25.2609376,2.79917118 C24.6530773,2.83716245 24.0832083,3.01445502 23.4880118,3.0777738 C23.8299332,2.74851616 24.3491472,2.71052489 24.7923786,2.6218786 C24.564431,2.55855983 24.3364834,2.54589607 24.0958721,2.52056856" id="Fill-8" fill="#FFFFFF"></path>
                <path id="Fill-10" fill="#FFFFFF"></path>
                <path id="Fill-12" fill="#FFFFFF"></path>
                <path id="Fill-14" fill="#FFFFFF"></path>
                <path id="Fill-16" fill="#FFFFFF"></path>
                <path id="Fill-18" fill="#FFFFFF"></path>
                <path d="M25.4635576,4.16685677 C26.7425969,3.93890917 28.0469638,3.98956419 29.3260031,4.00222795 C28.4775314,4.50877817 27.464431,4.17952052 26.5526406,4.40746812 C25.805479,4.49611441 25.0709812,4.64807948 24.3238197,4.67340699 C22.8801515,5.01532838 21.4744747,5.53454236 20.0561341,5.99043755 C20.2207629,5.67384367 20.575348,5.53454236 20.8412869,5.33192227 C21.5377934,4.78738079 22.4622476,4.73672576 23.2600642,4.39480437 C23.9818983,4.77471703 24.7417236,4.29349432 25.4635576,4.16685677" id="Fill-20" fill="#FFFFFF"></path>
                <path d="M17.4220729,4.83803581 C17.6626843,4.55943319 18.0172694,4.40746812 18.3338633,4.2428393 C18.1312432,4.55943319 17.7639943,4.6987345 17.4220729,4.83803581" id="Fill-22" fill="#FFFFFF"></path>
                <path d="M33.5177061,4.62275197 C34.2015489,4.66074323 34.9107192,4.59742445 35.5692345,4.82537205 C36.1011122,5.00266463 36.7089725,5.00266463 37.1395402,5.4079048 C37.7980555,5.6358524 38.494562,5.76248996 39.1530773,5.99043755 C39.1530773,6.04109258 39.1404135,6.15506638 39.1404135,6.21838515 C39.53299,6.45899651 39.9762214,6.59829782 40.3434703,6.86423668 C40.0901952,6.8009179 39.8495838,6.6869441 39.6216362,6.57297031 C37.6840817,5.6358524 35.6198895,5.0406559 33.5177061,4.62275197" id="Fill-24" fill="#FFFFFF"></path>
                <path d="M13.3696838,5.7498262 C13.5469764,5.48388734 13.8382428,5.34458603 14.1168454,5.21794847 C13.9015616,5.43323231 13.6862777,5.69917118 13.3696838,5.7498262" id="Fill-26" fill="#FFFFFF"></path>
                <path d="M18.7011122,5.96511004 C18.9670511,5.68650742 19.3722913,5.87646376 19.6762214,5.99043755 C18.9797148,6.37035022 18.3338633,6.83890917 17.6120293,7.16816681 C17.1181428,7.43410568 16.484955,7.49742445 16.1303699,7.95331965 C15.8264397,8.38388734 15.2059157,8.3079048 14.9273131,8.77646376 C13.7495838,9.73890917 12.5211996,10.6633633 11.4827716,11.7904376 C11.1915052,12.0690402 10.9635576,12.4489528 10.5709812,12.6009179 C10.53299,13.1327956 9.84914716,13.2341057 9.44390699,13.424062 C9.63386332,13.0441493 9.84914716,12.6262454 10.2797148,12.4869441 C11.2928153,11.4738437 11.9893218,10.1441493 13.1797148,9.32100524 C13.4583175,9.13104891 13.6102825,8.82711878 13.8762214,8.62449869 C14.1294965,8.56117991 14.4334266,8.56117991 14.623383,8.35855983 C15.6491472,7.52275197 16.8522039,7.00353799 18.0299332,6.45899651 C18.2958721,6.35768646 18.4858284,6.12973886 18.7011122,5.96511004" id="Fill-28" fill="#FFFFFF"></path>
                <path id="Fill-30" fill="#FFFFFF"></path>
                <path d="M13.9522039,6.8009179 C14.0915052,6.25637642 14.6993655,6.07908384 15.1552607,5.8638 C15.3958721,6.18039389 15.0032956,6.37035022 14.7626843,6.49698777 C14.4967454,6.61096157 14.2308066,6.71227162 13.9522039,6.8009179" id="Fill-32" fill="#FFFFFF"></path>
                <path d="M45.53561,6.15506638 C45.9661777,6.35768646 46.4347367,6.54764279 46.7766581,6.90222795 C46.8526406,6.99087424 46.9412869,7.10484803 47.0046057,7.20615808 L47.0172694,7.28214061 C46.5360467,6.88956419 45.953514,6.61096157 45.53561,6.15506638" id="Fill-34" fill="#FFFFFF"></path>
                <path d="M46.9792655,6.61096157 C47.2705319,6.76292664 47.5871258,7.0288655 47.5364707,7.39611441 C47.473152,7.29480437 47.4098332,7.20615808 47.3465144,7.11751179 C47.2831956,7.24414934 47.2198769,7.38345066 47.1692218,7.52275197 C47.0932393,7.44676943 47.055248,7.3707869 47.0172568,7.28214061 L47.004593,7.20615808 C46.9412742,7.10484803 46.8526279,6.99087424 46.7766454,6.90222795 C46.8273004,6.82624541 46.9286105,6.67428035 46.9792655,6.61096157" id="Fill-36" fill="#FFFFFF"></path>
                <path id="Fill-38" fill="#FFFFFF"></path>
                <path id="Fill-40" fill="#FFFFFF"></path>
                <path d="M43.6360467,7.35812314 C44.0919419,7.40877817 44.4465271,8.01663843 44.915086,7.76336332 C45.2696712,8.02930218 45.953514,8.16860349 45.8648677,8.72580873 C45.4089725,8.4218786 44.915086,8.18126725 44.4085358,7.97864716 C44.1172694,7.8266821 43.775348,7.67471703 43.6360467,7.35812314" id="Fill-42" fill="#FFFFFF"></path>
                <path id="Fill-44" fill="#FFFFFF"></path>
                <path d="M48.8661777,8.43454236 C49.1447803,8.58650742 49.4487105,8.78912751 49.474038,9.14371266 C49.1954354,9.02973886 48.9801515,8.80179127 48.7648677,8.58650742 C48.7901952,8.54851616 48.8408502,8.47253362 48.8661777,8.43454236" id="Fill-46" fill="#FFFFFF"></path>
                <path d="M7.53167991,9.61227162 C7.63298996,9.46030655 7.83561004,9.44764279 8.00023886,9.37166026 C7.88626507,9.63759913 7.75962751,9.89087424 7.63298996,10.1441493 C7.77229127,10.1188218 7.91159258,10.0934943 8.06355764,10.0808306 C7.88626507,10.2961144 7.72163624,10.5367258 7.58233493,10.7773371 C7.59499869,10.6633633 7.59499869,10.4354157 7.60766245,10.3214419 C7.2784048,10.6000445 7.22774978,11.1065948 6.84783712,11.3345424 C6.02469301,12.3856341 5.36617773,13.5633633 4.54303362,14.614455 C4.27709476,15.0450227 3.98582838,15.4629266 3.82119956,15.9441493 C3.50460568,16.5646734 3.11202926,17.1598699 3.01071921,17.8690402 C2.9853917,18.0210052 2.8714179,18.1476428 2.79543537,18.2742803 C2.74478035,18.2109616 2.64347031,18.0589965 2.59281528,17.983014 C2.0482738,19.0847607 1.92163624,20.3384725 1.71901616,21.5415293 C1.50373231,22.2760271 1.26312096,23.0105249 1.03517336,23.7450227 C0.984518341,23.6437127 0.946527074,23.5550664 0.908535808,23.4537563 C0.883208297,23.2004812 1.07316463,22.9725336 1.09849214,22.7192585 C0.984518341,22.795241 0.870544541,22.8712236 0.756570742,22.9472061 C0.667924454,22.5166384 0.528623144,22.0607432 0.693251965,21.6428393 C1.14914716,20.7437127 1.23779345,19.692621 1.76967118,18.8188218 C2.14958384,18.0716603 2.37753144,17.2611799 2.79543537,16.5393459 C3.5552607,15.0956777 4.35307729,13.6646734 5.35351397,12.3856341 C6.12600306,11.4991712 6.7971821,10.5367258 7.53167991,9.61227162" id="Fill-48" fill="#FFFFFF"></path>
                <path d="M50.1958721,9.76423668 C50.3478371,9.87821048 50.4618109,9.87821048 50.5377934,9.76423668 C50.6391035,9.82755546 50.8417236,9.85288297 50.8037323,10.0175118 C50.7024223,10.1441493 50.8037323,10.3467694 50.9810249,10.3087782 L51.1076624,10.3087782 C51.0570074,10.422752 51.0190162,10.5367258 50.9810249,10.6506996 C50.664431,10.4100882 50.3478371,10.1441493 50.1958721,9.76423668" id="Fill-50" fill="#FFFFFF"></path>
                <path d="M8.48146157,11.3092022 C8.77272795,10.7519969 9.29194192,10.3594205 9.70984585,9.90352533 C9.64652707,10.283438 9.43124323,10.6506869 9.07665808,10.7899882 C8.82338297,10.903962 8.65875415,11.1192459 8.48146157,11.3092022" id="Fill-52" fill="#FFFFFF"></path>
                <path id="Fill-54" fill="#FFFFFF"></path>
                <path id="Fill-56" fill="#FFFFFF"></path>
                <path id="Fill-58" fill="#FFFFFF"></path>
                <path id="Fill-60" fill="#FFFFFF"></path>
                <path d="M7.53167991,12.8162017 C7.78495502,12.6262454 7.94958384,12.3096515 8.26617773,12.233669 C8.02556638,12.6009179 7.79761878,13.1201319 7.30373231,13.1707869 C7.11377598,13.3860707 7.22774978,13.7279921 6.99980218,13.9179485 C6.75919083,14.1585598 6.53124323,14.4118349 6.35395066,14.7157651 C6.44259694,14.6904376 6.60722576,14.6524463 6.69587205,14.6271188 C6.65788079,14.9183852 6.41726943,15.0576865 6.16399432,14.9183852 C6.01202926,15.3616166 5.61945284,15.7162017 5.58146157,16.1974245 C5.44216026,16.4886908 5.13823013,16.6913109 5.0622476,17.0079048 C4.92294629,17.4764638 5.11290262,18.084324 4.66967118,18.4135817 C4.68233493,17.932359 4.70766245,17.4511362 4.8343,16.9825773 C4.80897249,16.9319223 4.75831747,16.8179485 4.73298996,16.7546297 C5.20154891,15.804848 5.7714179,14.8930576 6.31595939,13.9812672 C6.65788079,13.5253721 7.08844847,13.1581231 7.53167991,12.8162017" id="Fill-62" fill="#FFFFFF"></path>
                <path id="Fill-64" fill="#FFFFFF"></path>
                <path id="Fill-66" fill="#FFFFFF"></path>
                <path id="Fill-68" fill="#FFFFFF"></path>
                <path id="Fill-70" fill="#FFFFFF"></path>
                <path d="M7.05045721,17.8943677 C7.17709476,17.3498262 7.36705109,16.8052847 7.69630873,16.3493895 L7.94958384,16.3493895 C7.68364498,16.8812672 7.45569738,17.4511362 7.05045721,17.8943677" id="Fill-72" fill="#FFFFFF"></path>
                <path id="Fill-74" fill="#FFFFFF"></path>
                <path id="Fill-76" fill="#FFFFFF"></path>
                <path d="M53.0325533,18.2869441 C53.8430336,19.224062 54.3622476,20.4017913 54.704169,21.5921843 C54.3495838,21.5288655 54.3875751,21.1109616 54.1596275,20.9083415 C54.1976188,21.1362891 54.2736013,21.3642367 54.3369201,21.5921843 C53.9949987,21.4782105 54.0076624,21.0729703 53.8936886,20.7943677 C53.8810249,19.9965511 53.5391035,19.274717 53.1591908,18.5908742 C53.1085358,18.4895642 53.0705445,18.3882541 53.0325533,18.2869441" id="Fill-78" fill="#FFFFFF"></path>
                <path id="Fill-80" fill="#FFFFFF"></path>
                <path id="Fill-82" fill="#FFFFFF"></path>
                <path d="M53.2984921,19.2873808 C53.0958721,19.122752 52.9818983,18.8061581 53.1591908,18.5908742 C53.5391035,19.274717 53.8810249,19.9965511 53.8936886,20.7943677 C53.8303699,20.8196952 53.7037323,20.883014 53.6530773,20.9083415 L53.665741,20.7690402 C53.6910686,20.5284288 53.6910686,20.3004812 53.6024223,20.0725336 C53.513776,20.2118349 53.4757847,20.3891275 53.4757847,20.5537563 C53.2858284,20.3891275 53.1465271,20.1738437 53.1085358,19.9332323 C53.2351734,19.9585598 53.3491472,19.9585598 53.463121,19.9079048 C53.665741,19.7306122 53.4504572,19.4266821 53.2984921,19.2873808" id="Fill-84" fill="#FFFFFF"></path>
                <path id="Fill-86" fill="#FFFFFF"></path>
                <path id="Fill-88" fill="#FFFFFF"></path>
                <path id="Fill-90" fill="#FFFFFF"></path>
                <path id="Fill-92" fill="#FFFFFF"></path>
                <path d="M56.0718546,20.6930576 C56.1098459,20.7057214 56.1858284,20.7310489 56.2238197,20.7437127 C56.4770948,21.503538 56.6923786,22.2886908 56.9203262,23.0611799 C56.8823349,23.0231886 56.7936886,22.9472061 56.7556974,22.9092148 C56.6417236,22.1367258 56.3757847,21.4022279 56.0718546,20.6930576" id="Fill-94" fill="#FFFFFF"></path>
                <path d="M53.3998022,21.034979 C53.6277498,21.3009179 53.6910686,21.6555031 53.8683611,21.9467694 C53.8683611,21.8581231 53.8683611,21.6808306 53.8810249,21.5921843 C54.4382301,21.9974245 54.0709812,22.9472061 54.7168328,23.314455 C54.7294965,23.1498262 54.7294965,22.9725336 54.7421603,22.8079048 L54.8814616,22.8585598 C55.0587541,23.4664201 55.1853917,24.1122716 55.1474004,24.7454594 C54.8687978,24.4668568 54.754824,24.0616166 54.5648677,23.7196952 C54.5901952,23.9476428 54.6281865,24.1882541 54.6408502,24.4162017 C54.5648677,24.4162017 54.4002389,24.4288655 54.3242563,24.4288655 C54.03299,23.8083415 54.1976188,23.0611799 53.9063524,22.4279921 C53.6784048,21.9847607 53.463121,21.5288655 53.3998022,21.034979" id="Fill-96" fill="#FFFFFF"></path>
                <path id="Fill-98" fill="#FFFFFF"></path>
                <path d="M0.490631878,24.0869441 C0.56661441,23.732359 0.439976856,23.2511362 0.731243231,22.9978611 C0.731243231,23.2384725 0.731243231,23.4917476 0.743906987,23.7450227 C0.794562009,23.6690402 0.870544541,23.5297389 0.908535808,23.4537563 C0.946527074,23.5550664 0.984518341,23.6437127 1.03517336,23.7450227 C1.04783712,23.783014 1.08582838,23.8589965 1.09849214,23.9096515 C1.03517336,23.8969878 0.895872052,23.8716603 0.832553275,23.8589965 C0.807225764,24.1502629 0.807225764,24.454193 0.81988952,24.7581231 C0.781898253,24.4921843 0.743906987,24.2389092 0.705915721,23.9729703 C0.655260699,24.0109616 0.5412869,24.0616166 0.490631878,24.0869441" id="Fill-100" fill="#FFFFFF"></path>
                <path id="Fill-102" fill="#FFFFFF"></path>
                <path id="Fill-104" fill="#FFFFFF"></path>
                <path id="Fill-106" fill="#FFFFFF"></path>
                <g id="Group-110" transform="translate(0.000000, 23.931712)" fill="#FFFFFF">
                    <path d="M0.490631878,0.155232314 C0.5412869,0.129904803 0.655260699,0.0792497817 0.705915721,0.0412585153 C0.743906987,0.30719738 0.781898253,0.560472489 0.81988952,0.826411354 C0.743906987,1.61156419 0.756570742,2.40938079 0.743906987,3.19453362 C0.579278166,3.86571266 0.68058821,4.56221921 0.553950655,5.23339825 C0.389321834,6.0438786 0.857880786,6.81636769 0.769234498,7.62684803 C0.845217031,8.3486821 1.02250961,9.0578524 1.09849214,9.79235022 C1.12381965,10.0962803 1.22512969,10.3875467 1.37709476,10.6661493 C1.364431,11.096717 1.364431,11.5526122 1.5923786,11.9325249 C1.83298996,12.2997738 1.71901616,12.7430052 1.87098122,13.1355817 L1.98495502,13.1229179 C1.99761878,13.0595991 2.03561004,12.9329616 2.0482738,12.8696428 L2.11159258,12.8696428 C1.68102489,13.426848 2.20023886,14.0220445 2.28888515,14.6045773 C2.46617773,14.4906035 2.36486769,14.2499921 2.41552271,14.0853633 C2.504169,14.3766297 2.58015153,14.6932236 2.64347031,14.9971537 C2.56748777,14.9591624 2.41552271,14.8958437 2.33954017,14.8705162 C2.65613406,15.2630926 2.77010786,15.7696428 3.02338297,16.2128742 C3.16268428,16.4408218 2.93473668,16.744752 3.16268428,16.9600358 C3.58058821,17.5425686 3.87185459,18.2010838 4.20111223,18.8342716 C4.6063524,19.3788131 4.75831747,20.0879834 5.26486769,20.5565424 C5.54347031,20.7971537 5.79674541,21.0630926 5.93604672,21.405014 C6.54390699,22.1395118 7.31639607,22.8106908 7.68364498,23.7098175 C8.01290262,24.1150576 8.40547904,24.4696428 8.84871048,24.7482454 C9.07665808,24.8115642 9.27927817,24.9128742 9.43124323,25.1028306 C9.26661441,24.9888568 9.10198559,24.874883 8.91202926,24.7989004 C8.86137424,25.2421319 9.34259694,25.4320882 9.60853581,25.6980271 C9.6971821,25.6853633 9.79849214,25.6726996 9.88713843,25.6600358 C10.2417236,26.3312148 10.9255664,26.6604725 11.4701079,27.154359 C12.4072258,27.9775031 13.4709812,28.6613459 14.5980555,29.2185511 C15.3072258,29.5224812 15.8264397,30.1430052 16.5989288,30.3456253 L16.5989288,30.5102541 C17.3207629,30.9154943 18.1059157,31.1181144 18.8910686,31.3333983 C18.8910686,31.3840533 18.9037323,31.4980271 18.9037323,31.5486821 C19.2709812,31.8019572 19.7268764,31.8779397 20.1701079,31.8906035 C20.7526406,32.1058873 21.3984921,32.1565424 21.9303699,32.4984638 C22.284955,32.7644026 22.7408502,32.5744463 23.1334266,32.6884201 C23.3993655,32.7137476 23.6146493,32.9163677 23.8805882,32.8910402 C24.1971821,32.9037039 24.513776,32.8910402 24.8177061,32.9796865 C25.0709812,32.7897301 25.3622476,32.9416952 25.6281865,32.9923502 C26.0840817,33.1189878 26.5779681,32.9796865 27.0338633,33.1189878 C27.6543873,33.2709528 28.3508939,33.4989004 28.9714179,33.1823066 C29.6425969,33.1443153 30.313776,33.3342716 30.9722913,33.1696428 C31.9220729,33.3722629 32.9984921,33.4355817 33.8343,32.8657127 C34.8980555,32.5744463 35.9998022,32.3211712 37.1015489,32.2325249 C37.5954354,32.1692061 38.0893218,32.0045773 38.5198895,31.7513022 C38.9251297,31.295407 39.5456537,31.1687694 40.0648677,30.9028306 C40.3308066,30.7382017 40.6474004,30.7382017 40.9513306,30.7508655 C41.3312432,30.5482454 41.6605009,30.2696428 42.065741,30.105014 C42.5469638,29.7504288 42.9775314,29.2818699 43.5727279,29.0919135 C44.1425969,28.914621 44.5605009,28.4713895 45.0417236,28.1294681 C45.7382301,27.6229179 46.523383,27.1923502 47.0679245,26.4958437 C48.3596275,25.2547956 49.6386668,23.9884201 50.7277498,22.5700795 C51.1076624,22.0888568 51.3229463,21.4809965 51.8294965,21.1137476 C52.323383,20.7718262 52.3867017,20.1006472 52.7792782,19.6700795 C53.5011122,18.7709528 53.8810249,17.6692061 54.4382301,16.6814332 C54.4508939,16.2002105 54.7421603,15.7823066 54.9067891,15.3517389 C55.4766581,14.0726996 55.8692345,12.7303415 56.2238197,11.3753197 C56.4264397,10.476193 56.4770948,9.56440262 56.7177061,8.67793974 C56.8316799,8.27269956 56.8443437,7.85479563 56.8949987,7.4368917 C57.0596275,7.05697904 57.1862651,6.66440262 57.3762214,6.30981747 C57.4015489,6.44911878 57.4268764,6.58842009 57.4648677,6.71505764 C57.4522039,7.10763406 57.4015489,7.50021048 57.4142127,7.88012314 C57.4395402,8.61462096 57.0089725,9.29846376 57.2115926,10.0329616 C56.4897585,13.1862367 55.5146493,16.326848 53.9190162,19.1635293 C53.4757847,20.0120009 52.8425969,20.7464987 52.4500205,21.6329616 C52.2220729,22.2154943 51.5382301,22.4561057 51.3989288,23.1019572 C50.3605009,24.456979 49.0814616,25.596717 47.8530773,26.78711 C47.1059157,27.2303415 46.5867017,27.9775031 45.8268764,28.4207345 C45.4469638,28.6233546 45.1050424,28.8892934 44.7377934,29.1045773 C44.4845183,29.2565424 44.1299332,29.1932236 43.9526406,29.4591624 C43.6993655,29.8137476 43.2687978,29.9657127 42.9142127,30.1936603 C41.6351734,31.0294681 40.2294965,31.6373284 38.8111559,32.1692061 C38.1399769,32.435145 37.3801515,32.5237913 36.7596275,32.9037039 C35.9744747,33.3722629 35.024693,33.1823066 34.2015489,33.5242279 C33.8976188,33.676193 33.5430336,33.574883 33.213776,33.676193 C32.7325533,33.8661493 32.2133393,33.6635293 31.7194528,33.8028306 C31.7067891,33.8408218 31.6561341,33.9168044 31.6308066,33.9547956 C28.8447803,34.2080707 26.0207629,34.0181144 23.2727279,33.4735729 C22.6522039,33.2329616 21.9177061,33.2456253 21.3858284,32.8023939 C21.0818983,32.5617825 20.6893218,32.6124376 20.3347367,32.6757563 C18.8530773,32.6630926 17.5487105,31.865276 16.2443437,31.2320882 C14.674038,30.4849266 13.1290598,29.5984638 11.824693,28.4333983 C10.9002389,27.9141843 10.064431,27.255669 9.34259694,26.4831799 C8.46879782,25.8879834 7.82294629,25.0521755 7.10111223,24.2923502 C6.44259694,23.165276 5.32818646,22.3547956 4.79630873,21.1390751 C3.90984585,19.9486821 3.06137424,18.7076341 2.58015153,17.2892934 C2.46617773,16.8587258 2.09892882,16.5547956 1.95962751,16.1368917 C1.68102489,15.4150576 1.28844847,14.7438786 1.06050087,13.996717 C0.971854585,13.7940969 1.08582838,13.5661493 1.06050087,13.3508655 C0.971854585,13.1609092 0.756570742,13.0342716 0.718579476,12.8189878 C0.655260699,12.0971537 0.81988952,11.3373284 0.5412869,10.6408218 C0.326003057,9.94431528 0.579278166,9.14649869 0.212029258,8.48798341 C0.0474004367,7.41156419 0.0727279476,6.30981747 0.0727279476,5.2207345 C-0.104564629,4.29628035 0.0980554585,3.35916245 0.0980554585,2.42204454 C0.110719214,1.82684803 0.186701747,1.23165153 0.28801179,0.636455022 C0.326003057,0.471826201 0.326003057,0.256542358 0.490631878,0.155232314" id="Fill-108"></path>
                </g>
                <path id="Fill-111" fill="#FFFFFF"></path>
                <path d="M10.4316799,24.8974245 C10.5203262,24.7834507 10.5963087,24.6694769 10.6596275,24.5555031 C10.5709812,24.922752 10.5709812,25.2900009 10.7229463,25.6319223 C10.583645,25.593931 10.4570074,25.5559397 10.3303699,25.5052847 C10.3430336,25.6572498 10.3556974,25.8092148 10.3683611,25.9611799 L10.2163961,25.9231886 C10.1910686,25.9105249 10.1404135,25.8978611 10.1277498,25.8978611 C10.0897585,25.8472061 10.013776,25.7585598 9.97578472,25.7205686 C10.2417236,25.8725336 10.2417236,25.4672934 9.98844847,25.4799572 C9.98844847,25.4293022 9.96312096,25.3026646 9.96312096,25.2393459 C10.0770948,25.074717 10.2417236,24.9607432 10.4316799,24.8974245" id="Fill-113" fill="#FFFFFF"></path>
                <path id="Fill-115" fill="#FFFFFF"></path>
                <path d="M4.30242227,24.8341057 C4.45438734,25.0620533 4.46705109,25.3406559 4.51770611,25.6065948 C4.6063524,26.113145 4.74565371,26.6576865 4.53036987,27.1642367 C4.30242227,27.7214419 4.16312096,28.3039747 4.07447467,28.8991712 C3.94783712,28.0127083 4.12512969,27.1262454 4.22643974,26.2524463 C4.32774978,25.7838873 4.20111223,25.3026646 4.30242227,24.8341057" id="Fill-117" fill="#FFFFFF"></path>
                <path d="M54.4508939,24.8720969 C54.5648677,25.3406559 55.1220729,25.5812672 55.0967454,26.113145 C55.0714179,26.4424026 55.0334266,26.784324 55.0840817,27.1262454 C55.0334266,27.3668568 54.9321166,27.5821406 54.8434703,27.8100882 C54.7674878,27.5061581 54.6788415,27.1769004 54.8181428,26.8729703 C54.9194528,26.6070314 54.704169,26.4044114 54.5901952,26.1891275 C54.4002389,25.7712236 54.5648677,25.3026646 54.4508939,24.8720969" id="Fill-119" fill="#FFFFFF"></path>
                <path id="Fill-121" fill="#FFFFFF"></path>
                <path id="Fill-123" fill="#FFFFFF"></path>
                <path id="Fill-125" fill="#FFFFFF"></path>
                <path id="Fill-127" fill="#FFFFFF"></path>
                <path id="Fill-129" fill="#FFFFFF"></path>
                <path d="M48.7268764,27.2908742 C49.1194528,27.3415293 49.6006755,27.4175118 49.7906319,27.8100882 C49.9679245,28.9118349 49.6766581,30.0769004 49.0181428,30.9760271 C48.6635576,31.6092148 47.9037323,31.7865074 47.2832083,32.0524463 C46.7639943,32.3057214 46.3714179,31.6345424 46.3840817,31.1786472 C46.4474004,30.203538 46.9919419,29.3677301 47.4858284,28.5572498 C47.9290598,28.1646734 48.283645,27.6834507 48.7268764,27.2908742" id="Fill-131" fill="#FFFFFF"></path>
                <path id="Fill-133" fill="#FFFFFF"></path>
                <path d="M36.4810249,27.822752 C36.9369201,27.7341057 37.3801515,27.4555031 37.8613742,27.5694769 C38.0766581,27.5948044 38.3046057,27.5568131 38.5198895,27.5694769 C38.6465271,27.7087782 38.8364834,27.822752 38.8871384,28.0127083 C38.8111559,28.1266821 38.7351734,28.2279921 38.6338633,28.3039747 C38.7858284,28.544586 38.8238197,28.8231886 38.7984921,29.1017913 C38.3552607,29.3170751 37.9120293,29.532359 37.4434703,29.6589965 C37.1268764,29.7476428 36.8482738,29.5450227 36.6456537,29.3297389 C36.6456537,29.0638 36.6456537,28.7978611 36.5063524,28.5699135 C36.6963087,28.5065948 36.7089725,28.2786472 36.7596275,28.1140183 C36.7722913,27.9113983 36.4683611,28.0127083 36.4810249,27.822752" id="Fill-135" fill="#FFFFFF"></path>
                <path id="Fill-137" fill="#FFFFFF"></path>
                <path id="Fill-139" fill="#FFFFFF"></path>
                <path id="Fill-141" fill="#FFFFFF"></path>
                <path id="Fill-143" fill="#FFFFFF"></path>
                <path id="Fill-145" fill="#FFFFFF"></path>
                <path id="Fill-147" fill="#FFFFFF"></path>
                <path id="Fill-149" fill="#FFFFFF"></path>
                <path d="M17.2067891,30.3808306 C17.2954354,29.9502629 17.4474004,29.532359 17.6373568,29.1397825 C17.675348,29.5196952 17.7260031,29.8996079 17.7006755,30.2795205 C17.5360467,30.3175118 17.3714179,30.3428393 17.2067891,30.3808306" id="Fill-151" fill="#FFFFFF"></path>
                <path id="Fill-153" fill="#FFFFFF"></path>
                <path id="Fill-155" fill="#FFFFFF"></path>
                <path d="M40.3941253,29.7729703 C40.6094092,29.8996079 40.6220729,30.1908742 40.8120293,30.3555031 C41.1666144,30.722752 41.4832083,31.1153284 41.7871384,31.5205686 C41.8504572,31.6472061 41.8251297,31.7865074 41.6858284,31.8371624 C41.6984921,31.7611799 41.7364834,31.6218786 41.7618109,31.5458961 C41.2425969,31.1786472 40.6853917,30.7987345 40.4827716,30.1655467 C40.4194528,30.1782105 40.305479,30.2162017 40.2421603,30.2415293 C40.2928153,30.0895642 40.3434703,29.9249354 40.3941253,29.7729703" id="Fill-157" fill="#FFFFFF"></path>
                <path id="Fill-159" fill="#FFFFFF"></path>
                <path id="Fill-161" fill="#FFFFFF"></path>
                <path id="Fill-163" fill="#FFFFFF"></path>
                <path d="M11.4701079,31.1153284 C11.5714179,30.9127083 11.6094092,30.6720969 11.7867017,30.5201319 C11.875348,30.5707869 11.9639943,30.6341057 12.0526406,30.6974245 C11.9639943,30.9886908 11.9133393,31.3052847 11.875348,31.6092148 C11.6474004,31.5965511 11.4321166,31.5332323 11.2168328,31.444586 C11.305479,31.3306122 11.3941253,31.2293022 11.4701079,31.1153284" id="Fill-165" fill="#FFFFFF"></path>
                <path id="Fill-167" fill="#FFFFFF"></path>
                <path id="Fill-169" fill="#FFFFFF"></path>
                <path id="Fill-171" fill="#FFFFFF"></path>
                <path d="M42.2303572,32.4070314 C42.5976061,32.3817039 42.6989162,32.8249354 42.9901825,33.0022279 C43.2814489,33.1921843 43.2687852,33.5720969 43.1801389,33.8760271 C43.0028463,33.7367258 42.8508812,33.5594332 42.7748987,33.3441493 C42.6482611,33.0022279 42.344331,32.7616166 42.2303572,32.4070314" id="Fill-173" fill="#FFFFFF"></path>
                <path id="Fill-175" fill="#FFFFFF"></path>
                <path id="Fill-177" fill="#FFFFFF"></path>
                <path id="Fill-179" fill="#FFFFFF"></path>
                <path id="Fill-181" fill="#FFFFFF"></path>
                <path id="Fill-183" fill="#FFFFFF"></path>
                <path id="Fill-185" fill="#FFFFFF"></path>
                <path d="M51.1963087,29.684324 C51.1456537,30.0769004 51.1709812,30.5201319 50.9177061,30.8493895 C50.7024223,31.1659834 50.5504572,31.5332323 50.2845183,31.8118349 C50.2591908,31.7991712 50.1832083,31.7738437 50.1578808,31.7611799 C50.0312432,32.2424026 49.4867017,32.3817039 49.2080991,32.7489528 C48.8408502,32.6603066 48.6762214,33.1162017 48.3469638,33.2175118 C47.7770948,33.3821406 47.1185795,33.6987345 46.5613742,33.3188218 C45.9408502,33.0148917 45.6242563,32.3817039 45.2823349,31.8244987 C44.8391035,31.2799572 44.8897585,30.5201319 45.0163961,29.8742803 C45.3963087,28.493931 46.2954354,27.3288655 47.2832083,26.3284288 C47.6504572,25.9485162 48.1316799,25.7079048 48.6002389,25.4546297 C48.9928153,25.4039747 49.2840817,25.644586 49.3220729,26.0371624 C49.7653044,26.2271188 50.3351734,26.2904376 50.5757847,26.784324 C51.2596275,27.5821406 51.33561,28.6965511 51.1963087,29.684324 M49.3474004,37.7384725 C48.7015489,37.9284288 47.9923786,38.1690402 47.3211996,37.8777738 C46.054824,37.3712236 45.4469638,36.0415293 44.4338633,35.2057214 C44.0919419,34.914455 43.8006755,34.5851974 43.5474004,34.2306122 C43.5727279,34.1166384 43.5980555,34.0026646 43.623383,33.9013546 C43.4714179,33.9013546 43.3194528,33.9013546 43.1801515,33.8760271 C43.2687978,33.5720969 43.2814616,33.1921843 42.9901952,33.0022279 C42.6989288,32.8249354 42.5976188,32.3817039 42.2303699,32.4070314 C42.3443437,32.7616166 42.6482738,33.0022279 42.7749114,33.3441493 C42.4963087,33.1921843 42.3190162,32.9389092 42.1290598,32.6982978 C41.5591908,31.9638 40.9133393,31.292621 40.3308066,30.5707869 C40.1915052,30.4061581 40.0142127,30.2795205 39.8495838,30.152883 C39.7482738,30.203538 39.6469638,30.2668568 39.53299,30.3175118 C39.7102825,30.7100882 39.5963087,31.1406559 39.7102825,31.5458961 L39.5709812,31.5585598 C39.583645,31.495241 39.5963087,31.3559397 39.6089725,31.292621 C39.4823349,31.3559397 39.3683611,31.4192585 39.2417236,31.4825773 C39.3810249,31.7485162 39.4696712,32.0397825 39.583645,32.3183852 C39.5456537,32.3437127 39.4823349,32.3817039 39.4443437,32.4070314 C39.3683611,32.432359 39.2037323,32.4703502 39.1277498,32.483014 C39.064431,32.8502629 39.0011122,33.2301755 39.0264397,33.6100882 C39.115086,34.4712236 38.7605009,35.332359 38.2159594,36.003538 C37.9880118,35.484324 38.0260031,34.9017913 38.0766581,34.344586 C38.1779681,33.3694769 38.3679245,32.4196952 38.4185795,31.444586 C38.443907,31.1026646 38.494562,30.773407 38.5578808,30.4314856 C38.0766581,30.4948044 37.5574441,30.7860707 37.1142127,30.4948044 C36.6963087,30.3681668 36.6076624,29.8996079 36.3543873,29.6083415 C35.8098459,28.8358524 36.063121,27.8100882 36.4556974,27.0375991 C36.7596275,26.683014 37.2155227,26.4170751 37.6967454,26.4297389 C38.0260031,26.8603066 38.494562,27.1515729 39.0391035,27.2275555 C39.3556974,24.8467694 39.6469638,22.4659834 39.8622476,20.0598699 C40.2674878,19.9332323 40.5967454,19.4520096 41.0526406,19.692621 C41.3692345,19.743276 41.5338633,20.0472061 41.7871384,20.2118349 C41.6731646,20.5664201 42.1670511,20.6803939 42.3063524,20.9589965 C42.2936886,21.1236253 42.2556974,21.2882541 42.2303699,21.452883 C42.3063524,21.4275555 42.4583175,21.3769004 42.5343,21.3515729 C42.6609376,21.6808306 42.4203262,21.9341057 42.2683611,22.2000445 C42.2177061,22.6179485 42.2683611,23.0611799 42.0530773,23.4284288 C41.7998022,22.8712236 42.1670511,22.3013546 42.3316799,21.7694769 C42.2683611,21.7441493 42.1290598,21.6808306 42.065741,21.6428393 C42.1543873,21.4782105 42.1543873,21.2755904 42.1290598,21.0856341 C42.0784048,21.0982978 41.964431,21.0982978 41.9011122,21.1109616 C41.913776,21.0096515 41.9391035,20.9083415 41.9517672,20.8070314 C41.7871384,20.6803939 41.5845183,20.7310489 41.4072258,20.7310489 C41.445217,20.9210052 41.5211996,21.1109616 41.6098459,21.2882541 C41.5465271,21.3262454 41.4325533,21.3895642 41.3692345,21.4275555 C41.445217,21.6934943 41.4325533,21.9847607 41.3185795,22.2506996 C41.1919419,22.6306122 41.6984921,22.8205686 41.6858284,23.2004812 C41.6731646,23.3904376 41.8124659,23.5170751 41.9391035,23.6437127 L41.9391035,24.1882541 L41.863121,24.1375991 C41.7871384,23.9729703 41.3185795,23.8969878 41.5085358,24.1755904 C41.5845183,24.3148917 41.6984921,24.454193 41.7998022,24.5934943 C41.6478371,25.1000445 41.5971821,25.644586 41.394562,26.1384725 C41.2552607,26.683014 41.1286231,27.2402192 40.824693,27.7087782 C40.7613742,27.8354157 40.6600642,27.924062 40.5207629,27.974717 C40.5967454,28.0127083 40.6600642,28.0506996 40.7360467,28.1013546 C42.1670511,27.3162017 43.1674878,25.9865074 44.5098459,25.0620533 C45.1177061,24.2515729 45.9281865,23.6057214 46.6626843,22.9218786 C46.9792782,22.5799572 47.245217,21.9467694 47.815086,22.0354157 C47.7897585,22.3013546 47.8784048,22.6052847 47.713776,22.8458961 C47.4478371,23.2511362 47.194562,23.6690402 46.9286231,24.0742803 C46.2321166,24.7707869 45.4216362,25.3406559 44.763121,26.0751537 C44.1425969,26.733669 43.4334266,27.2908742 42.7495838,27.873407 C42.1417236,28.3039747 41.4705445,28.6712236 41.0273131,29.2917476 C41.1412869,29.3803939 41.293252,29.3550664 41.4325533,29.3424026 C41.4325533,29.4183852 41.4325533,29.5703502 41.445217,29.6463328 C41.6731646,29.8616166 41.9011122,30.1022279 42.1797148,30.254193 C42.1290598,30.8113983 42.7242563,31.0393459 43.0281865,31.4192585 C43.3447803,32.1537563 43.9273131,32.7109616 44.3958721,33.3441493 C44.8011122,33.9140183 45.3456537,34.3572498 45.7508939,34.914455 C46.3714179,35.7249354 47.0425969,36.5860707 48.0556974,36.8900009 C48.8155227,37.0672934 49.5880118,37.2192585 50.3478371,37.3458961 C50.0692345,37.5865074 49.7399769,37.8017913 49.3474004,37.7384725 M49.005479,38.1943677 C49.1574441,38.0930576 49.3853917,38.0803939 49.5500205,38.1817039 C49.4993655,38.3463328 49.0308066,38.3716603 49.005479,38.1943677 M46.9792782,38.2703502 C47.3465271,38.0677301 47.0046057,38.6882541 46.9792782,38.2703502 M48.7648677,42.7659834 C48.1823349,43.4244987 47.4731646,43.9943677 47.0679245,44.7795205 C47.0046057,44.7795205 46.8906319,44.7668568 46.8399769,44.7668568 C46.5360467,45.1214419 46.105479,45.324062 45.6622476,45.4506996 C45.8142127,45.0834507 46.0294965,44.754193 46.2194528,44.4122716 C46.3967454,43.8803939 46.523383,43.3358524 46.7513306,42.8166384 C46.675348,42.6773371 46.3080991,42.474717 46.5613742,42.3480795 C46.8653044,42.2214419 47.1185795,42.0188218 47.245217,41.7148917 C47.7770948,41.8668568 48.4736013,41.5249354 48.853514,42.0441493 C49.0814616,42.2594332 48.9168328,42.5633633 48.7648677,42.7659834 M45.7635576,37.9031013 C45.8142127,37.8271188 45.902859,37.6878175 45.953514,37.6118349 C46.2321166,37.7258087 46.2954354,38.0550664 46.2067891,38.3210052 C46.1181428,38.5489528 46.0168328,38.1690402 45.9915052,38.0803939 C45.9408502,38.0424026 45.8142127,37.9537563 45.7635576,37.9031013 M45.4469638,37.9284288 C45.6242563,37.7891275 45.7635576,38.1183852 45.6115926,38.2196952 C45.4216362,38.3716603 45.2696712,38.0424026 45.4469638,37.9284288 M45.0163961,38.4729703 C44.813776,38.4729703 44.6111559,38.4856341 44.4085358,38.4856341 C44.5225096,38.3969878 44.6364834,38.3083415 44.763121,38.2196952 C44.7884485,38.1437127 44.8391035,38.0044114 44.864431,37.9284288 C44.9404135,37.9284288 45.0797148,37.9157651 45.1556974,37.9031013 C45.1050424,37.9410926 44.9910686,38.0170751 44.9404135,38.0550664 C44.965741,38.1943677 44.9910686,38.333669 45.0163961,38.4729703 M44.7884485,45.1720969 C44.6238197,45.0327956 44.4085358,45.0834507 44.2059157,45.0581231 C43.8639943,44.7162017 43.5853917,44.2223153 43.7626843,43.7284288 C44.0159594,43.044586 44.4971821,42.3987345 45.1683611,42.0821406 C45.5989288,42.3860707 46.1941253,42.7026646 46.1434703,43.3358524 C46.2827716,44.1969878 45.5736013,44.9441493 44.7884485,45.1720969 M42.2556974,45.1720969 C42.0910686,45.0327956 41.8757847,45.0834507 41.6731646,45.0581231 C41.3312432,44.7162017 41.0526406,44.2223153 41.2299332,43.7284288 C41.4832083,43.044586 41.964431,42.3987345 42.63561,42.0821406 C43.0661777,42.3860707 43.6613742,42.7026646 43.6107192,43.3231886 C43.7373568,44.1969878 43.053514,44.9441493 42.2556974,45.1720969 M40.6727279,43.0065948 C40.4701079,43.3865074 40.204169,43.7157651 39.9002389,44.0196952 C39.4190162,44.6782105 39.2543873,45.4886908 39.013776,46.2485162 C38.9377934,45.1594332 39.3810249,44.1210052 39.6343,43.0699135 C39.53299,42.9686035 39.3430336,42.9052847 39.3683611,42.7279921 C39.5076624,42.6393459 39.6596275,42.5760271 39.8115926,42.5127083 C39.9888852,42.1201319 40.1661777,41.7148917 40.3434703,41.3223153 C40.0268764,41.3096515 39.73561,41.2083415 39.5963087,40.9044114 C39.684955,40.8031013 39.7102825,40.6004812 39.8749114,40.6004812 C40.2168328,40.5751537 40.4701079,40.2838873 40.8120293,40.2585598 C41.2299332,40.2079048 41.6351734,40.1065948 42.0024223,39.9166384 C42.5089725,40.0686035 43.002859,39.7393459 43.5094092,39.8026646 C43.3574441,40.4865074 42.9395402,41.0310489 42.5089725,41.5502629 C42.5469638,41.1576865 42.7242563,40.7904376 42.8508939,40.4105249 C42.43299,40.5878175 42.0024223,40.714455 41.5845183,40.8917476 C41.394562,41.2210052 41.3312432,41.6135817 41.2299332,41.9808306 C41.445217,41.904848 41.6858284,41.8668568 41.9011122,41.7908742 C41.9517672,41.9681668 41.964431,42.2467694 41.7364834,42.322752 C41.3692345,42.5127083 40.875348,42.6013546 40.6727279,43.0065948 M37.4687978,42.3860707 C37.253514,43.2472061 36.9495838,44.0703502 36.7722913,44.9314856 C36.6583175,45.324062 36.3037323,45.5900009 35.9491472,45.7419659 C35.8351734,45.222752 36.1264397,44.7415293 36.2277498,44.2476428 C36.3417236,43.6777738 36.5823349,43.1585598 36.7976188,42.6266821 C36.3923786,42.6900009 35.9998022,42.6266821 35.6832083,42.3607432 C35.3919419,42.5760271 35.1006755,42.8166384 34.7587541,42.943276 C34.6954354,43.1205686 34.6194528,43.2978611 34.5561341,43.46249 C34.7967454,43.3991712 35.0500205,43.3231886 35.2906319,43.2472061 C35.2526406,43.9310489 34.4168328,43.9310489 34.0242563,44.3362891 C34.6574441,44.2729703 35.1639943,43.8550664 35.7718546,43.7157651 C35.5185795,43.9943677 35.3159594,44.3489528 34.9487105,44.5009179 C34.6067891,44.6655467 34.2648677,44.8555031 33.9229463,45.0074681 C33.6190162,45.1594332 33.4923786,45.5393459 33.1504572,45.6279921 C33.1251297,44.3869441 33.8469638,43.3358524 34.3155227,42.2341057 C34.8600642,42.4113983 35.3412869,42.0821406 35.8098459,41.8668568 C36.3923786,42.0188218 36.9749114,41.7782105 37.5574441,41.7402192 C38.0260031,41.7022279 38.494562,41.6262454 38.963121,41.6769004 C38.6718546,42.2467694 37.9880118,42.1834507 37.4687978,42.3860707 M35.3286231,52.8463328 C35.7085358,52.6437127 35.3412869,53.2642367 35.3286231,52.8463328 M34.3155227,53.2009179 C34.3155227,53.0109616 34.5941253,53.0362891 34.7207629,52.9982978 C35.1766581,53.0489528 34.4801515,53.454193 34.3155227,53.2009179 M32.7705445,44.3742803 C32.3399769,44.6148917 31.8714179,44.8301755 31.4281865,45.0581231 C31.2002389,45.2354157 31.0482738,45.5393459 30.7443437,45.6279921 C30.7190162,44.3869441 31.4408502,43.3358524 31.9094092,42.2341057 C32.5299332,42.474717 33.0364834,41.8795205 33.6570074,41.9175118 C33.6190162,42.2087782 33.3404135,42.3100882 33.1504572,42.4620533 C32.9098459,42.6520096 32.643907,42.8039747 32.3779681,42.9559397 C32.2513306,43.095241 32.2260031,43.2978611 32.1500205,43.46249 C32.3906319,43.3991712 32.643907,43.3231886 32.8845183,43.2472061 C32.8465271,43.9310489 32.0107192,43.9310489 31.6181428,44.3362891 C32.2513306,44.2729703 32.7578808,43.8550664 33.365741,43.7157651 C33.1757847,43.9310489 32.9984921,44.184324 32.7705445,44.3742803 M31.9220729,47.2109616 C30.9722913,48.122752 29.9845183,49.0092148 29.0474004,49.9463328 C29.275348,50.3769004 29.7059157,50.6428393 30.0351734,50.9974245 C30.4784048,51.4786472 30.9469638,51.9472061 31.4281865,52.3904376 C31.6181428,52.5550664 31.7827716,52.7703502 31.8840817,52.9982978 C31.504169,52.8463328 31.2382301,52.5170751 30.9343,52.2511362 C30.313776,51.6052847 29.6299332,51.0100882 28.9967454,50.3769004 C28.9080991,50.3135817 28.7814616,50.1236253 28.6674878,50.2629266 C27.9203262,50.9974245 27.1478371,51.693931 26.4006755,52.4284288 C26.1220729,52.6437127 25.8941253,52.9476428 25.5522039,53.0742803 C25.6155227,52.833669 25.805479,52.6690402 25.9701079,52.5044114 C26.8565707,51.6812672 27.7050424,50.8327956 28.553514,49.9589965 C27.6543873,49.0725336 26.7425969,48.2113983 25.8308066,47.3375991 C25.754824,47.2362891 25.602859,47.1603066 25.5901952,47.033669 C25.6788415,46.8437127 25.8814616,46.9703502 26.0080991,47.033669 C27.0085358,47.8694769 27.8063524,48.9079048 28.8067891,49.7310489 C29.7185795,48.8699135 30.5923786,47.9961144 31.4788415,47.1223153 C31.605479,46.9450227 31.8207629,46.9450227 32.0107192,46.983014 C31.9853917,47.0463328 31.9474004,47.1476428 31.9220729,47.2109616 M25.3749114,45.324062 C24.2984921,45.5773371 23.4120293,46.2611799 22.3862651,46.6157651 C23.0574441,45.9699135 23.8552607,45.4633633 24.6404135,44.9694769 C24.9696712,44.804848 24.8556974,44.3236253 24.6530773,44.0956777 C24.2225096,43.5638 23.5766581,43.0699135 23.5513306,42.3354157 C23.6146493,41.6262454 24.1971821,41.1450227 24.7037323,40.7271188 C24.8810249,40.6004812 25.03299,40.3598699 25.2736013,40.4231886 C25.6155227,40.5371624 26.0080991,40.7904376 26.0334266,41.183014 C26.1094092,41.7022279 25.8561341,42.1961144 25.5901952,42.6140183 C25.4762214,42.8293022 25.23561,42.8166384 25.03299,42.8293022 C24.9443437,42.1834507 25.8561341,41.6135817 25.4255664,40.9803939 C25.0203262,41.2716603 24.615086,41.5882541 24.3111559,41.9808306 C24.1085358,42.2341057 24.1465271,42.6266821 24.3618109,42.8672934 C24.7163961,43.4244987 25.4129026,43.7284288 25.6281865,44.3869441 C25.7674878,44.703538 25.754824,45.2100882 25.3749114,45.324062 M21.3858284,45.2480795 C21.1958721,44.8175118 21.0185795,44.3869441 20.8159594,43.9563764 C20.5373568,44.3869441 20.3600642,44.8555031 20.1067891,45.2860707 C20.0561341,44.8428393 20.1447803,44.3996079 20.1321166,43.9563764 C19.9674878,44.0070314 19.8155227,44.0703502 19.6508939,44.133669 C19.5875751,44.3996079 19.5495838,44.6782105 19.384955,44.9061581 C19.1823349,45.1974245 19.23299,45.5646734 19.1570074,45.8812672 C18.8910686,45.4506996 18.9543873,44.9061581 18.9543873,44.4249354 C18.865741,44.4375991 18.6884485,44.4629266 18.5998022,44.4755904 C18.2705445,44.8428393 17.9792782,45.273407 17.5487105,45.5393459 C17.4600642,45.5266821 17.2827716,45.5013546 17.1941253,45.4886908 C17.1941253,45.273407 17.2067891,45.0581231 17.2701079,44.8555031 C17.2194528,44.7288655 17.1561341,44.6022279 17.105479,44.4755904 C17.3840817,44.184324 17.8779681,44.2223153 18.0425969,43.8170751 C18.3465271,43.2345424 18.815086,42.7533197 19.0303699,42.1201319 C19.0810249,41.9428393 19.3469638,41.9555031 19.4862651,42.0441493 C19.802859,42.5760271 19.7395402,43.2345424 19.7268764,43.8297389 C19.8915052,43.7790838 20.0434703,43.7410926 20.1954354,43.6777738 C20.3347367,43.3358524 20.3220729,42.9559397 20.3980555,42.6013546 C20.474038,42.5886908 20.6260031,42.5760271 20.6893218,42.5760271 C20.9679245,42.9686035 21.1832083,43.4244987 21.4871384,43.7917476 C21.7530773,43.2598699 21.8037323,42.6520096 22.0570074,42.1074681 C22.1709812,41.904848 22.4115926,42.0694769 22.4495838,42.2467694 C22.6268764,42.8039747 22.0949987,43.3105249 22.3102825,43.8677301 C21.4998022,43.9563764 22.1583175,45.222752 21.3858284,45.2480795 M16.1556974,45.4000445 C16.1556974,45.2354157 16.1810249,45.0581231 16.2063524,44.8934943 C16.4596275,44.0196952 16.6622476,43.1205686 17.1181428,42.322752 C16.9281865,42.0441493 17.0421603,41.6642367 17.3080991,41.4869441 C17.3714179,41.5375991 17.5107192,41.6515729 17.5867017,41.7148917 C17.523383,41.9808306 17.2954354,42.1327956 17.1181428,42.3100882 C17.2701079,42.3987345 17.5867017,42.4367258 17.4727279,42.6900009 C17.3587541,43.2851974 17.1181428,43.8424026 17.004169,44.4375991 C16.9408502,44.8808306 16.5989288,45.2987345 16.1556974,45.4000445 M14.6993655,43.3991712 C15.1425969,43.6524463 15.813776,43.7157651 15.9404135,44.3109616 C16.1810249,44.7162017 15.813776,45.1847607 15.4085358,45.2607432 C14.9399769,45.3620533 14.3827716,45.6406559 13.9648677,45.2860707 C13.4709812,45.0201319 13.6862651,44.4122716 13.6482738,43.9690402 C13.5596275,43.7157651 14.0408502,43.7537563 13.9648677,43.9817039 C13.9775314,44.3869441 14.053514,44.8681668 14.4840817,45.0201319 C14.8006755,45.1594332 15.0412869,44.8934943 15.2312432,44.6782105 C15.2818983,44.2476428 14.8006755,44.0576865 14.5094092,43.8550664 C14.2814616,43.7410926 14.1928153,43.4878175 13.9901952,43.3358524 C13.7495838,43.3611799 13.3823349,43.3231886 13.2936886,43.6271188 C13.1417236,44.032359 13.1797148,44.4755904 13.0404135,44.8808306 C12.863121,45.4506996 12.964431,46.0458961 12.8884485,46.6157651 C12.8251297,46.6537563 12.6984921,46.7170751 12.6351734,46.7550664 C12.4072258,45.6913109 12.6605009,44.6148917 12.6478371,43.5511362 C12.2299332,43.5891275 11.8373568,43.7410926 11.4447803,43.8930576 C11.3308066,44.5262454 10.684955,44.8681668 10.3303699,45.3620533 C10.4696712,44.8175118 10.7989288,44.3489528 11.0775314,43.8677301 C10.8875751,43.7664201 10.7229463,43.6524463 10.583645,43.5004812 C10.8369201,43.4878175 11.0901952,43.4751537 11.3434703,43.46249 C11.9893218,42.4620533 12.5718546,41.3856341 13.4456537,40.56249 C13.5976188,41.4236253 13.4076624,42.2847607 13.2683611,43.1332323 C13.584955,43.1458961 13.9901952,43.1712236 14.1928153,42.8799572 C14.4967454,42.4873808 14.8893218,42.0694769 15.4085358,42.0188218 C15.8770948,41.9934943 15.9784048,42.5000445 16.1430336,42.8293022 C15.6491472,42.4367258 14.5727279,42.6140183 14.6993655,43.3991712 M9.95045721,38.8148917 C9.11464934,38.9162017 8.27884148,38.7769004 7.44303362,38.7769004 C7.08844847,38.7515729 6.70853581,38.5616166 6.65788079,38.1690402 C7.164431,38.1563764 7.68364498,38.0170751 8.1901952,38.1310489 C8.95002052,38.1943677 9.70984585,38.1310489 10.4696712,38.1437127 C11.305479,38.0044114 12.1539507,38.1437127 13.0024223,38.1310489 C13.3443437,38.2070314 13.6989288,38.2703502 14.053514,38.1943677 C14.5853917,38.0677301 15.1679245,38.3210052 15.6744747,38.0803939 C16.4089725,38.1817039 17.1434703,38.0044114 17.8779681,38.0930576 C18.4225096,38.1563764 19.0050424,38.0930576 19.4862651,38.384324 C19.6888852,38.2070314 19.904169,37.9157651 20.2207629,38.0170751 C20.6766581,38.1057214 21.145217,38.0677301 21.613776,38.1310489 C22.2469638,38.2576865 22.8801515,38.0297389 23.5133393,38.1310489 C24.2605009,38.232359 25.0076624,38.0803939 25.754824,38.0930576 C26.1094092,38.0424026 26.4639943,37.8777738 26.8312432,37.9664201 C27.0971821,38.1437127 27.3757847,38.3463328 27.7177061,38.3083415 C28.2115926,38.2196952 28.705479,38.283014 29.1993655,38.1943677 C29.5159594,38.1690402 29.8832083,38.0424026 30.1364834,38.283014 C30.1998022,38.5742803 29.8198895,38.7009179 29.6046057,38.7895642 C29.275348,38.9415293 28.9334266,38.7642367 28.604169,38.7895642 C28.1989288,38.8655467 27.7936886,38.9288655 27.4011122,39.0555031 C27.0465271,38.954193 26.6792782,38.954193 26.3120293,38.903538 C26.324693,38.9668568 26.3626843,39.1061581 26.375348,39.1694769 C26.1980555,39.1061581 26.0334266,39.0428393 25.8561341,38.9921843 C25.8561341,38.9415293 25.8561341,38.8402192 25.8434703,38.7895642 C25.5395402,38.8782105 25.2229463,38.903538 24.8936886,38.8908742 C24.4504572,38.8908742 24.0072258,39.2707869 23.5766581,39.004848 C23.3487105,38.9795205 22.9561341,38.8148917 22.8294965,39.0808306 C22.1203262,38.8402192 21.3731646,39.2327956 20.6766581,38.9415293 C20.4487105,38.8655467 20.2207629,38.9921843 20.005479,39.0301755 C20.0181428,38.9668568 20.0561341,38.8402192 20.0687978,38.7769004 C19.7648677,38.9415293 19.4482738,38.9288655 19.1316799,38.8402192 C18.6504572,38.9162017 18.143907,39.1188218 17.7006755,38.8275555 C17.3714179,38.9921843 17.0168328,38.852883 16.6749114,38.852883 C16.2696712,38.8275555 15.8264397,38.9668568 15.4718546,38.7135817 C15.1425969,38.4223153 14.8260031,39.0555031 14.4967454,38.8148917 C14.2814616,38.5616166 14.002859,38.7769004 13.7622476,38.8402192 C13.4203262,38.8148917 13.0910686,38.7389092 12.7491472,38.7895642 C11.824693,38.954193 10.8749114,38.9795205 9.95045721,38.8148917 M5.35351397,35.9655467 C5.31552271,35.7629266 5.25220393,35.5729703 5.01159258,35.5476428 C5.80940917,34.8004812 6.82250961,34.344586 7.70897249,33.7367258 C8.87403799,33.0402192 10.1277498,32.3817039 10.9508939,31.2672934 C11.102859,31.0520096 11.0901952,30.7354157 11.2928153,30.5454594 C11.2801515,30.6720969 11.2674878,30.7860707 11.254824,30.9127083 C11.305479,30.9633633 11.4194528,31.0646734 11.4701079,31.1153284 C11.3941253,31.2293022 11.305479,31.3306122 11.2168328,31.444586 C11.4321166,31.5332323 11.6474004,31.5965511 11.875348,31.6092148 C11.9133393,31.3052847 11.9639943,30.9886908 12.0526406,30.6974245 C11.9639943,30.6341057 11.875348,30.5707869 11.7867017,30.5201319 C11.824693,30.304848 11.824693,30.0895642 11.9133393,29.8869441 C11.8626843,29.734979 11.8120293,29.5956777 11.774038,29.4437127 C11.6474004,29.4690402 11.5080991,29.5070314 11.3814616,29.532359 C11.1788415,28.6965511 10.8749114,27.9113983 10.5456537,27.1389092 C10.5963087,27.0122716 10.6469638,26.8982978 10.6976188,26.784324 C10.3556974,26.6196952 10.3810249,26.2777738 10.3683611,25.9611799 C10.3556974,25.8092148 10.3430336,25.6572498 10.3303699,25.5052847 C10.4570074,25.5559397 10.583645,25.593931 10.7229463,25.6319223 C10.5709812,25.2900009 10.5709812,24.922752 10.6596275,24.5555031 C10.5963087,24.6694769 10.5203262,24.7834507 10.4316799,24.8974245 C10.2417236,24.9607432 10.0770948,25.074717 9.96312096,25.2393459 C9.82381965,24.5428393 10.0517672,23.8463328 10.3810249,23.2384725 C11.0268764,22.3520096 12.1666144,22.1367258 13.1543873,21.8201319 C13.8888852,21.6555031 14.6613742,21.7314856 15.4085358,21.7061581 C16.1683611,21.7061581 16.9281865,21.5415293 17.6880118,21.6934943 C18.6124659,21.8454594 19.5749114,21.3009179 20.474038,21.5795205 C21.4111559,21.2629266 22.6015489,21.554193 23.374038,20.7817039 C23.374038,20.9463328 23.3867017,21.1236253 23.3867017,21.2882541 L23.7792782,21.2882541 C23.8679245,21.6428393 23.6146493,21.9594332 23.4500205,22.2506996 C23.0701079,22.5419659 22.854824,23.0738437 22.3482738,23.1751537 C22.0949987,23.1751537 21.8417236,23.2004812 21.6011122,23.2764638 C21.1832083,23.2511362 20.7779681,23.2638 20.3600642,23.2764638 C20.3220729,23.2258087 20.2460904,23.1498262 20.2207629,23.0991712 C20.1827716,23.1498262 20.1194528,23.2384725 20.0814616,23.2891275 C19.5749114,23.2638 19.0303699,23.3904376 18.5491472,23.16249 C18.2325533,23.2638 17.9032956,23.2891275 17.5993655,23.1498262 C17.574038,23.1751537 17.5107192,23.213145 17.4853917,23.2384725 C17.1308066,23.2258087 16.7762214,23.2384725 16.4216362,23.1751537 C16.0797148,23.2764638 15.7251297,23.3271188 15.3705445,23.36511 C15.7251297,23.8083415 16.383645,23.5044114 16.8648677,23.6563764 C16.8775314,23.6817039 16.902859,23.7576865 16.9281865,23.783014 C16.1303699,23.8210052 15.345217,23.7576865 14.5600642,23.884324 C13.7875751,24.0362891 12.964431,24.0616166 12.2552607,24.454193 C11.7360467,24.6441493 11.6220729,25.2520096 11.5207629,25.7332323 C11.774038,26.8982978 12.2299332,28.0127083 12.4958721,29.1777738 C12.7111559,30.0262454 12.964431,30.9253721 12.7744747,31.7991712 C12.6225096,32.1410926 12.6098459,32.5463328 12.4325533,32.8755904 C12.1792782,33.052883 12.0399769,33.3568131 12.1539507,33.6480795 C12.1286231,33.6987345 12.0906319,33.7620533 12.0653044,33.8127083 C12.0779681,33.5594332 11.8500205,33.4581231 11.7360467,33.7113983 C11.5587541,34.0533197 11.0522039,33.9900009 10.9255664,34.3572498 L11.3308066,34.3572498 L11.3308066,34.4712236 C11.0395402,34.4332323 10.7102825,34.4585598 10.5583175,34.1672934 C10.2290598,34.2559397 9.88713843,34.2812672 9.62119956,34.4965511 C8.88670175,35.0410926 8.13954017,35.7122716 7.17709476,35.7502629 C6.5692345,35.8769004 5.96137424,35.9908742 5.35351397,35.9655467 M24.8050424,27.404848 C24.3111559,27.974717 23.6146493,28.4179485 23.2980555,29.114455 C23.3487105,29.1271188 23.424693,29.16511 23.475348,29.1777738 C22.8801515,29.8362891 22.7661777,30.7354157 22.5002389,31.5458961 C22.3862651,32.0524463 22.6268764,32.8375991 23.2600642,32.7869441 C24.3618109,32.6096515 25.184955,31.7611799 26.1600642,31.292621 C25.8434703,31.8498262 25.2736013,32.1917476 24.8810249,32.6982978 C24.615086,33.052883 24.2351734,33.3188218 23.8552607,33.5594332 C23.5006755,33.673407 23.0954354,33.6100882 22.7281865,33.673407 C22.3862651,33.7493895 22.1203262,33.4327956 21.7910686,33.4961144 C21.613776,33.1921843 21.3351734,32.9515729 21.1578808,32.6476428 C20.8159594,31.8498262 21.0312432,30.9633633 21.0818983,30.1402192 C20.5500205,30.2921843 20.0308066,30.4948044 19.5242563,30.6974245 C19.4102825,31.4699135 19.1316799,32.2044114 18.8910686,32.9515729 C18.8277498,32.7996079 18.764431,32.6603066 18.663121,32.533669 C18.4351734,33.4581231 18.4225096,34.4079048 18.2832083,35.3576865 C17.8273131,35.0537563 17.9159594,34.4585598 17.7893218,34.0026646 C17.5867017,33.154193 17.7386668,32.2803939 17.7006755,31.4192585 C17.3207629,31.4825773 16.9408502,31.5458961 16.5989288,31.7105249 C16.2443437,32.2044114 15.965741,32.7616166 15.4718546,33.154193 C15.0286231,33.5087782 14.6867017,33.9773371 14.1928153,34.2812672 C13.8762214,34.4712236 13.2810249,34.4712236 13.1797148,34.0279921 C12.9264397,33.4707869 13.2683611,32.8882541 13.5596275,32.4196952 C13.3696712,32.3437127 13.1543873,32.2930576 12.9897585,32.1664201 C12.9517672,31.9891275 12.8757847,31.7485162 13.0024223,31.5838873 C13.3823349,31.0773371 14.0281865,30.9127083 14.6107192,30.7480795 C14.8386668,30.7100882 14.9399769,30.4948044 15.0666144,30.3301755 C15.3958721,29.8869441 15.6491472,29.3930576 15.9277498,28.9244987 C16.4216362,28.0760271 17.004169,27.2908742 17.5487105,26.4803939 C17.7513306,26.1891275 17.6373568,25.7965511 17.8399769,25.5052847 C18.0805882,25.1380358 18.663121,24.9987345 19.0050424,25.3026646 C19.3596275,25.5812672 19.4229463,26.0371624 19.5369201,26.4424026 C19.8915052,27.5694769 19.7395402,28.7598699 19.6129026,29.8996079 C20.1447803,29.7856341 20.6639943,29.4943677 21.2211996,29.6969878 C21.4871384,28.9118349 21.8923786,28.1900009 22.3989288,27.5314856 C23.0827716,26.8223153 23.8552607,26.1891275 24.665741,25.6192585 C24.9696712,25.4419659 25.2989288,25.1633633 25.6915052,25.2900009 C26.274038,25.4419659 27.0085358,25.3786472 27.4011122,25.9105249 C27.4391035,26.2271188 27.1731646,26.5437127 27.3757847,26.8729703 C27.2618109,27.0629266 27.1984921,27.2908742 27.0338633,27.4555031 C26.8692345,27.4934943 26.6919419,27.4681668 26.5273131,27.3921843 C26.2867017,27.6201319 26.0334266,28.0633633 25.6661777,27.7594332 C25.8308066,27.4555031 25.9827716,27.1515729 26.1600642,26.8476428 C25.6408502,26.6956777 25.1469638,27.0502629 24.8050424,27.404848 M28.7941253,30.1148917 C28.6421603,30.7860707 28.6674878,31.5585598 28.1482738,32.0904376 C28.3635576,32.3817039 28.0976188,32.6476428 27.9203262,32.8629266 C27.8696712,32.8375991 27.7683611,32.7742803 27.7050424,32.7362891 C27.7556974,32.8629266 27.8063524,33.0022279 27.8190162,33.1415293 C27.6290598,33.1415293 27.2998022,33.0402192 27.3124659,33.3441493 C27.2871384,33.6860707 27.1225096,33.9646734 26.8818983,34.192621 C26.7805882,34.3825773 26.4513306,34.243276 26.4893218,34.0406559 C26.3500205,33.1668568 26.7172694,32.3437127 26.894562,31.5079048 C27.0718546,30.6974245 27.3251297,29.8996079 27.464431,29.0638 C27.5277498,28.6079048 27.7810249,28.2153284 27.8190162,27.7594332 C27.8823349,27.1515729 28.0976188,26.5690402 28.2115926,25.9738437 C28.3255664,25.5179485 28.3888852,25.0367258 28.6168328,24.6188218 C28.9587541,24.454193 29.3260031,24.7707869 29.5792782,24.9860707 C30.0858284,25.4419659 29.6552607,26.1384725 29.7692345,26.6956777 C29.8958721,27.1135817 29.5919419,27.4808306 29.5412869,27.873407 C29.5159594,28.1393459 29.4526406,28.4052847 29.3766581,28.6585598 C29.7059157,28.595241 30.0605009,28.5699135 30.3517672,28.392621 C30.6810249,27.8354157 30.7443437,27.1769004 31.0862651,26.632359 C31.3142127,25.9358524 31.5801515,25.2646734 31.8207629,24.5681668 C31.8840817,24.4415293 31.9220729,24.1755904 32.124693,24.2262454 C32.4032956,24.3022279 32.6692345,24.4288655 32.9478371,24.5301755 C33.0871384,24.8214419 33.4037323,25.0113983 33.4163961,25.3406559 C33.3024223,25.8472061 33.1504572,26.3410926 32.9731646,26.834979 C32.7832083,27.404848 32.3653044,27.9113983 32.2513306,28.5065948 C32.3019856,28.5192585 32.4032956,28.5572498 32.4539507,28.5699135 C32.1626843,29.16511 31.9347367,29.7982978 31.7827716,30.4441493 C31.7701079,30.3681668 31.7447803,30.203538 31.7194528,30.1148917 C31.3142127,30.6720969 31.0989288,31.343276 31.2129026,32.0271188 C30.9216362,32.1410926 31.0102825,32.5083415 30.8963087,32.7616166 C30.7696712,32.9769004 30.6303699,33.1795205 30.5163961,33.4074681 C30.1491472,33.4707869 29.9211996,33.7367258 29.7185795,34.0279921 C29.6679245,34.0026646 29.5666144,33.9520096 29.5286231,33.9266821 C29.4146493,32.5589965 29.6552607,31.2166384 29.8958721,29.8742803 C29.5286231,29.8996079 29.0600642,29.8236253 28.7941253,30.1148917 M30.0351734,45.8179485 C30.3264397,45.9825773 30.6556974,46.0585598 30.984955,46.0332323 C30.7190162,46.2231886 30.4404135,46.413145 30.1111559,46.3751537 C29.8325533,46.36249 29.5666144,46.1472061 29.5539507,45.8686035 C29.5159594,45.2100882 29.6805882,44.5769004 29.8578808,43.9437127 C29.4019856,43.7410926 29.2626843,44.2729703 29.1867017,44.5895642 C29.1360467,44.9568131 28.7687978,45.0961144 28.4775314,45.2480795 C28.3888852,44.7668568 28.7814616,44.4249354 28.8447803,43.9817039 C28.9714179,43.5384725 29.1487105,43.1205686 29.3133393,42.7026646 C29.1867017,42.7533197 29.0727279,42.8039747 28.9460904,42.8672934 C28.8447803,42.7406559 28.7434703,42.6013546 28.705479,42.4493895 C28.7687978,42.3100882 28.8574441,42.1961144 28.9460904,42.0821406 C28.553514,42.1707869 28.1609376,42.2847607 27.7810249,42.4113983 C27.6417236,43.0065948 27.4897585,43.6017913 27.2871384,44.184324 C27.1858284,44.5135817 27.1858284,44.8808306 27.0085358,45.1847607 C26.8185795,45.4253721 26.5653044,45.6153284 26.2993655,45.7546297 C26.1727279,45.2607432 26.4386668,44.7921843 26.5526406,44.3236253 C26.6666144,43.7537563 26.9072258,43.2092148 27.1098459,42.6646734 C26.7679245,42.6393459 26.3373568,42.7153284 26.1220729,42.3987345 C26.0460904,42.2087782 26.0334266,42.0061581 26.0080991,41.803538 C26.2487105,41.8795205 26.5019856,41.9808306 26.7679245,41.9175118 C27.5784048,41.7655467 28.4015489,41.6515729 29.224693,41.6642367 C29.174038,41.7908742 29.123383,41.9175118 29.0853917,42.0441493 C29.693252,41.7908742 30.4277498,41.4869441 31.0609376,41.854193 C31.3522039,42.1581231 31.504169,42.6900009 31.1875751,43.0319223 C30.9976188,43.3738437 30.5923786,43.4498262 30.2504572,43.5764638 C30.8076624,44.2856341 29.9085358,45.0581231 30.0351734,45.8179485 M41.8251297,38.2070314 C41.4832083,38.3589965 40.9766581,38.0930576 40.7993655,38.5236253 C40.875348,38.5362891 41.0273131,38.5616166 41.1159594,38.5742803 C40.9133393,38.8148917 40.6347367,38.6249354 40.3941253,38.5869441 C40.102859,38.5236253 39.7989288,38.4603066 39.4949987,38.4603066 C39.2543873,38.6882541 38.9504572,38.7895642 38.6211996,38.7642367 C38.6338633,38.6502629 38.6465271,38.5236253 38.6591908,38.4096515 C38.494562,38.3589965 38.3299332,38.2956777 38.1653044,38.2450227 C38.1526406,38.4603066 38.1526406,38.6629266 38.1653044,38.8782105 C37.8107192,38.8655467 37.4434703,38.8782105 37.1775314,38.6122716 C37.0508939,38.6629266 36.9369201,38.7135817 36.8102825,38.7642367 C36.83561,38.8402192 36.8862651,38.9795205 36.9115926,39.0555031 C36.7343,39.0175118 36.5570074,38.9668568 36.3923786,38.903538 C36.5823349,38.6755904 36.8482738,38.5109616 36.9749114,38.232359 C36.5570074,38.1563764 36.4430336,38.6755904 36.1011122,38.7642367 C36.0757847,38.7009179 36.0251297,38.5869441 35.9998022,38.5362891 C35.7338633,38.6755904 35.4552607,38.9795205 35.1260031,38.8022279 C34.8094092,38.6629266 34.4801515,38.7769004 34.1762214,38.8908742 C34.1762214,38.7135817 34.1762214,38.5489528 34.1635576,38.3716603 C33.8976188,38.4476428 33.9229463,38.6755904 33.9862651,38.8908742 C33.6949987,38.6629266 33.3404135,38.7515729 33.0111559,38.7895642 C32.5805882,38.7515729 32.1500205,38.7009179 31.7194528,38.7895642 L31.7574441,38.903538 C31.4788415,38.8908742 31.1622476,38.954193 30.9469638,38.7389092 C30.6936886,38.954193 30.3897585,38.852883 30.1111559,38.7642367 C30.313776,38.5236253 30.3011122,38.1817039 30.4910686,37.9284288 C31.4155227,38.1437127 32.3653044,38.1057214 33.3024223,38.2070314 C34.0622476,38.2070314 34.8474004,38.2196952 35.594562,38.0424026 C35.9491472,37.8777738 36.3163961,38.1437127 36.683645,38.0297389 C37.0508939,37.9157651 37.4181428,38.0930576 37.7853917,38.0930576 C38.3299332,37.9537563 38.8871384,37.7384725 39.4696712,37.86511 C40.4194528,38.0803939 41.394562,37.9917476 42.3570074,37.9284288 C42.6482738,38.1183852 43.002859,38.2196952 43.2941253,37.9410926 C43.6107192,37.9790838 43.9273131,38.0297389 44.243907,37.9284288 C44.2059157,38.0044114 44.1679245,38.0930576 44.1299332,38.1817039 C43.6867017,38.2450227 43.1801515,38.1057214 42.8635576,38.5109616 C42.5343,38.5109616 42.1923786,38.5362891 41.863121,38.4476428 C41.964431,38.434979 42.1670511,38.4096515 42.2683611,38.3969878 C42.4456537,38.0297389 42.0024223,38.1183852 41.8251297,38.2070314 M16.4469638,18.1856341 C16.5229463,17.7044114 17.0801515,17.5397825 17.105479,17.0458961 C17.7133393,16.843276 17.9032956,16.2100882 18.143907,15.6782105 C18.245217,15.3996079 18.2072258,15.0956777 18.2958721,14.8170751 C18.4478371,14.6271188 18.6377934,14.4878175 18.7770948,14.2851974 C18.7770948,13.0314856 18.8277498,11.7524463 19.0683611,10.524062 C19.1316799,9.9288655 19.7015489,9.65026288 20.005479,9.19436769 C20.1574441,8.72580873 20.1194528,8.14327598 20.524693,7.80135459 C20.9552607,7.54807948 21.4871384,7.73803581 21.8290598,8.04196594 C22.6015489,8.71314498 23.6653044,8.83978253 24.6530773,8.89043755 C25.4129026,8.82711878 26.1474004,8.57384367 26.9072258,8.47253362 C27.6037323,8.35855983 28.3002389,8.40921485 28.9840817,8.44720611 C29.7692345,8.49786114 30.5670511,8.43454236 31.3522039,8.54851616 C31.9727279,8.67515371 32.5552607,8.96642009 33.0364834,9.37166026 C33.365741,9.66292664 33.8596275,9.61227162 34.2268764,9.84021921 C34.8094092,10.2074681 35.2653044,10.7393459 35.7085358,11.2585598 C36.1011122,11.7271188 36.5316799,12.2083415 36.6709812,12.8288655 C36.7469638,13.2341057 36.9875751,13.5886908 37.2281865,13.9306122 C37.7220729,13.9179485 38.3046057,13.6900009 38.7225096,14.0572498 C38.494562,14.1712236 38.2792782,14.2978611 38.0766581,14.4244987 C38.7731646,14.4244987 39.53299,14.2725336 40.1788415,14.6397825 C40.5587541,14.8677301 41.0526406,15.133669 41.0273131,15.6402192 C40.6474004,15.6655467 40.3434703,15.4122716 39.9762214,15.3742803 C39.5583175,15.3236253 39.1404135,15.3236253 38.7225096,15.3616166 C38.6211996,15.8555031 38.7225096,16.3620533 38.7605009,16.8686035 C38.6718546,17.3244987 38.1779681,17.514455 37.9626843,17.8817039 C37.6334266,18.4769004 37.5701079,19.1607432 37.6334266,19.8319223 C37.6967454,20.2118349 37.2915052,20.5031013 36.9369201,20.5284288 C36.215086,20.6550664 35.594562,19.9965511 35.5185795,19.3253721 C35.2399769,19.1354157 35.0500205,18.8441493 34.7714179,18.6415293 C34.404169,18.4009179 34.5181428,17.8437127 34.1762214,17.5904376 C33.7963087,17.36249 33.3277498,17.2105249 32.8845183,17.4004812 C32.8971821,18.033669 33.6316799,18.2742803 33.8343,18.8188218 C33.884955,19.1354157 33.7963087,19.5026646 34.0115926,19.793931 C34.3661777,20.2751537 34.6701079,20.8070314 35.1006755,21.2375991 C35.2906319,21.503538 35.594562,21.7948044 35.5312432,22.1620533 C35.3159594,22.6559397 34.5941253,22.6686035 34.2142127,22.3773371 C34.0749114,22.0607432 33.9102825,21.7568131 33.5936886,21.5921843 C33.5556974,21.2882541 33.5177061,20.984324 33.4923786,20.6803939 C33.0744747,20.9589965 32.5299332,21.0476428 32.0867017,20.832359 C31.9474004,20.6044114 31.8967454,20.3384725 31.8334266,20.0851974 C31.7447803,20.0725336 31.5674878,20.0472061 31.4788415,20.0345424 C31.3901952,19.5026646 31.6941253,18.9327956 31.453514,18.4389092 C30.984955,18.0083415 30.6303699,17.4638 30.1111559,17.1092148 C29.6679245,16.6659834 29.0347367,16.5140183 28.4522039,16.3493895 C27.6797148,16.1341057 26.8818983,16.2480795 26.0967454,16.1594332 C25.8941253,16.2987345 25.7168328,16.6153284 25.4255664,16.5266821 C24.8050424,15.8301755 23.9692345,15.2729703 23.0321166,15.1463328 C22.753514,15.3489528 22.4369201,15.5389092 22.2089725,15.8175118 C22.0570074,16.2480795 22.1709812,16.8306122 21.7530773,17.1345424 C21.4111559,17.3751537 21.1832083,17.8183852 20.7526406,17.8690402 C20.4867017,17.6664201 20.6513306,17.2738437 20.6260031,16.9825773 C20.5500205,16.4506996 21.2591908,16.3367258 21.3098459,15.8428393 C21.2591908,15.4249354 21.1958721,15.0196952 21.2085358,14.6017913 C20.7779681,14.8044114 20.2967454,15.0070314 20.0308066,15.4249354 C19.7901952,15.804848 19.384955,16.0454594 19.0430336,16.324062 C18.4478371,16.843276 17.8653044,17.4638 17.7006755,18.2742803 C17.6120293,18.6288655 17.4980555,19.1607432 17.054824,19.1987345 C16.5229463,19.2873808 16.1936886,18.603538 16.4469638,18.1856341 M54.2482738,30.0769004 L54.2229463,30.0769004 C54.1469638,30.6214419 54.0076624,31.1533197 53.9949987,31.6978611 C53.8430336,31.292621 53.8683611,30.8493895 53.8683611,30.4314856 C54.1216362,26.2904376 53.3111559,22.0987345 51.5255664,18.3502629 C50.9177061,17.0458961 50.1325533,15.8175118 49.3474004,14.614455 C50.0312432,15.3489528 50.4618109,16.2607432 51.0190162,17.0838873 C51.3229463,17.56511 51.8928153,17.8437127 52.0447803,18.4262454 C51.9687978,18.4009179 51.8168328,18.3375991 51.7408502,18.3122716 C51.7915052,18.5148917 51.854824,18.7301755 52.0954354,18.7934943 C52.0574441,18.704848 52.0067891,18.5275555 51.9814616,18.4389092 C52.3993655,18.4135817 52.5639943,18.8188218 52.6779681,19.1607432 C52.6146493,19.3380358 52.475348,19.4646734 52.374038,19.6293022 C52.475348,19.5406559 52.5766581,19.4520096 52.6779681,19.3506996 C52.7792782,19.5406559 52.893252,19.7306122 53.0072258,19.9079048 C52.9818983,19.6039747 52.9692345,19.2620533 52.7666144,19.0087782 C52.3867017,18.4769004 52.1714179,17.8057214 52.2094092,17.1345424 C52.2980555,17.1472061 52.4626843,17.1851974 52.5513306,17.2105249 C52.323383,16.7293022 51.8168328,16.4760271 51.6142127,15.9948044 C51.4242563,15.6275555 51.0696712,15.2856341 51.1963087,14.8424026 C50.9556974,14.1585598 50.4871384,13.5633633 50.3098459,12.854193 C50.094562,12.4742803 49.7526406,12.1576865 49.4867017,11.8157651 C49.2207629,11.7524463 48.9674878,11.6764638 48.7268764,11.56249 C48.8661777,11.7524463 49.005479,11.9424026 49.1447803,12.132359 C49.2460904,12.0690402 49.3600642,12.0057214 49.4613742,11.9424026 C49.8792782,12.4489528 50.2591908,13.0061581 50.4238197,13.6520096 C49.4487105,13.1201319 48.9294965,12.0817039 48.1570074,11.3598699 C47.7517672,11.3092148 47.4478371,11.043276 47.3085358,10.6760271 C47.6377934,10.3720969 47.865741,10.8659834 48.2076624,10.8659834 C48.5622476,10.8659834 48.7648677,11.2332323 49.0941253,11.2965511 C48.9801515,10.8406559 48.5875751,10.524062 48.2963087,10.1694769 C48.1063524,10.2074681 47.9417236,10.3214419 47.8784048,10.5113983 C47.4351734,10.2581231 46.9792782,10.0428393 46.5360467,9.80222795 C46.0928153,9.57428035 45.8775314,9.06773013 45.4089725,8.90310131 C45.0923786,8.77646376 44.8517672,8.52318865 44.6618109,8.24458603 C45.1810249,8.32056856 45.4976188,8.95375633 46.0421603,8.80179127 C46.624693,9.11838515 47.0425969,9.67559039 47.5998022,10.0428393 C47.245217,9.38432402 46.5867017,8.96642009 46.0168328,8.49786114 C46.054824,8.43454236 46.1181428,8.29524105 46.1561341,8.23192227 C45.953514,8.04196594 45.6495838,8.193931 45.4596275,7.99131092 C45.1177061,7.66205328 44.7124659,7.44676943 44.3072258,7.23148559 C44.3198895,7.16816681 44.345217,7.05419301 44.3705445,6.99087424 C44.0919419,6.77559039 43.7120293,6.90222795 43.4460904,6.67428035 C42.7495838,6.30703144 42.2683611,5.64851616 41.5591908,5.30659476 C40.254824,4.86336332 39.0264397,4.26816681 37.7347367,3.81227162 C37.5321166,3.76161659 37.4181428,3.59698777 37.2915052,3.44502271 C36.8736013,3.44502271 36.4683611,3.44502271 36.0504572,3.40703144 C35.9871384,3.45768646 35.8731646,3.57166026 35.8098459,3.62231528 C35.4299332,3.57166026 35.0373568,3.54633275 34.6701079,3.4196952 C34.6447803,3.36904017 34.6067891,3.26773013 34.5941253,3.21707511 C34.5814616,3.28039389 34.5814616,3.4196952 34.5814616,3.49567773 C33.9609376,3.48301397 33.3024223,3.48301397 32.745217,3.22973886 C32.6818983,3.25506638 32.5552607,3.28039389 32.4919419,3.3057214 C32.4412869,3.3057214 32.3273131,3.31838515 32.2639943,3.31838515 C31.9094092,3.3057214 31.554824,3.29305764 31.2129026,3.21707511 C30.7443437,3.0777738 30.263121,3.01445502 29.7818983,3.01445502 C29.7818983,2.92580873 29.794562,2.76117991 29.794562,2.67253362 C29.1613742,2.58388734 28.5788415,2.87515371 27.9709812,2.90048122 C27.983645,2.8498262 28.0089725,2.77384367 28.0216362,2.72318865 C28.3888852,2.53323231 28.8194528,2.53323231 29.224693,2.43192227 C29.794562,2.59655109 30.5543873,2.81183493 30.9596275,2.20397467 C30.0731646,1.9127083 29.0980555,2.0266821 28.2115926,2.25462969 C28.4775314,2.30528472 28.9587541,2.11532838 29.0474004,2.44458603 C28.3762214,2.44458603 27.6923786,2.5079048 27.0338633,2.35593974 C26.8565707,2.31794847 26.7046057,2.45724978 26.5526406,2.52056856 C26.9325533,2.54589607 27.3251297,2.52056856 27.7177061,2.54589607 C27.6923786,2.59655109 27.6670511,2.69786114 27.6417236,2.74851616 C27.3251297,2.79917118 26.9958721,2.77384367 26.6666144,2.79917118 C26.6412869,2.8498262 26.6032956,2.95113624 26.5779681,3.00179127 C25.7928153,2.77384367 25.0203262,3.38170393 24.2605009,3.01445502 C23.7412869,3.10310131 23.2853917,3.43235895 22.753514,3.48301397 C21.6770948,3.44502271 20.7653044,4.17952052 19.7268764,4.29349432 C19.7775314,4.05288297 19.9801515,3.85026288 20.2334266,3.82493537 C21.1325533,3.67297031 21.8037323,2.88781747 22.753514,2.88781747 C23.2220729,2.93847249 23.7286231,2.82449869 24.0958721,2.53323231 C22.9687978,2.60921485 21.8543873,2.86248996 20.7653044,3.11576507 C20.7779681,3.21707511 20.7906319,3.31838515 20.8032956,3.4196952 C20.6639943,3.47035022 20.524693,3.52100524 20.3980555,3.55899651 C20.3727279,3.50834148 20.3220729,3.39436769 20.2967454,3.33104891 C19.802859,3.36904017 19.5115926,3.85026288 19.0936886,4.05288297 C19.3216362,3.96423668 19.5622476,3.82493537 19.8281865,3.85026288 C19.7395402,4.38214061 19.0810249,4.30615808 18.7011122,4.49611441 C18.1818983,4.54676943 17.8906319,5.16729345 17.3460904,5.11663843 C16.5102825,5.53454236 15.7124659,6.06642009 15.0159594,6.69960786 C15.0792782,6.72493537 15.2059157,6.76292664 15.2692345,6.77559039 C14.9526406,7.00353799 14.7120293,7.32013188 14.3954354,7.53541572 C14.3321166,7.53541572 14.205479,7.51008821 14.1421603,7.51008821 C14.0661777,6.81358166 14.8893218,6.62362533 15.294562,6.24371266 C15.813776,5.59786114 16.5736013,5.20528472 17.3080991,4.87602707 C17.0294965,4.52144192 16.7129026,5.00266463 16.4216362,5.07864716 C15.294562,5.38257729 14.3574441,6.0917476 13.4456537,6.78825415 C13.3316799,7.32013188 13.2430336,7.89000087 12.9897585,8.37122358 C11.8880118,9.24502271 10.8749114,10.2201319 9.82381965,11.1572498 C10.0391035,10.7140183 10.3683611,10.3594332 10.684955,10.004848 C10.9888852,9.65026288 11.4574441,9.49829782 11.7107192,9.1057214 C11.9893218,8.59917118 12.7111559,8.44720611 12.7998022,7.8266821 C12.5085358,7.92799214 12.2552607,8.10528472 11.9893218,8.24458603 C11.5587541,8.94109258 10.8875751,9.42231528 10.3430336,10.0175118 C10.5203262,9.52362533 10.8369201,9.05506638 11.3181428,8.81445502 C11.2928153,8.77646376 11.2294965,8.71314498 11.204169,8.67515371 C10.9002389,8.9917476 10.5203262,9.23235895 10.3050424,9.61227162 C10.0897585,9.97952052 9.84914716,10.3214419 9.55788079,10.6380358 C9.19063188,10.992621 8.95002052,11.4611799 8.58277162,11.8157651 C8.32949651,12.0183852 8.36748777,12.3603066 8.25351397,12.6389092 C8.13954017,13.0188218 7.64565371,13.1327956 7.5063524,13.5000445 C7.59499869,13.9812672 7.11377598,14.2978611 7.03779345,14.7537563 C7.43036987,14.5764638 7.45569738,14.0572498 7.78495502,13.8039747 C8.15220393,13.6013546 8.27884148,13.1961144 8.50678908,12.8668568 C8.82338297,12.4362891 8.57010786,11.76511 9.06399432,11.4105249 C9.29194192,11.2838873 9.77316463,11.043276 9.88713843,11.4105249 C9.62119956,11.7524463 9.27927817,12.0310489 8.95002052,12.3096515 C8.6714179,12.7908742 8.45613406,13.3100882 8.32949651,13.8546297 C7.56967118,14.4498262 6.96181092,15.2096515 6.46792445,16.0327956 C6.36661441,16.1720969 6.50591572,16.3367258 6.53124323,16.4886908 C6.42993319,16.6406559 6.31595939,16.7799572 6.17665808,16.893931 C6.16399432,16.8306122 6.12600306,16.6913109 6.1133393,16.6279921 C5.79674541,17.1725336 5.54347031,17.7550664 5.20154891,18.2996079 C5.11290262,18.4262454 5.07491135,18.5908742 5.03692009,18.7555031 C5.20154891,18.5275555 5.23954017,18.134979 5.55613406,18.084324 C5.39150524,18.8821406 4.87229127,19.5659834 4.8343,20.4017913 C4.66967118,20.414455 4.50504236,20.4271188 4.34041354,20.4397825 C4.264431,19.9205686 4.35307729,19.3886908 4.36574105,18.8694769 C4.0111559,19.4900009 3.82119956,20.1991712 3.60591572,20.883014 C3.54259694,21.0476428 3.50460568,21.2502629 3.33997686,21.3515729 C3.33997686,20.9589965 3.4412869,20.5664201 3.49194192,20.1738437 C3.60591572,19.5533197 4.03648341,19.0594332 4.22643974,18.4769004 C4.39106856,17.9956777 4.68233493,17.5524463 4.70766245,17.0332323 C4.39106856,17.2611799 4.36574105,17.7044114 4.17578472,18.033669 C3.65657074,18.7808306 3.28932183,19.6546297 3.20067555,20.5664201 C3.16268428,21.4402192 3.25133057,22.3393459 2.96006419,23.1751537 C2.80809913,23.4537563 2.71945284,23.7576865 2.70678908,24.0869441 C2.63080655,23.9856341 2.56748777,23.884324 2.49150524,23.7956777 C2.36486769,23.9982978 2.21290262,24.2642367 2.33954017,24.5175118 C2.49150524,24.8467694 2.46617773,25.2900009 2.23823013,25.5686035 C2.18757511,25.5306122 2.07360131,25.4293022 2.02294629,25.3913109 C1.94696376,26.0118349 1.83298996,26.6576865 1.95962751,27.2908742 C2.0482738,27.7341057 2.11159258,28.1900009 2.06093755,28.6458961 C1.80766245,29.3297389 1.76967118,30.0769004 1.85831747,30.7987345 C2.11159258,31.1659834 2.11159258,31.5838873 2.01028253,32.0017913 C2.06093755,32.0017913 2.1622476,31.9764638 2.21290262,31.9638 C2.26355764,32.1410926 2.30154891,32.3437127 2.45351397,32.4703502 C2.45351397,32.2424026 2.51683275,31.9891275 2.3901952,31.7738437 C2.17491135,31.3306122 2.23823013,30.7987345 2.41552271,30.3428393 C2.69412533,29.583014 2.3901952,28.7851974 2.45351397,28.0000445 C2.42818646,28.1520096 2.36486769,28.3039747 2.2762214,28.4306122 C2.18757511,27.6707869 2.1622476,26.8982978 2.22556638,26.1384725 C2.25089389,26.0878175 2.28888515,26.0118349 2.31421266,25.9738437 C2.33954017,26.0751537 2.37753144,26.2777738 2.3901952,26.3790838 C2.52949651,26.2397825 2.59281528,26.0498262 2.66879782,25.8725336 C2.74478035,26.26511 2.89674541,26.632359 3.01071921,26.9996079 C3.06137424,27.6834507 2.99805546,28.3546297 2.93473668,29.0258087 C2.94740044,29.532359 3.01071921,30.0389092 2.97272795,30.5581231 C2.93473668,30.8493895 3.25133057,31.0140183 3.23866681,31.292621 C3.28932183,31.6472061 3.4412869,32.0524463 3.13735677,32.3310489 C2.9853917,32.5969878 2.82076288,32.2297389 2.77010786,32.0904376 C2.79543537,32.3057214 2.90940917,32.533669 2.77010786,32.7489528 C2.63080655,33.0022279 2.71945284,33.3061581 2.74478035,33.5847607 C2.7574441,33.8633633 3.03604672,34.0533197 3.01071921,34.344586 C3.02338297,34.8891275 3.08670175,35.433669 3.22600306,35.9655467 C2.97272795,35.5982978 2.82076288,35.1677301 2.504169,34.8511362 C2.63080655,35.433669 2.99805546,35.952883 2.93473668,36.573407 C3.33997686,36.8013546 3.60591572,37.1812672 3.88451834,37.5358524 C3.88451834,37.0546297 3.54259694,36.6873808 3.39063188,36.2441493 C3.70722576,36.6873808 3.98582838,37.1559397 4.32774978,37.5738437 C4.7203262,38.0803939 4.88495502,38.7135817 5.02425633,39.3341057 C4.68233493,39.3087782 4.66967118,38.903538 4.56836114,38.6629266 C4.47971485,38.7262454 4.39106856,38.7895642 4.30242227,38.852883 C4.04914716,38.333669 3.71988952,37.8271188 3.40329563,37.3332323 L3.40329563,37.8397825 C3.3273131,37.7891275 3.17534803,37.7004812 3.0993655,37.66249 C3.30198559,38.0424026 3.47927817,38.4476428 3.83386332,38.7009179 C3.99849214,38.903538 4.35307729,39.4100882 3.88451834,39.4607432 C4.04914716,39.7140183 4.39106856,39.7900009 4.50504236,40.0812672 C5.22687642,41.1196952 5.70809913,42.3607432 6.65788079,43.2345424 C6.46792445,42.8672934 6.16399432,42.5760271 6.05002052,42.1834507 C5.63211659,41.7655467 5.22687642,41.2716603 5.15089389,40.6764638 C5.49281528,41.0943677 5.78408166,41.5502629 6.18932183,41.9175118 C6.64521703,42.322752 6.94914716,42.8672934 7.29106856,43.3611799 C7.3923786,43.513145 7.29106856,43.7157651 7.3923786,43.8677301 C7.94958384,44.8175118 8.92469301,45.3873808 9.55788079,46.2738437 C9.76050087,46.7170751 10.0897585,47.0969878 10.2417236,47.5782105 C10.1784048,47.5655467 10.0391035,47.5402192 9.97578472,47.5275555 C9.63386332,47.2236253 9.34259694,46.8690402 8.96268428,46.6157651 C8.51945284,45.9319223 7.98757511,45.2987345 7.63298996,44.5642367 C7.22774978,44.6148917 7.06312096,44.184324 6.88582838,43.9057214 C6.4552607,43.8803939 6.3412869,43.3105249 6.1133393,43.0192585 C6.06268428,43.044586 5.96137424,43.1079048 5.91071921,43.1332323 C5.50547904,42.8799572 5.42949651,42.3860707 5.20154891,41.9934943 C4.99892882,41.6135817 4.85962751,41.2083415 4.66967118,40.8157651 C4.79630873,41.4616166 4.98626507,42.1074681 5.35351397,42.6646734 C5.48015153,42.9052847 5.80940917,42.9812672 5.8853917,43.2598699 C6.06268428,43.7664201 6.2273131,44.2856341 6.55657074,44.7162017 C6.60722576,44.6655467 6.6832083,44.5515729 6.72119956,44.5009179 C7.02512969,44.8555031 7.32905983,45.1974245 7.59499869,45.5773371 C7.81028253,45.8812672 7.72163624,46.3118349 8.00023886,46.5777738 C8.45613406,47.1096515 9.1273131,47.3755904 9.68451834,47.7934943 C9.5832083,47.603538 9.39325197,47.4389092 9.40591572,47.2109616 C10.0897585,47.5148917 10.2037323,48.5913109 10.9635576,48.7812672 C10.9635576,48.5786472 10.7862651,48.4393459 10.6976188,48.2873808 C10.7736013,48.2620533 10.9129026,48.2367258 10.9762214,48.224062 C10.8369201,48.0087782 10.6343,47.8314856 10.4696712,47.6288655 C10.7862651,47.8188218 11.0901952,48.0214419 11.3941253,48.2367258 C11.6853917,48.4900009 11.9133393,48.8192585 12.2172694,49.0598699 C12.9897585,49.414455 13.584955,50.0476428 14.2561341,50.554193 C14.4967454,50.6428393 14.775348,50.6681668 14.9399769,50.8961144 C15.2312432,51.2253721 15.6364834,51.4279921 16.0290598,51.6052847 C15.9910686,51.5293022 15.915086,51.3520096 15.8770948,51.2760271 C16.1936886,51.3773371 16.484955,51.5419659 16.7762214,51.7065948 C16.7635576,51.7572498 16.7255664,51.8712236 16.7002389,51.9345424 C17.8019856,52.9856341 19.3976188,53.1502629 20.8286231,53.403538 C22.5762214,53.8847607 24.3364834,54.543276 26.1727279,54.3406559 C26.4386668,54.3406559 26.6412869,54.593931 26.9198895,54.5686035 C26.4006755,54.7838873 25.8561341,54.5052847 25.3242563,54.543276 L25.3749114,54.7458961 C26.274038,54.8725336 27.1731646,54.9991712 28.084955,54.9865074 C28.5155227,54.9738437 28.9334266,55.0751537 29.3386668,55.214455 C30.1871384,55.2524463 31.0482738,55.1638 31.8714179,54.9738437 C31.9094092,54.8472061 31.9600642,54.7205686 32.0107192,54.593931 C32.5172694,54.5306122 33.0618109,54.2646734 33.5177061,54.6319223 C33.8089725,54.492621 34.1255664,54.6192585 34.4294965,54.543276 C35.1133393,54.4166384 35.8098459,54.3659834 36.4810249,54.1506996 C37.3801515,53.6821406 38.2539507,53.1375991 39.1404135,52.6310489 C39.9508939,52.4157651 40.6727279,51.9851974 41.4198895,51.6306122 C42.1923786,51.4533197 42.7622476,50.8581231 43.4587541,50.5288655 C43.9399769,50.4402192 44.345217,50.1109616 44.6364834,49.7310489 C44.5098459,49.7437127 44.2818983,49.7563764 44.1552607,49.7563764 C44.6111559,49.4271188 44.9910686,49.0092148 45.4596275,48.692621 C45.5229463,48.5153284 45.5736013,48.3127083 45.7635576,48.2493895 C46.4347367,47.9327956 46.624693,47.1096515 47.2325533,46.7170751 C47.1185795,47.5022279 46.3587541,47.8948044 46.0294965,48.5406559 C46.2701079,48.4520096 46.4220729,48.2367258 46.5993655,48.0594332 C47.2832083,47.2996079 47.9417236,46.514455 48.4736013,45.6406559 C48.6508939,45.3113983 48.9674878,45.1087782 49.1827716,44.8175118 C49.6006755,44.2729703 49.8792782,43.5764638 50.5124659,43.2345424 C51.1583175,42.3354157 51.5888852,41.2969878 51.9814616,40.2712236 C52.2853917,39.9546297 52.5639943,39.6127083 52.6779681,39.1821406 C52.6146493,39.1188218 52.5006755,38.9795205 52.4500205,38.903538 C52.5260031,38.6375991 52.6019856,38.3716603 52.7539507,38.1437127 C53.1845183,37.4851974 53.3364834,36.7127083 53.6784048,36.0288655 C53.7797148,35.8515729 53.8050424,35.6362891 53.7037323,35.4589965 C53.6910686,35.6489528 53.615086,35.8009179 53.4884485,35.9148917 C53.5517672,35.433669 53.7163961,34.9777738 53.9570074,34.5598699 C54.1469638,33.6100882 54.2482738,32.6476428 54.2862651,31.6851974 C54.3242563,31.1533197 54.1596275,30.6214419 54.2482738,30.0769004" id="Fill-187" fill="#FFFFFF"></path>
                <path d="M30.1364834,42.2341057 C30.364431,42.1707869 31.03561,42.0188218 30.8963087,42.4367258 C30.4784048,42.6646734 30.1998022,43.095241 29.743907,43.2472061 C29.8325533,42.892621 29.8832083,42.5127083 30.1364834,42.2341057" id="Fill-189" fill="#FFFFFF"></path>
                <path d="M47.6251297,42.373407 C47.8404135,42.2847607 48.0810249,42.2467694 48.3089725,42.2087782 C48.0303699,42.7406559 47.6377934,43.2218786 47.1692345,43.6017913 C47.2705445,43.1712236 47.4098459,42.7533197 47.6251297,42.373407" id="Fill-191" fill="#FFFFFF"></path>
                <path d="M11.6980555,43.3991712 C12.0399769,43.095241 12.3059157,42.6773371 12.7111559,42.4493895 C12.7238197,42.7153284 12.7111559,42.993931 12.6858284,43.2725336 C12.3565707,43.3105249 12.0273131,43.3485162 11.6980555,43.3991712" id="Fill-193" fill="#FFFFFF"></path>
                <path d="M42.4963087,42.9559397 C42.6102825,42.8166384 42.8002389,42.7659834 42.9648677,42.7153284 C43.2687978,43.46249 42.8888852,44.5515729 42.015086,44.652883 C41.9517672,44.6402192 41.8377934,44.6022279 41.7744747,44.5895642 C41.6478371,43.9563764 42.065741,43.3738437 42.4963087,42.9559397" id="Fill-195" fill="#FFFFFF"></path>
                <path d="M45.0290598,42.9559397 C45.1430336,42.8166384 45.3203262,42.7659834 45.4976188,42.7153284 C45.8015489,43.46249 45.4216362,44.5515729 44.5478371,44.652883 C44.4845183,44.6402192 44.3705445,44.6022279 44.3072258,44.5895642 C44.1805882,43.9563764 44.5984921,43.3738437 45.0290598,42.9559397" id="Fill-197" fill="#FFFFFF"></path>
                <path id="Fill-199" fill="#FFFFFF"></path>
                <path d="M47.0679245,49.0092148 C47.2578808,48.5026646 47.7264397,48.2113983 48.1190162,47.8821406 C47.8910686,48.3506996 47.4225096,48.6419659 47.0679245,49.0092148" id="Fill-201" fill="#FFFFFF"></path>
                <path d="M10.53299,48.8572498 C10.8495838,48.8319223 11.0268764,49.0978611 11.2421603,49.2878175 C11.1661777,49.1611799 11.1281865,49.0472061 11.1155227,48.9079048 C11.5840817,48.895241 11.305479,49.4904376 11.6094092,49.6930576 C11.1408502,49.6297389 10.8242563,49.1865074 10.53299,48.8572498" id="Fill-203" fill="#FFFFFF"></path>
                <path d="M44.7504572,49.6677301 C44.864431,49.2371624 45.3203262,49.0851974 45.7002389,48.9585598 C45.4089725,49.2244987 45.0923786,49.4777738 44.7504572,49.6677301" id="Fill-205" fill="#FFFFFF"></path>
                <path d="M46.054824,49.5537563 C46.2701079,49.2878175 46.5107192,49.0218786 46.8273131,48.8825773 C46.8019856,49.0598699 46.7006755,49.1611799 46.5107192,49.1738437 C46.5613742,49.4524463 46.5107192,49.7183852 46.2827716,49.8956777 C46.105479,49.883014 46.0801515,49.6930576 46.054824,49.5537563" id="Fill-207" fill="#FFFFFF"></path>
                <path d="M11.8500205,49.414455 C12.2679245,49.5537563 12.6858284,49.7310489 13.0024223,50.034979 C12.5845183,49.9210052 12.1792782,49.7183852 11.8500205,49.414455" id="Fill-209" fill="#FFFFFF"></path>
                <path id="Fill-211" fill="#FFFFFF"></path>
                <path d="M12.1159594,50.3135817 C12.3692345,50.4148917 12.6351734,50.4908742 12.913776,50.5288655 C13.3443437,50.7948044 13.6862651,51.174717 14.1801515,51.3393459 C14.1294965,51.2127083 14.0788415,51.073407 14.0281865,50.9467694 C14.674038,51.3646734 15.3958721,51.6306122 16.0417236,52.0358524 C15.7757847,51.9472061 15.4971821,51.9345424 15.3198895,52.1751537 C15.6238197,52.36511 15.9404135,52.5424026 16.2570074,52.7196952 C16.2190162,52.6310489 16.1430336,52.4664201 16.1050424,52.3777738 C16.7255664,52.5550664 17.3080991,52.8083415 17.9286231,52.9856341 C18.194562,53.0362891 18.3085358,53.3402192 18.5744747,53.3655467 C18.7897585,53.4162017 19.0177061,53.4415293 19.2203262,53.5428393 C19.1570074,53.5681668 19.0177061,53.6188218 18.9543873,53.6441493 C19.7015489,53.973407 20.474038,54.2646734 21.2845183,54.4166384 C22.33561,54.7712236 23.4500205,54.8472061 24.5264397,55.1258087 C24.9190162,55.2777738 25.3495838,55.3284288 25.7674878,55.3790838 C25.8561341,55.7463328 26.2613742,55.6576865 26.5526406,55.6703502 C27.2111559,55.6196952 27.8949987,55.3537563 28.5661777,55.5437127 C28.5915052,55.6070314 28.654824,55.7463328 28.6801515,55.8096515 C28.3635576,55.8096515 28.0469638,55.7969878 27.7303699,55.784324 C27.7303699,55.8223153 27.7177061,55.8982978 27.7177061,55.9362891 C28.2115926,55.8856341 28.6801515,56.3288655 29.1613742,56.0755904 C29.5032956,55.9109616 29.8958721,55.9109616 30.263121,55.834979 C30.1364834,55.7589965 29.9971821,55.7083415 29.8578808,55.6576865 C31.6941253,55.4803939 33.5556974,55.2777738 35.3539507,54.8218786 C35.4805882,54.7585598 35.5692345,54.8598699 35.6578808,54.9485162 C34.9107192,55.0371624 34.2268764,55.3410926 33.5177061,55.5943677 C34.1255664,55.632359 34.7080991,55.4550664 35.3032956,55.3664201 C35.1893218,55.4930576 35.0120293,55.4930576 34.8474004,55.5437127 C34.0749114,55.7210052 33.3024223,55.8603066 32.5046057,55.9616166 C31.9600642,56.0502629 31.4661777,55.6703502 30.9216362,55.8096515 C30.9596275,55.8856341 31.03561,56.0249354 31.0736013,56.0882541 C30.465741,56.1009179 29.8705445,56.0375991 29.275348,56.1642367 C28.5408502,56.3162017 27.7936886,56.2275555 27.0465271,56.1895642 C24.3238197,55.9742803 21.6264397,55.3410926 19.0810249,54.3533197 C18.2072258,54.0113983 17.3967454,53.5428393 16.4976188,53.2642367 C16.1050424,53.0362891 15.763121,52.6943677 15.3198895,52.5424026 C14.6107192,52.2638 14.1168328,51.5672934 13.3570074,51.4533197 C12.9391035,51.073407 12.4832083,50.7314856 12.1159594,50.3135817" id="Fill-213" fill="#FFFFFF"></path>
                <path id="Fill-215" fill="#FFFFFF"></path>
                <path id="Fill-217" fill="#FFFFFF"></path>
                <path id="Fill-219" fill="#FFFFFF"></path>
                <path id="Fill-221" fill="#FFFFFF"></path>
                <path id="Fill-223" fill="#FFFFFF"></path>
                <path d="M36.8862651,54.5306122 C37.6840817,54.2013546 38.5198895,53.9480795 39.3430336,53.6694769 C39.4823349,53.7201319 39.6216362,53.7834507 39.7609376,53.8467694 C39.4190162,54.1506996 38.9504572,54.2520096 38.5325533,54.4293022 C37.7853917,54.6825773 37.0635576,55.0244987 36.2784048,55.1258087 C36.3543873,55.0498262 36.4430336,54.9611799 36.5316799,54.8851974 C36.4683611,54.8851974 36.3290598,54.8725336 36.265741,54.8598699 C36.3923786,54.6319223 36.6583175,54.6065948 36.8862651,54.5306122" id="Fill-225" fill="#FFFFFF"></path>
                <path id="Fill-227" fill="#FFFFFF"></path>
                <path id="Fill-229" fill="#FFFFFF"></path>
                <path id="Fill-231" fill="#FFFFFF"></path>
            </g>
        </g>
    </g>
</svg>