<?xml version="1.0" encoding="UTF-8" standalone="no"?>
<svg width="180px" height="80px" viewBox="0 0 180 80" version="1.1" xmlns="http://www.w3.org/2000/svg" xmlns:xlink="http://www.w3.org/1999/xlink">
    <!-- Generator: Sketch 40 (33762) - http://www.bohemiancoding.com/sketch -->
    <title>savory</title>
    <desc>Created with Sketch.</desc>
    <defs></defs>
    <g id="Page-1" stroke="none" stroke-width="1" fill="none" fill-rule="evenodd">
        <g id="savory">
            <g id="Page-1" transform="translate(55.000000, 26.000000)">
                <path d="M33.7889623,2.361905 C30.4465646,2.92119071 27.7892547,6.54619071 28.7234652,9.901905 C29.3047518,12.8226193 32.2111845,14.9976193 35.1591377,14.8940479 C38.1486114,14.9976193 40.951243,12.8433336 41.6986114,9.98476214 C42.0722956,7.99619071 41.6155705,5.77976214 40.1415939,4.30904786 C38.646857,2.48619071 36.0518278,1.90619071 33.7889623,2.361905 M34.826974,0.0626192857 C37.1313599,-0.289523571 39.0205412,1.201905 41.0342839,1.98904786 C41.843933,2.25833357 42.0930558,3.19047643 42.5082605,3.85333357 C43.1518278,5.116905 44.1898395,6.35976214 44.148319,7.871905 C44.148319,8.886905 44.3974418,9.98476214 43.8576757,10.8961907 C43.0480266,12.1390479 42.4044594,13.4647621 41.6570909,14.7283336 C39.8094301,15.556905 38.0863307,16.861905 36.0103073,17.0276193 C34.743933,17.0897621 33.3529974,17.0897621 32.2319447,16.3647621 C31.1108921,15.6811907 29.678436,15.4326193 28.7442254,14.4590479 C27.996857,13.2783336 27.2702488,12.0354764 26.668202,10.7511907 C26.4398395,9.466905 26.2737576,8.09976214 26.4813599,6.77404786 C26.8342839,5.67619071 27.643933,4.76476214 28.1214184,3.70833357 C28.4535822,3.06619071 28.7442254,2.27904786 29.4915939,1.98904786 C31.2354535,1.24333357 32.8339915,0.0211907143 34.826974,0.0626192857" id="Fill-1" fill="#FFFFFF"></path>
                <path d="M33.7889623,2.361905 C30.4465646,2.92119071 27.7892547,6.54619071 28.7234652,9.901905 C29.3047518,12.8226193 32.2111845,14.9976193 35.1591377,14.8940479 C38.1486114,14.9976193 40.951243,12.8433336 41.6986114,9.98476214 C42.0722956,7.99619071 41.6155705,5.77976214 40.1415939,4.30904786 C38.646857,2.48619071 36.0518278,1.90619071 33.7889623,2.361905 L33.7889623,2.361905 Z M34.826974,0.0626192857 C37.1313599,-0.289523571 39.0205412,1.201905 41.0342839,1.98904786 C41.843933,2.25833357 42.0930558,3.19047643 42.5082605,3.85333357 C43.1518278,5.116905 44.1898395,6.35976214 44.148319,7.871905 C44.148319,8.886905 44.3974418,9.98476214 43.8576757,10.8961907 C43.0480266,12.1390479 42.4044594,13.4647621 41.6570909,14.7283336 C39.8094301,15.556905 38.0863307,16.861905 36.0103073,17.0276193 C34.743933,17.0897621 33.3529974,17.0897621 32.2319447,16.3647621 C31.1108921,15.6811907 29.678436,15.4326193 28.7442254,14.4590479 C27.996857,13.2783336 27.2702488,12.0354764 26.668202,10.7511907 C26.4398395,9.466905 26.2737576,8.09976214 26.4813599,6.77404786 C26.8342839,5.67619071 27.643933,4.76476214 28.1214184,3.70833357 C28.4535822,3.06619071 28.7442254,2.27904786 29.4915939,1.98904786 C31.2354535,1.24333357 32.8339915,0.0211907143 34.826974,0.0626192857 L34.826974,0.0626192857 Z" id="Stroke-3" stroke="#FFFFFF" stroke-width="0.094"></path>
                <path d="M38.3562137,4.39188429 C39.0205412,4.55759857 39.4980266,5.09617 40.0170325,5.51045571 C39.3734652,6.46331286 38.7091377,7.43688429 38.0655705,8.38974143 C37.2144009,8.47259857 36.4047518,8.74188429 35.8442254,9.40474143 C36.9237576,10.7097414 38.2731728,11.8075986 39.1035822,13.3197414 C38.7091377,13.3197414 38.3146933,13.36117 37.9410091,13.2990271 C36.9237576,12.4083129 36.1348687,11.3104557 35.2629389,10.2954557 C34.2872079,11.5175986 33.5605997,13.1333129 31.9413015,13.6097414 C32.3357459,11.9525986 33.6228804,10.7925986 34.7024126,9.57045571 C33.3737576,7.91331286 31.4845763,6.50474143 30.8825295,4.37117 C33.0208336,5.15831286 34.5363307,6.96045571 35.6158629,8.88688429 C36.1141085,7.87188429 36.0933482,6.64974143 36.8614769,5.80045571 C37.318202,5.30331286 37.7749272,4.76474143 38.3562137,4.39188429" id="Fill-5" fill="#FDFDFD"></path>
                <path d="M38.3562137,4.39188429 C39.0205412,4.55759857 39.4980266,5.09617 40.0170325,5.51045571 C39.3734652,6.46331286 38.7091377,7.43688429 38.0655705,8.38974143 C37.2144009,8.47259857 36.4047518,8.74188429 35.8442254,9.40474143 C36.9237576,10.7097414 38.2731728,11.8075986 39.1035822,13.3197414 C38.7091377,13.3197414 38.3146933,13.36117 37.9410091,13.2990271 C36.9237576,12.4083129 36.1348687,11.3104557 35.2629389,10.2954557 C34.2872079,11.5175986 33.5605997,13.1333129 31.9413015,13.6097414 C32.3357459,11.9525986 33.6228804,10.7925986 34.7024126,9.57045571 C33.3737576,7.91331286 31.4845763,6.50474143 30.8825295,4.37117 C33.0208336,5.15831286 34.5363307,6.96045571 35.6158629,8.88688429 C36.1141085,7.87188429 36.0933482,6.64974143 36.8614769,5.80045571 C37.318202,5.30331286 37.7749272,4.76474143 38.3562137,4.39188429 L38.3562137,4.39188429 Z" id="Stroke-7" stroke="#FDFDFD" stroke-width="0.094"></path>
                <path d="M12.5097225,22.6826193 C13.0494886,22.3097621 13.4646933,21.791905 13.6515354,21.1497621 C13.0910091,21.5226193 12.7380851,22.081905 12.5097225,22.6826193 M8.17083363,20.5490479 C8.79364064,19.4097621 9.27112602,18.166905 9.41644766,16.861905 C8.77288041,18.0011907 8.25387456,19.2233336 8.17083363,20.5490479 M6.44773421,16.7997621 C7.77638918,16.9240479 8.91820205,16.1161907 10.1638161,15.8054764 C10.599781,17.6490479 9.87317281,19.4511907 9.04276345,21.066905 C9.60328977,20.6940479 10.2053365,20.341905 10.8489038,20.051905 C10.7866231,21.2740479 10.6413015,22.4961907 10.5790208,23.7183336 C11.3679096,22.8276193 11.4717108,21.501905 12.2813599,20.631905 C13.0910091,19.8033336 14.8141085,20.4454764 14.5857459,21.6883336 C14.2120617,22.4547621 13.5062137,23.0140479 12.9456874,23.676905 C13.8176173,23.4076193 14.6272664,23.0347621 15.4576757,22.661905 C15.6860383,22.9104764 15.9144009,23.1383336 16.1427635,23.386905 C15.125512,24.111905 13.9836991,25.0440479 12.6342839,24.5676193 C11.575512,24.3190479 10.5167401,24.5883336 9.4994886,24.836905 C9.18808509,24.0083336 9.04276345,23.1590479 9.06352368,22.2890479 C8.5860383,23.096905 8.12931316,23.9254764 7.69334825,24.7540479 C7.52726637,24.7747621 7.21586287,24.8161907 7.04978099,24.836905 C6.88369912,22.6204764 6.92521959,20.3626193 7.34042427,18.166905 C6.53077515,18.0840479 5.70036579,18.021905 4.86995643,17.9597621 C4.30943012,20.4040479 3.70738333,22.8276193 2.89773421,25.2097621 C2.79393304,24.7954764 1.50679854,25.0647621 1.77668158,24.401905 C2.12960556,22.1026193 3.14685702,19.9897621 3.8111845,17.7940479 C2.52405,17.876905 1.81820205,19.1197621 0.572588012,19.2440479 C0.427266374,18.9333336 0.157383333,18.2704764 0.0120616959,17.9390479 C1.88048275,16.5926193 4.26790965,16.7790479 6.44773421,16.7997621" id="Fill-9" fill="#FFFFFF"></path>
                <path d="M12.5097225,22.6826193 C13.0494886,22.3097621 13.4646933,21.791905 13.6515354,21.1497621 C13.0910091,21.5226193 12.7380851,22.081905 12.5097225,22.6826193 L12.5097225,22.6826193 Z M8.17083363,20.5490479 C8.79364064,19.4097621 9.27112602,18.166905 9.41644766,16.861905 C8.77288041,18.0011907 8.25387456,19.2233336 8.17083363,20.5490479 L8.17083363,20.5490479 Z M6.44773421,16.7997621 C7.77638918,16.9240479 8.91820205,16.1161907 10.1638161,15.8054764 C10.599781,17.6490479 9.87317281,19.4511907 9.04276345,21.066905 C9.60328977,20.6940479 10.2053365,20.341905 10.8489038,20.051905 C10.7866231,21.2740479 10.6413015,22.4961907 10.5790208,23.7183336 C11.3679096,22.8276193 11.4717108,21.501905 12.2813599,20.631905 C13.0910091,19.8033336 14.8141085,20.4454764 14.5857459,21.6883336 C14.2120617,22.4547621 13.5062137,23.0140479 12.9456874,23.676905 C13.8176173,23.4076193 14.6272664,23.0347621 15.4576757,22.661905 C15.6860383,22.9104764 15.9144009,23.1383336 16.1427635,23.386905 C15.125512,24.111905 13.9836991,25.0440479 12.6342839,24.5676193 C11.575512,24.3190479 10.5167401,24.5883336 9.4994886,24.836905 C9.18808509,24.0083336 9.04276345,23.1590479 9.06352368,22.2890479 C8.5860383,23.096905 8.12931316,23.9254764 7.69334825,24.7540479 C7.52726637,24.7747621 7.21586287,24.8161907 7.04978099,24.836905 C6.88369912,22.6204764 6.92521959,20.3626193 7.34042427,18.166905 C6.53077515,18.0840479 5.70036579,18.021905 4.86995643,17.9597621 C4.30943012,20.4040479 3.70738333,22.8276193 2.89773421,25.2097621 C2.79393304,24.7954764 1.50679854,25.0647621 1.77668158,24.401905 C2.12960556,22.1026193 3.14685702,19.9897621 3.8111845,17.7940479 C2.52405,17.876905 1.81820205,19.1197621 0.572588012,19.2440479 C0.427266374,18.9333336 0.157383333,18.2704764 0.0120616959,17.9390479 C1.88048275,16.5926193 4.26790965,16.7790479 6.44773421,16.7997621 L6.44773421,16.7997621 Z" id="Stroke-11" stroke="#FFFFFF" stroke-width="0.094"></path>
                <path d="M21.9348687,16.6133336 C23.2842839,16.571905 25.152705,17.3383336 24.7790208,19.0161907 C24.7167401,19.7204764 24.0731728,20.1347621 23.6164477,20.5904764 C23.4918863,20.5076193 23.2427635,20.3004764 23.118202,20.2176193 C23.2842839,19.4926193 23.4503658,18.7883336 23.5956874,18.0633336 C22.9105997,17.9597621 22.2047518,17.8561907 21.519664,17.8561907 C20.9383775,17.9597621 20.5854535,18.4983336 20.2117693,18.891905 C21.519664,19.8447621 23.0144009,20.5697621 24.1977342,21.6676193 C25.3395471,23.0761907 23.9070909,25.126905 22.2877927,25.2511907 C20.8138161,25.7276193 18.8000734,25.2511907 18.1980266,23.6976193 C17.6375003,22.5997621 18.5924711,21.9990479 19.3605997,21.5433336 C19.5266816,22.4133336 19.2567985,23.7183336 20.3363307,24.0704764 C21.602705,24.6090479 22.7029974,23.7597621 23.471126,22.9104764 C22.4538746,21.4190479 20.543933,20.9633336 19.3605997,19.6583336 C18.3848687,17.9390479 20.3986114,16.4890479 21.9348687,16.6133336" id="Fill-13" fill="#FFFFFF"></path>
                <path d="M21.9348687,16.6133336 C23.2842839,16.571905 25.152705,17.3383336 24.7790208,19.0161907 C24.7167401,19.7204764 24.0731728,20.1347621 23.6164477,20.5904764 C23.4918863,20.5076193 23.2427635,20.3004764 23.118202,20.2176193 C23.2842839,19.4926193 23.4503658,18.7883336 23.5956874,18.0633336 C22.9105997,17.9597621 22.2047518,17.8561907 21.519664,17.8561907 C20.9383775,17.9597621 20.5854535,18.4983336 20.2117693,18.891905 C21.519664,19.8447621 23.0144009,20.5697621 24.1977342,21.6676193 C25.3395471,23.0761907 23.9070909,25.126905 22.2877927,25.2511907 C20.8138161,25.7276193 18.8000734,25.2511907 18.1980266,23.6976193 C17.6375003,22.5997621 18.5924711,21.9990479 19.3605997,21.5433336 C19.5266816,22.4133336 19.2567985,23.7183336 20.3363307,24.0704764 C21.602705,24.6090479 22.7029974,23.7597621 23.471126,22.9104764 C22.4538746,21.4190479 20.543933,20.9633336 19.3605997,19.6583336 C18.3848687,17.9390479 20.3986114,16.4890479 21.9348687,16.6133336 L21.9348687,16.6133336 Z" id="Stroke-15" stroke="#FFFFFF" stroke-width="0.094"></path>
                <path d="M63.3722956,22.6826193 C63.9120617,22.3097621 64.3272664,21.791905 64.5141085,21.1497621 C63.9535822,21.5226193 63.6006582,22.081905 63.3722956,22.6826193 M55.7948102,23.9876193 C56.396857,23.1590479 56.6875003,22.1647621 56.7705412,21.1704764 C55.9608921,21.8540479 55.4626465,22.8690479 55.7948102,23.9876193 M60.2582605,19.7411907 C60.652705,19.0783336 60.922588,18.3740479 61.0679096,17.6283336 C60.5904243,18.2290479 60.3413015,18.9747621 60.2582605,19.7411907 M50.4594301,17.296905 C51.3313599,16.4890479 52.6184944,16.5926193 53.6980266,16.3233336 C54.3623541,17.3383336 55.151243,18.7261907 54.2585529,19.8447621 C53.8018278,21.0047621 52.5146933,21.4190479 51.4144009,21.646905 C51.248319,21.2740479 51.0614769,20.921905 50.9161553,20.5490479 C51.601243,20.3211907 52.3901319,20.2590479 52.9506582,19.7826193 C53.4073833,19.2647621 53.3866231,18.5190479 53.5734652,17.876905 C52.846857,17.731905 51.9334067,17.5661907 51.3521202,18.1876193 C50.3348687,19.326905 49.4836991,20.7561907 49.5044594,22.3304764 C49.0062137,23.531905 50.3556289,24.691905 51.4766816,24.2983336 C52.2448102,24.1326193 52.9506582,23.7804764 53.5942254,23.3247621 C54.5907167,22.6204764 54.8398395,21.2947621 55.7948102,20.5490479 C56.4591377,20.1761907 57.2687868,20.5904764 57.995395,20.6111907 C57.9538746,21.646905 57.9331143,22.6826193 57.9331143,23.7183336 C58.8880851,22.951905 58.9296056,21.7711907 59.0126465,20.6526193 C58.5144009,20.4454764 58.0576757,20.2383336 57.6009506,20.0104764 C58.0991962,19.8447621 58.618202,19.6790479 59.1164477,19.5340479 C59.4486114,18.3740479 59.9883775,17.2761907 60.5281436,16.1990479 C62.4173249,16.4890479 61.898319,18.4776193 61.5661553,19.7204764 C62.0228804,19.8861907 62.5003658,20.051905 62.9363307,20.2383336 C61.9398395,20.5490479 60.922588,20.776905 59.9676173,21.211905 C60.0506582,22.0611907 60.1336991,22.8897621 60.2790208,23.7183336 C60.7980266,23.531905 61.3793132,23.4076193 61.8152781,23.0554764 C62.5003658,22.2476193 62.4796056,20.8597621 63.5176173,20.3833336 C64.4103073,19.8861907 65.6351611,20.6940479 65.448319,21.6883336 C65.0746348,22.4754764 64.3480266,23.0347621 63.7875003,23.6976193 C64.4518278,23.4490479 65.3860383,23.4076193 65.8427635,22.7447621 C66.1749272,21.936905 66.4032898,21.0876193 66.6731728,20.2590479 L67.3167401,20.2590479 L67.2752196,21.211905 C67.7942254,20.776905 68.3547518,20.3833336 68.9567985,20.0726193 C69.0190792,20.8390479 69.0813599,21.6054764 69.1644009,22.371905 C69.7249272,22.1440479 70.2854535,21.936905 70.8667401,21.7297621 C70.9082605,22.7654764 70.0570909,23.6147621 69.0605997,23.4904764 C68.5000734,23.3040479 68.1886699,22.806905 67.8149857,22.3926193 C67.5658629,23.2004764 67.2752196,24.0083336 66.9638161,24.7954764 C65.4898395,23.9876193 63.7044594,25.2304764 62.3342839,24.111905 C61.275512,24.5883336 60.1544594,25.0026193 59.0749272,24.2983336 C57.8500734,24.9404764 56.479898,24.3604764 55.1720032,24.5054764 C54.0301904,24.3190479 53.1167401,25.2511907 52.0372079,25.4790479 C50.9576757,25.706905 49.5667401,25.8311907 48.7986114,24.8783336 C48.1758044,24.2776193 47.968202,23.3661907 47.9059213,22.5376193 C47.9889623,20.5283336 48.9854535,18.6226193 50.4594301,17.296905" id="Fill-17" fill="#FEFEFE"></path>
                <path d="M63.3722956,22.6826193 C63.9120617,22.3097621 64.3272664,21.791905 64.5141085,21.1497621 C63.9535822,21.5226193 63.6006582,22.081905 63.3722956,22.6826193 L63.3722956,22.6826193 Z M55.7948102,23.9876193 C56.396857,23.1590479 56.6875003,22.1647621 56.7705412,21.1704764 C55.9608921,21.8540479 55.4626465,22.8690479 55.7948102,23.9876193 L55.7948102,23.9876193 Z M60.2582605,19.7411907 C60.652705,19.0783336 60.922588,18.3740479 61.0679096,17.6283336 C60.5904243,18.2290479 60.3413015,18.9747621 60.2582605,19.7411907 L60.2582605,19.7411907 Z M50.4594301,17.296905 C51.3313599,16.4890479 52.6184944,16.5926193 53.6980266,16.3233336 C54.3623541,17.3383336 55.151243,18.7261907 54.2585529,19.8447621 C53.8018278,21.0047621 52.5146933,21.4190479 51.4144009,21.646905 C51.248319,21.2740479 51.0614769,20.921905 50.9161553,20.5490479 C51.601243,20.3211907 52.3901319,20.2590479 52.9506582,19.7826193 C53.4073833,19.2647621 53.3866231,18.5190479 53.5734652,17.876905 C52.846857,17.731905 51.9334067,17.5661907 51.3521202,18.1876193 C50.3348687,19.326905 49.4836991,20.7561907 49.5044594,22.3304764 C49.0062137,23.531905 50.3556289,24.691905 51.4766816,24.2983336 C52.2448102,24.1326193 52.9506582,23.7804764 53.5942254,23.3247621 C54.5907167,22.6204764 54.8398395,21.2947621 55.7948102,20.5490479 C56.4591377,20.1761907 57.2687868,20.5904764 57.995395,20.6111907 C57.9538746,21.646905 57.9331143,22.6826193 57.9331143,23.7183336 C58.8880851,22.951905 58.9296056,21.7711907 59.0126465,20.6526193 C58.5144009,20.4454764 58.0576757,20.2383336 57.6009506,20.0104764 C58.0991962,19.8447621 58.618202,19.6790479 59.1164477,19.5340479 C59.4486114,18.3740479 59.9883775,17.2761907 60.5281436,16.1990479 C62.4173249,16.4890479 61.898319,18.4776193 61.5661553,19.7204764 C62.0228804,19.8861907 62.5003658,20.051905 62.9363307,20.2383336 C61.9398395,20.5490479 60.922588,20.776905 59.9676173,21.211905 C60.0506582,22.0611907 60.1336991,22.8897621 60.2790208,23.7183336 C60.7980266,23.531905 61.3793132,23.4076193 61.8152781,23.0554764 C62.5003658,22.2476193 62.4796056,20.8597621 63.5176173,20.3833336 C64.4103073,19.8861907 65.6351611,20.6940479 65.448319,21.6883336 C65.0746348,22.4754764 64.3480266,23.0347621 63.7875003,23.6976193 C64.4518278,23.4490479 65.3860383,23.4076193 65.8427635,22.7447621 C66.1749272,21.936905 66.4032898,21.0876193 66.6731728,20.2590479 L67.3167401,20.2590479 L67.2752196,21.211905 C67.7942254,20.776905 68.3547518,20.3833336 68.9567985,20.0726193 C69.0190792,20.8390479 69.0813599,21.6054764 69.1644009,22.371905 C69.7249272,22.1440479 70.2854535,21.936905 70.8667401,21.7297621 C70.9082605,22.7654764 70.0570909,23.6147621 69.0605997,23.4904764 C68.5000734,23.3040479 68.1886699,22.806905 67.8149857,22.3926193 C67.5658629,23.2004764 67.2752196,24.0083336 66.9638161,24.7954764 C65.4898395,23.9876193 63.7044594,25.2304764 62.3342839,24.111905 C61.275512,24.5883336 60.1544594,25.0026193 59.0749272,24.2983336 C57.8500734,24.9404764 56.479898,24.3604764 55.1720032,24.5054764 C54.0301904,24.3190479 53.1167401,25.2511907 52.0372079,25.4790479 C50.9576757,25.706905 49.5667401,25.8311907 48.7986114,24.8783336 C48.1758044,24.2776193 47.968202,23.3661907 47.9059213,22.5376193 C47.9889623,20.5283336 48.9854535,18.6226193 50.4594301,17.296905 L50.4594301,17.296905 Z" id="Stroke-19" stroke="#FEFEFE" stroke-width="0.094"></path>
                <path d="M41.5532898,28.0476193 C42.2176173,27.6333336 42.6535822,26.9290479 42.902705,26.1833336 C42.3214184,26.7011907 41.843933,27.3433336 41.5532898,28.0476193 M34.4532898,22.7861907 C34.5155705,23.2211907 34.743933,23.6354764 34.9100149,24.0497621 C35.5951026,23.2004764 35.9272664,22.1026193 35.3875003,21.1083336 C34.9722956,21.5847621 34.47405,22.1026193 34.4532898,22.7861907 M26.398319,23.9876193 C27.1456874,23.2211907 27.3117693,22.1647621 27.4986114,21.1911907 C26.6889623,21.8747621 26.0661553,22.8690479 26.398319,23.9876193 M26.3775588,20.6111907 C27.0626465,20.0311907 27.9553365,20.5490479 28.702705,20.6940479 C28.6611845,21.7090479 28.6404243,22.7447621 28.6611845,23.7804764 C29.4915939,22.7240479 29.2632313,21.2740479 29.5538746,20.0311907 C31.3807751,20.1140479 30.5503658,21.8747621 30.6334067,22.9933336 C31.0278512,22.0611907 31.4430558,21.1290479 31.8375003,20.196905 C32.2111845,20.2797621 32.5641085,20.3626193 32.9377927,20.4454764 C32.7301904,21.2740479 32.4810675,22.081905 32.3357459,22.9311907 C32.6056289,22.9311907 32.8547518,22.9104764 33.1038746,22.9104764 C33.498319,22.0611907 33.5398395,20.631905 34.6816523,20.3833336 C35.8234652,19.9690479 36.8614769,20.6733336 37.8372079,21.1290479 C37.9202488,20.8390479 38.0032898,20.5697621 38.0863307,20.2797621 C38.3562137,20.2797621 38.6053365,20.2590479 38.8752196,20.2590479 L38.8336991,21.211905 C39.352705,20.776905 39.9132313,20.3626193 40.5360383,20.0726193 C40.6813599,20.8597621 40.7644009,21.646905 40.868202,22.4547621 C41.2626465,21.791905 41.6363307,21.1290479 42.0100149,20.486905 C42.279898,20.4661907 42.5290208,20.4661907 42.7781436,20.4661907 C42.6328219,21.6054764 42.5705412,22.7654764 42.6535822,23.9254764 C43.2348687,22.8483336 43.6085529,21.6883336 43.9199564,20.5076193 C44.2936406,20.5490479 44.6880851,20.5904764 45.0617693,20.6940479 C44.9579681,21.8126193 44.6880851,22.9104764 44.501243,24.0083336 C45.0410091,23.5111907 45.5600149,22.9933336 46.0790208,22.4754764 C46.1620617,22.8897621 46.2658629,23.3040479 46.3489038,23.7390479 C45.5184944,24.5054764 44.3974418,25.0854764 44.1275588,26.2661907 C43.6708336,27.0533336 43.525512,28.1097621 42.7781436,28.6897621 C42.0307751,29.0211907 41.1588453,28.8554764 40.3699564,28.896905 C40.3076757,27.2604764 41.4910091,26.1211907 42.4875003,25.0026193 C41.3872079,24.2361907 40.3907167,23.3040479 39.3319447,22.4547621 C39.0413015,23.3247621 38.729898,24.1947621 38.376974,25.0440479 C37.2766816,24.4847621 37.5258044,23.2211907 37.5258044,22.2061907 C37.2559213,21.9783336 36.9860383,21.7504764 36.7161553,21.5226193 C36.7576757,22.6826193 36.6746348,24.3397621 35.3044594,24.7126193 C34.0173249,24.546905 32.8132313,24.0911907 31.5676173,23.7597621 C31.0278512,24.1326193 30.571126,24.8161907 29.8445178,24.6711907 C28.4535822,24.5676193 27.0418863,24.3604764 25.6717108,24.7333336 C25.4018278,24.5261907 25.152705,24.3190479 24.8828219,24.111905 C24.9243424,22.806905 25.2565061,21.4190479 26.3775588,20.6111907" id="Fill-21" fill="#FEFEFE"></path>
                <path d="M41.5532898,28.0476193 C42.2176173,27.6333336 42.6535822,26.9290479 42.902705,26.1833336 C42.3214184,26.7011907 41.843933,27.3433336 41.5532898,28.0476193 L41.5532898,28.0476193 Z M34.4532898,22.7861907 C34.5155705,23.2211907 34.743933,23.6354764 34.9100149,24.0497621 C35.5951026,23.2004764 35.9272664,22.1026193 35.3875003,21.1083336 C34.9722956,21.5847621 34.47405,22.1026193 34.4532898,22.7861907 L34.4532898,22.7861907 Z M26.398319,23.9876193 C27.1456874,23.2211907 27.3117693,22.1647621 27.4986114,21.1911907 C26.6889623,21.8747621 26.0661553,22.8690479 26.398319,23.9876193 L26.398319,23.9876193 Z M26.3775588,20.6111907 C27.0626465,20.0311907 27.9553365,20.5490479 28.702705,20.6940479 C28.6611845,21.7090479 28.6404243,22.7447621 28.6611845,23.7804764 C29.4915939,22.7240479 29.2632313,21.2740479 29.5538746,20.0311907 C31.3807751,20.1140479 30.5503658,21.8747621 30.6334067,22.9933336 C31.0278512,22.0611907 31.4430558,21.1290479 31.8375003,20.196905 C32.2111845,20.2797621 32.5641085,20.3626193 32.9377927,20.4454764 C32.7301904,21.2740479 32.4810675,22.081905 32.3357459,22.9311907 C32.6056289,22.9311907 32.8547518,22.9104764 33.1038746,22.9104764 C33.498319,22.0611907 33.5398395,20.631905 34.6816523,20.3833336 C35.8234652,19.9690479 36.8614769,20.6733336 37.8372079,21.1290479 C37.9202488,20.8390479 38.0032898,20.5697621 38.0863307,20.2797621 C38.3562137,20.2797621 38.6053365,20.2590479 38.8752196,20.2590479 L38.8336991,21.211905 C39.352705,20.776905 39.9132313,20.3626193 40.5360383,20.0726193 C40.6813599,20.8597621 40.7644009,21.646905 40.868202,22.4547621 C41.2626465,21.791905 41.6363307,21.1290479 42.0100149,20.486905 C42.279898,20.4661907 42.5290208,20.4661907 42.7781436,20.4661907 C42.6328219,21.6054764 42.5705412,22.7654764 42.6535822,23.9254764 C43.2348687,22.8483336 43.6085529,21.6883336 43.9199564,20.5076193 C44.2936406,20.5490479 44.6880851,20.5904764 45.0617693,20.6940479 C44.9579681,21.8126193 44.6880851,22.9104764 44.501243,24.0083336 C45.0410091,23.5111907 45.5600149,22.9933336 46.0790208,22.4754764 C46.1620617,22.8897621 46.2658629,23.3040479 46.3489038,23.7390479 C45.5184944,24.5054764 44.3974418,25.0854764 44.1275588,26.2661907 C43.6708336,27.0533336 43.525512,28.1097621 42.7781436,28.6897621 C42.0307751,29.0211907 41.1588453,28.8554764 40.3699564,28.896905 C40.3076757,27.2604764 41.4910091,26.1211907 42.4875003,25.0026193 C41.3872079,24.2361907 40.3907167,23.3040479 39.3319447,22.4547621 C39.0413015,23.3247621 38.729898,24.1947621 38.376974,25.0440479 C37.2766816,24.4847621 37.5258044,23.2211907 37.5258044,22.2061907 C37.2559213,21.9783336 36.9860383,21.7504764 36.7161553,21.5226193 C36.7576757,22.6826193 36.6746348,24.3397621 35.3044594,24.7126193 C34.0173249,24.546905 32.8132313,24.0911907 31.5676173,23.7597621 C31.0278512,24.1326193 30.571126,24.8161907 29.8445178,24.6711907 C28.4535822,24.5676193 27.0418863,24.3604764 25.6717108,24.7333336 C25.4018278,24.5261907 25.152705,24.3190479 24.8828219,24.111905 C24.9243424,22.806905 25.2565061,21.4190479 26.3775588,20.6111907 L26.3775588,20.6111907 Z" id="Stroke-23" stroke="#FEFEFE" stroke-width="0.094"></path>
            </g>
        </g>
    </g>
</svg>