<?xml version="1.0" encoding="UTF-8" standalone="no"?>
<svg width="64px" height="64px" viewBox="0 0 64 64" version="1.1" xmlns="http://www.w3.org/2000/svg" xmlns:xlink="http://www.w3.org/1999/xlink">
    <!-- Generator: Sketch 39.1 (31720) - http://www.bohemiancoding.com/sketch -->
    <title>soldout_icon</title>
    <desc>Created with Sketch.</desc>
    <defs></defs>
    <g id="UI" stroke="none" stroke-width="1" fill="none" fill-rule="evenodd">
        <g id="tickets" transform="translate(-351.000000, -430.000000)">
            <g id="soldout_icon" transform="translate(351.000000, 430.000000)">
                <polygon id="Rectangle-10" fill="#E51150" points="0 0 64 0 64 64"></polygon>
                <path d="M17.0096889,27.5528368 C17.0096889,27.4524919 16.9923217,27.3585807 16.9575869,27.2711005 C16.9228522,27.1836203 16.8636753,27.1019305 16.7800545,27.0260286 C16.6964337,26.9501266 16.5870851,26.8806581 16.4520054,26.8176209 C16.3169257,26.7545837 16.1490434,26.69605 15.9483536,26.6420182 C15.7039236,26.5751215 15.4704322,26.491502 15.2478722,26.3911571 C15.0253123,26.2908121 14.8291281,26.1698855 14.6593136,26.0283734 C14.4894991,25.8868613 14.3537782,25.7221952 14.2521468,25.53437 C14.1505154,25.3465449 14.0997004,25.1304206 14.0997004,24.8859906 C14.0997004,24.6492795 14.1498721,24.4344417 14.2502171,24.2414706 C14.350562,24.0484996 14.489499,23.8838335 14.6670324,23.7474673 C14.8445657,23.6111011 15.0542577,23.5062551 15.2961148,23.4329261 C15.5379718,23.3595971 15.8004084,23.3229332 16.0834326,23.3229332 C16.3767485,23.3229332 16.6449742,23.3653862 16.8881177,23.4502934 C17.1312612,23.5352007 17.34031,23.6541977 17.5152704,23.807288 C17.6902308,23.9603784 17.8265949,24.1424116 17.9243669,24.3533933 C18.0221389,24.5643749 18.0710242,24.7959367 18.0710242,25.0480855 L17.0135483,25.0480855 C17.0084024,24.9220111 16.9858894,24.8062302 16.9460087,24.7007394 C16.9061281,24.5952486 16.8469512,24.5045535 16.7684763,24.4286516 C16.6900014,24.3527497 16.5922309,24.2935728 16.4751618,24.2511191 C16.3580927,24.2086655 16.2210854,24.187439 16.0641356,24.187439 C15.9200506,24.187439 15.7920484,24.2048062 15.6801252,24.2395409 C15.568202,24.2742757 15.4736476,24.323161 15.3964592,24.3861982 C15.3192708,24.4492354 15.2607371,24.5238497 15.2208564,24.6100435 C15.1809758,24.6962372 15.1610357,24.7895051 15.1610357,24.88985 C15.1610357,24.9953409 15.187408,25.0905385 15.2401534,25.1754457 C15.2928989,25.260353 15.3694429,25.336897 15.4697878,25.4050801 C15.5701327,25.4732632 15.6917027,25.5356562 15.8345012,25.592261 C15.9772998,25.6488659 16.1387498,25.7016105 16.3188561,25.7504965 C16.5761508,25.825112 16.8128583,25.9164502 17.0289859,26.024514 C17.2451134,26.1325777 17.431006,26.2605799 17.5866693,26.4085244 C17.7423326,26.5564688 17.8632593,26.7249943 17.949453,26.9141059 C18.0356468,27.1032175 18.078743,27.3135528 18.078743,27.545118 C18.078743,27.7921209 18.0292145,28.0114614 17.930156,28.2031459 C17.8310976,28.3948305 17.6940902,28.5569237 17.5191298,28.6894305 C17.3441694,28.8219372 17.1357638,28.9222806 16.8939068,28.9904637 C16.6520498,29.0586468 16.3883267,29.0927379 16.1027296,29.0927379 C15.9251963,29.0927379 15.7483088,29.0766572 15.5720619,29.0444954 C15.3958151,29.0123335 15.2272896,28.962805 15.0664804,28.8959084 C14.9056712,28.8290118 14.7557993,28.7453923 14.6168602,28.6450473 C14.477921,28.5447024 14.3576376,28.4276351 14.2560062,28.2938418 C14.1543748,28.1600486 14.0746146,28.008247 14.0167233,27.8384325 C13.958832,27.668618 13.9298868,27.4807957 13.9298868,27.2749599 L14.9950815,27.2749599 C15.0002274,27.4447744 15.0298158,27.5901438 15.0838477,27.7110723 C15.1378796,27.8320008 15.2131372,27.9310577 15.3096227,28.0082462 C15.4061082,28.0854346 15.5218891,28.1420385 15.6569688,28.1780598 C15.7920485,28.2140811 15.9406339,28.2320914 16.1027296,28.2320914 C16.2468146,28.2320914 16.3748168,28.2153675 16.48674,28.1819192 C16.5986632,28.1484709 16.6932176,28.1021585 16.770406,28.0429808 C16.8475944,27.983803 16.9067713,27.9124048 16.9479384,27.828784 C16.9891056,27.7451632 17.0096889,27.6531817 17.0096889,27.5528368 L17.0096889,27.5528368 Z M24.3371479,26.6227211 C24.3371479,26.9829337 24.289549,27.3148389 24.19435,27.6184466 C24.099151,27.9220544 23.9615004,28.1832046 23.7813941,28.4019051 C23.6012878,28.6206056 23.3819474,28.7910607 23.1233662,28.9132757 C22.864785,29.0354907 22.5734032,29.0965973 22.2492118,29.0965973 C21.9250205,29.0965973 21.6368548,29.0354907 21.384706,28.9132757 C21.1325572,28.7910607 20.9202922,28.6199623 20.7479048,28.3999754 C20.5755174,28.1799884 20.444299,27.9188382 20.3542459,27.6165169 C20.2641927,27.3141957 20.2191668,26.9829337 20.2191668,26.6227211 L20.2191668,25.8045281 C20.2191668,25.4443155 20.2641927,25.1124104 20.3542459,24.8088026 C20.444299,24.5051949 20.5755174,24.2434014 20.7479048,24.0234145 C20.9202922,23.8034275 21.131914,23.6316859 21.3827763,23.5081844 C21.6336386,23.384683 21.9211611,23.3229332 22.2453524,23.3229332 C22.5721167,23.3229332 22.864785,23.384683 23.1233662,23.5081844 C23.3819474,23.6316859 23.6012878,23.8034275 23.7813941,24.0234145 C23.9615004,24.2434014 24.099151,24.5051949 24.19435,24.8088026 C24.289549,25.1124104 24.3371479,25.4443155 24.3371479,25.8045281 L24.3371479,26.6227211 Z M23.2372185,25.7968093 C23.2372185,25.567817 23.2185649,25.3568385 23.1812572,25.1638675 C23.1439495,24.9708965 23.0854158,24.8049439 23.0056545,24.6660048 C22.9258931,24.5270656 22.82362,24.4183603 22.6988321,24.3398854 C22.5740441,24.2614105 22.4228858,24.2221736 22.2453524,24.2221736 C22.070392,24.2221736 21.9237363,24.2614105 21.8053807,24.3398854 C21.6870252,24.4183603 21.5918275,24.5270656 21.519785,24.6660048 C21.4477425,24.8049439 21.3962843,24.9708965 21.365409,25.1638675 C21.3345336,25.3568385 21.3190962,25.567817 21.3190962,25.7968093 L21.3190962,26.6227211 C21.3190962,26.8491405 21.3345336,27.0588325 21.365409,27.2518035 C21.3962843,27.4447746 21.4477425,27.6120136 21.519785,27.7535257 C21.5918275,27.8950378 21.6870252,28.0056728 21.8053807,28.0854342 C21.9237363,28.1651955 22.0716785,28.2050756 22.2492118,28.2050756 C22.4241722,28.2050756 22.5740441,28.1651955 22.6988321,28.0854342 C22.82362,28.0056728 22.9252499,27.895681 23.0037248,27.7554554 C23.0821996,27.6152298 23.1407333,27.448634 23.1793275,27.2556629 C23.2179217,27.0626919 23.2372185,26.8517134 23.2372185,26.6227211 L23.2372185,25.7968093 Z M27.9016907,28.1433252 L30.5338023,28.1433252 L30.5338023,29.0194092 L26.8133396,29.0194092 L26.8133396,23.4001212 L27.9016907,23.4001212 L27.9016907,28.1433252 Z M33.0408693,29.0194092 L33.0408693,23.4001212 L34.4958635,23.4001212 C34.8689408,23.4001212 35.206635,23.4638007 35.5089563,23.5911616 C35.8112776,23.7185224 36.0698549,23.8960531 36.2846959,24.1237589 C36.499537,24.3514647 36.6654896,24.6235498 36.7825587,24.9400223 C36.8996278,25.2564947 36.9581614,25.6038374 36.9581614,25.9820606 L36.9581614,26.4451887 C36.9581614,26.8234119 36.8996278,27.1701113 36.7825587,27.4852973 C36.6654896,27.8004833 36.5014667,28.0719251 36.290485,28.2996309 C36.0795034,28.5273367 35.8260719,28.7042242 35.530183,28.8302986 C35.2342941,28.956373 34.9075348,29.0194092 34.5498951,29.0194092 L33.0408693,29.0194092 Z M34.1330798,24.2800647 L34.1330798,28.1471846 L34.5498951,28.1471846 C34.7531579,28.1471846 34.9351912,28.108591 35.0960004,28.0314026 C35.2568096,27.9542141 35.3931737,27.8422926 35.5050969,27.6956347 C35.6170201,27.5489767 35.7025693,27.3708028 35.7617471,27.1611076 C35.8209249,26.9514124 35.8505133,26.7127752 35.8505133,26.4451887 L35.8505133,25.9743418 C35.8505133,25.722193 35.8215681,25.4925609 35.7636768,25.2854387 C35.7057855,25.0783164 35.619593,24.9001425 35.5050969,24.7509116 C35.3906008,24.6016807 35.2490908,24.4858998 35.0805628,24.4035655 C34.9120348,24.3212312 34.717137,24.2800647 34.4958635,24.2800647 L34.1330798,24.2800647 Z M49.6332066,26.6227211 C49.6332066,26.9829337 49.5856078,27.3148389 49.4904088,27.6184466 C49.3952098,27.9220544 49.2575592,28.1832046 49.0774529,28.4019051 C48.8973466,28.6206056 48.6780061,28.7910607 48.419425,28.9132757 C48.1608438,29.0354907 47.8694619,29.0965973 47.5452706,29.0965973 C47.2210793,29.0965973 46.9329136,29.0354907 46.6807648,28.9132757 C46.428616,28.7910607 46.216351,28.6199623 46.0439636,28.3999754 C45.8715761,28.1799884 45.7403578,27.9188382 45.6503047,27.6165169 C45.5602515,27.3141957 45.5152256,26.9829337 45.5152256,26.6227211 L45.5152256,25.8045281 C45.5152256,25.4443155 45.5602515,25.1124104 45.6503047,24.8088026 C45.7403578,24.5051949 45.8715761,24.2434014 46.0439636,24.0234145 C46.216351,23.8034275 46.4279727,23.6316859 46.6788351,23.5081844 C46.9296974,23.384683 47.2172199,23.3229332 47.5414112,23.3229332 C47.8681755,23.3229332 48.1608438,23.384683 48.419425,23.5081844 C48.6780061,23.6316859 48.8973466,23.8034275 49.0774529,24.0234145 C49.2575592,24.2434014 49.3952098,24.5051949 49.4904088,24.8088026 C49.5856078,25.1124104 49.6332066,25.4443155 49.6332066,25.8045281 L49.6332066,26.6227211 Z M48.5332773,25.7968093 C48.5332773,25.567817 48.5146237,25.3568385 48.477316,25.1638675 C48.4400083,24.9708965 48.3814746,24.8049439 48.3017132,24.6660048 C48.2219519,24.5270656 48.1196788,24.4183603 47.9948909,24.3398854 C47.8701029,24.2614105 47.7189446,24.2221736 47.5414112,24.2221736 C47.3664508,24.2221736 47.2197951,24.2614105 47.1014395,24.3398854 C46.9830839,24.4183603 46.8878863,24.5270656 46.8158438,24.6660048 C46.7438013,24.8049439 46.6923431,24.9708965 46.6614678,25.1638675 C46.6305924,25.3568385 46.6151549,25.567817 46.6151549,25.7968093 L46.6151549,26.6227211 C46.6151549,26.8491405 46.6305924,27.0588325 46.6614678,27.2518035 C46.6923431,27.4447746 46.7438013,27.6120136 46.8158438,27.7535257 C46.8878863,27.8950378 46.9830839,28.0056728 47.1014395,28.0854342 C47.2197951,28.1651955 47.3677373,28.2050756 47.5452706,28.2050756 C47.720231,28.2050756 47.8701029,28.1651955 47.9948909,28.0854342 C48.1196788,28.0056728 48.2213087,27.895681 48.2997835,27.7554554 C48.3782584,27.6152298 48.4367921,27.448634 48.4753863,27.2556629 C48.5139805,27.0626919 48.5332773,26.8517134 48.5332773,26.6227211 L48.5332773,25.7968093 Z M55.7796889,23.4001212 L55.7835483,27.1244433 C55.7835483,27.4383428 55.7404521,27.7175034 55.6542583,27.9619333 C55.5680646,28.2063633 55.4432786,28.4128392 55.2798964,28.5813672 C55.1165143,28.7498952 54.9171139,28.8778974 54.6816893,28.9653776 C54.4462646,29.0528578 54.1780389,29.0965973 53.8770041,29.0965973 C53.59398,29.0965973 53.3386188,29.0528578 53.110913,28.9653776 C52.8832072,28.8778974 52.6883094,28.7505385 52.5262137,28.5832969 C52.3641181,28.4160554 52.2386888,28.2095795 52.1499221,27.963863 C52.0611554,27.7181466 52.0167728,27.4383428 52.0167728,27.1244433 L52.0206322,23.4001212 L53.1051239,23.4001212 L53.1089833,27.1244433 C53.1115562,27.4872288 53.1778086,27.7612436 53.3077425,27.9464957 C53.4376763,28.1317479 53.6274283,28.2243726 53.8770041,28.2243726 C54.1420177,28.2243726 54.3446342,28.1317479 54.4848598,27.9464957 C54.6250854,27.7612436 54.6964836,27.4872288 54.6990566,27.1244433 L54.702916,23.4001212 L55.7796889,23.4001212 Z M62.4896437,24.2839241 L60.7567726,24.2839241 L60.7567726,29.0194092 L59.6684215,29.0194092 L59.6684215,24.2839241 L57.9587068,24.2839241 L57.9587068,23.4001212 L62.4896437,23.4001212 L62.4896437,24.2839241 Z" id="SOLD-OUT" fill="#FFFFFF" transform="translate(38.209765, 26.209765) rotate(-315.000000) translate(-38.209765, -26.209765) "></path>
            </g>
        </g>
    </g>
</svg>