<?xml version="1.0" encoding="UTF-8" standalone="no"?>
<svg width="180px" height="80px" viewBox="0 0 180 80" version="1.1" xmlns="http://www.w3.org/2000/svg" xmlns:xlink="http://www.w3.org/1999/xlink">
    <!-- Generator: Sketch 39.1 (31720) - http://www.bohemiancoding.com/sketch -->
    <title>realm copy</title>
    <desc>Created with Sketch.</desc>
    <defs></defs>
    <g id="logos" stroke="none" stroke-width="1" fill="none" fill-rule="evenodd">
        <g id="realm-copy" fill="#FFFFFF">
            <g id="starthub_logo_light_bg72-new" transform="translate(35.000000, 24.000000)">
                <g id="#231f20ff">
                    <path d="M4.75633987,0.228016194 C7.22627614,-0.16194332 9.8797451,0.492307692 11.8171781,2.10008097 C11.2484853,2.92663968 10.6772075,3.75190283 10.1046373,4.57587045 C8.84705065,3.62105263 7.28056046,2.97198381 5.68046569,3.10412955 C5.03551634,3.15465587 4.36213235,3.58089069 4.25485621,4.25846154 C4.11914542,4.82331984 4.43451144,5.41797571 4.9515049,5.65894737 C6.37194444,6.35595142 7.99918137,6.45700405 9.42349837,7.14623482 C10.3670114,7.59319838 11.3079395,8.23578947 11.7267042,9.23336032 C12.1545163,10.2814575 12.2113856,11.4850202 11.8947271,12.5706883 C11.4178007,14.1266397 9.9585866,15.2045344 8.41923856,15.5595142 C5.45557353,16.2604049 2.25150654,15.2097166 0.0969362745,13.0992713 C0.762565359,12.2727126 1.43594935,11.451336 2.10545588,10.628664 C3.27903105,11.6391903 4.63613889,12.5784615 6.21426144,12.7520648 C6.95614706,12.8233198 7.83503595,12.7391093 8.33781209,12.1185425 C8.83929575,11.4927935 8.61440359,10.4576518 7.88285784,10.1156275 C6.62527124,9.46785425 5.18027451,9.34995951 3.87874346,8.81748988 C2.75816013,8.38089069 1.54581046,7.75773279 1.08439379,6.56582996 C0.64624183,5.39336032 0.60746732,4.04080972 1.05466667,2.86445344 C1.65567157,1.35902834 3.22991667,0.497489879 4.75633987,0.228016194 L4.75633987,0.228016194 Z" id="Shape"></path>
                    <path d="M13.1587761,0.456032389 C17.1370408,0.456032389 21.1153056,0.44437247 25.0922778,0.461214575 C25.0871078,1.43546559 25.0922778,2.4097166 25.0896928,3.38396761 C23.6653758,3.3865587 22.2410588,3.38396761 20.8180343,3.38526316 C20.8154493,7.4545749 20.8193268,11.5238866 20.8154493,15.5944939 C19.6884036,15.5957895 18.5613578,15.5957895 17.4330196,15.5944939 C17.4304346,11.5238866 17.4343121,7.4545749 17.4317271,3.38526316 C16.0074101,3.38396761 14.5843856,3.3865587 13.1600686,3.38396761 C13.1574837,2.40712551 13.1600686,1.43157895 13.1587761,0.456032389 L13.1587761,0.456032389 Z" id="Shape"></path>
                    <path d="M54.6759363,0.452145749 C58.654201,0.456032389 62.6324657,0.449554656 66.6120229,0.454736842 C66.6107304,1.43157895 66.6120229,2.40712551 66.6107304,3.38396761 C65.1838284,3.3865587 63.7569265,3.38267206 62.3300245,3.38526316 C62.328732,7.4545749 62.331317,11.5251822 62.328732,15.5944939 C61.2042712,15.5957895 60.078518,15.5957895 58.9540572,15.5944939 C58.9514722,11.5251822 58.9540572,7.4545749 58.9527647,3.38526316 C57.5258627,3.38267206 56.0989608,3.3865587 54.6733513,3.38396761 C54.6720588,2.40712551 54.6681814,1.42898785 54.6759363,0.452145749 L54.6759363,0.452145749 Z" id="Shape"></path>
                    <path d="M23.6085065,15.5944939 C25.8483807,10.545749 28.0908399,5.4982996 30.335884,0.453441296 C31.4099379,0.457327935 32.4839918,0.44437247 33.5580458,0.459919028 C35.7849951,5.50995951 38.0390866,10.5470445 40.2737908,15.5944939 C39.0523938,15.5957895 37.8322892,15.597085 36.6108922,15.5931984 C35.0534493,12.091336 33.4985915,8.58558704 31.9398562,5.0837247 C30.3837059,8.58817814 28.828848,12.0926316 27.2688203,15.5944939 C26.0487157,15.5944939 24.8286111,15.597085 23.6085065,15.5944939 L23.6085065,15.5944939 Z" id="Shape"></path>
                    <path d="M41.2379837,0.454736842 C43.2154837,0.454736842 45.1929837,0.448259109 47.1704837,0.457327935 C48.5922157,0.487125506 50.070817,0.597246964 51.3645931,1.2411336 C52.283549,1.68939271 52.959518,2.55481781 53.2399869,3.53165992 C53.6135147,4.88291498 53.6005899,6.35983806 53.154683,7.69165992 C52.7630605,8.8654251 51.7846503,9.77230769 50.6343399,10.1868826 C51.9061438,11.9889879 53.1818252,13.7897976 54.4523366,15.5944939 C53.0667941,15.597085 51.6799592,15.5944939 50.2931242,15.5944939 C49.1673709,13.9867206 48.0661748,12.3608097 46.9287892,10.7621053 C46.1597614,10.7776518 45.3907337,10.7646964 44.6229984,10.7698785 C44.6217059,12.3776518 44.6242908,13.9867206 44.6217059,15.5944939 C43.4946601,15.5957895 42.3663219,15.5957895 41.2379837,15.5944939 C41.2366912,10.5483401 41.2379837,5.50089069 41.2379837,0.454736842 L41.2379837,0.454736842 Z M44.6242908,3.36194332 C44.6320458,4.85700405 44.6049036,6.35206478 44.6372157,7.84712551 C45.9969085,7.77327935 47.3902059,7.98834008 48.7227565,7.6411336 C49.3870931,7.48566802 49.875652,6.90008097 49.9842206,6.23417004 C50.1057141,5.49441296 50.1238088,4.62639676 49.6249101,4.01489879 C49.1660784,3.52906883 48.4539199,3.44744939 47.8257729,3.3891498 C46.7594739,3.3334413 45.6905899,3.37101215 44.6242908,3.36194332 L44.6242908,3.36194332 Z" id="Shape"></path>
                    <path d="M41.0298938,23.0166802 C42.1323824,22.8042105 43.3253448,22.9156275 44.3218497,23.4610526 C45.3480817,24.0297976 46.1675163,25.0053441 46.4596176,26.1544939 C46.711652,27.1442915 46.6651225,28.2208907 46.2825474,29.1718219 C45.9025572,30.0890688 45.1865212,30.8508502 44.3257271,31.331498 C43.3395621,31.8730364 42.1595245,31.9818623 41.0660833,31.7849393 C39.6469363,31.5206478 38.3945196,30.4997571 37.8413366,29.1640486 C37.2028497,27.5562753 37.4716863,25.545587 38.7176405,24.2992713 C39.3341552,23.6476113 40.1497124,23.1889879 41.0298938,23.0166802 L41.0298938,23.0166802 Z M41.6619183,24.2850202 C40.6654134,24.3912551 39.7891095,25.0727126 39.3419101,25.9575709 C38.9916471,26.6519838 38.9347778,27.4746559 39.114433,28.2260729 C39.3587124,29.1873684 40.0941356,30.0178138 41.0247239,30.3585425 C41.8040915,30.6280162 42.6971977,30.5904453 43.4352059,30.2121457 C44.3929363,29.7133603 45.0650278,28.6911741 45.1050948,27.6042105 C45.1748889,26.6688259 44.8155784,25.7127126 44.1240997,25.0765992 C43.4843203,24.4430769 42.5459771,24.1697166 41.6619183,24.2850202 L41.6619183,24.2850202 Z" id="Shape"></path>
                    <path d="M50.9962353,22.985587 C52.3430033,22.7562753 53.790585,23.1034818 54.8698088,23.9520648 C54.6113121,24.3212955 54.3476454,24.6879352 54.0917337,25.0610526 C53.3769902,24.5156275 52.4657892,24.2396761 51.570098,24.2811336 C51.2120801,24.3031579 50.8411373,24.4016194 50.5671307,24.6425911 C50.1289788,25.0584615 50.2414248,25.8953846 50.7894379,26.1648583 C52.0017876,26.7789474 53.5256258,26.7297166 54.5492729,27.7182186 C55.4540114,28.7002429 55.2834036,30.4816194 54.180915,31.2550607 C53.3653578,31.8924696 52.2770866,31.9404049 51.2909216,31.8419433 C50.2207451,31.7097976 49.2203627,31.2071255 48.4203154,30.4906883 C48.726634,30.1201619 49.0316601,29.7483401 49.3418562,29.3817004 C50.0152402,29.9504453 50.8178725,30.4155466 51.7109788,30.4997571 C52.286134,30.5567611 52.9608105,30.5036437 53.3705278,30.0424291 C53.7634428,29.5980567 53.6225621,28.8051822 53.0706716,28.5590283 C51.9371634,27.9708502 50.5244788,28.0356275 49.5137565,27.1883401 C48.7589461,26.5988664 48.6426225,25.5041296 48.8830245,24.6322267 C49.1557386,23.7020243 50.0914967,23.151417 50.9962353,22.985587 L50.9962353,22.985587 Z" id="Shape"></path>
                    <path d="M67.7868905,23.0179757 C68.8622369,22.8080972 70.0203023,22.9104453 71.0025899,23.414413 C72.1102484,23.9987045 72.9891373,25.0532794 73.2592663,26.2905263 C73.5035458,27.3969231 73.3923922,28.6095547 72.8366242,29.6084211 C72.2110621,30.7083401 71.109866,31.5361943 69.8639118,31.777166 C69.017335,31.9365182 68.1255212,31.9119028 67.3022092,31.6476113 C66.283732,31.3224291 65.4100131,30.594332 64.862,29.6809717 C64.271335,28.6691498 64.148549,27.4254251 64.3992908,26.2918219 C64.7573088,24.6607287 66.1596536,23.3366802 67.7868905,23.0179757 L67.7868905,23.0179757 Z M68.418915,24.2863158 C67.6111127,24.377004 66.8743971,24.8446964 66.3948856,25.4950607 C65.2458676,26.9668016 65.7654461,29.3842915 67.4534297,30.2108502 C68.6050327,30.8042105 70.1405033,30.5697166 71.0142222,29.59417 C72.1451454,28.4540891 72.1684101,26.4278543 71.0685065,25.2592713 C70.4235572,24.5078543 69.3934477,24.1489879 68.418915,24.2863158 L68.418915,24.2863158 Z" id="Shape"></path>
                    <path d="M75.6671634,23.1255061 C76.1544297,23.1242105 76.6429886,23.1268016 77.1315474,23.122915 C78.8091912,25.2670445 80.4687402,27.4254251 82.1450915,29.5721457 C82.146384,27.4241296 82.143799,25.2748178 82.146384,23.1268016 C82.6349428,23.1242105 83.1247941,23.1242105 83.6159379,23.1255061 L83.6159379,31.7965992 C83.0873121,31.7978947 82.5599788,31.7965992 82.0326454,31.7991903 C80.3963611,29.6991093 78.7730016,27.5899595 77.1393023,25.4898785 C77.1354248,27.5912551 77.1380098,29.6939271 77.1367173,31.7965992 C76.646866,31.7978947 76.1570147,31.7978947 75.6684559,31.7978947 C75.6645784,28.9075304 75.6658709,26.0158704 75.6671634,23.1255061 L75.6671634,23.1255061 Z" id="Shape"></path>
                    <path d="M28.5406242,23.1268016 C29.6676699,23.1242105 30.7960082,23.1255061 31.9230539,23.1255061 C32.6623546,23.1319838 33.4378448,23.2304453 34.0698693,23.6424291 C34.924201,24.2435628 35.2072549,25.4872874 34.7510082,26.4174899 C34.5455033,26.8398381 34.133201,27.102834 33.7183137,27.2868016 C34.2572794,27.422834 34.7794428,27.7026721 35.0961013,28.174251 C35.7643154,29.1575709 35.4489493,30.6500405 34.4589069,31.3004049 C33.8242974,31.7072065 33.0462222,31.7888259 32.3095065,31.7901215 C31.0532124,31.7875304 29.7969183,31.791417 28.5406242,31.7888259 C28.5393317,28.9010526 28.5393317,26.0132794 28.5406242,23.1268016 L28.5406242,23.1268016 Z M30.0101781,24.4871255 C30.0101781,25.2307692 30.0088856,25.9757085 30.0101781,26.7193522 C30.6447876,26.7180567 31.2793971,26.7271255 31.9140065,26.7154656 C32.3405261,26.6986235 32.8122827,26.6597571 33.1483284,26.3643725 C33.502469,26.0340081 33.5050539,25.4652632 33.3098889,25.0506883 C33.101799,24.6503644 32.6184101,24.5311741 32.2048154,24.5013765 C31.4732696,24.4663968 30.7404314,24.4936032 30.0101781,24.4871255 L30.0101781,24.4871255 Z M30.0101781,28.0744939 C30.0088856,28.8608907 30.0101781,29.648583 30.0101781,30.4362753 C30.8994069,30.4272065 31.7899281,30.4621862 32.6791569,30.414251 C33.0914592,30.3663158 33.5916503,30.2782186 33.8062026,29.8740081 C34.0117075,29.4335223 34.0207549,28.814251 33.6265474,28.4735223 C33.2297549,28.1353846 32.6791569,28.1004049 32.1828431,28.0783806 C31.4577598,28.0654251 30.733969,28.0757895 30.0101781,28.0744939 L30.0101781,28.0744939 Z" id="Shape"></path>
                    <path d="M56.5552075,23.1268016 C58.7924967,23.1242105 61.0284935,23.1255061 63.2657827,23.1255061 C63.2670752,23.5737652 63.2670752,24.0220243 63.2657827,24.4702834 C62.3920637,24.4715789 61.5170523,24.4689879 60.6420408,24.4715789 C60.6394559,26.9097976 60.6433333,29.3493117 60.6407484,31.7888259 C60.153482,31.7901215 59.6675082,31.7901215 59.1802418,31.7888259 C59.1776569,29.3493117 59.1815343,26.9097976 59.1789493,24.4702834 C58.3039379,24.4689879 57.4289265,24.4715789 56.5552075,24.4689879 C56.5526225,24.0220243 56.5526225,23.5737652 56.5552075,23.1268016 L56.5552075,23.1268016 Z" id="Shape"></path>
                </g>
                <g id="#008482ff" transform="translate(69.018627, 0.388664)">
                    <path d="M30.8826046,0.0660728745 C32.866567,0.0647773279 34.8505294,0.0608906883 36.8344918,0.0673684211 C38.16575,0.0803238866 39.5758497,0.275951417 40.6873856,1.06753036 C42.2525833,2.29182186 42.6325735,4.89975709 41.2935605,6.4194332 C40.8980605,6.82105263 40.418549,7.13587045 39.8938007,7.33668016 C41.0609134,7.59060729 42.1698644,8.32906883 42.6467908,9.45878543 C43.3150049,11.1080162 42.8096438,13.1899595 41.3581846,14.2574899 C40.3125654,15.0024291 38.9851846,15.1773279 37.7340605,15.2019433 C35.4502418,15.2110121 33.1664232,15.2045344 30.8826046,15.20583 C30.8813121,10.1596761 30.8826046,5.11222672 30.8826046,0.0660728745 L30.8826046,0.0660728745 Z M34.2598644,2.93182186 C34.2585719,4.01878543 34.2572794,5.10704453 34.2598644,6.1940081 C35.3882026,6.16809717 36.5423905,6.28469636 37.6474641,5.99449393 C38.0998333,5.8934413 38.4901634,5.53846154 38.5651275,5.06817814 C38.7176405,4.37506073 38.5780523,3.41117409 37.7960997,3.17279352 C36.6548366,2.80744939 35.4360245,2.97068826 34.2598644,2.93182186 L34.2598644,2.93182186 Z M34.2598644,8.8654251 C34.2572794,10.0236437 34.2585719,11.1818623 34.2598644,12.340081 C35.3830327,12.3193522 36.5126634,12.3906073 37.6332467,12.2804858 C38.1993546,12.1949798 38.8598137,12.0809717 39.2074918,11.5718219 C39.5215654,11.0510121 39.5293203,10.3682591 39.3134755,9.80987854 C39.0989232,9.28906883 38.5198905,9.0934413 38.010652,9.00145749 C36.7724526,8.78380567 35.5096961,8.89392713 34.2598644,8.8654251 L34.2598644,8.8654251 Z" id="Shape"></path>
                    <path d="M0.0814264706,0.0647773279 C1.20717974,0.0647773279 2.33164052,0.0634817814 3.45739379,0.0660728745 C3.45739379,2.17263158 3.45610131,4.28048583 3.45868627,6.38704453 C5.45557353,6.38963563 7.45246078,6.38834008 9.45064052,6.38834008 C9.45193301,4.28048583 9.45064052,2.17263158 9.45064052,0.0647773279 C10.5789788,0.0634817814 11.707317,0.0634817814 12.8356552,0.0647773279 C12.8356552,5.11222672 12.8369477,10.1583806 12.8356552,15.20583 C11.707317,15.2071255 10.5789788,15.2071255 9.45193301,15.20583 C9.44934804,13.2223482 9.45322549,11.2388664 9.44934804,9.25538462 C7.45246078,9.25538462 5.45428105,9.25279352 3.45739379,9.25668016 C3.45610131,11.2401619 3.45997876,13.2236437 3.45480882,15.2071255 C2.33034804,15.2045344 1.20588725,15.2071255 0.0814264706,15.20583 C0.0801339869,10.1583806 0.0801339869,5.11222672 0.0814264706,0.0647773279 L0.0814264706,0.0647773279 Z" id="Shape"></path>
                    <path d="M15.5343611,0.0660728745 C16.6588219,0.0634817814 17.7845752,0.0647773279 18.9103284,0.0647773279 C18.9142059,2.89554656 18.9051585,5.72502024 18.9142059,8.55578947 C18.9258382,9.57797571 19.1714101,10.6532794 19.8719363,11.4293117 C20.9873497,12.7067206 23.2815082,12.64583 24.2896454,11.2647773 C24.9165,10.4602429 25.1013252,9.40696356 25.1039101,8.41068826 C25.1103725,5.62785425 25.1013252,2.84631579 25.1090801,0.0634817814 C26.2335408,0.0660728745 27.3580016,0.0634817814 28.4824624,0.0647773279 C28.4798775,2.97846154 28.4889248,5.8908502 28.478585,8.80323887 C28.4501503,10.2516599 28.1218595,11.7506073 27.2455556,12.9308502 C26.223201,14.3183806 24.5701144,15.1708502 22.8666209,15.317247 C20.9563301,15.52583 18.8974036,15.0516599 17.4782565,13.6965182 C16.1159788,12.4774089 15.5563333,10.6014575 15.5369461,8.81748988 C15.5304837,5.89991903 15.5356536,2.98234818 15.5343611,0.0660728745 L15.5343611,0.0660728745 Z" id="Shape"></path>
                </g>
            </g>
        </g>
    </g>
</svg>