<?xml version="1.0" encoding="UTF-8" standalone="no"?>
<svg width="180px" height="80px" viewBox="0 0 180 80" version="1.1" xmlns="http://www.w3.org/2000/svg" xmlns:xlink="http://www.w3.org/1999/xlink">
    <!-- Generator: Sketch 39.1 (31720) - http://www.bohemiancoding.com/sketch -->
    <title>vistaprint</title>
    <desc>Created with Sketch.</desc>
    <defs></defs>
    <g id="logos" stroke="none" stroke-width="1" fill="none" fill-rule="evenodd">
        <g id="vistaprint">
            <g id="vistaprint-site-blue-209-42-2014-2x_360" transform="translate(32.000000, 28.000000)">
                <g id="Group">
                    <polygon id="Path-2" fill="#FFFFFF" points="0.0241485652 1.03512715 13.3202206 24.0809486 26.9004024 0.986939964 15.1977999 0.972723248 13.4659793 3.79997924 11.8414576 0.945636661"></polygon>
                    <g id="#6dcff5ff" transform="translate(0.000000, 1.000000)" fill="#DDDDDD" opacity="0.630247201">
                        <path d="M0,0 L11.8283609,0 C12.3941519,0.853333333 12.8800666,1.75666667 13.326043,2.67333333 C13.3526685,2.72666667 13.4059194,2.83333333 13.4325449,2.88333333 C11.3457744,6.17 9.62510401,9.68333333 7.44181624,12.9066667 C4.95233567,8.64666667 2.49613693,4.36666667 0,0.113333333 L0,0 L0,0 Z" id="Shape"></path>
                    </g>
                    <g id="#006095ff" transform="translate(7.322002, 1.000000)" fill="#FFFFFF">
                        <path d="M7.8570753,0 L19.5564008,0 C15.203138,7.40333333 10.9131107,14.8466667 6.60977059,22.2766667 C6.41340782,22.5133333 6.31356234,22.9233333 5.95744681,22.9533333 C4.00047545,19.62 2.07012956,16.27 0.133127303,12.9233333 C4.04374183,12.8366667 7.96101272,12.99 11.8716272,12.8433333 C10.326532,10.1647847 8.75333062,7.50355904 7.21475466,4.82300612 C6.84438606,4.17773889 6.47602389,3.53135171 6.11054321,2.88333333 C6.69297529,2.01666678 7.32123791,0.896666667 7.8570753,0 L7.64483537,0 L7.8570753,0 Z" id="Shape"></path>
                    </g>
                    <g id="#2ba8dfff" transform="translate(7.322002, 3.666667)" fill="#D9D9D9" opacity="0.897038246">
                        <path d="M11.8716272,10.1766667 C7.96101272,10.3233333 4.04374183,10.17 0.133127303,10.2566667 C2.30310234,7.01666667 4.02377273,3.50333333 6.11054321,0.216666667 C7.99429454,3.55666667 9.95459408,6.85333333 11.8716272,10.1766667 Z" id="Shape"></path>
                    </g>
                    <g id="#38454fff" transform="translate(28.622370, 5.000000)" fill="#FFFFFF">
                        <path d="M11.8183763,0.62 C12.0247236,0.52 12.4374183,0.323333333 12.6437656,0.223333333 C12.8467847,0.296666667 13.2561512,0.45 13.4591703,0.523333333 C13.5523594,0.73 13.7320813,1.14333333 13.8219422,1.34666667 C13.7121122,1.56333333 13.4924522,1.99333333 13.3826221,2.21 C12.8667538,2.30666667 12.3508855,2.25666667 11.84833,2.10666667 C11.7784381,1.61333333 11.7617972,1.11666667 11.8183763,0.62 L11.8183763,0.62 Z" id="Shape"></path>
                        <path d="M65.1425175,0.633333333 C65.5119458,0.49 65.8847022,0.343333333 66.2574587,0.193333333 C67.0861762,0.483333333 67.2925235,1.34 66.9763461,2.09333333 C66.4871033,2.21 65.9512659,2.42666667 65.4720076,2.17 C64.9195293,1.81666667 65.1391893,1.17 65.1425175,0.633333333 L65.1425175,0.633333333 Z" id="Shape"></path>
                        <path d="M26.3625342,0.46 C26.9416379,0.456666667 27.5207417,0.453333333 28.1031737,0.453333333 C28.1031737,1.36666667 28.1031737,2.27666667 28.0998455,3.19 C29.0983002,3.19333333 30.1000832,3.19333333 31.1018662,3.19333333 C31.0952098,3.71666667 31.0918816,4.23666667 31.0852252,4.75666667 C30.0900987,4.75666667 29.0949721,4.76 28.0998455,4.76 C28.10983,6.61666667 28.0898609,8.47 28.1031737,10.3266667 C28.0532509,10.8666667 28.2828955,11.3466667 28.5391656,11.8066667 C29.3878521,12.06 30.2664923,11.95 31.1051943,11.71 C31.1085225,12.2666667 31.1118507,12.8233333 31.1118507,13.38 C29.9569714,13.5166667 28.7322002,13.77 27.6106026,13.3533333 C26.7918697,13.0366667 26.4024724,12.1333333 26.3924878,11.3033333 C26.3259242,9.13333333 26.3791751,6.96 26.3691905,4.79 C25.6236776,4.76666667 24.8781647,4.75666667 24.1326518,4.76333333 C24.1259955,4.23666667 24.1193391,3.71333333 24.1126828,3.19 C24.864852,3.19333333 25.6170213,3.18666667 26.3691905,3.17 C26.3658624,2.26666667 26.3625342,1.36333333 26.3625342,0.46 L26.3625342,0.46 Z" id="Shape"></path>
                        <path d="M81.9498395,3.17 C81.9465114,2.26333333 81.9465114,1.35666667 81.9531677,0.45 C82.5289433,0.453333333 83.1080471,0.453333333 83.6871508,0.456666667 C83.6838227,1.36666667 83.6838227,2.28 83.6838227,3.19 C84.6623083,3.19 85.640794,3.19333333 86.6226079,3.2 C86.6159515,3.71666667 86.6159515,4.23666667 86.6126233,4.75333333 C85.6341376,4.76 84.6589801,4.76 83.6838227,4.76 C83.690479,6.61333333 83.6804945,8.46666667 83.6838227,10.3233333 C83.617259,10.8666667 83.8435754,11.3533333 84.1198146,11.8033333 C84.9751575,12.0566667 85.8504695,11.9366667 86.7024843,11.7233333 C86.6858433,12.2766667 86.6692024,12.8266667 86.6558897,13.38 C85.0983002,13.62 82.6753833,14.0333333 82.0796387,12.0666667 C81.7834304,9.66333333 82.0197314,7.21333333 81.9564959,4.79333333 C81.2076548,4.76333333 80.4621419,4.75666667 79.716629,4.76 C79.7066445,4.23666667 79.6999881,3.71333333 79.6966599,3.19 C80.4488292,3.19333333 81.1976703,3.18666667 81.9498395,3.17 L81.9498395,3.17 Z" id="Shape"></path>
                        <path d="M18.3349578,3.12666667 C19.9957209,2.7 22.2588851,3.15666667 22.9478189,4.91666667 C22.5018424,5.20333333 22.0591941,5.5 21.619874,5.8 C20.7512184,4.68 19.2901462,4.3 18.0054677,4.91666667 C17.6626649,5.32333333 17.336503,5.77666667 17.5328658,6.34333333 C18.8807797,7.70333333 21.1772257,7.07333333 22.5284678,8.46 C24.0161655,9.80666667 23.333888,12.5633333 21.4634494,13.19 C19.3899917,13.9433333 16.4645192,13.8066667 15.2630453,11.6666667 C15.7090218,11.32 16.1683109,10.99 16.6375847,10.6733333 C17.7292286,12.1633333 20.6014501,12.66 21.4434803,10.71 C21.5632949,9.36333333 19.9923927,9.06 18.9872816,8.86666667 C17.6393676,8.65333333 15.7423036,8.01333333 15.7489599,6.35666667 C15.4261262,4.74333333 16.8339475,3.36 18.3349578,3.12666667 L18.3349578,3.12666667 Z" id="Shape"></path>
                        <path d="M34.4067515,3.83333333 C36.4702247,2.45 39.465589,2.75666667 41.1363366,4.63 C41.1396648,4.15333333 41.1463212,3.67333333 41.1563057,3.19666667 C41.7121122,3.19333333 42.2679187,3.19 42.8237252,3.18666667 C42.8337097,6.59333333 42.8836325,10.0033333 42.7970997,13.4133333 C42.2512778,13.4066667 41.708784,13.4033333 41.1662903,13.4 C41.1463212,12.8133333 41.1363366,12.23 41.1296803,11.6466667 C39.4622608,14.2266667 35.2654226,14.2033333 33.4016403,11.86 C31.3514799,9.56 31.7908,5.52 34.4067515,3.83333333 L34.4067515,3.83333333 Z M36.1107809,4.9 C33.7311304,5.85333333 33.3350767,9.41666667 35.1522644,11.09 C36.5234756,12.3366667 38.9497207,12.3133333 40.1678355,10.8566667 C41.5723285,9.37 41.3859503,6.74 39.8583145,5.40333333 C38.8232497,4.56666667 37.3322239,4.35333333 36.1107809,4.9 L36.1107809,4.9 Z" id="Shape"></path>
                        <path d="M71.3462499,4.65333333 C72.9870439,2.11666667 77.7995959,2.44333333 78.3786996,5.67333333 C78.7348152,8.22666667 78.5950315,10.8433333 78.4752169,13.4133333 C77.9094259,13.4066667 77.346963,13.4033333 76.7845002,13.3966667 C76.7478902,11.2766667 76.7878284,9.15333333 76.7678593,7.03 C76.7944847,6.05 76.251991,4.94333333 75.2368953,4.7 C73.6626649,4.20666667 71.8388209,5.31333333 71.585879,6.96333333 C71.2264353,9.08666667 71.5592535,11.2633333 71.3961726,13.41 C70.8337097,13.4066667 70.2712469,13.4066667 69.7121122,13.4066667 C69.6122667,10.0033333 69.7420659,6.59333333 69.635564,3.19 C70.1946987,3.19333333 70.7505052,3.2 71.312968,3.20333333 C71.3229526,3.68666667 71.3362653,4.17 71.3462499,4.65333333 L71.3462499,4.65333333 Z" id="Shape"></path>
                        <path d="M57.4710567,3.21333333 C58.0268632,3.2 58.5826697,3.19 59.1418044,3.17666667 C59.1584453,3.67 59.1750862,4.16 59.1950553,4.65 C60.1901819,3.37666667 61.7777249,2.81666667 63.3619399,3.10666667 C63.3319862,3.67333333 63.3053608,4.23666667 63.2754071,4.80333333 C62.5565197,4.8 61.8209913,4.72 61.1154166,4.9 C60.0770237,5.38333333 59.4246999,6.51 59.4180435,7.64333333 C59.3681208,9.56 59.4413408,11.48 59.3847617,13.4 C58.8222988,13.4033333 58.259836,13.4066667 57.7007013,13.4133333 C57.5442767,10.0133333 57.8338286,6.60333333 57.4710567,3.21333333 L57.4710567,3.21333333 Z" id="Shape"></path>
                        <path d="M0.0133127303,3.18333333 C0.668964697,3.18666667 1.32794485,3.20333333 1.986925,3.23666667 C2.94544158,5.31666667 3.88066088,7.43 5.01889932,9.41 C6.02733864,7.35666667 7.08237252,5.32 7.99096636,3.22333333 C8.64994651,3.19666667 9.30892666,3.19 9.96790681,3.19 C8.44359919,6.74 6.65303697,10.18 4.9856175,13.6666667 C3.33816712,10.1666667 1.50766671,6.74666667 0.0133127303,3.18333333 L0.0133127303,3.18333333 Z" id="Shape"></path>
                        <path d="M11.8616427,3.19 L13.5556876,3.19 C13.5590158,6.59666667 13.5922976,10 13.5357185,13.4033333 L11.8716272,13.4033333 C11.8383454,10 11.8549863,6.59666667 11.8616427,3.19 L11.8616427,3.19 Z" id="Shape"></path>
                        <path d="M45.2033757,3.19333333 C45.8024486,3.19333333 46.4015215,3.19666667 47.0039225,3.2 C47.0072507,3.67333333 47.0072507,4.14666667 47.0072507,4.62 C49.0141448,2.31 53.137763,2.53666667 54.9316534,5 C56.5125401,7.09 56.2795673,10.3333333 54.4124569,12.1766667 C52.4588137,14.2066667 48.6746702,14.0766667 47.0172352,11.7333333 C47.0039225,13.5466667 47.0039225,15.3633333 47.013907,17.1766667 C46.4015215,17.1866667 45.792464,17.1866667 45.1867348,17.1666667 C45.2166885,12.51 45.1834066,7.85 45.2033757,3.19333333 L45.2033757,3.19333333 Z M49.0807084,4.90666667 C46.1785332,6.03 46.3582551,10.9733333 49.3869012,11.8166667 C51.6400808,12.65 54.2693451,10.73 54.0663259,8.31333333 C54.3059551,5.76 51.3671699,3.75 49.0807084,4.90666667 L49.0807084,4.90666667 Z" id="Shape"></path>
                        <path d="M65.3222394,3.18666667 C65.8680613,3.19333333 66.4172115,3.2 66.9663616,3.20666667 C66.9630334,6.49666667 66.9896589,9.79 66.956377,13.08 C66.6202306,13.6533333 65.8747177,13.3266667 65.3422085,13.4133333 C65.0826102,12.06 65.315583,10.68 65.1791275,9.31333333 C65.4021158,7.27333333 64.9960775,5.22333333 65.3222394,3.18666667 L65.3222394,3.18666667 Z" id="Shape"></path>
                    </g>
                </g>
            </g>
        </g>
    </g>
</svg>